G04 #@! TF.GenerationSoftware,KiCad,Pcbnew,8.0.9-8.0.9-0~ubuntu24.04.1*
G04 #@! TF.CreationDate,2026-02-17T03:28:48+00:00*
G04 #@! TF.ProjectId,AE101Corolla,41453130-3143-46f7-926f-6c6c612e6b69,rev?*
G04 #@! TF.SameCoordinates,Original*
G04 #@! TF.FileFunction,Soldermask,Top*
G04 #@! TF.FilePolarity,Negative*
%FSLAX46Y46*%
G04 Gerber Fmt 4.6, Leading zero omitted, Abs format (unit mm)*
G04 Created by KiCad (PCBNEW 8.0.9-8.0.9-0~ubuntu24.04.1) date 2026-02-17 03:28:48*
%MOMM*%
%LPD*%
G01*
G04 APERTURE LIST*
%ADD10C,0.600000*%
%ADD11C,0.650000*%
%ADD12O,1.000000X2.100000*%
%ADD13O,1.000000X1.800000*%
%ADD14C,0.800000*%
%ADD15C,6.400000*%
%ADD16C,3.300000*%
%ADD17C,2.154000*%
%ADD18O,0.499999X0.250000*%
%ADD19O,0.250000X0.499999*%
%ADD20C,0.599999*%
%ADD21C,3.000000*%
%ADD22O,3.700000X2.700000*%
%ADD23C,1.650000*%
%ADD24C,5.250000*%
%ADD25C,1.500000*%
G04 APERTURE END LIST*
D10*
G04 #@! TO.C,M5*
X47150000Y72650000D03*
X46200000Y72650000D03*
X45250002Y72650000D03*
X46250000Y81350000D03*
X47150000Y81350000D03*
G04 #@! TD*
G04 #@! TO.C,D7*
G36*
G01*
X10375000Y26900000D02*
X9625000Y26900000D01*
G75*
G02*
X9400000Y27125000I0J225000D01*
G01*
X9400000Y27575000D01*
G75*
G02*
X9625000Y27800000I225000J0D01*
G01*
X10375000Y27800000D01*
G75*
G02*
X10600000Y27575000I0J-225000D01*
G01*
X10600000Y27125000D01*
G75*
G02*
X10375000Y26900000I-225000J0D01*
G01*
G37*
G36*
G01*
X10375000Y30200000D02*
X9625000Y30200000D01*
G75*
G02*
X9400000Y30425000I0J225000D01*
G01*
X9400000Y30875000D01*
G75*
G02*
X9625000Y31100000I225000J0D01*
G01*
X10375000Y31100000D01*
G75*
G02*
X10600000Y30875000I0J-225000D01*
G01*
X10600000Y30425000D01*
G75*
G02*
X10375000Y30200000I-225000J0D01*
G01*
G37*
G04 #@! TD*
D11*
G04 #@! TO.C,J3*
X31110000Y6355000D03*
X36890000Y6355000D03*
G36*
G01*
X30500000Y7005000D02*
X30500000Y7855000D01*
G75*
G02*
X30650000Y8005000I150000J0D01*
G01*
X30950000Y8005000D01*
G75*
G02*
X31100000Y7855000I0J-150000D01*
G01*
X31100000Y7005000D01*
G75*
G02*
X30950000Y6855000I-150000J0D01*
G01*
X30650000Y6855000D01*
G75*
G02*
X30500000Y7005000I0J150000D01*
G01*
G37*
G36*
G01*
X31300000Y7005000D02*
X31300000Y7855000D01*
G75*
G02*
X31450000Y8005000I150000J0D01*
G01*
X31750000Y8005000D01*
G75*
G02*
X31900000Y7855000I0J-150000D01*
G01*
X31900000Y7005000D01*
G75*
G02*
X31750000Y6855000I-150000J0D01*
G01*
X31450000Y6855000D01*
G75*
G02*
X31300000Y7005000I0J150000D01*
G01*
G37*
G36*
G01*
X32600000Y6930000D02*
X32600000Y7930000D01*
G75*
G02*
X32675000Y8005000I75000J0D01*
G01*
X32825000Y8005000D01*
G75*
G02*
X32900000Y7930000I0J-75000D01*
G01*
X32900000Y6930000D01*
G75*
G02*
X32825000Y6855000I-75000J0D01*
G01*
X32675000Y6855000D01*
G75*
G02*
X32600000Y6930000I0J75000D01*
G01*
G37*
G36*
G01*
X33600000Y6930000D02*
X33600000Y7930000D01*
G75*
G02*
X33675000Y8005000I75000J0D01*
G01*
X33825000Y8005000D01*
G75*
G02*
X33900000Y7930000I0J-75000D01*
G01*
X33900000Y6930000D01*
G75*
G02*
X33825000Y6855000I-75000J0D01*
G01*
X33675000Y6855000D01*
G75*
G02*
X33600000Y6930000I0J75000D01*
G01*
G37*
G36*
G01*
X34100000Y6930000D02*
X34100000Y7930000D01*
G75*
G02*
X34175000Y8005000I75000J0D01*
G01*
X34325000Y8005000D01*
G75*
G02*
X34400000Y7930000I0J-75000D01*
G01*
X34400000Y6930000D01*
G75*
G02*
X34325000Y6855000I-75000J0D01*
G01*
X34175000Y6855000D01*
G75*
G02*
X34100000Y6930000I0J75000D01*
G01*
G37*
G36*
G01*
X35100000Y6930000D02*
X35100000Y7930000D01*
G75*
G02*
X35175000Y8005000I75000J0D01*
G01*
X35325000Y8005000D01*
G75*
G02*
X35400000Y7930000I0J-75000D01*
G01*
X35400000Y6930000D01*
G75*
G02*
X35325000Y6855000I-75000J0D01*
G01*
X35175000Y6855000D01*
G75*
G02*
X35100000Y6930000I0J75000D01*
G01*
G37*
G36*
G01*
X36100000Y7005000D02*
X36100000Y7855000D01*
G75*
G02*
X36250000Y8005000I150000J0D01*
G01*
X36550000Y8005000D01*
G75*
G02*
X36700000Y7855000I0J-150000D01*
G01*
X36700000Y7005000D01*
G75*
G02*
X36550000Y6855000I-150000J0D01*
G01*
X36250000Y6855000D01*
G75*
G02*
X36100000Y7005000I0J150000D01*
G01*
G37*
G36*
G01*
X36900000Y7005000D02*
X36900000Y7855000D01*
G75*
G02*
X37050000Y8005000I150000J0D01*
G01*
X37350000Y8005000D01*
G75*
G02*
X37500000Y7855000I0J-150000D01*
G01*
X37500000Y7005000D01*
G75*
G02*
X37350000Y6855000I-150000J0D01*
G01*
X37050000Y6855000D01*
G75*
G02*
X36900000Y7005000I0J150000D01*
G01*
G37*
G36*
G01*
X36900000Y7005000D02*
X36900000Y7855000D01*
G75*
G02*
X37050000Y8005000I150000J0D01*
G01*
X37350000Y8005000D01*
G75*
G02*
X37500000Y7855000I0J-150000D01*
G01*
X37500000Y7005000D01*
G75*
G02*
X37350000Y6855000I-150000J0D01*
G01*
X37050000Y6855000D01*
G75*
G02*
X36900000Y7005000I0J150000D01*
G01*
G37*
G36*
G01*
X36100000Y7005000D02*
X36100000Y7855000D01*
G75*
G02*
X36250000Y8005000I150000J0D01*
G01*
X36550000Y8005000D01*
G75*
G02*
X36700000Y7855000I0J-150000D01*
G01*
X36700000Y7005000D01*
G75*
G02*
X36550000Y6855000I-150000J0D01*
G01*
X36250000Y6855000D01*
G75*
G02*
X36100000Y7005000I0J150000D01*
G01*
G37*
G36*
G01*
X35600000Y6930000D02*
X35600000Y7930000D01*
G75*
G02*
X35675000Y8005000I75000J0D01*
G01*
X35825000Y8005000D01*
G75*
G02*
X35900000Y7930000I0J-75000D01*
G01*
X35900000Y6930000D01*
G75*
G02*
X35825000Y6855000I-75000J0D01*
G01*
X35675000Y6855000D01*
G75*
G02*
X35600000Y6930000I0J75000D01*
G01*
G37*
G36*
G01*
X34600000Y6930000D02*
X34600000Y7930000D01*
G75*
G02*
X34675000Y8005000I75000J0D01*
G01*
X34825000Y8005000D01*
G75*
G02*
X34900000Y7930000I0J-75000D01*
G01*
X34900000Y6930000D01*
G75*
G02*
X34825000Y6855000I-75000J0D01*
G01*
X34675000Y6855000D01*
G75*
G02*
X34600000Y6930000I0J75000D01*
G01*
G37*
G36*
G01*
X33100000Y6930000D02*
X33100000Y7930000D01*
G75*
G02*
X33175000Y8005000I75000J0D01*
G01*
X33325000Y8005000D01*
G75*
G02*
X33400000Y7930000I0J-75000D01*
G01*
X33400000Y6930000D01*
G75*
G02*
X33325000Y6855000I-75000J0D01*
G01*
X33175000Y6855000D01*
G75*
G02*
X33100000Y6930000I0J75000D01*
G01*
G37*
G36*
G01*
X32100000Y6930000D02*
X32100000Y7930000D01*
G75*
G02*
X32175000Y8005000I75000J0D01*
G01*
X32325000Y8005000D01*
G75*
G02*
X32400000Y7930000I0J-75000D01*
G01*
X32400000Y6930000D01*
G75*
G02*
X32325000Y6855000I-75000J0D01*
G01*
X32175000Y6855000D01*
G75*
G02*
X32100000Y6930000I0J75000D01*
G01*
G37*
G36*
G01*
X31300000Y7005000D02*
X31300000Y7855000D01*
G75*
G02*
X31450000Y8005000I150000J0D01*
G01*
X31750000Y8005000D01*
G75*
G02*
X31900000Y7855000I0J-150000D01*
G01*
X31900000Y7005000D01*
G75*
G02*
X31750000Y6855000I-150000J0D01*
G01*
X31450000Y6855000D01*
G75*
G02*
X31300000Y7005000I0J150000D01*
G01*
G37*
G36*
G01*
X30500000Y7005000D02*
X30500000Y7855000D01*
G75*
G02*
X30650000Y8005000I150000J0D01*
G01*
X30950000Y8005000D01*
G75*
G02*
X31100000Y7855000I0J-150000D01*
G01*
X31100000Y7005000D01*
G75*
G02*
X30950000Y6855000I-150000J0D01*
G01*
X30650000Y6855000D01*
G75*
G02*
X30500000Y7005000I0J150000D01*
G01*
G37*
D12*
X29680000Y6855000D03*
D13*
X29680000Y2675000D03*
D12*
X38320000Y6855000D03*
D13*
X38320000Y2675000D03*
G04 #@! TD*
G04 #@! TO.C,R4*
G36*
G01*
X24815000Y46290000D02*
X25185000Y46290000D01*
G75*
G02*
X25320000Y46155000I0J-135000D01*
G01*
X25320000Y45885000D01*
G75*
G02*
X25185000Y45750000I-135000J0D01*
G01*
X24815000Y45750000D01*
G75*
G02*
X24680000Y45885000I0J135000D01*
G01*
X24680000Y46155000D01*
G75*
G02*
X24815000Y46290000I135000J0D01*
G01*
G37*
G36*
G01*
X24815000Y45270000D02*
X25185000Y45270000D01*
G75*
G02*
X25320000Y45135000I0J-135000D01*
G01*
X25320000Y44865000D01*
G75*
G02*
X25185000Y44730000I-135000J0D01*
G01*
X24815000Y44730000D01*
G75*
G02*
X24680000Y44865000I0J135000D01*
G01*
X24680000Y45135000D01*
G75*
G02*
X24815000Y45270000I135000J0D01*
G01*
G37*
G04 #@! TD*
G04 #@! TO.C,D8*
G36*
G01*
X15375000Y26900000D02*
X14625000Y26900000D01*
G75*
G02*
X14400000Y27125000I0J225000D01*
G01*
X14400000Y27575000D01*
G75*
G02*
X14625000Y27800000I225000J0D01*
G01*
X15375000Y27800000D01*
G75*
G02*
X15600000Y27575000I0J-225000D01*
G01*
X15600000Y27125000D01*
G75*
G02*
X15375000Y26900000I-225000J0D01*
G01*
G37*
G36*
G01*
X15375000Y30200000D02*
X14625000Y30200000D01*
G75*
G02*
X14400000Y30425000I0J225000D01*
G01*
X14400000Y30875000D01*
G75*
G02*
X14625000Y31100000I225000J0D01*
G01*
X15375000Y31100000D01*
G75*
G02*
X15600000Y30875000I0J-225000D01*
G01*
X15600000Y30425000D01*
G75*
G02*
X15375000Y30200000I-225000J0D01*
G01*
G37*
G04 #@! TD*
G04 #@! TO.C,C2*
G36*
G01*
X87170000Y20740000D02*
X86830000Y20740000D01*
G75*
G02*
X86690000Y20880000I0J140000D01*
G01*
X86690000Y21160000D01*
G75*
G02*
X86830000Y21300000I140000J0D01*
G01*
X87170000Y21300000D01*
G75*
G02*
X87310000Y21160000I0J-140000D01*
G01*
X87310000Y20880000D01*
G75*
G02*
X87170000Y20740000I-140000J0D01*
G01*
G37*
G36*
G01*
X87170000Y21700000D02*
X86830000Y21700000D01*
G75*
G02*
X86690000Y21840000I0J140000D01*
G01*
X86690000Y22120000D01*
G75*
G02*
X86830000Y22260000I140000J0D01*
G01*
X87170000Y22260000D01*
G75*
G02*
X87310000Y22120000I0J-140000D01*
G01*
X87310000Y21840000D01*
G75*
G02*
X87170000Y21700000I-140000J0D01*
G01*
G37*
G04 #@! TD*
G04 #@! TO.C,R7*
G36*
G01*
X24065000Y32530000D02*
X24435000Y32530000D01*
G75*
G02*
X24570000Y32395000I0J-135000D01*
G01*
X24570000Y32125000D01*
G75*
G02*
X24435000Y31990000I-135000J0D01*
G01*
X24065000Y31990000D01*
G75*
G02*
X23930000Y32125000I0J135000D01*
G01*
X23930000Y32395000D01*
G75*
G02*
X24065000Y32530000I135000J0D01*
G01*
G37*
G36*
G01*
X24065000Y31510000D02*
X24435000Y31510000D01*
G75*
G02*
X24570000Y31375000I0J-135000D01*
G01*
X24570000Y31105000D01*
G75*
G02*
X24435000Y30970000I-135000J0D01*
G01*
X24065000Y30970000D01*
G75*
G02*
X23930000Y31105000I0J135000D01*
G01*
X23930000Y31375000D01*
G75*
G02*
X24065000Y31510000I135000J0D01*
G01*
G37*
G04 #@! TD*
G04 #@! TO.C,D5*
G36*
G01*
X12875000Y26900000D02*
X12125000Y26900000D01*
G75*
G02*
X11900000Y27125000I0J225000D01*
G01*
X11900000Y27575000D01*
G75*
G02*
X12125000Y27800000I225000J0D01*
G01*
X12875000Y27800000D01*
G75*
G02*
X13100000Y27575000I0J-225000D01*
G01*
X13100000Y27125000D01*
G75*
G02*
X12875000Y26900000I-225000J0D01*
G01*
G37*
G36*
G01*
X12875000Y30200000D02*
X12125000Y30200000D01*
G75*
G02*
X11900000Y30425000I0J225000D01*
G01*
X11900000Y30875000D01*
G75*
G02*
X12125000Y31100000I225000J0D01*
G01*
X12875000Y31100000D01*
G75*
G02*
X13100000Y30875000I0J-225000D01*
G01*
X13100000Y30425000D01*
G75*
G02*
X12875000Y30200000I-225000J0D01*
G01*
G37*
G04 #@! TD*
D10*
G04 #@! TO.C,M2*
X76375000Y66925000D03*
X75175000Y66925000D03*
X77575000Y66925000D03*
X78775000Y66925000D03*
X72315000Y81350000D03*
X71315000Y81350000D03*
G04 #@! TD*
D14*
G04 #@! TO.C,REF\u002A\u002A*
X1100000Y78500000D03*
X1802944Y80197056D03*
X1802944Y76802944D03*
X3500000Y80900000D03*
D15*
X3500000Y78500000D03*
D14*
X3500000Y76100000D03*
X5197056Y80197056D03*
X5197056Y76802944D03*
X5900000Y78500000D03*
G04 #@! TD*
G04 #@! TO.C,R9*
G36*
G01*
X25315000Y32530000D02*
X25685000Y32530000D01*
G75*
G02*
X25820000Y32395000I0J-135000D01*
G01*
X25820000Y32125000D01*
G75*
G02*
X25685000Y31990000I-135000J0D01*
G01*
X25315000Y31990000D01*
G75*
G02*
X25180000Y32125000I0J135000D01*
G01*
X25180000Y32395000D01*
G75*
G02*
X25315000Y32530000I135000J0D01*
G01*
G37*
G36*
G01*
X25315000Y31510000D02*
X25685000Y31510000D01*
G75*
G02*
X25820000Y31375000I0J-135000D01*
G01*
X25820000Y31105000D01*
G75*
G02*
X25685000Y30970000I-135000J0D01*
G01*
X25315000Y30970000D01*
G75*
G02*
X25180000Y31105000I0J135000D01*
G01*
X25180000Y31375000D01*
G75*
G02*
X25315000Y31510000I135000J0D01*
G01*
G37*
G04 #@! TD*
G04 #@! TO.C,U4*
G36*
G01*
X81396500Y74438000D02*
X80793500Y74438000D01*
G75*
G02*
X80693000Y74538500I0J100500D01*
G01*
X80693000Y76511500D01*
G75*
G02*
X80793500Y76612000I100500J0D01*
G01*
X81396500Y76612000D01*
G75*
G02*
X81497000Y76511500I0J-100500D01*
G01*
X81497000Y74538500D01*
G75*
G02*
X81396500Y74438000I-100500J0D01*
G01*
G37*
G36*
G01*
X82666500Y74438000D02*
X82063500Y74438000D01*
G75*
G02*
X81963000Y74538500I0J100500D01*
G01*
X81963000Y76511500D01*
G75*
G02*
X82063500Y76612000I100500J0D01*
G01*
X82666500Y76612000D01*
G75*
G02*
X82767000Y76511500I0J-100500D01*
G01*
X82767000Y74538500D01*
G75*
G02*
X82666500Y74438000I-100500J0D01*
G01*
G37*
G36*
G01*
X83936500Y74438000D02*
X83333500Y74438000D01*
G75*
G02*
X83233000Y74538500I0J100500D01*
G01*
X83233000Y76511500D01*
G75*
G02*
X83333500Y76612000I100500J0D01*
G01*
X83936500Y76612000D01*
G75*
G02*
X84037000Y76511500I0J-100500D01*
G01*
X84037000Y74538500D01*
G75*
G02*
X83936500Y74438000I-100500J0D01*
G01*
G37*
G36*
G01*
X85206500Y74438000D02*
X84603500Y74438000D01*
G75*
G02*
X84503000Y74538500I0J100500D01*
G01*
X84503000Y76511500D01*
G75*
G02*
X84603500Y76612000I100500J0D01*
G01*
X85206500Y76612000D01*
G75*
G02*
X85307000Y76511500I0J-100500D01*
G01*
X85307000Y74538500D01*
G75*
G02*
X85206500Y74438000I-100500J0D01*
G01*
G37*
G36*
G01*
X85206500Y79388000D02*
X84603500Y79388000D01*
G75*
G02*
X84503000Y79488500I0J100500D01*
G01*
X84503000Y81461500D01*
G75*
G02*
X84603500Y81562000I100500J0D01*
G01*
X85206500Y81562000D01*
G75*
G02*
X85307000Y81461500I0J-100500D01*
G01*
X85307000Y79488500D01*
G75*
G02*
X85206500Y79388000I-100500J0D01*
G01*
G37*
G36*
G01*
X83936500Y79388000D02*
X83333500Y79388000D01*
G75*
G02*
X83233000Y79488500I0J100500D01*
G01*
X83233000Y81461500D01*
G75*
G02*
X83333500Y81562000I100500J0D01*
G01*
X83936500Y81562000D01*
G75*
G02*
X84037000Y81461500I0J-100500D01*
G01*
X84037000Y79488500D01*
G75*
G02*
X83936500Y79388000I-100500J0D01*
G01*
G37*
G36*
G01*
X82666500Y79388000D02*
X82063500Y79388000D01*
G75*
G02*
X81963000Y79488500I0J100500D01*
G01*
X81963000Y81461500D01*
G75*
G02*
X82063500Y81562000I100500J0D01*
G01*
X82666500Y81562000D01*
G75*
G02*
X82767000Y81461500I0J-100500D01*
G01*
X82767000Y79488500D01*
G75*
G02*
X82666500Y79388000I-100500J0D01*
G01*
G37*
G36*
G01*
X81396500Y79388000D02*
X80793500Y79388000D01*
G75*
G02*
X80693000Y79488500I0J100500D01*
G01*
X80693000Y81461500D01*
G75*
G02*
X80793500Y81562000I100500J0D01*
G01*
X81396500Y81562000D01*
G75*
G02*
X81497000Y81461500I0J-100500D01*
G01*
X81497000Y79488500D01*
G75*
G02*
X81396500Y79388000I-100500J0D01*
G01*
G37*
G04 #@! TD*
G04 #@! TO.C,REF\u002A\u002A*
X1100000Y3500000D03*
X1802944Y5197056D03*
X1802944Y1802944D03*
X3500000Y5900000D03*
D15*
X3500000Y3500000D03*
D14*
X3500000Y1100000D03*
X5197056Y5197056D03*
X5197056Y1802944D03*
X5900000Y3500000D03*
G04 #@! TD*
D16*
G04 #@! TO.C,J2*
X4000000Y70500000D03*
X4000000Y32000000D03*
G36*
G01*
X17525000Y64327000D02*
X19475000Y64327000D01*
G75*
G02*
X19577000Y64225000I0J-102000D01*
G01*
X19577000Y62275000D01*
G75*
G02*
X19475000Y62173000I-102000J0D01*
G01*
X17525000Y62173000D01*
G75*
G02*
X17423000Y62275000I0J102000D01*
G01*
X17423000Y64225000D01*
G75*
G02*
X17525000Y64327000I102000J0D01*
G01*
G37*
D17*
X18500000Y60250000D03*
X18500000Y57250000D03*
X18500000Y54250000D03*
X18500000Y51250000D03*
X18500000Y48250000D03*
X18500000Y45250000D03*
X18500000Y42250000D03*
X18500000Y39250000D03*
X16000000Y61750000D03*
X16000000Y58750000D03*
X16000000Y55750000D03*
X16000000Y52750000D03*
X16000000Y49750000D03*
X16000000Y46750000D03*
X16000000Y43750000D03*
X16000000Y40750000D03*
X13000000Y61750000D03*
X13000000Y58750000D03*
X13000000Y55750000D03*
X13000000Y52750000D03*
X13000000Y49750000D03*
X13000000Y46750000D03*
X13000000Y43750000D03*
X13000000Y40750000D03*
X10500000Y63250000D03*
X10500000Y60250000D03*
X10500000Y57250000D03*
X10500000Y54250000D03*
X10500000Y51250000D03*
X10500000Y48250000D03*
X10500000Y45250000D03*
X10500000Y42250000D03*
X10500000Y39250000D03*
G04 #@! TD*
D18*
G04 #@! TO.C,M6*
X62812506Y13393334D03*
D19*
X73162500Y13343336D03*
X72662499Y13343336D03*
D20*
X66112502Y12293338D03*
X66987504Y11768338D03*
X65812500Y11018340D03*
X65887503Y7468339D03*
G04 #@! TD*
G04 #@! TO.C,R8*
G36*
G01*
X26565000Y32530000D02*
X26935000Y32530000D01*
G75*
G02*
X27070000Y32395000I0J-135000D01*
G01*
X27070000Y32125000D01*
G75*
G02*
X26935000Y31990000I-135000J0D01*
G01*
X26565000Y31990000D01*
G75*
G02*
X26430000Y32125000I0J135000D01*
G01*
X26430000Y32395000D01*
G75*
G02*
X26565000Y32530000I135000J0D01*
G01*
G37*
G36*
G01*
X26565000Y31510000D02*
X26935000Y31510000D01*
G75*
G02*
X27070000Y31375000I0J-135000D01*
G01*
X27070000Y31105000D01*
G75*
G02*
X26935000Y30970000I-135000J0D01*
G01*
X26565000Y30970000D01*
G75*
G02*
X26430000Y31105000I0J135000D01*
G01*
X26430000Y31375000D01*
G75*
G02*
X26565000Y31510000I135000J0D01*
G01*
G37*
G04 #@! TD*
D10*
G04 #@! TO.C,M3*
X65550000Y66862500D03*
X64350000Y66862500D03*
X66750000Y66862500D03*
X67950000Y66862500D03*
X61490000Y81287500D03*
X60490000Y81287500D03*
G04 #@! TD*
D21*
G04 #@! TO.C,J4*
X97775000Y70700000D03*
X97775000Y62300000D03*
G36*
G01*
X88875001Y72050000D02*
X92074999Y72050000D01*
G75*
G02*
X92325000Y71799999I0J-250001D01*
G01*
X92325000Y69600001D01*
G75*
G02*
X92074999Y69350000I-250001J0D01*
G01*
X88875001Y69350000D01*
G75*
G02*
X88625000Y69600001I0J250001D01*
G01*
X88625000Y71799999D01*
G75*
G02*
X88875001Y72050000I250001J0D01*
G01*
G37*
D22*
X90475000Y66500000D03*
X90475000Y62300000D03*
X84975000Y70700000D03*
X84975000Y66500000D03*
X84975000Y62300000D03*
G04 #@! TD*
G04 #@! TO.C,JP1*
G36*
X56250000Y70750000D02*
G01*
X56750000Y71500000D01*
X57750000Y71500000D01*
X57750000Y70000000D01*
X56750000Y70000000D01*
X56250000Y70750000D01*
G37*
G36*
X55300000Y71500000D02*
G01*
X56450000Y71500000D01*
X55950000Y70750000D01*
X56450000Y70000000D01*
X55300000Y70000000D01*
X55300000Y71500000D01*
G37*
G04 #@! TD*
D21*
G04 #@! TO.C,J5*
X98025000Y13000000D03*
G36*
G01*
X89125001Y16450000D02*
X92324999Y16450000D01*
G75*
G02*
X92575000Y16199999I0J-250001D01*
G01*
X92575000Y14000001D01*
G75*
G02*
X92324999Y13750000I-250001J0D01*
G01*
X89125001Y13750000D01*
G75*
G02*
X88875000Y14000001I0J250001D01*
G01*
X88875000Y16199999D01*
G75*
G02*
X89125001Y16450000I250001J0D01*
G01*
G37*
D22*
X90725000Y10900000D03*
X85225000Y15100000D03*
X85225000Y10900000D03*
G04 #@! TD*
G04 #@! TO.C,U7*
G36*
G01*
X86200000Y19745000D02*
X86200000Y19445000D01*
G75*
G02*
X86050000Y19295000I-150000J0D01*
G01*
X84400000Y19295000D01*
G75*
G02*
X84250000Y19445000I0J150000D01*
G01*
X84250000Y19745000D01*
G75*
G02*
X84400000Y19895000I150000J0D01*
G01*
X86050000Y19895000D01*
G75*
G02*
X86200000Y19745000I0J-150000D01*
G01*
G37*
G36*
G01*
X86200000Y21015000D02*
X86200000Y20715000D01*
G75*
G02*
X86050000Y20565000I-150000J0D01*
G01*
X84400000Y20565000D01*
G75*
G02*
X84250000Y20715000I0J150000D01*
G01*
X84250000Y21015000D01*
G75*
G02*
X84400000Y21165000I150000J0D01*
G01*
X86050000Y21165000D01*
G75*
G02*
X86200000Y21015000I0J-150000D01*
G01*
G37*
G36*
G01*
X86200000Y22285000D02*
X86200000Y21985000D01*
G75*
G02*
X86050000Y21835000I-150000J0D01*
G01*
X84400000Y21835000D01*
G75*
G02*
X84250000Y21985000I0J150000D01*
G01*
X84250000Y22285000D01*
G75*
G02*
X84400000Y22435000I150000J0D01*
G01*
X86050000Y22435000D01*
G75*
G02*
X86200000Y22285000I0J-150000D01*
G01*
G37*
G36*
G01*
X86200000Y23555000D02*
X86200000Y23255000D01*
G75*
G02*
X86050000Y23105000I-150000J0D01*
G01*
X84400000Y23105000D01*
G75*
G02*
X84250000Y23255000I0J150000D01*
G01*
X84250000Y23555000D01*
G75*
G02*
X84400000Y23705000I150000J0D01*
G01*
X86050000Y23705000D01*
G75*
G02*
X86200000Y23555000I0J-150000D01*
G01*
G37*
G36*
G01*
X81250000Y23555000D02*
X81250000Y23255000D01*
G75*
G02*
X81100000Y23105000I-150000J0D01*
G01*
X79450000Y23105000D01*
G75*
G02*
X79300000Y23255000I0J150000D01*
G01*
X79300000Y23555000D01*
G75*
G02*
X79450000Y23705000I150000J0D01*
G01*
X81100000Y23705000D01*
G75*
G02*
X81250000Y23555000I0J-150000D01*
G01*
G37*
G36*
G01*
X81250000Y22285000D02*
X81250000Y21985000D01*
G75*
G02*
X81100000Y21835000I-150000J0D01*
G01*
X79450000Y21835000D01*
G75*
G02*
X79300000Y21985000I0J150000D01*
G01*
X79300000Y22285000D01*
G75*
G02*
X79450000Y22435000I150000J0D01*
G01*
X81100000Y22435000D01*
G75*
G02*
X81250000Y22285000I0J-150000D01*
G01*
G37*
G36*
G01*
X81250000Y21015000D02*
X81250000Y20715000D01*
G75*
G02*
X81100000Y20565000I-150000J0D01*
G01*
X79450000Y20565000D01*
G75*
G02*
X79300000Y20715000I0J150000D01*
G01*
X79300000Y21015000D01*
G75*
G02*
X79450000Y21165000I150000J0D01*
G01*
X81100000Y21165000D01*
G75*
G02*
X81250000Y21015000I0J-150000D01*
G01*
G37*
G36*
G01*
X81250000Y19745000D02*
X81250000Y19445000D01*
G75*
G02*
X81100000Y19295000I-150000J0D01*
G01*
X79450000Y19295000D01*
G75*
G02*
X79300000Y19445000I0J150000D01*
G01*
X79300000Y19745000D01*
G75*
G02*
X79450000Y19895000I150000J0D01*
G01*
X81100000Y19895000D01*
G75*
G02*
X81250000Y19745000I0J-150000D01*
G01*
G37*
G04 #@! TD*
D23*
G04 #@! TO.C,J1*
X94050000Y86050000D03*
X90550000Y86050000D03*
X87050000Y86050000D03*
X59850000Y86050000D03*
X56350000Y86050000D03*
X94050000Y90550000D03*
X90550000Y90550000D03*
X87050000Y90550000D03*
X59850000Y90550000D03*
X56350000Y90550000D03*
X23450000Y86050000D03*
X19950000Y86050000D03*
X16450000Y86050000D03*
X12950000Y86050000D03*
X9450000Y86050000D03*
X5950000Y86050000D03*
X23450000Y90550000D03*
X19950000Y90550000D03*
X16450000Y90550000D03*
X12950000Y90550000D03*
X9450000Y90550000D03*
X5950000Y90550000D03*
X83950000Y86050000D03*
X80950000Y86050000D03*
X77950000Y86050000D03*
X74950000Y86050000D03*
X71950000Y86050000D03*
X68950000Y86050000D03*
X65950000Y86050000D03*
X62950000Y86050000D03*
X83950000Y90550000D03*
X80950000Y90550000D03*
X77950000Y90550000D03*
X74950000Y90550000D03*
X71950000Y90550000D03*
X68950000Y90550000D03*
X65950000Y90550000D03*
X62950000Y90550000D03*
X50400000Y86050000D03*
X47400000Y86050000D03*
X44400000Y86050000D03*
X41400000Y86050000D03*
X38400000Y86050000D03*
X35400000Y86050000D03*
X32400000Y86050000D03*
X29400000Y86050000D03*
X50400000Y90550000D03*
X47400000Y90550000D03*
X44400000Y90550000D03*
X41400000Y90550000D03*
X38400000Y90550000D03*
X35400000Y90550000D03*
X32400000Y90550000D03*
X29400000Y90550000D03*
D24*
X5300000Y96250000D03*
X53250000Y96250000D03*
X94700000Y96250000D03*
G04 #@! TD*
G04 #@! TO.C,U3*
G36*
G01*
X12741500Y74688000D02*
X12138500Y74688000D01*
G75*
G02*
X12038000Y74788500I0J100500D01*
G01*
X12038000Y76761500D01*
G75*
G02*
X12138500Y76862000I100500J0D01*
G01*
X12741500Y76862000D01*
G75*
G02*
X12842000Y76761500I0J-100500D01*
G01*
X12842000Y74788500D01*
G75*
G02*
X12741500Y74688000I-100500J0D01*
G01*
G37*
G36*
G01*
X14011500Y74688000D02*
X13408500Y74688000D01*
G75*
G02*
X13308000Y74788500I0J100500D01*
G01*
X13308000Y76761500D01*
G75*
G02*
X13408500Y76862000I100500J0D01*
G01*
X14011500Y76862000D01*
G75*
G02*
X14112000Y76761500I0J-100500D01*
G01*
X14112000Y74788500D01*
G75*
G02*
X14011500Y74688000I-100500J0D01*
G01*
G37*
G36*
G01*
X15281500Y74688000D02*
X14678500Y74688000D01*
G75*
G02*
X14578000Y74788500I0J100500D01*
G01*
X14578000Y76761500D01*
G75*
G02*
X14678500Y76862000I100500J0D01*
G01*
X15281500Y76862000D01*
G75*
G02*
X15382000Y76761500I0J-100500D01*
G01*
X15382000Y74788500D01*
G75*
G02*
X15281500Y74688000I-100500J0D01*
G01*
G37*
G36*
G01*
X16551500Y74688000D02*
X15948500Y74688000D01*
G75*
G02*
X15848000Y74788500I0J100500D01*
G01*
X15848000Y76761500D01*
G75*
G02*
X15948500Y76862000I100500J0D01*
G01*
X16551500Y76862000D01*
G75*
G02*
X16652000Y76761500I0J-100500D01*
G01*
X16652000Y74788500D01*
G75*
G02*
X16551500Y74688000I-100500J0D01*
G01*
G37*
G36*
G01*
X16551500Y79638000D02*
X15948500Y79638000D01*
G75*
G02*
X15848000Y79738500I0J100500D01*
G01*
X15848000Y81711500D01*
G75*
G02*
X15948500Y81812000I100500J0D01*
G01*
X16551500Y81812000D01*
G75*
G02*
X16652000Y81711500I0J-100500D01*
G01*
X16652000Y79738500D01*
G75*
G02*
X16551500Y79638000I-100500J0D01*
G01*
G37*
G36*
G01*
X15281500Y79638000D02*
X14678500Y79638000D01*
G75*
G02*
X14578000Y79738500I0J100500D01*
G01*
X14578000Y81711500D01*
G75*
G02*
X14678500Y81812000I100500J0D01*
G01*
X15281500Y81812000D01*
G75*
G02*
X15382000Y81711500I0J-100500D01*
G01*
X15382000Y79738500D01*
G75*
G02*
X15281500Y79638000I-100500J0D01*
G01*
G37*
G36*
G01*
X14011500Y79638000D02*
X13408500Y79638000D01*
G75*
G02*
X13308000Y79738500I0J100500D01*
G01*
X13308000Y81711500D01*
G75*
G02*
X13408500Y81812000I100500J0D01*
G01*
X14011500Y81812000D01*
G75*
G02*
X14112000Y81711500I0J-100500D01*
G01*
X14112000Y79738500D01*
G75*
G02*
X14011500Y79638000I-100500J0D01*
G01*
G37*
G36*
G01*
X12741500Y79638000D02*
X12138500Y79638000D01*
G75*
G02*
X12038000Y79738500I0J100500D01*
G01*
X12038000Y81711500D01*
G75*
G02*
X12138500Y81812000I100500J0D01*
G01*
X12741500Y81812000D01*
G75*
G02*
X12842000Y81711500I0J-100500D01*
G01*
X12842000Y79738500D01*
G75*
G02*
X12741500Y79638000I-100500J0D01*
G01*
G37*
G04 #@! TD*
D14*
G04 #@! TO.C,REF\u002A\u002A*
X94100000Y78500000D03*
X94802944Y80197056D03*
X94802944Y76802944D03*
X96500000Y80900000D03*
D15*
X96500000Y78500000D03*
D14*
X96500000Y76100000D03*
X98197056Y80197056D03*
X98197056Y76802944D03*
X98900000Y78500000D03*
G04 #@! TD*
G04 #@! TO.C,REF\u002A\u002A*
X94100000Y3500000D03*
X94802944Y5197056D03*
X94802944Y1802944D03*
X96500000Y5900000D03*
D15*
X96500000Y3500000D03*
D14*
X96500000Y1100000D03*
X98197056Y5197056D03*
X98197056Y1802944D03*
X98900000Y3500000D03*
G04 #@! TD*
G04 #@! TO.C,R3*
G36*
G01*
X22565000Y46280000D02*
X22935000Y46280000D01*
G75*
G02*
X23070000Y46145000I0J-135000D01*
G01*
X23070000Y45875000D01*
G75*
G02*
X22935000Y45740000I-135000J0D01*
G01*
X22565000Y45740000D01*
G75*
G02*
X22430000Y45875000I0J135000D01*
G01*
X22430000Y46145000D01*
G75*
G02*
X22565000Y46280000I135000J0D01*
G01*
G37*
G36*
G01*
X22565000Y45260000D02*
X22935000Y45260000D01*
G75*
G02*
X23070000Y45125000I0J-135000D01*
G01*
X23070000Y44855000D01*
G75*
G02*
X22935000Y44720000I-135000J0D01*
G01*
X22565000Y44720000D01*
G75*
G02*
X22430000Y44855000I0J135000D01*
G01*
X22430000Y45125000D01*
G75*
G02*
X22565000Y45260000I135000J0D01*
G01*
G37*
G04 #@! TD*
G04 #@! TO.C,C1*
G36*
G01*
X84470000Y24580000D02*
X84470000Y24920000D01*
G75*
G02*
X84610000Y25060000I140000J0D01*
G01*
X84890000Y25060000D01*
G75*
G02*
X85030000Y24920000I0J-140000D01*
G01*
X85030000Y24580000D01*
G75*
G02*
X84890000Y24440000I-140000J0D01*
G01*
X84610000Y24440000D01*
G75*
G02*
X84470000Y24580000I0J140000D01*
G01*
G37*
G36*
G01*
X85430000Y24580000D02*
X85430000Y24920000D01*
G75*
G02*
X85570000Y25060000I140000J0D01*
G01*
X85850000Y25060000D01*
G75*
G02*
X85990000Y24920000I0J-140000D01*
G01*
X85990000Y24580000D01*
G75*
G02*
X85850000Y24440000I-140000J0D01*
G01*
X85570000Y24440000D01*
G75*
G02*
X85430000Y24580000I0J140000D01*
G01*
G37*
G04 #@! TD*
G04 #@! TO.C,D6*
G36*
G01*
X17875000Y26900000D02*
X17125000Y26900000D01*
G75*
G02*
X16900000Y27125000I0J225000D01*
G01*
X16900000Y27575000D01*
G75*
G02*
X17125000Y27800000I225000J0D01*
G01*
X17875000Y27800000D01*
G75*
G02*
X18100000Y27575000I0J-225000D01*
G01*
X18100000Y27125000D01*
G75*
G02*
X17875000Y26900000I-225000J0D01*
G01*
G37*
G36*
G01*
X17875000Y30200000D02*
X17125000Y30200000D01*
G75*
G02*
X16900000Y30425000I0J225000D01*
G01*
X16900000Y30875000D01*
G75*
G02*
X17125000Y31100000I225000J0D01*
G01*
X17875000Y31100000D01*
G75*
G02*
X18100000Y30875000I0J-225000D01*
G01*
X18100000Y30425000D01*
G75*
G02*
X17875000Y30200000I-225000J0D01*
G01*
G37*
G04 #@! TD*
D25*
G04 #@! TO.C,M4*
X25624995Y23324999D03*
X25624995Y16925002D03*
X25624995Y15024999D03*
X25624995Y10724999D03*
D10*
X26074994Y8325002D03*
X26074994Y7325001D03*
D25*
X25624995Y4474999D03*
X10124998Y23775001D03*
X10124998Y21925002D03*
X10124998Y16974999D03*
X10124998Y4925001D03*
G04 #@! TD*
G04 #@! TO.C,R10*
G36*
G01*
X27815000Y32530000D02*
X28185000Y32530000D01*
G75*
G02*
X28320000Y32395000I0J-135000D01*
G01*
X28320000Y32125000D01*
G75*
G02*
X28185000Y31990000I-135000J0D01*
G01*
X27815000Y31990000D01*
G75*
G02*
X27680000Y32125000I0J135000D01*
G01*
X27680000Y32395000D01*
G75*
G02*
X27815000Y32530000I135000J0D01*
G01*
G37*
G36*
G01*
X27815000Y31510000D02*
X28185000Y31510000D01*
G75*
G02*
X28320000Y31375000I0J-135000D01*
G01*
X28320000Y31105000D01*
G75*
G02*
X28185000Y30970000I-135000J0D01*
G01*
X27815000Y30970000D01*
G75*
G02*
X27680000Y31105000I0J135000D01*
G01*
X27680000Y31375000D01*
G75*
G02*
X27815000Y31510000I135000J0D01*
G01*
G37*
G04 #@! TD*
M02*
