G04 #@! TF.GenerationSoftware,KiCad,Pcbnew,8.0.9-8.0.9-0~ubuntu24.04.1*
G04 #@! TF.CreationDate,2026-02-13T03:28:50+00:00*
G04 #@! TF.ProjectId,AE101Corolla,41453130-3143-46f7-926f-6c6c612e6b69,rev?*
G04 #@! TF.SameCoordinates,Original*
G04 #@! TF.FileFunction,Paste,Top*
G04 #@! TF.FilePolarity,Positive*
%FSLAX46Y46*%
G04 Gerber Fmt 4.6, Leading zero omitted, Abs format (unit mm)*
G04 Created by KiCad (PCBNEW 8.0.9-8.0.9-0~ubuntu24.04.1) date 2026-02-13 03:28:50*
%MOMM*%
%LPD*%
G01*
G04 APERTURE LIST*
%ADD10O,1.000000X2.100000*%
%ADD11O,1.000000X1.800000*%
%ADD12O,0.000001X0.000001*%
G04 APERTURE END LIST*
G04 #@! TO.C,D7*
G36*
G01*
X10375000Y26900000D02*
X9625000Y26900000D01*
G75*
G02*
X9400000Y27125000I0J225000D01*
G01*
X9400000Y27575000D01*
G75*
G02*
X9625000Y27800000I225000J0D01*
G01*
X10375000Y27800000D01*
G75*
G02*
X10600000Y27575000I0J-225000D01*
G01*
X10600000Y27125000D01*
G75*
G02*
X10375000Y26900000I-225000J0D01*
G01*
G37*
G36*
G01*
X10375000Y30200000D02*
X9625000Y30200000D01*
G75*
G02*
X9400000Y30425000I0J225000D01*
G01*
X9400000Y30875000D01*
G75*
G02*
X9625000Y31100000I225000J0D01*
G01*
X10375000Y31100000D01*
G75*
G02*
X10600000Y30875000I0J-225000D01*
G01*
X10600000Y30425000D01*
G75*
G02*
X10375000Y30200000I-225000J0D01*
G01*
G37*
G04 #@! TD*
G04 #@! TO.C,J3*
G36*
G01*
X30500000Y7005000D02*
X30500000Y7855000D01*
G75*
G02*
X30650000Y8005000I150000J0D01*
G01*
X30950000Y8005000D01*
G75*
G02*
X31100000Y7855000I0J-150000D01*
G01*
X31100000Y7005000D01*
G75*
G02*
X30950000Y6855000I-150000J0D01*
G01*
X30650000Y6855000D01*
G75*
G02*
X30500000Y7005000I0J150000D01*
G01*
G37*
G36*
G01*
X31300000Y7005000D02*
X31300000Y7855000D01*
G75*
G02*
X31450000Y8005000I150000J0D01*
G01*
X31750000Y8005000D01*
G75*
G02*
X31900000Y7855000I0J-150000D01*
G01*
X31900000Y7005000D01*
G75*
G02*
X31750000Y6855000I-150000J0D01*
G01*
X31450000Y6855000D01*
G75*
G02*
X31300000Y7005000I0J150000D01*
G01*
G37*
G36*
G01*
X32600000Y6930000D02*
X32600000Y7930000D01*
G75*
G02*
X32675000Y8005000I75000J0D01*
G01*
X32825000Y8005000D01*
G75*
G02*
X32900000Y7930000I0J-75000D01*
G01*
X32900000Y6930000D01*
G75*
G02*
X32825000Y6855000I-75000J0D01*
G01*
X32675000Y6855000D01*
G75*
G02*
X32600000Y6930000I0J75000D01*
G01*
G37*
G36*
G01*
X33600000Y6930000D02*
X33600000Y7930000D01*
G75*
G02*
X33675000Y8005000I75000J0D01*
G01*
X33825000Y8005000D01*
G75*
G02*
X33900000Y7930000I0J-75000D01*
G01*
X33900000Y6930000D01*
G75*
G02*
X33825000Y6855000I-75000J0D01*
G01*
X33675000Y6855000D01*
G75*
G02*
X33600000Y6930000I0J75000D01*
G01*
G37*
G36*
G01*
X34100000Y6930000D02*
X34100000Y7930000D01*
G75*
G02*
X34175000Y8005000I75000J0D01*
G01*
X34325000Y8005000D01*
G75*
G02*
X34400000Y7930000I0J-75000D01*
G01*
X34400000Y6930000D01*
G75*
G02*
X34325000Y6855000I-75000J0D01*
G01*
X34175000Y6855000D01*
G75*
G02*
X34100000Y6930000I0J75000D01*
G01*
G37*
G36*
G01*
X35100000Y6930000D02*
X35100000Y7930000D01*
G75*
G02*
X35175000Y8005000I75000J0D01*
G01*
X35325000Y8005000D01*
G75*
G02*
X35400000Y7930000I0J-75000D01*
G01*
X35400000Y6930000D01*
G75*
G02*
X35325000Y6855000I-75000J0D01*
G01*
X35175000Y6855000D01*
G75*
G02*
X35100000Y6930000I0J75000D01*
G01*
G37*
G36*
G01*
X36100000Y7005000D02*
X36100000Y7855000D01*
G75*
G02*
X36250000Y8005000I150000J0D01*
G01*
X36550000Y8005000D01*
G75*
G02*
X36700000Y7855000I0J-150000D01*
G01*
X36700000Y7005000D01*
G75*
G02*
X36550000Y6855000I-150000J0D01*
G01*
X36250000Y6855000D01*
G75*
G02*
X36100000Y7005000I0J150000D01*
G01*
G37*
G36*
G01*
X36900000Y7005000D02*
X36900000Y7855000D01*
G75*
G02*
X37050000Y8005000I150000J0D01*
G01*
X37350000Y8005000D01*
G75*
G02*
X37500000Y7855000I0J-150000D01*
G01*
X37500000Y7005000D01*
G75*
G02*
X37350000Y6855000I-150000J0D01*
G01*
X37050000Y6855000D01*
G75*
G02*
X36900000Y7005000I0J150000D01*
G01*
G37*
G36*
G01*
X36900000Y7005000D02*
X36900000Y7855000D01*
G75*
G02*
X37050000Y8005000I150000J0D01*
G01*
X37350000Y8005000D01*
G75*
G02*
X37500000Y7855000I0J-150000D01*
G01*
X37500000Y7005000D01*
G75*
G02*
X37350000Y6855000I-150000J0D01*
G01*
X37050000Y6855000D01*
G75*
G02*
X36900000Y7005000I0J150000D01*
G01*
G37*
G36*
G01*
X36100000Y7005000D02*
X36100000Y7855000D01*
G75*
G02*
X36250000Y8005000I150000J0D01*
G01*
X36550000Y8005000D01*
G75*
G02*
X36700000Y7855000I0J-150000D01*
G01*
X36700000Y7005000D01*
G75*
G02*
X36550000Y6855000I-150000J0D01*
G01*
X36250000Y6855000D01*
G75*
G02*
X36100000Y7005000I0J150000D01*
G01*
G37*
G36*
G01*
X35600000Y6930000D02*
X35600000Y7930000D01*
G75*
G02*
X35675000Y8005000I75000J0D01*
G01*
X35825000Y8005000D01*
G75*
G02*
X35900000Y7930000I0J-75000D01*
G01*
X35900000Y6930000D01*
G75*
G02*
X35825000Y6855000I-75000J0D01*
G01*
X35675000Y6855000D01*
G75*
G02*
X35600000Y6930000I0J75000D01*
G01*
G37*
G36*
G01*
X34600000Y6930000D02*
X34600000Y7930000D01*
G75*
G02*
X34675000Y8005000I75000J0D01*
G01*
X34825000Y8005000D01*
G75*
G02*
X34900000Y7930000I0J-75000D01*
G01*
X34900000Y6930000D01*
G75*
G02*
X34825000Y6855000I-75000J0D01*
G01*
X34675000Y6855000D01*
G75*
G02*
X34600000Y6930000I0J75000D01*
G01*
G37*
G36*
G01*
X33100000Y6930000D02*
X33100000Y7930000D01*
G75*
G02*
X33175000Y8005000I75000J0D01*
G01*
X33325000Y8005000D01*
G75*
G02*
X33400000Y7930000I0J-75000D01*
G01*
X33400000Y6930000D01*
G75*
G02*
X33325000Y6855000I-75000J0D01*
G01*
X33175000Y6855000D01*
G75*
G02*
X33100000Y6930000I0J75000D01*
G01*
G37*
G36*
G01*
X32100000Y6930000D02*
X32100000Y7930000D01*
G75*
G02*
X32175000Y8005000I75000J0D01*
G01*
X32325000Y8005000D01*
G75*
G02*
X32400000Y7930000I0J-75000D01*
G01*
X32400000Y6930000D01*
G75*
G02*
X32325000Y6855000I-75000J0D01*
G01*
X32175000Y6855000D01*
G75*
G02*
X32100000Y6930000I0J75000D01*
G01*
G37*
G36*
G01*
X31300000Y7005000D02*
X31300000Y7855000D01*
G75*
G02*
X31450000Y8005000I150000J0D01*
G01*
X31750000Y8005000D01*
G75*
G02*
X31900000Y7855000I0J-150000D01*
G01*
X31900000Y7005000D01*
G75*
G02*
X31750000Y6855000I-150000J0D01*
G01*
X31450000Y6855000D01*
G75*
G02*
X31300000Y7005000I0J150000D01*
G01*
G37*
G36*
G01*
X30500000Y7005000D02*
X30500000Y7855000D01*
G75*
G02*
X30650000Y8005000I150000J0D01*
G01*
X30950000Y8005000D01*
G75*
G02*
X31100000Y7855000I0J-150000D01*
G01*
X31100000Y7005000D01*
G75*
G02*
X30950000Y6855000I-150000J0D01*
G01*
X30650000Y6855000D01*
G75*
G02*
X30500000Y7005000I0J150000D01*
G01*
G37*
D10*
X29680000Y6855000D03*
D11*
X29680000Y2675000D03*
D10*
X38320000Y6855000D03*
D11*
X38320000Y2675000D03*
G04 #@! TD*
G04 #@! TO.C,R4*
G36*
G01*
X24815000Y46290000D02*
X25185000Y46290000D01*
G75*
G02*
X25320000Y46155000I0J-135000D01*
G01*
X25320000Y45885000D01*
G75*
G02*
X25185000Y45750000I-135000J0D01*
G01*
X24815000Y45750000D01*
G75*
G02*
X24680000Y45885000I0J135000D01*
G01*
X24680000Y46155000D01*
G75*
G02*
X24815000Y46290000I135000J0D01*
G01*
G37*
G36*
G01*
X24815000Y45270000D02*
X25185000Y45270000D01*
G75*
G02*
X25320000Y45135000I0J-135000D01*
G01*
X25320000Y44865000D01*
G75*
G02*
X25185000Y44730000I-135000J0D01*
G01*
X24815000Y44730000D01*
G75*
G02*
X24680000Y44865000I0J135000D01*
G01*
X24680000Y45135000D01*
G75*
G02*
X24815000Y45270000I135000J0D01*
G01*
G37*
G04 #@! TD*
G04 #@! TO.C,D8*
G36*
G01*
X15375000Y26900000D02*
X14625000Y26900000D01*
G75*
G02*
X14400000Y27125000I0J225000D01*
G01*
X14400000Y27575000D01*
G75*
G02*
X14625000Y27800000I225000J0D01*
G01*
X15375000Y27800000D01*
G75*
G02*
X15600000Y27575000I0J-225000D01*
G01*
X15600000Y27125000D01*
G75*
G02*
X15375000Y26900000I-225000J0D01*
G01*
G37*
G36*
G01*
X15375000Y30200000D02*
X14625000Y30200000D01*
G75*
G02*
X14400000Y30425000I0J225000D01*
G01*
X14400000Y30875000D01*
G75*
G02*
X14625000Y31100000I225000J0D01*
G01*
X15375000Y31100000D01*
G75*
G02*
X15600000Y30875000I0J-225000D01*
G01*
X15600000Y30425000D01*
G75*
G02*
X15375000Y30200000I-225000J0D01*
G01*
G37*
G04 #@! TD*
G04 #@! TO.C,R7*
G36*
G01*
X24065000Y32530000D02*
X24435000Y32530000D01*
G75*
G02*
X24570000Y32395000I0J-135000D01*
G01*
X24570000Y32125000D01*
G75*
G02*
X24435000Y31990000I-135000J0D01*
G01*
X24065000Y31990000D01*
G75*
G02*
X23930000Y32125000I0J135000D01*
G01*
X23930000Y32395000D01*
G75*
G02*
X24065000Y32530000I135000J0D01*
G01*
G37*
G36*
G01*
X24065000Y31510000D02*
X24435000Y31510000D01*
G75*
G02*
X24570000Y31375000I0J-135000D01*
G01*
X24570000Y31105000D01*
G75*
G02*
X24435000Y30970000I-135000J0D01*
G01*
X24065000Y30970000D01*
G75*
G02*
X23930000Y31105000I0J135000D01*
G01*
X23930000Y31375000D01*
G75*
G02*
X24065000Y31510000I135000J0D01*
G01*
G37*
G04 #@! TD*
G04 #@! TO.C,D5*
G36*
G01*
X12875000Y26900000D02*
X12125000Y26900000D01*
G75*
G02*
X11900000Y27125000I0J225000D01*
G01*
X11900000Y27575000D01*
G75*
G02*
X12125000Y27800000I225000J0D01*
G01*
X12875000Y27800000D01*
G75*
G02*
X13100000Y27575000I0J-225000D01*
G01*
X13100000Y27125000D01*
G75*
G02*
X12875000Y26900000I-225000J0D01*
G01*
G37*
G36*
G01*
X12875000Y30200000D02*
X12125000Y30200000D01*
G75*
G02*
X11900000Y30425000I0J225000D01*
G01*
X11900000Y30875000D01*
G75*
G02*
X12125000Y31100000I225000J0D01*
G01*
X12875000Y31100000D01*
G75*
G02*
X13100000Y30875000I0J-225000D01*
G01*
X13100000Y30425000D01*
G75*
G02*
X12875000Y30200000I-225000J0D01*
G01*
G37*
G04 #@! TD*
G04 #@! TO.C,R9*
G36*
G01*
X25315000Y32530000D02*
X25685000Y32530000D01*
G75*
G02*
X25820000Y32395000I0J-135000D01*
G01*
X25820000Y32125000D01*
G75*
G02*
X25685000Y31990000I-135000J0D01*
G01*
X25315000Y31990000D01*
G75*
G02*
X25180000Y32125000I0J135000D01*
G01*
X25180000Y32395000D01*
G75*
G02*
X25315000Y32530000I135000J0D01*
G01*
G37*
G36*
G01*
X25315000Y31510000D02*
X25685000Y31510000D01*
G75*
G02*
X25820000Y31375000I0J-135000D01*
G01*
X25820000Y31105000D01*
G75*
G02*
X25685000Y30970000I-135000J0D01*
G01*
X25315000Y30970000D01*
G75*
G02*
X25180000Y31105000I0J135000D01*
G01*
X25180000Y31375000D01*
G75*
G02*
X25315000Y31510000I135000J0D01*
G01*
G37*
G04 #@! TD*
G04 #@! TO.C,U4*
G36*
G01*
X81320000Y74540000D02*
X80870000Y74540000D01*
G75*
G02*
X80795000Y74615000I0J75000D01*
G01*
X80795000Y76435000D01*
G75*
G02*
X80870000Y76510000I75000J0D01*
G01*
X81320000Y76510000D01*
G75*
G02*
X81395000Y76435000I0J-75000D01*
G01*
X81395000Y74615000D01*
G75*
G02*
X81320000Y74540000I-75000J0D01*
G01*
G37*
G36*
G01*
X82590000Y74540000D02*
X82140000Y74540000D01*
G75*
G02*
X82065000Y74615000I0J75000D01*
G01*
X82065000Y76435000D01*
G75*
G02*
X82140000Y76510000I75000J0D01*
G01*
X82590000Y76510000D01*
G75*
G02*
X82665000Y76435000I0J-75000D01*
G01*
X82665000Y74615000D01*
G75*
G02*
X82590000Y74540000I-75000J0D01*
G01*
G37*
G36*
G01*
X83860000Y74540000D02*
X83410000Y74540000D01*
G75*
G02*
X83335000Y74615000I0J75000D01*
G01*
X83335000Y76435000D01*
G75*
G02*
X83410000Y76510000I75000J0D01*
G01*
X83860000Y76510000D01*
G75*
G02*
X83935000Y76435000I0J-75000D01*
G01*
X83935000Y74615000D01*
G75*
G02*
X83860000Y74540000I-75000J0D01*
G01*
G37*
G36*
G01*
X85130000Y74540000D02*
X84680000Y74540000D01*
G75*
G02*
X84605000Y74615000I0J75000D01*
G01*
X84605000Y76435000D01*
G75*
G02*
X84680000Y76510000I75000J0D01*
G01*
X85130000Y76510000D01*
G75*
G02*
X85205000Y76435000I0J-75000D01*
G01*
X85205000Y74615000D01*
G75*
G02*
X85130000Y74540000I-75000J0D01*
G01*
G37*
G36*
G01*
X85130000Y79490000D02*
X84680000Y79490000D01*
G75*
G02*
X84605000Y79565000I0J75000D01*
G01*
X84605000Y81385000D01*
G75*
G02*
X84680000Y81460000I75000J0D01*
G01*
X85130000Y81460000D01*
G75*
G02*
X85205000Y81385000I0J-75000D01*
G01*
X85205000Y79565000D01*
G75*
G02*
X85130000Y79490000I-75000J0D01*
G01*
G37*
G36*
G01*
X83860000Y79490000D02*
X83410000Y79490000D01*
G75*
G02*
X83335000Y79565000I0J75000D01*
G01*
X83335000Y81385000D01*
G75*
G02*
X83410000Y81460000I75000J0D01*
G01*
X83860000Y81460000D01*
G75*
G02*
X83935000Y81385000I0J-75000D01*
G01*
X83935000Y79565000D01*
G75*
G02*
X83860000Y79490000I-75000J0D01*
G01*
G37*
G36*
G01*
X82590000Y79490000D02*
X82140000Y79490000D01*
G75*
G02*
X82065000Y79565000I0J75000D01*
G01*
X82065000Y81385000D01*
G75*
G02*
X82140000Y81460000I75000J0D01*
G01*
X82590000Y81460000D01*
G75*
G02*
X82665000Y81385000I0J-75000D01*
G01*
X82665000Y79565000D01*
G75*
G02*
X82590000Y79490000I-75000J0D01*
G01*
G37*
G36*
G01*
X81320000Y79490000D02*
X80870000Y79490000D01*
G75*
G02*
X80795000Y79565000I0J75000D01*
G01*
X80795000Y81385000D01*
G75*
G02*
X80870000Y81460000I75000J0D01*
G01*
X81320000Y81460000D01*
G75*
G02*
X81395000Y81385000I0J-75000D01*
G01*
X81395000Y79565000D01*
G75*
G02*
X81320000Y79490000I-75000J0D01*
G01*
G37*
G04 #@! TD*
D12*
G04 #@! TO.C,M6*
X67437500Y13393334D03*
G04 #@! TD*
G04 #@! TO.C,R8*
G36*
G01*
X26565000Y32530000D02*
X26935000Y32530000D01*
G75*
G02*
X27070000Y32395000I0J-135000D01*
G01*
X27070000Y32125000D01*
G75*
G02*
X26935000Y31990000I-135000J0D01*
G01*
X26565000Y31990000D01*
G75*
G02*
X26430000Y32125000I0J135000D01*
G01*
X26430000Y32395000D01*
G75*
G02*
X26565000Y32530000I135000J0D01*
G01*
G37*
G36*
G01*
X26565000Y31510000D02*
X26935000Y31510000D01*
G75*
G02*
X27070000Y31375000I0J-135000D01*
G01*
X27070000Y31105000D01*
G75*
G02*
X26935000Y30970000I-135000J0D01*
G01*
X26565000Y30970000D01*
G75*
G02*
X26430000Y31105000I0J135000D01*
G01*
X26430000Y31375000D01*
G75*
G02*
X26565000Y31510000I135000J0D01*
G01*
G37*
G04 #@! TD*
G04 #@! TO.C,U3*
G36*
G01*
X11320000Y74790000D02*
X10870000Y74790000D01*
G75*
G02*
X10795000Y74865000I0J75000D01*
G01*
X10795000Y76685000D01*
G75*
G02*
X10870000Y76760000I75000J0D01*
G01*
X11320000Y76760000D01*
G75*
G02*
X11395000Y76685000I0J-75000D01*
G01*
X11395000Y74865000D01*
G75*
G02*
X11320000Y74790000I-75000J0D01*
G01*
G37*
G36*
G01*
X12590000Y74790000D02*
X12140000Y74790000D01*
G75*
G02*
X12065000Y74865000I0J75000D01*
G01*
X12065000Y76685000D01*
G75*
G02*
X12140000Y76760000I75000J0D01*
G01*
X12590000Y76760000D01*
G75*
G02*
X12665000Y76685000I0J-75000D01*
G01*
X12665000Y74865000D01*
G75*
G02*
X12590000Y74790000I-75000J0D01*
G01*
G37*
G36*
G01*
X13860000Y74790000D02*
X13410000Y74790000D01*
G75*
G02*
X13335000Y74865000I0J75000D01*
G01*
X13335000Y76685000D01*
G75*
G02*
X13410000Y76760000I75000J0D01*
G01*
X13860000Y76760000D01*
G75*
G02*
X13935000Y76685000I0J-75000D01*
G01*
X13935000Y74865000D01*
G75*
G02*
X13860000Y74790000I-75000J0D01*
G01*
G37*
G36*
G01*
X15130000Y74790000D02*
X14680000Y74790000D01*
G75*
G02*
X14605000Y74865000I0J75000D01*
G01*
X14605000Y76685000D01*
G75*
G02*
X14680000Y76760000I75000J0D01*
G01*
X15130000Y76760000D01*
G75*
G02*
X15205000Y76685000I0J-75000D01*
G01*
X15205000Y74865000D01*
G75*
G02*
X15130000Y74790000I-75000J0D01*
G01*
G37*
G36*
G01*
X15130000Y79740000D02*
X14680000Y79740000D01*
G75*
G02*
X14605000Y79815000I0J75000D01*
G01*
X14605000Y81635000D01*
G75*
G02*
X14680000Y81710000I75000J0D01*
G01*
X15130000Y81710000D01*
G75*
G02*
X15205000Y81635000I0J-75000D01*
G01*
X15205000Y79815000D01*
G75*
G02*
X15130000Y79740000I-75000J0D01*
G01*
G37*
G36*
G01*
X13860000Y79740000D02*
X13410000Y79740000D01*
G75*
G02*
X13335000Y79815000I0J75000D01*
G01*
X13335000Y81635000D01*
G75*
G02*
X13410000Y81710000I75000J0D01*
G01*
X13860000Y81710000D01*
G75*
G02*
X13935000Y81635000I0J-75000D01*
G01*
X13935000Y79815000D01*
G75*
G02*
X13860000Y79740000I-75000J0D01*
G01*
G37*
G36*
G01*
X12590000Y79740000D02*
X12140000Y79740000D01*
G75*
G02*
X12065000Y79815000I0J75000D01*
G01*
X12065000Y81635000D01*
G75*
G02*
X12140000Y81710000I75000J0D01*
G01*
X12590000Y81710000D01*
G75*
G02*
X12665000Y81635000I0J-75000D01*
G01*
X12665000Y79815000D01*
G75*
G02*
X12590000Y79740000I-75000J0D01*
G01*
G37*
G36*
G01*
X11320000Y79740000D02*
X10870000Y79740000D01*
G75*
G02*
X10795000Y79815000I0J75000D01*
G01*
X10795000Y81635000D01*
G75*
G02*
X10870000Y81710000I75000J0D01*
G01*
X11320000Y81710000D01*
G75*
G02*
X11395000Y81635000I0J-75000D01*
G01*
X11395000Y79815000D01*
G75*
G02*
X11320000Y79740000I-75000J0D01*
G01*
G37*
G04 #@! TD*
G04 #@! TO.C,R3*
G36*
G01*
X22565000Y46280000D02*
X22935000Y46280000D01*
G75*
G02*
X23070000Y46145000I0J-135000D01*
G01*
X23070000Y45875000D01*
G75*
G02*
X22935000Y45740000I-135000J0D01*
G01*
X22565000Y45740000D01*
G75*
G02*
X22430000Y45875000I0J135000D01*
G01*
X22430000Y46145000D01*
G75*
G02*
X22565000Y46280000I135000J0D01*
G01*
G37*
G36*
G01*
X22565000Y45260000D02*
X22935000Y45260000D01*
G75*
G02*
X23070000Y45125000I0J-135000D01*
G01*
X23070000Y44855000D01*
G75*
G02*
X22935000Y44720000I-135000J0D01*
G01*
X22565000Y44720000D01*
G75*
G02*
X22430000Y44855000I0J135000D01*
G01*
X22430000Y45125000D01*
G75*
G02*
X22565000Y45260000I135000J0D01*
G01*
G37*
G04 #@! TD*
G04 #@! TO.C,D6*
G36*
G01*
X17875000Y26900000D02*
X17125000Y26900000D01*
G75*
G02*
X16900000Y27125000I0J225000D01*
G01*
X16900000Y27575000D01*
G75*
G02*
X17125000Y27800000I225000J0D01*
G01*
X17875000Y27800000D01*
G75*
G02*
X18100000Y27575000I0J-225000D01*
G01*
X18100000Y27125000D01*
G75*
G02*
X17875000Y26900000I-225000J0D01*
G01*
G37*
G36*
G01*
X17875000Y30200000D02*
X17125000Y30200000D01*
G75*
G02*
X16900000Y30425000I0J225000D01*
G01*
X16900000Y30875000D01*
G75*
G02*
X17125000Y31100000I225000J0D01*
G01*
X17875000Y31100000D01*
G75*
G02*
X18100000Y30875000I0J-225000D01*
G01*
X18100000Y30425000D01*
G75*
G02*
X17875000Y30200000I-225000J0D01*
G01*
G37*
G04 #@! TD*
G04 #@! TO.C,R10*
G36*
G01*
X27815000Y32530000D02*
X28185000Y32530000D01*
G75*
G02*
X28320000Y32395000I0J-135000D01*
G01*
X28320000Y32125000D01*
G75*
G02*
X28185000Y31990000I-135000J0D01*
G01*
X27815000Y31990000D01*
G75*
G02*
X27680000Y32125000I0J135000D01*
G01*
X27680000Y32395000D01*
G75*
G02*
X27815000Y32530000I135000J0D01*
G01*
G37*
G36*
G01*
X27815000Y31510000D02*
X28185000Y31510000D01*
G75*
G02*
X28320000Y31375000I0J-135000D01*
G01*
X28320000Y31105000D01*
G75*
G02*
X28185000Y30970000I-135000J0D01*
G01*
X27815000Y30970000D01*
G75*
G02*
X27680000Y31105000I0J135000D01*
G01*
X27680000Y31375000D01*
G75*
G02*
X27815000Y31510000I135000J0D01*
G01*
G37*
G04 #@! TD*
M02*
