M48
; DRILL file {KiCad 8.0.9-8.0.9-0~ubuntu24.04.1} date 2026-02-16T02:38:55+0000
; FORMAT={2:4/ absolute / inch / suppress leading zeros}
; #@! TF.CreationDate,2026-02-16T02:38:55+00:00
; #@! TF.GenerationSoftware,Kicad,Pcbnew,8.0.9-8.0.9-0~ubuntu24.04.1
; #@! TF.FileFunction,MixedPlating,1,4
FMAT,2
INCH,TZ
; #@! TA.AperFunction,Plated,PTH,ComponentDrill
T1C0.0118
; #@! TA.AperFunction,Plated,PTH,ViaDrill
T2C0.0118
; #@! TA.AperFunction,Plated,PTH,ComponentDrill
T3C0.0118
; #@! TA.AperFunction,Plated,PTH,ViaDrill
T4C0.0157
; #@! TA.AperFunction,Plated,PTH,ComponentDrill
T5C0.0236
; #@! TA.AperFunction,Plated,PTH,ComponentDrill
T6C0.0394
; #@! TA.AperFunction,Plated,PTH,ComponentDrill
T7C0.0433
; #@! TA.AperFunction,Plated,PTH,ComponentDrill
T8C0.0512
; #@! TA.AperFunction,Plated,PTH,ComponentDrill
T9C0.0709
; #@! TA.AperFunction,Plated,PTH,ComponentDrill
T10C0.1378
; #@! TA.AperFunction,NonPlated,NPTH,ComponentDrill
T11C0.0256
; #@! TA.AperFunction,NonPlated,NPTH,ComponentDrill
T12C0.1181
; #@! TA.AperFunction,NonPlated,NPTH,ComponentDrill
T13C0.1299
%
G90
G05
T1
X25910Y4338
X25940Y2940
X26029Y4840
X26373Y4633
T2
X9144Y25975
X9442Y26076
X9654Y26476
X9792Y26032
X10329Y21167
X10512Y21850
X10728Y22135
X11614Y7480
X11614Y7087
X11811Y26772
X11909Y27067
X12042Y27331
X12303Y30906
X12441Y7677
X12884Y3543
X12992Y2461
X13494Y3543
X13976Y2461
X18209Y26102
X18504Y26240
X20669Y26452
X20965Y3445
X21457Y26019
X21866Y26236
X24606Y7087
X26083Y7185
X29035Y25886
X31890Y30413
X32972Y30413
T3
X10266Y3278
X10266Y2884
X12018Y22904
X12018Y19951
X12018Y19636
X12018Y19321
X12018Y19006
X12018Y18691
X12018Y18061
X12018Y17746
X12018Y17431
X12018Y17116
X12018Y16801
X12018Y16486
X12018Y16171
X12018Y15856
X12018Y15541
X12018Y15226
X12018Y14281
X12018Y13967
X12018Y13652
X12018Y12392
X12018Y12077
X12018Y11762
X12018Y11447
X12018Y10502
X12018Y10187
X12018Y9872
X12018Y9557
X12018Y9242
X12018Y8219
X12018Y22589
X12018Y18376
X12018Y14911
X12018Y14596
X12018Y13337
X12018Y13022
X12018Y12707
X12018Y11132
X12018Y10817
X12254Y23770
X12333Y8219
X12648Y8219
X12726Y23770
X12963Y8219
X13199Y23770
X13278Y8219
X13593Y8219
X13671Y23770
X13907Y8219
X14144Y23770
X14222Y8219
X14537Y8219
X14577Y23770
X14852Y8219
X15049Y23770
X15167Y8219
X15482Y8219
X15522Y23770
X15797Y8219
X15994Y23770
X16112Y8219
X16427Y8219
X16467Y23770
X16742Y8219
X16939Y23770
X17057Y8219
X17372Y8219
X17411Y23770
X17687Y8219
X17815Y28602
X17884Y23770
X18002Y8219
X18189Y28602
X18209Y32028
X18317Y8219
X18356Y23770
X18563Y32028
X18563Y28602
X18632Y8219
X18829Y23770
X18947Y8219
X19301Y23770
X19774Y23770
X20246Y23770
X20719Y23770
X21112Y8219
X21191Y23770
X21427Y8219
X21663Y23770
X21742Y8219
X22057Y8219
X22136Y23770
X22372Y8219
X22608Y23770
X23081Y23770
X23553Y23770
X23815Y32003
X24026Y23770
X24209Y32003
X24498Y23770
X24970Y23770
X25335Y26324
X25443Y23770
X25443Y8219
X25758Y8219
X25807Y26324
X25915Y23770
X26073Y8219
X26280Y26324
X26388Y23770
X26752Y26324
X26860Y23770
X27333Y23770
X28274Y32028
X28278Y23770
X28435Y19872
X28435Y17116
X28435Y16722
X28435Y16329
X28435Y15935
X28435Y15541
X28435Y15148
X28435Y14754
X28435Y14360
X28435Y8219
X28435Y17510
X28435Y13967
X28435Y13573
X28435Y13179
X28435Y12785
X28435Y12392
X28435Y11998
X28435Y22785
X28435Y22392
X28667Y32028
X29793Y26348
X30266Y26348
X30738Y26348
X31211Y26348
X32530Y12336
X32923Y12336
X33317Y12336
X34215Y12336
X34615Y12336
X35541Y22805
X35935Y22805
X36329Y22805
X36722Y22805
T4
X2667Y10728
X9547Y13967
X10039Y13652
X10531Y13337
X11024Y13022
X22244Y27264
X30118Y34646
X33661Y34646
X35049Y23327
X36220Y23327
T6
X3986Y9360
X3986Y8632
X3986Y6683
X3986Y1939
X10089Y9183
X10089Y6663
X10089Y5915
X10089Y4222
X10089Y1762
T7
X2343Y35650
X2343Y33878
X3720Y35650
X3720Y33878
X5098Y35650
X5098Y33878
X6476Y35650
X6476Y33878
X7854Y35650
X7854Y33878
X9232Y35650
X9232Y33878
X11575Y35650
X11575Y33878
X12756Y35650
X12756Y33878
X13937Y35650
X13937Y33878
X15118Y35650
X15118Y33878
X16299Y35650
X16299Y33878
X17480Y35650
X17480Y33878
X18661Y35650
X18661Y33878
X19843Y35650
X19843Y33878
X22185Y35650
X22185Y33878
X23563Y35650
X23563Y33878
X24783Y35650
X24783Y33878
X25965Y35650
X25965Y33878
X27146Y35650
X27146Y33878
X28327Y35650
X28327Y33878
X29508Y35650
X29508Y33878
X30689Y35650
X30689Y33878
X31870Y35650
X31870Y33878
X33051Y35650
X33051Y33878
X34272Y35650
X34272Y33878
X35650Y35650
X35650Y33878
X37028Y35650
X37028Y33878
T8
X4134Y24902
X4134Y23720
X4134Y22539
X4134Y21358
X4134Y20177
X4134Y18996
X4134Y17815
X4134Y16634
X4134Y15453
X5118Y24311
X5118Y23130
X5118Y21949
X5118Y20768
X5118Y19587
X5118Y18406
X5118Y17224
X5118Y16043
X6299Y24311
X6299Y23130
X6299Y21949
X6299Y20768
X6299Y19587
X6299Y18406
X6299Y17224
X6299Y16043
X7283Y24902
X7283Y23720
X7283Y22539
X7283Y21358
X7283Y20177
X7283Y18996
X7283Y17815
X7283Y16634
X7283Y15453
T9
X33455Y27835
X33455Y26181
X33455Y24528
X35620Y27835
X35620Y26181
X35620Y24528
T10
X2087Y37894
X20965Y37894
X37283Y37894
T11
X12248Y2502
X14524Y2502
T12
X38494Y27835
X38494Y24528
T13
X1575Y27756
X1575Y12598
T5
X11685Y2915G85X11685Y2482
G05
X11685Y1211G85X11685Y896
G05
X15087Y2915G85X15087Y2482
G05
X15087Y1211G85X15087Y896
G05
M30
