G04 #@! TF.GenerationSoftware,KiCad,Pcbnew,8.0.9-8.0.9-0~ubuntu24.04.1*
G04 #@! TF.CreationDate,2026-02-17T03:28:48+00:00*
G04 #@! TF.ProjectId,AE101Corolla,41453130-3143-46f7-926f-6c6c612e6b69,rev?*
G04 #@! TF.SameCoordinates,Original*
G04 #@! TF.FileFunction,Legend,Top*
G04 #@! TF.FilePolarity,Positive*
%FSLAX46Y46*%
G04 Gerber Fmt 4.6, Leading zero omitted, Abs format (unit mm)*
G04 Created by KiCad (PCBNEW 8.0.9-8.0.9-0~ubuntu24.04.1) date 2026-02-17 03:28:48*
%MOMM*%
%LPD*%
G01*
G04 APERTURE LIST*
%ADD10C,0.150000*%
%ADD11C,0.254000*%
%ADD12C,0.200000*%
%ADD13C,0.120000*%
%ADD14C,0.127000*%
%ADD15C,0.400000*%
%ADD16C,0.100000*%
G04 APERTURE END LIST*
D10*
X48350809Y77720364D02*
X49110809Y77720364D01*
X49110809Y77720364D02*
X48567952Y77467031D01*
X48567952Y77467031D02*
X49110809Y77213697D01*
X49110809Y77213697D02*
X48350809Y77213697D01*
X49110809Y76489888D02*
X49110809Y76851793D01*
X49110809Y76851793D02*
X48748904Y76887984D01*
X48748904Y76887984D02*
X48785095Y76851793D01*
X48785095Y76851793D02*
X48821285Y76779412D01*
X48821285Y76779412D02*
X48821285Y76598460D01*
X48821285Y76598460D02*
X48785095Y76526079D01*
X48785095Y76526079D02*
X48748904Y76489888D01*
X48748904Y76489888D02*
X48676523Y76453698D01*
X48676523Y76453698D02*
X48495571Y76453698D01*
X48495571Y76453698D02*
X48423190Y76489888D01*
X48423190Y76489888D02*
X48387000Y76526079D01*
X48387000Y76526079D02*
X48350809Y76598460D01*
X48350809Y76598460D02*
X48350809Y76779412D01*
X48350809Y76779412D02*
X48387000Y76851793D01*
X48387000Y76851793D02*
X48423190Y76887984D01*
X9261905Y25295181D02*
X9261905Y26295181D01*
X9261905Y26295181D02*
X9500000Y26295181D01*
X9500000Y26295181D02*
X9642857Y26247562D01*
X9642857Y26247562D02*
X9738095Y26152324D01*
X9738095Y26152324D02*
X9785714Y26057086D01*
X9785714Y26057086D02*
X9833333Y25866610D01*
X9833333Y25866610D02*
X9833333Y25723753D01*
X9833333Y25723753D02*
X9785714Y25533277D01*
X9785714Y25533277D02*
X9738095Y25438039D01*
X9738095Y25438039D02*
X9642857Y25342800D01*
X9642857Y25342800D02*
X9500000Y25295181D01*
X9500000Y25295181D02*
X9261905Y25295181D01*
X10166667Y26295181D02*
X10833333Y26295181D01*
X10833333Y26295181D02*
X10404762Y25295181D01*
X35166666Y9795181D02*
X35166666Y9080896D01*
X35166666Y9080896D02*
X35119047Y8938039D01*
X35119047Y8938039D02*
X35023809Y8842800D01*
X35023809Y8842800D02*
X34880952Y8795181D01*
X34880952Y8795181D02*
X34785714Y8795181D01*
X35547619Y9795181D02*
X36166666Y9795181D01*
X36166666Y9795181D02*
X35833333Y9414229D01*
X35833333Y9414229D02*
X35976190Y9414229D01*
X35976190Y9414229D02*
X36071428Y9366610D01*
X36071428Y9366610D02*
X36119047Y9318991D01*
X36119047Y9318991D02*
X36166666Y9223753D01*
X36166666Y9223753D02*
X36166666Y8985658D01*
X36166666Y8985658D02*
X36119047Y8890420D01*
X36119047Y8890420D02*
X36071428Y8842800D01*
X36071428Y8842800D02*
X35976190Y8795181D01*
X35976190Y8795181D02*
X35690476Y8795181D01*
X35690476Y8795181D02*
X35595238Y8842800D01*
X35595238Y8842800D02*
X35547619Y8890420D01*
X25454819Y43333334D02*
X24978628Y43000001D01*
X25454819Y42761906D02*
X24454819Y42761906D01*
X24454819Y42761906D02*
X24454819Y43142858D01*
X24454819Y43142858D02*
X24502438Y43238096D01*
X24502438Y43238096D02*
X24550057Y43285715D01*
X24550057Y43285715D02*
X24645295Y43333334D01*
X24645295Y43333334D02*
X24788152Y43333334D01*
X24788152Y43333334D02*
X24883390Y43285715D01*
X24883390Y43285715D02*
X24931009Y43238096D01*
X24931009Y43238096D02*
X24978628Y43142858D01*
X24978628Y43142858D02*
X24978628Y42761906D01*
X24788152Y44190477D02*
X25454819Y44190477D01*
X24407200Y43952382D02*
X25121485Y43714287D01*
X25121485Y43714287D02*
X25121485Y44333334D01*
X14261905Y25295181D02*
X14261905Y26295181D01*
X14261905Y26295181D02*
X14500000Y26295181D01*
X14500000Y26295181D02*
X14642857Y26247562D01*
X14642857Y26247562D02*
X14738095Y26152324D01*
X14738095Y26152324D02*
X14785714Y26057086D01*
X14785714Y26057086D02*
X14833333Y25866610D01*
X14833333Y25866610D02*
X14833333Y25723753D01*
X14833333Y25723753D02*
X14785714Y25533277D01*
X14785714Y25533277D02*
X14738095Y25438039D01*
X14738095Y25438039D02*
X14642857Y25342800D01*
X14642857Y25342800D02*
X14500000Y25295181D01*
X14500000Y25295181D02*
X14261905Y25295181D01*
X15404762Y25866610D02*
X15309524Y25914229D01*
X15309524Y25914229D02*
X15261905Y25961848D01*
X15261905Y25961848D02*
X15214286Y26057086D01*
X15214286Y26057086D02*
X15214286Y26104705D01*
X15214286Y26104705D02*
X15261905Y26199943D01*
X15261905Y26199943D02*
X15309524Y26247562D01*
X15309524Y26247562D02*
X15404762Y26295181D01*
X15404762Y26295181D02*
X15595238Y26295181D01*
X15595238Y26295181D02*
X15690476Y26247562D01*
X15690476Y26247562D02*
X15738095Y26199943D01*
X15738095Y26199943D02*
X15785714Y26104705D01*
X15785714Y26104705D02*
X15785714Y26057086D01*
X15785714Y26057086D02*
X15738095Y25961848D01*
X15738095Y25961848D02*
X15690476Y25914229D01*
X15690476Y25914229D02*
X15595238Y25866610D01*
X15595238Y25866610D02*
X15404762Y25866610D01*
X15404762Y25866610D02*
X15309524Y25818991D01*
X15309524Y25818991D02*
X15261905Y25771372D01*
X15261905Y25771372D02*
X15214286Y25676134D01*
X15214286Y25676134D02*
X15214286Y25485658D01*
X15214286Y25485658D02*
X15261905Y25390420D01*
X15261905Y25390420D02*
X15309524Y25342800D01*
X15309524Y25342800D02*
X15404762Y25295181D01*
X15404762Y25295181D02*
X15595238Y25295181D01*
X15595238Y25295181D02*
X15690476Y25342800D01*
X15690476Y25342800D02*
X15738095Y25390420D01*
X15738095Y25390420D02*
X15785714Y25485658D01*
X15785714Y25485658D02*
X15785714Y25676134D01*
X15785714Y25676134D02*
X15738095Y25771372D01*
X15738095Y25771372D02*
X15690476Y25818991D01*
X15690476Y25818991D02*
X15595238Y25866610D01*
X87609580Y23333334D02*
X87657200Y23285715D01*
X87657200Y23285715D02*
X87704819Y23142858D01*
X87704819Y23142858D02*
X87704819Y23047620D01*
X87704819Y23047620D02*
X87657200Y22904763D01*
X87657200Y22904763D02*
X87561961Y22809525D01*
X87561961Y22809525D02*
X87466723Y22761906D01*
X87466723Y22761906D02*
X87276247Y22714287D01*
X87276247Y22714287D02*
X87133390Y22714287D01*
X87133390Y22714287D02*
X86942914Y22761906D01*
X86942914Y22761906D02*
X86847676Y22809525D01*
X86847676Y22809525D02*
X86752438Y22904763D01*
X86752438Y22904763D02*
X86704819Y23047620D01*
X86704819Y23047620D02*
X86704819Y23142858D01*
X86704819Y23142858D02*
X86752438Y23285715D01*
X86752438Y23285715D02*
X86800057Y23333334D01*
X86800057Y23714287D02*
X86752438Y23761906D01*
X86752438Y23761906D02*
X86704819Y23857144D01*
X86704819Y23857144D02*
X86704819Y24095239D01*
X86704819Y24095239D02*
X86752438Y24190477D01*
X86752438Y24190477D02*
X86800057Y24238096D01*
X86800057Y24238096D02*
X86895295Y24285715D01*
X86895295Y24285715D02*
X86990533Y24285715D01*
X86990533Y24285715D02*
X87133390Y24238096D01*
X87133390Y24238096D02*
X87704819Y23666668D01*
X87704819Y23666668D02*
X87704819Y24285715D01*
X24704819Y29583334D02*
X24228628Y29250001D01*
X24704819Y29011906D02*
X23704819Y29011906D01*
X23704819Y29011906D02*
X23704819Y29392858D01*
X23704819Y29392858D02*
X23752438Y29488096D01*
X23752438Y29488096D02*
X23800057Y29535715D01*
X23800057Y29535715D02*
X23895295Y29583334D01*
X23895295Y29583334D02*
X24038152Y29583334D01*
X24038152Y29583334D02*
X24133390Y29535715D01*
X24133390Y29535715D02*
X24181009Y29488096D01*
X24181009Y29488096D02*
X24228628Y29392858D01*
X24228628Y29392858D02*
X24228628Y29011906D01*
X23704819Y29916668D02*
X23704819Y30583334D01*
X23704819Y30583334D02*
X24704819Y30154763D01*
X11761905Y25295181D02*
X11761905Y26295181D01*
X11761905Y26295181D02*
X12000000Y26295181D01*
X12000000Y26295181D02*
X12142857Y26247562D01*
X12142857Y26247562D02*
X12238095Y26152324D01*
X12238095Y26152324D02*
X12285714Y26057086D01*
X12285714Y26057086D02*
X12333333Y25866610D01*
X12333333Y25866610D02*
X12333333Y25723753D01*
X12333333Y25723753D02*
X12285714Y25533277D01*
X12285714Y25533277D02*
X12238095Y25438039D01*
X12238095Y25438039D02*
X12142857Y25342800D01*
X12142857Y25342800D02*
X12000000Y25295181D01*
X12000000Y25295181D02*
X11761905Y25295181D01*
X13238095Y26295181D02*
X12761905Y26295181D01*
X12761905Y26295181D02*
X12714286Y25818991D01*
X12714286Y25818991D02*
X12761905Y25866610D01*
X12761905Y25866610D02*
X12857143Y25914229D01*
X12857143Y25914229D02*
X13095238Y25914229D01*
X13095238Y25914229D02*
X13190476Y25866610D01*
X13190476Y25866610D02*
X13238095Y25818991D01*
X13238095Y25818991D02*
X13285714Y25723753D01*
X13285714Y25723753D02*
X13285714Y25485658D01*
X13285714Y25485658D02*
X13238095Y25390420D01*
X13238095Y25390420D02*
X13190476Y25342800D01*
X13190476Y25342800D02*
X13095238Y25295181D01*
X13095238Y25295181D02*
X12857143Y25295181D01*
X12857143Y25295181D02*
X12761905Y25342800D01*
X12761905Y25342800D02*
X12714286Y25390420D01*
X25954819Y29583334D02*
X25478628Y29250001D01*
X25954819Y29011906D02*
X24954819Y29011906D01*
X24954819Y29011906D02*
X24954819Y29392858D01*
X24954819Y29392858D02*
X25002438Y29488096D01*
X25002438Y29488096D02*
X25050057Y29535715D01*
X25050057Y29535715D02*
X25145295Y29583334D01*
X25145295Y29583334D02*
X25288152Y29583334D01*
X25288152Y29583334D02*
X25383390Y29535715D01*
X25383390Y29535715D02*
X25431009Y29488096D01*
X25431009Y29488096D02*
X25478628Y29392858D01*
X25478628Y29392858D02*
X25478628Y29011906D01*
X25954819Y30059525D02*
X25954819Y30250001D01*
X25954819Y30250001D02*
X25907200Y30345239D01*
X25907200Y30345239D02*
X25859580Y30392858D01*
X25859580Y30392858D02*
X25716723Y30488096D01*
X25716723Y30488096D02*
X25526247Y30535715D01*
X25526247Y30535715D02*
X25145295Y30535715D01*
X25145295Y30535715D02*
X25050057Y30488096D01*
X25050057Y30488096D02*
X25002438Y30440477D01*
X25002438Y30440477D02*
X24954819Y30345239D01*
X24954819Y30345239D02*
X24954819Y30154763D01*
X24954819Y30154763D02*
X25002438Y30059525D01*
X25002438Y30059525D02*
X25050057Y30011906D01*
X25050057Y30011906D02*
X25145295Y29964287D01*
X25145295Y29964287D02*
X25383390Y29964287D01*
X25383390Y29964287D02*
X25478628Y30011906D01*
X25478628Y30011906D02*
X25526247Y30059525D01*
X25526247Y30059525D02*
X25573866Y30154763D01*
X25573866Y30154763D02*
X25573866Y30345239D01*
X25573866Y30345239D02*
X25526247Y30440477D01*
X25526247Y30440477D02*
X25478628Y30488096D01*
X25478628Y30488096D02*
X25383390Y30535715D01*
X85954819Y77238096D02*
X86764342Y77238096D01*
X86764342Y77238096D02*
X86859580Y77285715D01*
X86859580Y77285715D02*
X86907200Y77333334D01*
X86907200Y77333334D02*
X86954819Y77428572D01*
X86954819Y77428572D02*
X86954819Y77619048D01*
X86954819Y77619048D02*
X86907200Y77714286D01*
X86907200Y77714286D02*
X86859580Y77761905D01*
X86859580Y77761905D02*
X86764342Y77809524D01*
X86764342Y77809524D02*
X85954819Y77809524D01*
X86288152Y78714286D02*
X86954819Y78714286D01*
X85907200Y78476191D02*
X86621485Y78238096D01*
X86621485Y78238096D02*
X86621485Y78857143D01*
X21928322Y53026691D02*
X22942557Y53026691D01*
X22942557Y53026691D02*
X23145404Y52959075D01*
X23145404Y52959075D02*
X23280636Y52823844D01*
X23280636Y52823844D02*
X23348251Y52620997D01*
X23348251Y52620997D02*
X23348251Y52485765D01*
X22063554Y53635232D02*
X21995938Y53702848D01*
X21995938Y53702848D02*
X21928322Y53838079D01*
X21928322Y53838079D02*
X21928322Y54176157D01*
X21928322Y54176157D02*
X21995938Y54311389D01*
X21995938Y54311389D02*
X22063554Y54379004D01*
X22063554Y54379004D02*
X22198785Y54446620D01*
X22198785Y54446620D02*
X22334016Y54446620D01*
X22334016Y54446620D02*
X22536863Y54379004D01*
X22536863Y54379004D02*
X23348251Y53567616D01*
X23348251Y53567616D02*
X23348251Y54446620D01*
X27204819Y29583334D02*
X26728628Y29250001D01*
X27204819Y29011906D02*
X26204819Y29011906D01*
X26204819Y29011906D02*
X26204819Y29392858D01*
X26204819Y29392858D02*
X26252438Y29488096D01*
X26252438Y29488096D02*
X26300057Y29535715D01*
X26300057Y29535715D02*
X26395295Y29583334D01*
X26395295Y29583334D02*
X26538152Y29583334D01*
X26538152Y29583334D02*
X26633390Y29535715D01*
X26633390Y29535715D02*
X26681009Y29488096D01*
X26681009Y29488096D02*
X26728628Y29392858D01*
X26728628Y29392858D02*
X26728628Y29011906D01*
X26633390Y30154763D02*
X26585771Y30059525D01*
X26585771Y30059525D02*
X26538152Y30011906D01*
X26538152Y30011906D02*
X26442914Y29964287D01*
X26442914Y29964287D02*
X26395295Y29964287D01*
X26395295Y29964287D02*
X26300057Y30011906D01*
X26300057Y30011906D02*
X26252438Y30059525D01*
X26252438Y30059525D02*
X26204819Y30154763D01*
X26204819Y30154763D02*
X26204819Y30345239D01*
X26204819Y30345239D02*
X26252438Y30440477D01*
X26252438Y30440477D02*
X26300057Y30488096D01*
X26300057Y30488096D02*
X26395295Y30535715D01*
X26395295Y30535715D02*
X26442914Y30535715D01*
X26442914Y30535715D02*
X26538152Y30488096D01*
X26538152Y30488096D02*
X26585771Y30440477D01*
X26585771Y30440477D02*
X26633390Y30345239D01*
X26633390Y30345239D02*
X26633390Y30154763D01*
X26633390Y30154763D02*
X26681009Y30059525D01*
X26681009Y30059525D02*
X26728628Y30011906D01*
X26728628Y30011906D02*
X26823866Y29964287D01*
X26823866Y29964287D02*
X27014342Y29964287D01*
X27014342Y29964287D02*
X27109580Y30011906D01*
X27109580Y30011906D02*
X27157200Y30059525D01*
X27157200Y30059525D02*
X27204819Y30154763D01*
X27204819Y30154763D02*
X27204819Y30345239D01*
X27204819Y30345239D02*
X27157200Y30440477D01*
X27157200Y30440477D02*
X27109580Y30488096D01*
X27109580Y30488096D02*
X27014342Y30535715D01*
X27014342Y30535715D02*
X26823866Y30535715D01*
X26823866Y30535715D02*
X26728628Y30488096D01*
X26728628Y30488096D02*
X26681009Y30440477D01*
X26681009Y30440477D02*
X26633390Y30345239D01*
X98416666Y75295181D02*
X98416666Y74580896D01*
X98416666Y74580896D02*
X98369047Y74438039D01*
X98369047Y74438039D02*
X98273809Y74342800D01*
X98273809Y74342800D02*
X98130952Y74295181D01*
X98130952Y74295181D02*
X98035714Y74295181D01*
X99321428Y74961848D02*
X99321428Y74295181D01*
X99083333Y75342800D02*
X98845238Y74628515D01*
X98845238Y74628515D02*
X99464285Y74628515D01*
X55666666Y73045181D02*
X55666666Y72330896D01*
X55666666Y72330896D02*
X55619047Y72188039D01*
X55619047Y72188039D02*
X55523809Y72092800D01*
X55523809Y72092800D02*
X55380952Y72045181D01*
X55380952Y72045181D02*
X55285714Y72045181D01*
X56142857Y72045181D02*
X56142857Y73045181D01*
X56142857Y73045181D02*
X56523809Y73045181D01*
X56523809Y73045181D02*
X56619047Y72997562D01*
X56619047Y72997562D02*
X56666666Y72949943D01*
X56666666Y72949943D02*
X56714285Y72854705D01*
X56714285Y72854705D02*
X56714285Y72711848D01*
X56714285Y72711848D02*
X56666666Y72616610D01*
X56666666Y72616610D02*
X56619047Y72568991D01*
X56619047Y72568991D02*
X56523809Y72521372D01*
X56523809Y72521372D02*
X56142857Y72521372D01*
X57666666Y72045181D02*
X57095238Y72045181D01*
X57380952Y72045181D02*
X57380952Y73045181D01*
X57380952Y73045181D02*
X57285714Y72902324D01*
X57285714Y72902324D02*
X57190476Y72807086D01*
X57190476Y72807086D02*
X57095238Y72759467D01*
X95891666Y19695181D02*
X95891666Y18980896D01*
X95891666Y18980896D02*
X95844047Y18838039D01*
X95844047Y18838039D02*
X95748809Y18742800D01*
X95748809Y18742800D02*
X95605952Y18695181D01*
X95605952Y18695181D02*
X95510714Y18695181D01*
X96844047Y19695181D02*
X96367857Y19695181D01*
X96367857Y19695181D02*
X96320238Y19218991D01*
X96320238Y19218991D02*
X96367857Y19266610D01*
X96367857Y19266610D02*
X96463095Y19314229D01*
X96463095Y19314229D02*
X96701190Y19314229D01*
X96701190Y19314229D02*
X96796428Y19266610D01*
X96796428Y19266610D02*
X96844047Y19218991D01*
X96844047Y19218991D02*
X96891666Y19123753D01*
X96891666Y19123753D02*
X96891666Y18885658D01*
X96891666Y18885658D02*
X96844047Y18790420D01*
X96844047Y18790420D02*
X96796428Y18742800D01*
X96796428Y18742800D02*
X96701190Y18695181D01*
X96701190Y18695181D02*
X96463095Y18695181D01*
X96463095Y18695181D02*
X96367857Y18742800D01*
X96367857Y18742800D02*
X96320238Y18790420D01*
X79988095Y18545181D02*
X79988095Y17735658D01*
X79988095Y17735658D02*
X80035714Y17640420D01*
X80035714Y17640420D02*
X80083333Y17592800D01*
X80083333Y17592800D02*
X80178571Y17545181D01*
X80178571Y17545181D02*
X80369047Y17545181D01*
X80369047Y17545181D02*
X80464285Y17592800D01*
X80464285Y17592800D02*
X80511904Y17640420D01*
X80511904Y17640420D02*
X80559523Y17735658D01*
X80559523Y17735658D02*
X80559523Y18545181D01*
X80940476Y18545181D02*
X81607142Y18545181D01*
X81607142Y18545181D02*
X81178571Y17545181D01*
D11*
X52826667Y81445682D02*
X52826667Y80538539D01*
X52826667Y80538539D02*
X52766190Y80357111D01*
X52766190Y80357111D02*
X52645238Y80236158D01*
X52645238Y80236158D02*
X52463809Y80175682D01*
X52463809Y80175682D02*
X52342857Y80175682D01*
X54096667Y80175682D02*
X53370952Y80175682D01*
X53733809Y80175682D02*
X53733809Y81445682D01*
X53733809Y81445682D02*
X53612857Y81264254D01*
X53612857Y81264254D02*
X53491905Y81143301D01*
X53491905Y81143301D02*
X53370952Y81082825D01*
D10*
X10162819Y77488096D02*
X10972342Y77488096D01*
X10972342Y77488096D02*
X11067580Y77535715D01*
X11067580Y77535715D02*
X11115200Y77583334D01*
X11115200Y77583334D02*
X11162819Y77678572D01*
X11162819Y77678572D02*
X11162819Y77869048D01*
X11162819Y77869048D02*
X11115200Y77964286D01*
X11115200Y77964286D02*
X11067580Y78011905D01*
X11067580Y78011905D02*
X10972342Y78059524D01*
X10972342Y78059524D02*
X10162819Y78059524D01*
X10162819Y78440477D02*
X10162819Y79059524D01*
X10162819Y79059524D02*
X10543771Y78726191D01*
X10543771Y78726191D02*
X10543771Y78869048D01*
X10543771Y78869048D02*
X10591390Y78964286D01*
X10591390Y78964286D02*
X10639009Y79011905D01*
X10639009Y79011905D02*
X10734247Y79059524D01*
X10734247Y79059524D02*
X10972342Y79059524D01*
X10972342Y79059524D02*
X11067580Y79011905D01*
X11067580Y79011905D02*
X11115200Y78964286D01*
X11115200Y78964286D02*
X11162819Y78869048D01*
X11162819Y78869048D02*
X11162819Y78583334D01*
X11162819Y78583334D02*
X11115200Y78488096D01*
X11115200Y78488096D02*
X11067580Y78440477D01*
X23204819Y43333334D02*
X22728628Y43000001D01*
X23204819Y42761906D02*
X22204819Y42761906D01*
X22204819Y42761906D02*
X22204819Y43142858D01*
X22204819Y43142858D02*
X22252438Y43238096D01*
X22252438Y43238096D02*
X22300057Y43285715D01*
X22300057Y43285715D02*
X22395295Y43333334D01*
X22395295Y43333334D02*
X22538152Y43333334D01*
X22538152Y43333334D02*
X22633390Y43285715D01*
X22633390Y43285715D02*
X22681009Y43238096D01*
X22681009Y43238096D02*
X22728628Y43142858D01*
X22728628Y43142858D02*
X22728628Y42761906D01*
X22204819Y43666668D02*
X22204819Y44285715D01*
X22204819Y44285715D02*
X22585771Y43952382D01*
X22585771Y43952382D02*
X22585771Y44095239D01*
X22585771Y44095239D02*
X22633390Y44190477D01*
X22633390Y44190477D02*
X22681009Y44238096D01*
X22681009Y44238096D02*
X22776247Y44285715D01*
X22776247Y44285715D02*
X23014342Y44285715D01*
X23014342Y44285715D02*
X23109580Y44238096D01*
X23109580Y44238096D02*
X23157200Y44190477D01*
X23157200Y44190477D02*
X23204819Y44095239D01*
X23204819Y44095239D02*
X23204819Y43809525D01*
X23204819Y43809525D02*
X23157200Y43714287D01*
X23157200Y43714287D02*
X23109580Y43666668D01*
X85083333Y25640420D02*
X85035714Y25592800D01*
X85035714Y25592800D02*
X84892857Y25545181D01*
X84892857Y25545181D02*
X84797619Y25545181D01*
X84797619Y25545181D02*
X84654762Y25592800D01*
X84654762Y25592800D02*
X84559524Y25688039D01*
X84559524Y25688039D02*
X84511905Y25783277D01*
X84511905Y25783277D02*
X84464286Y25973753D01*
X84464286Y25973753D02*
X84464286Y26116610D01*
X84464286Y26116610D02*
X84511905Y26307086D01*
X84511905Y26307086D02*
X84559524Y26402324D01*
X84559524Y26402324D02*
X84654762Y26497562D01*
X84654762Y26497562D02*
X84797619Y26545181D01*
X84797619Y26545181D02*
X84892857Y26545181D01*
X84892857Y26545181D02*
X85035714Y26497562D01*
X85035714Y26497562D02*
X85083333Y26449943D01*
X86035714Y25545181D02*
X85464286Y25545181D01*
X85750000Y25545181D02*
X85750000Y26545181D01*
X85750000Y26545181D02*
X85654762Y26402324D01*
X85654762Y26402324D02*
X85559524Y26307086D01*
X85559524Y26307086D02*
X85464286Y26259467D01*
X16761905Y25295181D02*
X16761905Y26295181D01*
X16761905Y26295181D02*
X17000000Y26295181D01*
X17000000Y26295181D02*
X17142857Y26247562D01*
X17142857Y26247562D02*
X17238095Y26152324D01*
X17238095Y26152324D02*
X17285714Y26057086D01*
X17285714Y26057086D02*
X17333333Y25866610D01*
X17333333Y25866610D02*
X17333333Y25723753D01*
X17333333Y25723753D02*
X17285714Y25533277D01*
X17285714Y25533277D02*
X17238095Y25438039D01*
X17238095Y25438039D02*
X17142857Y25342800D01*
X17142857Y25342800D02*
X17000000Y25295181D01*
X17000000Y25295181D02*
X16761905Y25295181D01*
X18190476Y26295181D02*
X18000000Y26295181D01*
X18000000Y26295181D02*
X17904762Y26247562D01*
X17904762Y26247562D02*
X17857143Y26199943D01*
X17857143Y26199943D02*
X17761905Y26057086D01*
X17761905Y26057086D02*
X17714286Y25866610D01*
X17714286Y25866610D02*
X17714286Y25485658D01*
X17714286Y25485658D02*
X17761905Y25390420D01*
X17761905Y25390420D02*
X17809524Y25342800D01*
X17809524Y25342800D02*
X17904762Y25295181D01*
X17904762Y25295181D02*
X18095238Y25295181D01*
X18095238Y25295181D02*
X18190476Y25342800D01*
X18190476Y25342800D02*
X18238095Y25390420D01*
X18238095Y25390420D02*
X18285714Y25485658D01*
X18285714Y25485658D02*
X18285714Y25723753D01*
X18285714Y25723753D02*
X18238095Y25818991D01*
X18238095Y25818991D02*
X18190476Y25866610D01*
X18190476Y25866610D02*
X18095238Y25914229D01*
X18095238Y25914229D02*
X17904762Y25914229D01*
X17904762Y25914229D02*
X17809524Y25866610D01*
X17809524Y25866610D02*
X17761905Y25818991D01*
X17761905Y25818991D02*
X17714286Y25723753D01*
X28454819Y28607143D02*
X27978628Y28273810D01*
X28454819Y28035715D02*
X27454819Y28035715D01*
X27454819Y28035715D02*
X27454819Y28416667D01*
X27454819Y28416667D02*
X27502438Y28511905D01*
X27502438Y28511905D02*
X27550057Y28559524D01*
X27550057Y28559524D02*
X27645295Y28607143D01*
X27645295Y28607143D02*
X27788152Y28607143D01*
X27788152Y28607143D02*
X27883390Y28559524D01*
X27883390Y28559524D02*
X27931009Y28511905D01*
X27931009Y28511905D02*
X27978628Y28416667D01*
X27978628Y28416667D02*
X27978628Y28035715D01*
X28454819Y29559524D02*
X28454819Y28988096D01*
X28454819Y29273810D02*
X27454819Y29273810D01*
X27454819Y29273810D02*
X27597676Y29178572D01*
X27597676Y29178572D02*
X27692914Y29083334D01*
X27692914Y29083334D02*
X27740533Y28988096D01*
X27454819Y30178572D02*
X27454819Y30273810D01*
X27454819Y30273810D02*
X27502438Y30369048D01*
X27502438Y30369048D02*
X27550057Y30416667D01*
X27550057Y30416667D02*
X27645295Y30464286D01*
X27645295Y30464286D02*
X27835771Y30511905D01*
X27835771Y30511905D02*
X28073866Y30511905D01*
X28073866Y30511905D02*
X28264342Y30464286D01*
X28264342Y30464286D02*
X28359580Y30416667D01*
X28359580Y30416667D02*
X28407200Y30369048D01*
X28407200Y30369048D02*
X28454819Y30273810D01*
X28454819Y30273810D02*
X28454819Y30178572D01*
X28454819Y30178572D02*
X28407200Y30083334D01*
X28407200Y30083334D02*
X28359580Y30035715D01*
X28359580Y30035715D02*
X28264342Y29988096D01*
X28264342Y29988096D02*
X28073866Y29940477D01*
X28073866Y29940477D02*
X27835771Y29940477D01*
X27835771Y29940477D02*
X27645295Y29988096D01*
X27645295Y29988096D02*
X27550057Y30035715D01*
X27550057Y30035715D02*
X27502438Y30083334D01*
X27502438Y30083334D02*
X27454819Y30178572D01*
D12*
G04 #@! TO.C,M5*
X44650000Y81550000D02*
X44650000Y72450000D01*
X44650000Y81550000D02*
X45650002Y81550000D01*
X47750003Y81550000D02*
X47750003Y72450000D01*
D13*
G04 #@! TO.C,D7*
X9000000Y26640000D02*
X9000000Y30650000D01*
X9000000Y26640000D02*
X11000000Y26640000D01*
X11000000Y26640000D02*
X11000000Y30650000D01*
G04 #@! TO.C,J3*
X29330000Y3850000D02*
X29330000Y5550000D01*
X38670000Y3850000D02*
X38670000Y5550000D01*
G04 #@! TO.C,R4*
X24620000Y45663641D02*
X24620000Y45356359D01*
X25380000Y45663641D02*
X25380000Y45356359D01*
G04 #@! TO.C,D8*
X14000000Y26640000D02*
X14000000Y30650000D01*
X14000000Y26640000D02*
X16000000Y26640000D01*
X16000000Y26640000D02*
X16000000Y30650000D01*
G04 #@! TO.C,C2*
X86640000Y21392164D02*
X86640000Y21607836D01*
X87360000Y21392164D02*
X87360000Y21607836D01*
G04 #@! TO.C,R7*
X23870000Y31903641D02*
X23870000Y31596359D01*
X24630000Y31903641D02*
X24630000Y31596359D01*
G04 #@! TO.C,D5*
X11500000Y26640000D02*
X11500000Y30650000D01*
X11500000Y26640000D02*
X13500000Y26640000D01*
X13500000Y26640000D02*
X13500000Y30650000D01*
D12*
G04 #@! TO.C,M2*
X69575000Y81625000D02*
X69575000Y66625000D01*
X69575000Y81625000D02*
X70875000Y81625000D01*
X69575000Y66625000D02*
X74675000Y66625000D01*
X79175000Y81625000D02*
X72775000Y81625000D01*
X79175000Y67225000D02*
X79175000Y81625000D01*
D13*
G04 #@! TO.C,R9*
X25120000Y31903641D02*
X25120000Y31596359D01*
X25880000Y31903641D02*
X25880000Y31596359D01*
D14*
G04 #@! TO.C,U4*
X80475000Y76050000D02*
X80475000Y79950000D01*
X85525000Y76050000D02*
X85525000Y79950000D01*
D12*
X81195000Y73555000D02*
G75*
G02*
X80995000Y73555000I-100000J0D01*
G01*
X80995000Y73555000D02*
G75*
G02*
X81195000Y73555000I100000J0D01*
G01*
G04 #@! TO.C,M7*
X80925000Y58375000D02*
X94825000Y58375000D01*
X94825000Y30875000D01*
X80925000Y30875000D01*
X80925000Y58375000D01*
D14*
G04 #@! TO.C,J2*
X500000Y74000000D02*
X500000Y70500000D01*
X500000Y32000000D02*
X500000Y28500000D01*
X500000Y28500000D02*
X7500000Y28500000D01*
X7500000Y74000000D02*
X500000Y74000000D01*
X7500000Y70502600D02*
X7500000Y74000000D01*
X7500000Y32000000D02*
X21250000Y32000000D01*
X7500000Y28500000D02*
X7500000Y32000000D01*
X21247560Y70502600D02*
X7500000Y70502600D01*
X21250000Y32000000D02*
X21250000Y70500000D01*
D15*
X18848000Y72404500D02*
G75*
G02*
X18448000Y72404500I-200000J0D01*
G01*
X18448000Y72404500D02*
G75*
G02*
X18848000Y72404500I200000J0D01*
G01*
D12*
G04 #@! TO.C,M1*
X30325002Y60575003D02*
X30324999Y20675004D01*
X31624999Y20675004D02*
X30324999Y20675004D01*
X72425002Y60575003D02*
X30325002Y60575003D01*
X72425002Y60575003D02*
X72425002Y20675004D01*
X72425002Y20675004D02*
X31624999Y20675004D01*
G04 #@! TO.C,M6*
X62537502Y13218337D02*
X62537502Y6682011D01*
X72312499Y13568340D02*
X63112499Y13568340D01*
X73437498Y13568337D02*
X73437496Y13568340D01*
X73437498Y13568337D02*
X73437498Y12693343D01*
X73712499Y12418337D02*
X73712499Y6682011D01*
X73712499Y6682011D02*
X62537502Y6682011D01*
X73712502Y12418339D02*
X73437498Y12693343D01*
D13*
G04 #@! TO.C,R8*
X26370000Y31903641D02*
X26370000Y31596359D01*
X27130000Y31903641D02*
X27130000Y31596359D01*
D12*
G04 #@! TO.C,M3*
X58750000Y81562500D02*
X58750000Y66562500D01*
X58750000Y81562500D02*
X60050000Y81562500D01*
X58750000Y66562500D02*
X63850000Y66562500D01*
X68350000Y81562500D02*
X61950000Y81562500D01*
X68350000Y67162500D02*
X68350000Y81562500D01*
D13*
G04 #@! TO.C,J4*
X88365000Y71000000D02*
X87085000Y71000000D01*
X88365000Y70400000D02*
X87085000Y70400000D01*
X88365000Y66800000D02*
X87085000Y66800000D01*
X88365000Y66200000D02*
X87085000Y66200000D01*
X88365000Y62600000D02*
X87085000Y62600000D01*
X88365000Y62000000D02*
X87085000Y62000000D01*
X90175000Y73300000D02*
X90775000Y73300000D01*
X90475000Y72700000D02*
X90175000Y73300000D01*
X90775000Y73300000D02*
X90475000Y72700000D01*
X91465000Y73510000D02*
X99475000Y73510000D01*
X91465000Y72700000D02*
X91465000Y73510000D01*
X91465000Y60300000D02*
X91465000Y59490000D01*
X91465000Y59490000D02*
X99475000Y59490000D01*
X91475000Y69090000D02*
X91475000Y68110000D01*
X91475000Y64890000D02*
X91475000Y63910000D01*
G04 #@! TO.C,JP1*
X55125000Y71750000D02*
X57925000Y71750000D01*
X55125000Y69750000D02*
X55125000Y71750000D01*
X57925000Y71750000D02*
X57925000Y69750000D01*
X57925000Y69750000D02*
X55125000Y69750000D01*
G04 #@! TO.C,J5*
X88615000Y15400000D02*
X87335000Y15400000D01*
X88615000Y14800000D02*
X87335000Y14800000D01*
X88615000Y11200000D02*
X87335000Y11200000D01*
X88615000Y10600000D02*
X87335000Y10600000D01*
X90425000Y17700000D02*
X91025000Y17700000D01*
X90725000Y17100000D02*
X90425000Y17700000D01*
X91025000Y17700000D02*
X90725000Y17100000D01*
X91715000Y17910000D02*
X99725000Y17910000D01*
X91715000Y17100000D02*
X91715000Y17910000D01*
X91715000Y8900000D02*
X91715000Y8090000D01*
X91715000Y8090000D02*
X99725000Y8090000D01*
X91725000Y13490000D02*
X91725000Y12510000D01*
G04 #@! TO.C,U7*
X82750000Y24060000D02*
X80800000Y24060000D01*
X82750000Y24060000D02*
X84700000Y24060000D01*
X82750000Y18940000D02*
X80800000Y18940000D01*
X82750000Y18940000D02*
X84700000Y18940000D01*
X85690000Y18705000D02*
X85210000Y18705000D01*
X85450000Y19035000D01*
X85690000Y18705000D01*
G36*
X85690000Y18705000D02*
G01*
X85210000Y18705000D01*
X85450000Y19035000D01*
X85690000Y18705000D01*
G37*
D16*
G04 #@! TO.C,J1*
X2100000Y93050000D02*
X2100000Y99550000D01*
D12*
X94050000Y83150000D02*
X94050000Y83150000D01*
X94050000Y83050000D02*
X94050000Y83050000D01*
X94050000Y83050000D02*
X94050000Y83050000D01*
D16*
X97900000Y99550000D02*
X97900000Y93050000D01*
X97900000Y93050000D02*
X2100000Y93050000D01*
D12*
X94050000Y83150000D02*
G75*
G02*
X94050000Y83050000I0J-50000D01*
G01*
X94050000Y83150000D02*
G75*
G02*
X94050000Y83050000I0J-50000D01*
G01*
X94050000Y83050000D02*
G75*
G02*
X94050000Y83150000I0J50000D01*
G01*
D14*
G04 #@! TO.C,U3*
X11820000Y76300000D02*
X11820000Y80200000D01*
X16870000Y76300000D02*
X16870000Y80200000D01*
D12*
X12540000Y73805000D02*
G75*
G02*
X12340000Y73805000I-100000J0D01*
G01*
X12340000Y73805000D02*
G75*
G02*
X12540000Y73805000I100000J0D01*
G01*
D13*
G04 #@! TO.C,R3*
X22370000Y45653641D02*
X22370000Y45346359D01*
X23130000Y45653641D02*
X23130000Y45346359D01*
G04 #@! TO.C,C1*
X85122164Y25110000D02*
X85337836Y25110000D01*
X85122164Y24390000D02*
X85337836Y24390000D01*
G04 #@! TO.C,D6*
X16500000Y26640000D02*
X16500000Y30650000D01*
X16500000Y26640000D02*
X18500000Y26640000D01*
X18500000Y26640000D02*
X18500000Y30650000D01*
D12*
G04 #@! TO.C,M4*
X9474999Y17824999D02*
X9474999Y21025002D01*
X9474999Y5724999D02*
X9474999Y16125001D01*
X9474999Y3824999D02*
X9474999Y4124999D01*
X9474999Y3824999D02*
X24874999Y3824999D01*
X10974999Y24424997D02*
X26274998Y24424999D01*
X26274996Y17725001D02*
X26274996Y22525001D01*
X26274996Y11524999D02*
X26274996Y14224999D01*
X26274996Y8825001D02*
X26274996Y9925004D01*
X26274996Y5274999D02*
X26275001Y6824999D01*
X26274998Y24125001D02*
X26274998Y24424999D01*
D13*
G04 #@! TO.C,R10*
X27620000Y31903641D02*
X27620000Y31596359D01*
X28380000Y31903641D02*
X28380000Y31596359D01*
G04 #@! TD*
M02*
