G04 #@! TF.GenerationSoftware,KiCad,Pcbnew,8.0.9-8.0.9-0~ubuntu24.04.1*
G04 #@! TF.CreationDate,2026-02-13T03:28:50+00:00*
G04 #@! TF.ProjectId,AE101Corolla,41453130-3143-46f7-926f-6c6c612e6b69,rev?*
G04 #@! TF.SameCoordinates,Original*
G04 #@! TF.FileFunction,Legend,Bot*
G04 #@! TF.FilePolarity,Positive*
%FSLAX46Y46*%
G04 Gerber Fmt 4.6, Leading zero omitted, Abs format (unit mm)*
G04 Created by KiCad (PCBNEW 8.0.9-8.0.9-0~ubuntu24.04.1) date 2026-02-13 03:28:50*
%MOMM*%
%LPD*%
G01*
G04 APERTURE LIST*
%ADD10C,0.150000*%
%ADD11C,0.200000*%
%ADD12C,0.127000*%
%ADD13C,0.120000*%
G04 APERTURE END LIST*
D10*
X5701904Y44293181D02*
X5701904Y43483658D01*
X5701904Y43483658D02*
X5654285Y43388420D01*
X5654285Y43388420D02*
X5606666Y43340800D01*
X5606666Y43340800D02*
X5511428Y43293181D01*
X5511428Y43293181D02*
X5320952Y43293181D01*
X5320952Y43293181D02*
X5225714Y43340800D01*
X5225714Y43340800D02*
X5178095Y43388420D01*
X5178095Y43388420D02*
X5130476Y43483658D01*
X5130476Y43483658D02*
X5130476Y44293181D01*
X4225714Y44293181D02*
X4416190Y44293181D01*
X4416190Y44293181D02*
X4511428Y44245562D01*
X4511428Y44245562D02*
X4559047Y44197943D01*
X4559047Y44197943D02*
X4654285Y44055086D01*
X4654285Y44055086D02*
X4701904Y43864610D01*
X4701904Y43864610D02*
X4701904Y43483658D01*
X4701904Y43483658D02*
X4654285Y43388420D01*
X4654285Y43388420D02*
X4606666Y43340800D01*
X4606666Y43340800D02*
X4511428Y43293181D01*
X4511428Y43293181D02*
X4320952Y43293181D01*
X4320952Y43293181D02*
X4225714Y43340800D01*
X4225714Y43340800D02*
X4178095Y43388420D01*
X4178095Y43388420D02*
X4130476Y43483658D01*
X4130476Y43483658D02*
X4130476Y43721753D01*
X4130476Y43721753D02*
X4178095Y43816991D01*
X4178095Y43816991D02*
X4225714Y43864610D01*
X4225714Y43864610D02*
X4320952Y43912229D01*
X4320952Y43912229D02*
X4511428Y43912229D01*
X4511428Y43912229D02*
X4606666Y43864610D01*
X4606666Y43864610D02*
X4654285Y43816991D01*
X4654285Y43816991D02*
X4701904Y43721753D01*
X85374819Y78676667D02*
X84898628Y79010000D01*
X85374819Y79248095D02*
X84374819Y79248095D01*
X84374819Y79248095D02*
X84374819Y78867143D01*
X84374819Y78867143D02*
X84422438Y78771905D01*
X84422438Y78771905D02*
X84470057Y78724286D01*
X84470057Y78724286D02*
X84565295Y78676667D01*
X84565295Y78676667D02*
X84708152Y78676667D01*
X84708152Y78676667D02*
X84803390Y78724286D01*
X84803390Y78724286D02*
X84851009Y78771905D01*
X84851009Y78771905D02*
X84898628Y78867143D01*
X84898628Y78867143D02*
X84898628Y79248095D01*
X84470057Y78295714D02*
X84422438Y78248095D01*
X84422438Y78248095D02*
X84374819Y78152857D01*
X84374819Y78152857D02*
X84374819Y77914762D01*
X84374819Y77914762D02*
X84422438Y77819524D01*
X84422438Y77819524D02*
X84470057Y77771905D01*
X84470057Y77771905D02*
X84565295Y77724286D01*
X84565295Y77724286D02*
X84660533Y77724286D01*
X84660533Y77724286D02*
X84803390Y77771905D01*
X84803390Y77771905D02*
X85374819Y78343333D01*
X85374819Y78343333D02*
X85374819Y77724286D01*
X86238094Y85295181D02*
X86238094Y86295181D01*
X86238094Y86295181D02*
X85999999Y86295181D01*
X85999999Y86295181D02*
X85857142Y86247562D01*
X85857142Y86247562D02*
X85761904Y86152324D01*
X85761904Y86152324D02*
X85714285Y86057086D01*
X85714285Y86057086D02*
X85666666Y85866610D01*
X85666666Y85866610D02*
X85666666Y85723753D01*
X85666666Y85723753D02*
X85714285Y85533277D01*
X85714285Y85533277D02*
X85761904Y85438039D01*
X85761904Y85438039D02*
X85857142Y85342800D01*
X85857142Y85342800D02*
X85999999Y85295181D01*
X85999999Y85295181D02*
X86238094Y85295181D01*
X85333332Y86295181D02*
X84714285Y86295181D01*
X84714285Y86295181D02*
X85047618Y85914229D01*
X85047618Y85914229D02*
X84904761Y85914229D01*
X84904761Y85914229D02*
X84809523Y85866610D01*
X84809523Y85866610D02*
X84761904Y85818991D01*
X84761904Y85818991D02*
X84714285Y85723753D01*
X84714285Y85723753D02*
X84714285Y85485658D01*
X84714285Y85485658D02*
X84761904Y85390420D01*
X84761904Y85390420D02*
X84809523Y85342800D01*
X84809523Y85342800D02*
X84904761Y85295181D01*
X84904761Y85295181D02*
X85190475Y85295181D01*
X85190475Y85295181D02*
X85285713Y85342800D01*
X85285713Y85342800D02*
X85333332Y85390420D01*
X36374819Y4916667D02*
X35898628Y5250000D01*
X36374819Y5488095D02*
X35374819Y5488095D01*
X35374819Y5488095D02*
X35374819Y5107143D01*
X35374819Y5107143D02*
X35422438Y5011905D01*
X35422438Y5011905D02*
X35470057Y4964286D01*
X35470057Y4964286D02*
X35565295Y4916667D01*
X35565295Y4916667D02*
X35708152Y4916667D01*
X35708152Y4916667D02*
X35803390Y4964286D01*
X35803390Y4964286D02*
X35851009Y5011905D01*
X35851009Y5011905D02*
X35898628Y5107143D01*
X35898628Y5107143D02*
X35898628Y5488095D01*
X35374819Y4011905D02*
X35374819Y4488095D01*
X35374819Y4488095D02*
X35851009Y4535714D01*
X35851009Y4535714D02*
X35803390Y4488095D01*
X35803390Y4488095D02*
X35755771Y4392857D01*
X35755771Y4392857D02*
X35755771Y4154762D01*
X35755771Y4154762D02*
X35803390Y4059524D01*
X35803390Y4059524D02*
X35851009Y4011905D01*
X35851009Y4011905D02*
X35946247Y3964286D01*
X35946247Y3964286D02*
X36184342Y3964286D01*
X36184342Y3964286D02*
X36279580Y4011905D01*
X36279580Y4011905D02*
X36327200Y4059524D01*
X36327200Y4059524D02*
X36374819Y4154762D01*
X36374819Y4154762D02*
X36374819Y4392857D01*
X36374819Y4392857D02*
X36327200Y4488095D01*
X36327200Y4488095D02*
X36279580Y4535714D01*
X5726904Y56158181D02*
X5726904Y55348658D01*
X5726904Y55348658D02*
X5679285Y55253420D01*
X5679285Y55253420D02*
X5631666Y55205800D01*
X5631666Y55205800D02*
X5536428Y55158181D01*
X5536428Y55158181D02*
X5345952Y55158181D01*
X5345952Y55158181D02*
X5250714Y55205800D01*
X5250714Y55205800D02*
X5203095Y55253420D01*
X5203095Y55253420D02*
X5155476Y55348658D01*
X5155476Y55348658D02*
X5155476Y56158181D01*
X4726904Y56062943D02*
X4679285Y56110562D01*
X4679285Y56110562D02*
X4584047Y56158181D01*
X4584047Y56158181D02*
X4345952Y56158181D01*
X4345952Y56158181D02*
X4250714Y56110562D01*
X4250714Y56110562D02*
X4203095Y56062943D01*
X4203095Y56062943D02*
X4155476Y55967705D01*
X4155476Y55967705D02*
X4155476Y55872467D01*
X4155476Y55872467D02*
X4203095Y55729610D01*
X4203095Y55729610D02*
X4774523Y55158181D01*
X4774523Y55158181D02*
X4155476Y55158181D01*
X8488094Y85795181D02*
X8488094Y86795181D01*
X8488094Y86795181D02*
X8249999Y86795181D01*
X8249999Y86795181D02*
X8107142Y86747562D01*
X8107142Y86747562D02*
X8011904Y86652324D01*
X8011904Y86652324D02*
X7964285Y86557086D01*
X7964285Y86557086D02*
X7916666Y86366610D01*
X7916666Y86366610D02*
X7916666Y86223753D01*
X7916666Y86223753D02*
X7964285Y86033277D01*
X7964285Y86033277D02*
X8011904Y85938039D01*
X8011904Y85938039D02*
X8107142Y85842800D01*
X8107142Y85842800D02*
X8249999Y85795181D01*
X8249999Y85795181D02*
X8488094Y85795181D01*
X7535713Y86699943D02*
X7488094Y86747562D01*
X7488094Y86747562D02*
X7392856Y86795181D01*
X7392856Y86795181D02*
X7154761Y86795181D01*
X7154761Y86795181D02*
X7059523Y86747562D01*
X7059523Y86747562D02*
X7011904Y86699943D01*
X7011904Y86699943D02*
X6964285Y86604705D01*
X6964285Y86604705D02*
X6964285Y86509467D01*
X6964285Y86509467D02*
X7011904Y86366610D01*
X7011904Y86366610D02*
X7583332Y85795181D01*
X7583332Y85795181D02*
X6964285Y85795181D01*
X5726904Y50158181D02*
X5726904Y49348658D01*
X5726904Y49348658D02*
X5679285Y49253420D01*
X5679285Y49253420D02*
X5631666Y49205800D01*
X5631666Y49205800D02*
X5536428Y49158181D01*
X5536428Y49158181D02*
X5345952Y49158181D01*
X5345952Y49158181D02*
X5250714Y49205800D01*
X5250714Y49205800D02*
X5203095Y49253420D01*
X5203095Y49253420D02*
X5155476Y49348658D01*
X5155476Y49348658D02*
X5155476Y50158181D01*
X4155476Y49158181D02*
X4726904Y49158181D01*
X4441190Y49158181D02*
X4441190Y50158181D01*
X4441190Y50158181D02*
X4536428Y50015324D01*
X4536428Y50015324D02*
X4631666Y49920086D01*
X4631666Y49920086D02*
X4726904Y49872467D01*
X35374819Y4916667D02*
X34898628Y5250000D01*
X35374819Y5488095D02*
X34374819Y5488095D01*
X34374819Y5488095D02*
X34374819Y5107143D01*
X34374819Y5107143D02*
X34422438Y5011905D01*
X34422438Y5011905D02*
X34470057Y4964286D01*
X34470057Y4964286D02*
X34565295Y4916667D01*
X34565295Y4916667D02*
X34708152Y4916667D01*
X34708152Y4916667D02*
X34803390Y4964286D01*
X34803390Y4964286D02*
X34851009Y5011905D01*
X34851009Y5011905D02*
X34898628Y5107143D01*
X34898628Y5107143D02*
X34898628Y5488095D01*
X34374819Y4059524D02*
X34374819Y4250000D01*
X34374819Y4250000D02*
X34422438Y4345238D01*
X34422438Y4345238D02*
X34470057Y4392857D01*
X34470057Y4392857D02*
X34612914Y4488095D01*
X34612914Y4488095D02*
X34803390Y4535714D01*
X34803390Y4535714D02*
X35184342Y4535714D01*
X35184342Y4535714D02*
X35279580Y4488095D01*
X35279580Y4488095D02*
X35327200Y4440476D01*
X35327200Y4440476D02*
X35374819Y4345238D01*
X35374819Y4345238D02*
X35374819Y4154762D01*
X35374819Y4154762D02*
X35327200Y4059524D01*
X35327200Y4059524D02*
X35279580Y4011905D01*
X35279580Y4011905D02*
X35184342Y3964286D01*
X35184342Y3964286D02*
X34946247Y3964286D01*
X34946247Y3964286D02*
X34851009Y4011905D01*
X34851009Y4011905D02*
X34803390Y4059524D01*
X34803390Y4059524D02*
X34755771Y4154762D01*
X34755771Y4154762D02*
X34755771Y4345238D01*
X34755771Y4345238D02*
X34803390Y4440476D01*
X34803390Y4440476D02*
X34851009Y4488095D01*
X34851009Y4488095D02*
X34946247Y4535714D01*
X14738094Y85795181D02*
X14738094Y86795181D01*
X14738094Y86795181D02*
X14499999Y86795181D01*
X14499999Y86795181D02*
X14357142Y86747562D01*
X14357142Y86747562D02*
X14261904Y86652324D01*
X14261904Y86652324D02*
X14214285Y86557086D01*
X14214285Y86557086D02*
X14166666Y86366610D01*
X14166666Y86366610D02*
X14166666Y86223753D01*
X14166666Y86223753D02*
X14214285Y86033277D01*
X14214285Y86033277D02*
X14261904Y85938039D01*
X14261904Y85938039D02*
X14357142Y85842800D01*
X14357142Y85842800D02*
X14499999Y85795181D01*
X14499999Y85795181D02*
X14738094Y85795181D01*
X13214285Y85795181D02*
X13785713Y85795181D01*
X13499999Y85795181D02*
X13499999Y86795181D01*
X13499999Y86795181D02*
X13595237Y86652324D01*
X13595237Y86652324D02*
X13690475Y86557086D01*
X13690475Y86557086D02*
X13785713Y86509467D01*
X5726904Y38158181D02*
X5726904Y37348658D01*
X5726904Y37348658D02*
X5679285Y37253420D01*
X5679285Y37253420D02*
X5631666Y37205800D01*
X5631666Y37205800D02*
X5536428Y37158181D01*
X5536428Y37158181D02*
X5345952Y37158181D01*
X5345952Y37158181D02*
X5250714Y37205800D01*
X5250714Y37205800D02*
X5203095Y37253420D01*
X5203095Y37253420D02*
X5155476Y37348658D01*
X5155476Y37348658D02*
X5155476Y38158181D01*
X4203095Y38158181D02*
X4679285Y38158181D01*
X4679285Y38158181D02*
X4726904Y37681991D01*
X4726904Y37681991D02*
X4679285Y37729610D01*
X4679285Y37729610D02*
X4584047Y37777229D01*
X4584047Y37777229D02*
X4345952Y37777229D01*
X4345952Y37777229D02*
X4250714Y37729610D01*
X4250714Y37729610D02*
X4203095Y37681991D01*
X4203095Y37681991D02*
X4155476Y37586753D01*
X4155476Y37586753D02*
X4155476Y37348658D01*
X4155476Y37348658D02*
X4203095Y37253420D01*
X4203095Y37253420D02*
X4250714Y37205800D01*
X4250714Y37205800D02*
X4345952Y37158181D01*
X4345952Y37158181D02*
X4584047Y37158181D01*
X4584047Y37158181D02*
X4679285Y37205800D01*
X4679285Y37205800D02*
X4726904Y37253420D01*
X82624819Y78666667D02*
X82148628Y79000000D01*
X82624819Y79238095D02*
X81624819Y79238095D01*
X81624819Y79238095D02*
X81624819Y78857143D01*
X81624819Y78857143D02*
X81672438Y78761905D01*
X81672438Y78761905D02*
X81720057Y78714286D01*
X81720057Y78714286D02*
X81815295Y78666667D01*
X81815295Y78666667D02*
X81958152Y78666667D01*
X81958152Y78666667D02*
X82053390Y78714286D01*
X82053390Y78714286D02*
X82101009Y78761905D01*
X82101009Y78761905D02*
X82148628Y78857143D01*
X82148628Y78857143D02*
X82148628Y79238095D01*
X82624819Y77714286D02*
X82624819Y78285714D01*
X82624819Y78000000D02*
X81624819Y78000000D01*
X81624819Y78000000D02*
X81767676Y78095238D01*
X81767676Y78095238D02*
X81862914Y78190476D01*
X81862914Y78190476D02*
X81910533Y78285714D01*
X79838094Y81295181D02*
X79838094Y82295181D01*
X79838094Y82295181D02*
X79599999Y82295181D01*
X79599999Y82295181D02*
X79457142Y82247562D01*
X79457142Y82247562D02*
X79361904Y82152324D01*
X79361904Y82152324D02*
X79314285Y82057086D01*
X79314285Y82057086D02*
X79266666Y81866610D01*
X79266666Y81866610D02*
X79266666Y81723753D01*
X79266666Y81723753D02*
X79314285Y81533277D01*
X79314285Y81533277D02*
X79361904Y81438039D01*
X79361904Y81438039D02*
X79457142Y81342800D01*
X79457142Y81342800D02*
X79599999Y81295181D01*
X79599999Y81295181D02*
X79838094Y81295181D01*
X78409523Y81961848D02*
X78409523Y81295181D01*
X78647618Y82342800D02*
X78885713Y81628515D01*
X78885713Y81628515D02*
X78266666Y81628515D01*
D11*
G04 #@! TO.C,M5*
X44650000Y81550000D02*
X44650000Y72450000D01*
X44650000Y81550000D02*
X45650002Y81550000D01*
X47750003Y81550000D02*
X47750003Y72450000D01*
G04 #@! TO.C,M2*
X70075000Y81625000D02*
X70075000Y66625000D01*
X70075000Y81625000D02*
X71375000Y81625000D01*
X70075000Y66625000D02*
X75175000Y66625000D01*
X79675000Y81625000D02*
X73275000Y81625000D01*
X79675000Y67225000D02*
X79675000Y81625000D01*
G04 #@! TO.C,M7*
X82100000Y60675000D02*
X96000000Y60675000D01*
X96000000Y33175000D01*
X82100000Y33175000D01*
X82100000Y60675000D01*
G04 #@! TO.C,M1*
X30325002Y60575003D02*
X30324999Y20675004D01*
X31624999Y20675004D02*
X30324999Y20675004D01*
X72425002Y60575003D02*
X30325002Y60575003D01*
X72425002Y60575003D02*
X72425002Y20675004D01*
X72425002Y20675004D02*
X31624999Y20675004D01*
G04 #@! TO.C,M6*
X62537502Y13574540D02*
X62537502Y6681663D01*
X73381296Y13568337D02*
X62537502Y13568337D01*
X73437498Y13518337D02*
X73381296Y13568337D01*
X73437498Y13518337D02*
X73437498Y12693338D01*
X73712502Y12418332D02*
X73437498Y12693338D01*
X73712502Y12418332D02*
X73712502Y6720510D01*
X73712502Y6720510D02*
X62537502Y6681663D01*
G04 #@! TO.C,M3*
X58750000Y81562500D02*
X58750000Y66562500D01*
X58750000Y81562500D02*
X60050000Y81562500D01*
X58750000Y66562500D02*
X63850000Y66562500D01*
X68350000Y81562500D02*
X61950000Y81562500D01*
X68350000Y67162500D02*
X68350000Y81562500D01*
G04 #@! TO.C,M4*
X9474999Y17824999D02*
X9474999Y21025002D01*
X9474999Y5724999D02*
X9474999Y16125001D01*
X9474999Y3824999D02*
X9474999Y4124999D01*
X9474999Y3824999D02*
X24874999Y3824999D01*
X10974999Y24424997D02*
X26274998Y24424999D01*
X26274996Y17725001D02*
X26274996Y22525001D01*
X26274996Y11524999D02*
X26274996Y14224999D01*
X26274996Y8825001D02*
X26274996Y9925004D01*
X26274996Y5274999D02*
X26275001Y6824999D01*
X26274998Y24125001D02*
X26274998Y24424999D01*
D12*
G04 #@! TO.C,U6*
X7425000Y49910000D02*
X3525000Y49910000D01*
X7425000Y44860000D02*
X3525000Y44860000D01*
D11*
X1130000Y45480000D02*
G75*
G02*
X930000Y45480000I-100000J0D01*
G01*
X930000Y45480000D02*
G75*
G02*
X1130000Y45480000I100000J0D01*
G01*
D13*
G04 #@! TO.C,R2*
X83370000Y78663641D02*
X83370000Y78356359D01*
X84130000Y78663641D02*
X84130000Y78356359D01*
G04 #@! TO.C,D3*
X83850000Y84750000D02*
X87860000Y84750000D01*
X83850000Y82750000D02*
X87860000Y82750000D01*
X87860000Y82750000D02*
X87860000Y84750000D01*
G04 #@! TO.C,R5*
X34370000Y4903641D02*
X34370000Y4596359D01*
X35130000Y4903641D02*
X35130000Y4596359D01*
D12*
G04 #@! TO.C,U2*
X7450000Y61775000D02*
X3550000Y61775000D01*
X7450000Y56725000D02*
X3550000Y56725000D01*
D11*
X1155000Y57345000D02*
G75*
G02*
X955000Y57345000I-100000J0D01*
G01*
X955000Y57345000D02*
G75*
G02*
X1155000Y57345000I100000J0D01*
G01*
D13*
G04 #@! TO.C,D2*
X5390000Y89250000D02*
X5390000Y87250000D01*
X9400000Y89250000D02*
X5390000Y89250000D01*
X9400000Y87250000D02*
X5390000Y87250000D01*
D12*
G04 #@! TO.C,U1*
X7450000Y55775000D02*
X3550000Y55775000D01*
X7450000Y50725000D02*
X3550000Y50725000D01*
D11*
X1155000Y51345000D02*
G75*
G02*
X955000Y51345000I-100000J0D01*
G01*
X955000Y51345000D02*
G75*
G02*
X1155000Y51345000I100000J0D01*
G01*
D13*
G04 #@! TO.C,R6*
X33370000Y4903641D02*
X33370000Y4596359D01*
X34130000Y4903641D02*
X34130000Y4596359D01*
G04 #@! TO.C,D1*
X11640000Y89250000D02*
X11640000Y87250000D01*
X15650000Y89250000D02*
X11640000Y89250000D01*
X15650000Y87250000D02*
X11640000Y87250000D01*
D12*
G04 #@! TO.C,U5*
X7450000Y43775000D02*
X3550000Y43775000D01*
X7450000Y38725000D02*
X3550000Y38725000D01*
D11*
X1155000Y39345000D02*
G75*
G02*
X955000Y39345000I-100000J0D01*
G01*
X955000Y39345000D02*
G75*
G02*
X1155000Y39345000I100000J0D01*
G01*
D13*
G04 #@! TO.C,R1*
X80620000Y78653641D02*
X80620000Y78346359D01*
X81380000Y78653641D02*
X81380000Y78346359D01*
G04 #@! TO.C,D4*
X76740000Y84750000D02*
X76740000Y82750000D01*
X80750000Y84750000D02*
X76740000Y84750000D01*
X80750000Y82750000D02*
X76740000Y82750000D01*
G04 #@! TD*
M02*
