G75*
G70*
%OFA0B0*%
%FSLAX25Y25*%
%IPPOS*%
%LPD*%
%AMOC8*
5,1,8,0,0,1.08239X$1,22.5*
%
%AMM167*
21,1,0.039370,0.030320,-0.000000,-0.000000,270.000000*
21,1,0.028350,0.041340,-0.000000,-0.000000,270.000000*
1,1,0.011020,-0.015160,-0.014170*
1,1,0.011020,-0.015160,0.014170*
1,1,0.011020,0.015160,0.014170*
1,1,0.011020,0.015160,-0.014170*
%
%AMM168*
21,1,0.047240,0.075980,-0.000000,-0.000000,180.000000*
21,1,0.034650,0.088580,-0.000000,-0.000000,180.000000*
1,1,0.012600,-0.017320,0.037990*
1,1,0.012600,0.017320,0.037990*
1,1,0.012600,0.017320,-0.037990*
1,1,0.012600,-0.017320,-0.037990*
%
%AMM169*
21,1,0.047240,0.075990,-0.000000,-0.000000,180.000000*
21,1,0.034650,0.088580,-0.000000,-0.000000,180.000000*
1,1,0.012600,-0.017320,0.037990*
1,1,0.012600,0.017320,0.037990*
1,1,0.012600,0.017320,-0.037990*
1,1,0.012600,-0.017320,-0.037990*
%
%AMM170*
21,1,0.141730,0.067720,-0.000000,-0.000000,180.000000*
21,1,0.120870,0.088580,-0.000000,-0.000000,180.000000*
1,1,0.020870,-0.060430,0.033860*
1,1,0.020870,0.060430,0.033860*
1,1,0.020870,0.060430,-0.033860*
1,1,0.020870,-0.060430,-0.033860*
%
%AMM171*
21,1,0.043310,0.035430,-0.000000,-0.000000,180.000000*
21,1,0.031500,0.047240,-0.000000,-0.000000,180.000000*
1,1,0.011810,-0.015750,0.017720*
1,1,0.011810,0.015750,0.017720*
1,1,0.011810,0.015750,-0.017720*
1,1,0.011810,-0.015750,-0.017720*
%
%AMM172*
21,1,0.027560,0.030710,-0.000000,-0.000000,0.000000*
21,1,0.018900,0.039370,-0.000000,-0.000000,0.000000*
1,1,0.008660,0.009450,-0.015350*
1,1,0.008660,-0.009450,-0.015350*
1,1,0.008660,-0.009450,0.015350*
1,1,0.008660,0.009450,0.015350*
%
%AMM173*
21,1,0.031500,0.018900,-0.000000,-0.000000,0.000000*
21,1,0.022840,0.027560,-0.000000,-0.000000,0.000000*
1,1,0.008660,0.011420,-0.009450*
1,1,0.008660,-0.011420,-0.009450*
1,1,0.008660,-0.011420,0.009450*
1,1,0.008660,0.011420,0.009450*
%
%AMM174*
21,1,0.027560,0.030710,-0.000000,-0.000000,90.000000*
21,1,0.018900,0.039370,-0.000000,-0.000000,90.000000*
1,1,0.008660,0.015350,0.009450*
1,1,0.008660,0.015350,-0.009450*
1,1,0.008660,-0.015350,-0.009450*
1,1,0.008660,-0.015350,0.009450*
%
%AMM175*
21,1,0.090550,0.073230,-0.000000,-0.000000,270.000000*
21,1,0.069290,0.094490,-0.000000,-0.000000,270.000000*
1,1,0.021260,-0.036610,-0.034650*
1,1,0.021260,-0.036610,0.034650*
1,1,0.021260,0.036610,0.034650*
1,1,0.021260,0.036610,-0.034650*
%
%AMM176*
21,1,0.029530,0.026380,-0.000000,-0.000000,270.000000*
21,1,0.020470,0.035430,-0.000000,-0.000000,270.000000*
1,1,0.009060,-0.013190,-0.010240*
1,1,0.009060,-0.013190,0.010240*
1,1,0.009060,0.013190,0.010240*
1,1,0.009060,0.013190,-0.010240*
%
%AMM177*
21,1,0.021650,0.027950,-0.000000,-0.000000,270.000000*
21,1,0.014170,0.035430,-0.000000,-0.000000,270.000000*
1,1,0.007480,-0.013980,-0.007090*
1,1,0.007480,-0.013980,0.007090*
1,1,0.007480,0.013980,0.007090*
1,1,0.007480,0.013980,-0.007090*
%
%AMM178*
21,1,0.035430,0.072440,-0.000000,-0.000000,270.000000*
21,1,0.025200,0.082680,-0.000000,-0.000000,270.000000*
1,1,0.010240,-0.036220,-0.012600*
1,1,0.010240,-0.036220,0.012600*
1,1,0.010240,0.036220,0.012600*
1,1,0.010240,0.036220,-0.012600*
%
%AMM179*
21,1,0.016540,0.028980,-0.000000,-0.000000,270.000000*
21,1,0.010080,0.035430,-0.000000,-0.000000,270.000000*
1,1,0.006460,-0.014490,-0.005040*
1,1,0.006460,-0.014490,0.005040*
1,1,0.006460,0.014490,0.005040*
1,1,0.006460,0.014490,-0.005040*
%
%AMM180*
21,1,0.016540,0.028980,-0.000000,-0.000000,0.000000*
21,1,0.010080,0.035430,-0.000000,-0.000000,0.000000*
1,1,0.006460,0.005040,-0.014490*
1,1,0.006460,-0.005040,-0.014490*
1,1,0.006460,-0.005040,0.014490*
1,1,0.006460,0.005040,0.014490*
%
%AMM181*
21,1,0.043310,0.035430,-0.000000,-0.000000,90.000000*
21,1,0.031500,0.047240,-0.000000,-0.000000,90.000000*
1,1,0.011810,0.017720,0.015750*
1,1,0.011810,0.017720,-0.015750*
1,1,0.011810,-0.017720,-0.015750*
1,1,0.011810,-0.017720,0.015750*
%
%AMM182*
21,1,0.031500,0.018900,-0.000000,-0.000000,270.000000*
21,1,0.022840,0.027560,-0.000000,-0.000000,270.000000*
1,1,0.008660,-0.009450,-0.011420*
1,1,0.008660,-0.009450,0.011420*
1,1,0.008660,0.009450,0.011420*
1,1,0.008660,0.009450,-0.011420*
%
%AMM228*
21,1,0.027170,0.052760,0.000000,-0.000000,180.000000*
21,1,0.017320,0.062600,0.000000,-0.000000,180.000000*
1,1,0.009840,-0.008660,0.026380*
1,1,0.009840,0.008660,0.026380*
1,1,0.009840,0.008660,-0.026380*
1,1,0.009840,-0.008660,-0.026380*
%
%AMM244*
21,1,0.040950,0.030320,-0.000000,-0.000000,0.000000*
21,1,0.028350,0.042910,-0.000000,-0.000000,0.000000*
1,1,0.012600,0.014170,-0.015160*
1,1,0.012600,-0.014170,-0.015160*
1,1,0.012600,-0.014170,0.015160*
1,1,0.012600,0.014170,0.015160*
%
%AMM245*
21,1,0.038980,0.026770,-0.000000,-0.000000,180.000000*
21,1,0.026770,0.038980,-0.000000,-0.000000,180.000000*
1,1,0.012210,-0.013390,0.013390*
1,1,0.012210,0.013390,0.013390*
1,1,0.012210,0.013390,-0.013390*
1,1,0.012210,-0.013390,-0.013390*
%
%AMM246*
21,1,0.033070,0.030710,-0.000000,-0.000000,0.000000*
21,1,0.022050,0.041730,-0.000000,-0.000000,0.000000*
1,1,0.011020,0.011020,-0.015350*
1,1,0.011020,-0.011020,-0.015350*
1,1,0.011020,-0.011020,0.015350*
1,1,0.011020,0.011020,0.015350*
%
%AMM67*
21,1,0.092130,0.073230,0.000000,0.000000,270.000000*
21,1,0.069290,0.096060,0.000000,0.000000,270.000000*
1,1,0.022840,-0.036610,-0.034650*
1,1,0.022840,-0.036610,0.034650*
1,1,0.022840,0.036610,0.034650*
1,1,0.022840,0.036610,-0.034650*
%
%AMM68*
21,1,0.100000,0.111020,0.000000,0.000000,0.000000*
21,1,0.075590,0.135430,0.000000,0.000000,0.000000*
1,1,0.024410,0.037800,-0.055510*
1,1,0.024410,-0.037800,-0.055510*
1,1,0.024410,-0.037800,0.055510*
1,1,0.024410,0.037800,0.055510*
%
%AMM69*
21,1,0.080320,0.083460,0.000000,0.000000,0.000000*
21,1,0.059840,0.103940,0.000000,0.000000,0.000000*
1,1,0.020470,0.029920,-0.041730*
1,1,0.020470,-0.029920,-0.041730*
1,1,0.020470,-0.029920,0.041730*
1,1,0.020470,0.029920,0.041730*
%
%AMM70*
21,1,0.084250,0.053540,0.000000,0.000000,180.000000*
21,1,0.065350,0.072440,0.000000,0.000000,180.000000*
1,1,0.018900,-0.032680,0.026770*
1,1,0.018900,0.032680,0.026770*
1,1,0.018900,0.032680,-0.026770*
1,1,0.018900,-0.032680,-0.026770*
%
%AMM71*
21,1,0.040950,0.030320,0.000000,0.000000,90.000000*
21,1,0.028350,0.042910,0.000000,0.000000,90.000000*
1,1,0.012600,0.015160,0.014170*
1,1,0.012600,0.015160,-0.014170*
1,1,0.012600,-0.015160,-0.014170*
1,1,0.012600,-0.015160,0.014170*
%
%AMM72*
21,1,0.027170,0.052760,0.000000,0.000000,270.000000*
21,1,0.017320,0.062600,0.000000,0.000000,270.000000*
1,1,0.009840,-0.026380,-0.008660*
1,1,0.009840,-0.026380,0.008660*
1,1,0.009840,0.026380,0.008660*
1,1,0.009840,0.026380,-0.008660*
%
%AMM73*
21,1,0.041340,0.026770,0.000000,0.000000,0.000000*
21,1,0.029130,0.038980,0.000000,0.000000,0.000000*
1,1,0.012210,0.014570,-0.013390*
1,1,0.012210,-0.014570,-0.013390*
1,1,0.012210,-0.014570,0.013390*
1,1,0.012210,0.014570,0.013390*
%
%AMM74*
21,1,0.076380,0.036220,0.000000,0.000000,90.000000*
21,1,0.061810,0.050790,0.000000,0.000000,90.000000*
1,1,0.014570,0.018110,0.030910*
1,1,0.014570,0.018110,-0.030910*
1,1,0.014570,-0.018110,-0.030910*
1,1,0.014570,-0.018110,0.030910*
%
%AMM75*
21,1,0.038980,0.026770,0.000000,0.000000,0.000000*
21,1,0.026770,0.038980,0.000000,0.000000,0.000000*
1,1,0.012210,0.013390,-0.013390*
1,1,0.012210,-0.013390,-0.013390*
1,1,0.012210,-0.013390,0.013390*
1,1,0.012210,0.013390,0.013390*
%
%AMM76*
21,1,0.021260,0.016540,0.000000,0.000000,270.000000*
21,1,0.012600,0.025200,0.000000,0.000000,270.000000*
1,1,0.008660,-0.008270,-0.006300*
1,1,0.008660,-0.008270,0.006300*
1,1,0.008660,0.008270,0.006300*
1,1,0.008660,0.008270,-0.006300*
%
%AMM77*
21,1,0.029130,0.018900,0.000000,0.000000,90.000000*
21,1,0.018900,0.029130,0.000000,0.000000,90.000000*
1,1,0.010240,0.009450,0.009450*
1,1,0.010240,0.009450,-0.009450*
1,1,0.010240,-0.009450,-0.009450*
1,1,0.010240,-0.009450,0.009450*
%
%AMM78*
21,1,0.025200,0.019680,0.000000,0.000000,0.000000*
21,1,0.015750,0.029130,0.000000,0.000000,0.000000*
1,1,0.009450,0.007870,-0.009840*
1,1,0.009450,-0.007870,-0.009840*
1,1,0.009450,-0.007870,0.009840*
1,1,0.009450,0.007870,0.009840*
%
%AMM79*
21,1,0.025200,0.019680,0.000000,0.000000,270.000000*
21,1,0.015750,0.029130,0.000000,0.000000,270.000000*
1,1,0.009450,-0.009840,-0.007870*
1,1,0.009450,-0.009840,0.007870*
1,1,0.009450,0.009840,0.007870*
1,1,0.009450,0.009840,-0.007870*
%
%ADD10C,0.02362*%
%ADD103C,0.03100*%
%ADD105C,0.03900*%
%ADD108O,0.01260X0.05512*%
%ADD109O,0.05512X0.01260*%
%ADD116C,0.03494*%
%ADD120C,0.03543*%
%ADD124O,0.01575X0.04724*%
%ADD125O,0.04724X0.01575*%
%ADD127O,0.09055X0.02756*%
%ADD129R,0.01870X0.01772*%
%ADD13O,0.03937X0.08268*%
%ADD130R,0.01772X0.01870*%
%ADD133C,0.04294*%
%ADD134C,0.04724*%
%ADD14O,0.03937X0.07087*%
%ADD180R,0.02559X0.01575*%
%ADD181R,0.01575X0.02559*%
%ADD195M67*%
%ADD196M68*%
%ADD197M69*%
%ADD198M70*%
%ADD199M71*%
%ADD200M72*%
%ADD201M73*%
%ADD202M74*%
%ADD203M75*%
%ADD204M76*%
%ADD205M77*%
%ADD206M78*%
%ADD207M79*%
%ADD208C,0.02913*%
%ADD209C,0.06457*%
%ADD21C,0.11811*%
%ADD230O,0.02520X0.01535*%
%ADD231O,0.01535X0.02520*%
%ADD233O,0.09213X0.02913*%
%ADD235R,0.03543X0.03150*%
%ADD237C,0.05118*%
%ADD239R,0.03150X0.03543*%
%ADD344M167*%
%ADD345M168*%
%ADD346M169*%
%ADD347M170*%
%ADD348M171*%
%ADD349M172*%
%ADD350M173*%
%ADD351M174*%
%ADD352M175*%
%ADD353M176*%
%ADD354M177*%
%ADD355M178*%
%ADD356M179*%
%ADD357M180*%
%ADD358M181*%
%ADD359M182*%
%ADD384R,0.01181X0.05512*%
%ADD406M228*%
%ADD427M244*%
%ADD428M245*%
%ADD429M246*%
%ADD430R,0.08661X0.04724*%
%ADD431R,0.25197X0.22835*%
%ADD432R,0.07874X0.07500*%
%ADD433O,0.07874X0.07500*%
%ADD45O,0.01969X0.00984*%
%ADD47O,0.00984X0.01969*%
%ADD48O,0.14567X0.10630*%
%ADD49C,0.06496*%
%ADD50C,0.20669*%
%ADD51C,0.05906*%
%ADD67C,0.02559*%
%ADD68C,0.12992*%
%ADD69C,0.08480*%
X0000000Y0000000D02*
%LPD*%
G01*
D10*
X0185630Y0286024D03*
X0181890Y0286024D03*
X0178150Y0286024D03*
X0182087Y0320276D03*
X0185630Y0320276D03*
G36*
G01*
X0040846Y0105906D02*
X0037894Y0105906D01*
G75*
G02*
X0037008Y0106791I0000000J0000886D01*
G01*
X0037008Y0108563D01*
G75*
G02*
X0037894Y0109449I0000886J0000000D01*
G01*
X0040846Y0109449D01*
G75*
G02*
X0041732Y0108563I0000000J-000886D01*
G01*
X0041732Y0106791D01*
G75*
G02*
X0040846Y0105906I-000886J0000000D01*
G01*
G37*
G36*
G01*
X0040846Y0118898D02*
X0037894Y0118898D01*
G75*
G02*
X0037008Y0119783I0000000J0000886D01*
G01*
X0037008Y0121555D01*
G75*
G02*
X0037894Y0122441I0000886J0000000D01*
G01*
X0040846Y0122441D01*
G75*
G02*
X0041732Y0121555I0000000J-000886D01*
G01*
X0041732Y0119783D01*
G75*
G02*
X0040846Y0118898I-000886J0000000D01*
G01*
G37*
D67*
X0122480Y0025020D03*
X0145236Y0025020D03*
G36*
G01*
X0120079Y0027579D02*
X0120079Y0030925D01*
G75*
G02*
X0120669Y0031516I0000591J0000000D01*
G01*
X0121850Y0031516D01*
G75*
G02*
X0122441Y0030925I0000000J-000591D01*
G01*
X0122441Y0027579D01*
G75*
G02*
X0121850Y0026988I-000591J0000000D01*
G01*
X0120669Y0026988D01*
G75*
G02*
X0120079Y0027579I0000000J0000591D01*
G01*
G37*
G36*
G01*
X0123228Y0027579D02*
X0123228Y0030925D01*
G75*
G02*
X0123819Y0031516I0000591J0000000D01*
G01*
X0125000Y0031516D01*
G75*
G02*
X0125591Y0030925I0000000J-000591D01*
G01*
X0125591Y0027579D01*
G75*
G02*
X0125000Y0026988I-000591J0000000D01*
G01*
X0123819Y0026988D01*
G75*
G02*
X0123228Y0027579I0000000J0000591D01*
G01*
G37*
G36*
G01*
X0128346Y0027283D02*
X0128346Y0031220D01*
G75*
G02*
X0128642Y0031516I0000295J0000000D01*
G01*
X0129232Y0031516D01*
G75*
G02*
X0129528Y0031220I0000000J-000295D01*
G01*
X0129528Y0027283D01*
G75*
G02*
X0129232Y0026988I-000295J0000000D01*
G01*
X0128642Y0026988D01*
G75*
G02*
X0128346Y0027283I0000000J0000295D01*
G01*
G37*
G36*
G01*
X0132283Y0027283D02*
X0132283Y0031220D01*
G75*
G02*
X0132579Y0031516I0000295J0000000D01*
G01*
X0133169Y0031516D01*
G75*
G02*
X0133465Y0031220I0000000J-000295D01*
G01*
X0133465Y0027283D01*
G75*
G02*
X0133169Y0026988I-000295J0000000D01*
G01*
X0132579Y0026988D01*
G75*
G02*
X0132283Y0027283I0000000J0000295D01*
G01*
G37*
G36*
G01*
X0134252Y0027283D02*
X0134252Y0031220D01*
G75*
G02*
X0134547Y0031516I0000295J0000000D01*
G01*
X0135138Y0031516D01*
G75*
G02*
X0135433Y0031220I0000000J-000295D01*
G01*
X0135433Y0027283D01*
G75*
G02*
X0135138Y0026988I-000295J0000000D01*
G01*
X0134547Y0026988D01*
G75*
G02*
X0134252Y0027283I0000000J0000295D01*
G01*
G37*
G36*
G01*
X0138189Y0027283D02*
X0138189Y0031220D01*
G75*
G02*
X0138484Y0031516I0000295J0000000D01*
G01*
X0139075Y0031516D01*
G75*
G02*
X0139370Y0031220I0000000J-000295D01*
G01*
X0139370Y0027283D01*
G75*
G02*
X0139075Y0026988I-000295J0000000D01*
G01*
X0138484Y0026988D01*
G75*
G02*
X0138189Y0027283I0000000J0000295D01*
G01*
G37*
G36*
G01*
X0142126Y0027579D02*
X0142126Y0030925D01*
G75*
G02*
X0142717Y0031516I0000591J0000000D01*
G01*
X0143898Y0031516D01*
G75*
G02*
X0144488Y0030925I0000000J-000591D01*
G01*
X0144488Y0027579D01*
G75*
G02*
X0143898Y0026988I-000591J0000000D01*
G01*
X0142717Y0026988D01*
G75*
G02*
X0142126Y0027579I0000000J0000591D01*
G01*
G37*
G36*
G01*
X0145276Y0027579D02*
X0145276Y0030925D01*
G75*
G02*
X0145866Y0031516I0000591J0000000D01*
G01*
X0147047Y0031516D01*
G75*
G02*
X0147638Y0030925I0000000J-000591D01*
G01*
X0147638Y0027579D01*
G75*
G02*
X0147047Y0026988I-000591J0000000D01*
G01*
X0145866Y0026988D01*
G75*
G02*
X0145276Y0027579I0000000J0000591D01*
G01*
G37*
G36*
G01*
X0145276Y0027579D02*
X0145276Y0030925D01*
G75*
G02*
X0145866Y0031516I0000591J0000000D01*
G01*
X0147047Y0031516D01*
G75*
G02*
X0147638Y0030925I0000000J-000591D01*
G01*
X0147638Y0027579D01*
G75*
G02*
X0147047Y0026988I-000591J0000000D01*
G01*
X0145866Y0026988D01*
G75*
G02*
X0145276Y0027579I0000000J0000591D01*
G01*
G37*
G36*
G01*
X0142126Y0027579D02*
X0142126Y0030925D01*
G75*
G02*
X0142717Y0031516I0000591J0000000D01*
G01*
X0143898Y0031516D01*
G75*
G02*
X0144488Y0030925I0000000J-000591D01*
G01*
X0144488Y0027579D01*
G75*
G02*
X0143898Y0026988I-000591J0000000D01*
G01*
X0142717Y0026988D01*
G75*
G02*
X0142126Y0027579I0000000J0000591D01*
G01*
G37*
G36*
G01*
X0140157Y0027283D02*
X0140157Y0031220D01*
G75*
G02*
X0140453Y0031516I0000295J0000000D01*
G01*
X0141043Y0031516D01*
G75*
G02*
X0141339Y0031220I0000000J-000295D01*
G01*
X0141339Y0027283D01*
G75*
G02*
X0141043Y0026988I-000295J0000000D01*
G01*
X0140453Y0026988D01*
G75*
G02*
X0140157Y0027283I0000000J0000295D01*
G01*
G37*
G36*
G01*
X0136220Y0027283D02*
X0136220Y0031220D01*
G75*
G02*
X0136516Y0031516I0000295J0000000D01*
G01*
X0137106Y0031516D01*
G75*
G02*
X0137402Y0031220I0000000J-000295D01*
G01*
X0137402Y0027283D01*
G75*
G02*
X0137106Y0026988I-000295J0000000D01*
G01*
X0136516Y0026988D01*
G75*
G02*
X0136220Y0027283I0000000J0000295D01*
G01*
G37*
G36*
G01*
X0130315Y0027283D02*
X0130315Y0031220D01*
G75*
G02*
X0130610Y0031516I0000295J0000000D01*
G01*
X0131201Y0031516D01*
G75*
G02*
X0131496Y0031220I0000000J-000295D01*
G01*
X0131496Y0027283D01*
G75*
G02*
X0131201Y0026988I-000295J0000000D01*
G01*
X0130610Y0026988D01*
G75*
G02*
X0130315Y0027283I0000000J0000295D01*
G01*
G37*
G36*
G01*
X0126378Y0027283D02*
X0126378Y0031220D01*
G75*
G02*
X0126673Y0031516I0000295J0000000D01*
G01*
X0127264Y0031516D01*
G75*
G02*
X0127559Y0031220I0000000J-000295D01*
G01*
X0127559Y0027283D01*
G75*
G02*
X0127264Y0026988I-000295J0000000D01*
G01*
X0126673Y0026988D01*
G75*
G02*
X0126378Y0027283I0000000J0000295D01*
G01*
G37*
G36*
G01*
X0123228Y0027579D02*
X0123228Y0030925D01*
G75*
G02*
X0123819Y0031516I0000591J0000000D01*
G01*
X0125000Y0031516D01*
G75*
G02*
X0125591Y0030925I0000000J-000591D01*
G01*
X0125591Y0027579D01*
G75*
G02*
X0125000Y0026988I-000591J0000000D01*
G01*
X0123819Y0026988D01*
G75*
G02*
X0123228Y0027579I0000000J0000591D01*
G01*
G37*
G36*
G01*
X0120079Y0027579D02*
X0120079Y0030925D01*
G75*
G02*
X0120669Y0031516I0000591J0000000D01*
G01*
X0121850Y0031516D01*
G75*
G02*
X0122441Y0030925I0000000J-000591D01*
G01*
X0122441Y0027579D01*
G75*
G02*
X0121850Y0026988I-000591J0000000D01*
G01*
X0120669Y0026988D01*
G75*
G02*
X0120079Y0027579I0000000J0000591D01*
G01*
G37*
D13*
X0116850Y0026988D03*
D14*
X0116850Y0010531D03*
D13*
X0150866Y0026988D03*
D14*
X0150866Y0010531D03*
G36*
G01*
X0097697Y0182244D02*
X0099154Y0182244D01*
G75*
G02*
X0099685Y0181713I0000000J-000531D01*
G01*
X0099685Y0180650D01*
G75*
G02*
X0099154Y0180118I-000531J0000000D01*
G01*
X0097697Y0180118D01*
G75*
G02*
X0097165Y0180650I0000000J0000531D01*
G01*
X0097165Y0181713D01*
G75*
G02*
X0097697Y0182244I0000531J0000000D01*
G01*
G37*
G36*
G01*
X0097697Y0178228D02*
X0099154Y0178228D01*
G75*
G02*
X0099685Y0177697I0000000J-000531D01*
G01*
X0099685Y0176634D01*
G75*
G02*
X0099154Y0176102I-000531J0000000D01*
G01*
X0097697Y0176102D01*
G75*
G02*
X0097165Y0176634I0000000J0000531D01*
G01*
X0097165Y0177697D01*
G75*
G02*
X0097697Y0178228I0000531J0000000D01*
G01*
G37*
G36*
G01*
X0060531Y0105906D02*
X0057579Y0105906D01*
G75*
G02*
X0056693Y0106791I0000000J0000886D01*
G01*
X0056693Y0108563D01*
G75*
G02*
X0057579Y0109449I0000886J0000000D01*
G01*
X0060531Y0109449D01*
G75*
G02*
X0061417Y0108563I0000000J-000886D01*
G01*
X0061417Y0106791D01*
G75*
G02*
X0060531Y0105906I-000886J0000000D01*
G01*
G37*
G36*
G01*
X0060531Y0118898D02*
X0057579Y0118898D01*
G75*
G02*
X0056693Y0119783I0000000J0000886D01*
G01*
X0056693Y0121555D01*
G75*
G02*
X0057579Y0122441I0000886J0000000D01*
G01*
X0060531Y0122441D01*
G75*
G02*
X0061417Y0121555I0000000J-000886D01*
G01*
X0061417Y0119783D01*
G75*
G02*
X0060531Y0118898I-000886J0000000D01*
G01*
G37*
G36*
G01*
X0094744Y0128071D02*
X0096201Y0128071D01*
G75*
G02*
X0096732Y0127539I0000000J-000531D01*
G01*
X0096732Y0126476D01*
G75*
G02*
X0096201Y0125945I-000531J0000000D01*
G01*
X0094744Y0125945D01*
G75*
G02*
X0094213Y0126476I0000000J0000531D01*
G01*
X0094213Y0127539D01*
G75*
G02*
X0094744Y0128071I0000531J0000000D01*
G01*
G37*
G36*
G01*
X0094744Y0124055D02*
X0096201Y0124055D01*
G75*
G02*
X0096732Y0123524I0000000J-000531D01*
G01*
X0096732Y0122461D01*
G75*
G02*
X0096201Y0121929I-000531J0000000D01*
G01*
X0094744Y0121929D01*
G75*
G02*
X0094213Y0122461I0000000J0000531D01*
G01*
X0094213Y0123524D01*
G75*
G02*
X0094744Y0124055I0000531J0000000D01*
G01*
G37*
G36*
G01*
X0050689Y0105906D02*
X0047736Y0105906D01*
G75*
G02*
X0046850Y0106791I0000000J0000886D01*
G01*
X0046850Y0108563D01*
G75*
G02*
X0047736Y0109449I0000886J0000000D01*
G01*
X0050689Y0109449D01*
G75*
G02*
X0051575Y0108563I0000000J-000886D01*
G01*
X0051575Y0106791D01*
G75*
G02*
X0050689Y0105906I-000886J0000000D01*
G01*
G37*
G36*
G01*
X0050689Y0118898D02*
X0047736Y0118898D01*
G75*
G02*
X0046850Y0119783I0000000J0000886D01*
G01*
X0046850Y0121555D01*
G75*
G02*
X0047736Y0122441I0000886J0000000D01*
G01*
X0050689Y0122441D01*
G75*
G02*
X0051575Y0121555I0000000J-000886D01*
G01*
X0051575Y0119783D01*
G75*
G02*
X0050689Y0118898I-000886J0000000D01*
G01*
G37*
D10*
X0302657Y0263484D03*
X0297933Y0263484D03*
X0307382Y0263484D03*
X0312106Y0263484D03*
X0286673Y0320276D03*
X0282736Y0320276D03*
G36*
G01*
X0099665Y0128071D02*
X0101122Y0128071D01*
G75*
G02*
X0101654Y0127539I0000000J-000531D01*
G01*
X0101654Y0126476D01*
G75*
G02*
X0101122Y0125945I-000531J0000000D01*
G01*
X0099665Y0125945D01*
G75*
G02*
X0099134Y0126476I0000000J0000531D01*
G01*
X0099134Y0127539D01*
G75*
G02*
X0099665Y0128071I0000531J0000000D01*
G01*
G37*
G36*
G01*
X0099665Y0124055D02*
X0101122Y0124055D01*
G75*
G02*
X0101654Y0123524I0000000J-000531D01*
G01*
X0101654Y0122461D01*
G75*
G02*
X0101122Y0121929I-000531J0000000D01*
G01*
X0099665Y0121929D01*
G75*
G02*
X0099134Y0122461I0000000J0000531D01*
G01*
X0099134Y0123524D01*
G75*
G02*
X0099665Y0124055I0000531J0000000D01*
G01*
G37*
G36*
G01*
X0320459Y0293063D02*
X0318085Y0293063D01*
G75*
G02*
X0317689Y0293459I0000000J0000396D01*
G01*
X0317689Y0301226D01*
G75*
G02*
X0318085Y0301622I0000396J0000000D01*
G01*
X0320459Y0301622D01*
G75*
G02*
X0320854Y0301226I0000000J-000396D01*
G01*
X0320854Y0293459D01*
G75*
G02*
X0320459Y0293063I-000396J0000000D01*
G01*
G37*
G36*
G01*
X0325459Y0293063D02*
X0323085Y0293063D01*
G75*
G02*
X0322689Y0293459I0000000J0000396D01*
G01*
X0322689Y0301226D01*
G75*
G02*
X0323085Y0301622I0000396J0000000D01*
G01*
X0325459Y0301622D01*
G75*
G02*
X0325854Y0301226I0000000J-000396D01*
G01*
X0325854Y0293459D01*
G75*
G02*
X0325459Y0293063I-000396J0000000D01*
G01*
G37*
G36*
G01*
X0330459Y0293063D02*
X0328085Y0293063D01*
G75*
G02*
X0327689Y0293459I0000000J0000396D01*
G01*
X0327689Y0301226D01*
G75*
G02*
X0328085Y0301622I0000396J0000000D01*
G01*
X0330459Y0301622D01*
G75*
G02*
X0330854Y0301226I0000000J-000396D01*
G01*
X0330854Y0293459D01*
G75*
G02*
X0330459Y0293063I-000396J0000000D01*
G01*
G37*
G36*
G01*
X0335459Y0293063D02*
X0333085Y0293063D01*
G75*
G02*
X0332689Y0293459I0000000J0000396D01*
G01*
X0332689Y0301226D01*
G75*
G02*
X0333085Y0301622I0000396J0000000D01*
G01*
X0335459Y0301622D01*
G75*
G02*
X0335854Y0301226I0000000J-000396D01*
G01*
X0335854Y0293459D01*
G75*
G02*
X0335459Y0293063I-000396J0000000D01*
G01*
G37*
G36*
G01*
X0335459Y0312551D02*
X0333085Y0312551D01*
G75*
G02*
X0332689Y0312947I0000000J0000396D01*
G01*
X0332689Y0320715D01*
G75*
G02*
X0333085Y0321110I0000396J0000000D01*
G01*
X0335459Y0321110D01*
G75*
G02*
X0335854Y0320715I0000000J-000396D01*
G01*
X0335854Y0312947D01*
G75*
G02*
X0335459Y0312551I-000396J0000000D01*
G01*
G37*
G36*
G01*
X0330459Y0312551D02*
X0328085Y0312551D01*
G75*
G02*
X0327689Y0312947I0000000J0000396D01*
G01*
X0327689Y0320715D01*
G75*
G02*
X0328085Y0321110I0000396J0000000D01*
G01*
X0330459Y0321110D01*
G75*
G02*
X0330854Y0320715I0000000J-000396D01*
G01*
X0330854Y0312947D01*
G75*
G02*
X0330459Y0312551I-000396J0000000D01*
G01*
G37*
G36*
G01*
X0325459Y0312551D02*
X0323085Y0312551D01*
G75*
G02*
X0322689Y0312947I0000000J0000396D01*
G01*
X0322689Y0320715D01*
G75*
G02*
X0323085Y0321110I0000396J0000000D01*
G01*
X0325459Y0321110D01*
G75*
G02*
X0325854Y0320715I0000000J-000396D01*
G01*
X0325854Y0312947D01*
G75*
G02*
X0325459Y0312551I-000396J0000000D01*
G01*
G37*
G36*
G01*
X0320459Y0312551D02*
X0318085Y0312551D01*
G75*
G02*
X0317689Y0312947I0000000J0000396D01*
G01*
X0317689Y0320715D01*
G75*
G02*
X0318085Y0321110I0000396J0000000D01*
G01*
X0320459Y0321110D01*
G75*
G02*
X0320854Y0320715I0000000J-000396D01*
G01*
X0320854Y0312947D01*
G75*
G02*
X0320459Y0312551I-000396J0000000D01*
G01*
G37*
D68*
X0015748Y0277559D03*
X0015748Y0125984D03*
G36*
G01*
X0068996Y0253256D02*
X0076673Y0253256D01*
G75*
G02*
X0077075Y0252854I0000000J-000402D01*
G01*
X0077075Y0245177D01*
G75*
G02*
X0076673Y0244776I-000402J0000000D01*
G01*
X0068996Y0244776D01*
G75*
G02*
X0068594Y0245177I0000000J0000402D01*
G01*
X0068594Y0252854D01*
G75*
G02*
X0068996Y0253256I0000402J0000000D01*
G01*
G37*
D69*
X0072835Y0237205D03*
X0072835Y0225394D03*
X0072835Y0213583D03*
X0072835Y0201772D03*
X0072835Y0189961D03*
X0072835Y0178150D03*
X0072835Y0166339D03*
X0072835Y0154528D03*
X0062992Y0243110D03*
X0062992Y0231299D03*
X0062992Y0219488D03*
X0062992Y0207677D03*
X0062992Y0195866D03*
X0062992Y0184055D03*
X0062992Y0172244D03*
X0062992Y0160433D03*
X0051181Y0243110D03*
X0051181Y0231299D03*
X0051181Y0219488D03*
X0051181Y0207677D03*
X0051181Y0195866D03*
X0051181Y0184055D03*
X0051181Y0172244D03*
X0051181Y0160433D03*
X0041339Y0249016D03*
X0041339Y0237205D03*
X0041339Y0225394D03*
X0041339Y0213583D03*
X0041339Y0201772D03*
X0041339Y0189961D03*
X0041339Y0178150D03*
X0041339Y0166339D03*
X0041339Y0154528D03*
D45*
X0247293Y0052730D03*
D47*
X0288041Y0052533D03*
X0286073Y0052533D03*
D10*
X0260285Y0048399D03*
X0263730Y0046332D03*
X0259104Y0043379D03*
X0259400Y0029403D03*
G36*
G01*
X0104587Y0128071D02*
X0106043Y0128071D01*
G75*
G02*
X0106575Y0127539I0000000J-000531D01*
G01*
X0106575Y0126476D01*
G75*
G02*
X0106043Y0125945I-000531J0000000D01*
G01*
X0104587Y0125945D01*
G75*
G02*
X0104055Y0126476I0000000J0000531D01*
G01*
X0104055Y0127539D01*
G75*
G02*
X0104587Y0128071I0000531J0000000D01*
G01*
G37*
G36*
G01*
X0104587Y0124055D02*
X0106043Y0124055D01*
G75*
G02*
X0106575Y0123524I0000000J-000531D01*
G01*
X0106575Y0122461D01*
G75*
G02*
X0106043Y0121929I-000531J0000000D01*
G01*
X0104587Y0121929D01*
G75*
G02*
X0104055Y0122461I0000000J0000531D01*
G01*
X0104055Y0123524D01*
G75*
G02*
X0104587Y0124055I0000531J0000000D01*
G01*
G37*
D10*
X0258071Y0263238D03*
X0253346Y0263238D03*
X0262795Y0263238D03*
X0267520Y0263238D03*
X0242087Y0320030D03*
X0238150Y0320030D03*
D21*
X0384941Y0278346D03*
X0384941Y0245276D03*
G36*
G01*
X0349902Y0283661D02*
X0362500Y0283661D01*
G75*
G02*
X0363484Y0282677I0000000J-000984D01*
G01*
X0363484Y0274016D01*
G75*
G02*
X0362500Y0273031I-000984J0000000D01*
G01*
X0349902Y0273031D01*
G75*
G02*
X0348917Y0274016I0000000J0000984D01*
G01*
X0348917Y0282677D01*
G75*
G02*
X0349902Y0283661I0000984J0000000D01*
G01*
G37*
D48*
X0356201Y0261811D03*
X0356201Y0245276D03*
X0334547Y0278346D03*
X0334547Y0261811D03*
X0334547Y0245276D03*
G36*
X0221457Y0278543D02*
G01*
X0223425Y0281496D01*
X0227362Y0281496D01*
X0227362Y0275591D01*
X0223425Y0275591D01*
X0221457Y0278543D01*
G37*
G36*
X0217717Y0281496D02*
G01*
X0222244Y0281496D01*
X0220276Y0278543D01*
X0222244Y0275591D01*
X0217717Y0275591D01*
X0217717Y0281496D01*
G37*
D49*
X0370276Y0338780D03*
X0356496Y0338780D03*
X0342717Y0338780D03*
X0235630Y0338780D03*
X0221850Y0338780D03*
X0370276Y0356496D03*
X0356496Y0356496D03*
X0342717Y0356496D03*
X0235630Y0356496D03*
X0221850Y0356496D03*
X0092323Y0338780D03*
X0078543Y0338780D03*
X0064764Y0338780D03*
X0050984Y0338780D03*
X0037205Y0338780D03*
X0023425Y0338780D03*
X0092323Y0356496D03*
X0078543Y0356496D03*
X0064764Y0356496D03*
X0050984Y0356496D03*
X0037205Y0356496D03*
X0023425Y0356496D03*
X0330512Y0338780D03*
X0318701Y0338780D03*
X0306890Y0338780D03*
X0295079Y0338780D03*
X0283268Y0338780D03*
X0271457Y0338780D03*
X0259646Y0338780D03*
X0247835Y0338780D03*
X0330512Y0356496D03*
X0318701Y0356496D03*
X0306890Y0356496D03*
X0295079Y0356496D03*
X0283268Y0356496D03*
X0271457Y0356496D03*
X0259646Y0356496D03*
X0247835Y0356496D03*
X0198425Y0338780D03*
X0186614Y0338780D03*
X0174803Y0338780D03*
X0162992Y0338780D03*
X0151181Y0338780D03*
X0139370Y0338780D03*
X0127559Y0338780D03*
X0115748Y0338780D03*
X0198425Y0356496D03*
X0186614Y0356496D03*
X0174803Y0356496D03*
X0162992Y0356496D03*
X0151181Y0356496D03*
X0139370Y0356496D03*
X0127559Y0356496D03*
X0115748Y0356496D03*
D50*
X0020866Y0378937D03*
X0209646Y0378937D03*
X0372835Y0378937D03*
G36*
G01*
X0044868Y0294047D02*
X0042494Y0294047D01*
G75*
G02*
X0042098Y0294443I0000000J0000396D01*
G01*
X0042098Y0302211D01*
G75*
G02*
X0042494Y0302606I0000396J0000000D01*
G01*
X0044868Y0302606D01*
G75*
G02*
X0045264Y0302211I0000000J-000396D01*
G01*
X0045264Y0294443D01*
G75*
G02*
X0044868Y0294047I-000396J0000000D01*
G01*
G37*
G36*
G01*
X0049868Y0294047D02*
X0047494Y0294047D01*
G75*
G02*
X0047098Y0294443I0000000J0000396D01*
G01*
X0047098Y0302211D01*
G75*
G02*
X0047494Y0302606I0000396J0000000D01*
G01*
X0049868Y0302606D01*
G75*
G02*
X0050264Y0302211I0000000J-000396D01*
G01*
X0050264Y0294443D01*
G75*
G02*
X0049868Y0294047I-000396J0000000D01*
G01*
G37*
G36*
G01*
X0054868Y0294047D02*
X0052494Y0294047D01*
G75*
G02*
X0052098Y0294443I0000000J0000396D01*
G01*
X0052098Y0302211D01*
G75*
G02*
X0052494Y0302606I0000396J0000000D01*
G01*
X0054868Y0302606D01*
G75*
G02*
X0055264Y0302211I0000000J-000396D01*
G01*
X0055264Y0294443D01*
G75*
G02*
X0054868Y0294047I-000396J0000000D01*
G01*
G37*
G36*
G01*
X0059868Y0294047D02*
X0057494Y0294047D01*
G75*
G02*
X0057098Y0294443I0000000J0000396D01*
G01*
X0057098Y0302211D01*
G75*
G02*
X0057494Y0302606I0000396J0000000D01*
G01*
X0059868Y0302606D01*
G75*
G02*
X0060264Y0302211I0000000J-000396D01*
G01*
X0060264Y0294443D01*
G75*
G02*
X0059868Y0294047I-000396J0000000D01*
G01*
G37*
G36*
G01*
X0059868Y0313535D02*
X0057494Y0313535D01*
G75*
G02*
X0057098Y0313931I0000000J0000396D01*
G01*
X0057098Y0321699D01*
G75*
G02*
X0057494Y0322094I0000396J0000000D01*
G01*
X0059868Y0322094D01*
G75*
G02*
X0060264Y0321699I0000000J-000396D01*
G01*
X0060264Y0313931D01*
G75*
G02*
X0059868Y0313535I-000396J0000000D01*
G01*
G37*
G36*
G01*
X0054868Y0313535D02*
X0052494Y0313535D01*
G75*
G02*
X0052098Y0313931I0000000J0000396D01*
G01*
X0052098Y0321699D01*
G75*
G02*
X0052494Y0322094I0000396J0000000D01*
G01*
X0054868Y0322094D01*
G75*
G02*
X0055264Y0321699I0000000J-000396D01*
G01*
X0055264Y0313931D01*
G75*
G02*
X0054868Y0313535I-000396J0000000D01*
G01*
G37*
G36*
G01*
X0049868Y0313535D02*
X0047494Y0313535D01*
G75*
G02*
X0047098Y0313931I0000000J0000396D01*
G01*
X0047098Y0321699D01*
G75*
G02*
X0047494Y0322094I0000396J0000000D01*
G01*
X0049868Y0322094D01*
G75*
G02*
X0050264Y0321699I0000000J-000396D01*
G01*
X0050264Y0313931D01*
G75*
G02*
X0049868Y0313535I-000396J0000000D01*
G01*
G37*
G36*
G01*
X0044868Y0313535D02*
X0042494Y0313535D01*
G75*
G02*
X0042098Y0313931I0000000J0000396D01*
G01*
X0042098Y0321699D01*
G75*
G02*
X0042494Y0322094I0000396J0000000D01*
G01*
X0044868Y0322094D01*
G75*
G02*
X0045264Y0321699I0000000J-000396D01*
G01*
X0045264Y0313931D01*
G75*
G02*
X0044868Y0313535I-000396J0000000D01*
G01*
G37*
G36*
G01*
X0088839Y0182205D02*
X0090295Y0182205D01*
G75*
G02*
X0090827Y0181673I0000000J-000531D01*
G01*
X0090827Y0180610D01*
G75*
G02*
X0090295Y0180079I-000531J0000000D01*
G01*
X0088839Y0180079D01*
G75*
G02*
X0088307Y0180610I0000000J0000531D01*
G01*
X0088307Y0181673D01*
G75*
G02*
X0088839Y0182205I0000531J0000000D01*
G01*
G37*
G36*
G01*
X0088839Y0178189D02*
X0090295Y0178189D01*
G75*
G02*
X0090827Y0177657I0000000J-000531D01*
G01*
X0090827Y0176594D01*
G75*
G02*
X0090295Y0176063I-000531J0000000D01*
G01*
X0088839Y0176063D01*
G75*
G02*
X0088307Y0176594I0000000J0000531D01*
G01*
X0088307Y0177657D01*
G75*
G02*
X0088839Y0178189I0000531J0000000D01*
G01*
G37*
G36*
G01*
X0070374Y0105906D02*
X0067421Y0105906D01*
G75*
G02*
X0066535Y0106791I0000000J0000886D01*
G01*
X0066535Y0108563D01*
G75*
G02*
X0067421Y0109449I0000886J0000000D01*
G01*
X0070374Y0109449D01*
G75*
G02*
X0071260Y0108563I0000000J-000886D01*
G01*
X0071260Y0106791D01*
G75*
G02*
X0070374Y0105906I-000886J0000000D01*
G01*
G37*
G36*
G01*
X0070374Y0118898D02*
X0067421Y0118898D01*
G75*
G02*
X0066535Y0119783I0000000J0000886D01*
G01*
X0066535Y0121555D01*
G75*
G02*
X0067421Y0122441I0000886J0000000D01*
G01*
X0070374Y0122441D01*
G75*
G02*
X0071260Y0121555I0000000J-000886D01*
G01*
X0071260Y0119783D01*
G75*
G02*
X0070374Y0118898I-000886J0000000D01*
G01*
G37*
D51*
X0100886Y0091831D03*
X0100886Y0066634D03*
X0100886Y0059154D03*
X0100886Y0042224D03*
D10*
X0102657Y0032776D03*
X0102657Y0028839D03*
D51*
X0100886Y0017618D03*
X0039862Y0093602D03*
X0039862Y0086319D03*
X0039862Y0066831D03*
X0039862Y0019390D03*
G36*
G01*
X0109508Y0128071D02*
X0110965Y0128071D01*
G75*
G02*
X0111496Y0127539I0000000J-000531D01*
G01*
X0111496Y0126476D01*
G75*
G02*
X0110965Y0125945I-000531J0000000D01*
G01*
X0109508Y0125945D01*
G75*
G02*
X0108976Y0126476I0000000J0000531D01*
G01*
X0108976Y0127539D01*
G75*
G02*
X0109508Y0128071I0000531J0000000D01*
G01*
G37*
G36*
G01*
X0109508Y0124055D02*
X0110965Y0124055D01*
G75*
G02*
X0111496Y0123524I0000000J-000531D01*
G01*
X0111496Y0122461D01*
G75*
G02*
X0110965Y0121929I-000531J0000000D01*
G01*
X0109508Y0121929D01*
G75*
G02*
X0108976Y0122461I0000000J0000531D01*
G01*
X0108976Y0123524D01*
G75*
G02*
X0109508Y0124055I0000531J0000000D01*
G01*
G37*
X0285532Y0238878D02*
G01*
G75*
D108*
X0217127Y0087795D02*
D03*
X0215158Y0087795D02*
D03*
X0213190Y0087795D02*
D03*
X0211221Y0087795D02*
D03*
X0209253Y0087795D02*
D03*
X0207284Y0087795D02*
D03*
X0205316Y0087795D02*
D03*
X0203347Y0087795D02*
D03*
X0201379Y0087795D02*
D03*
X0199410Y0087795D02*
D03*
X0197442Y0087795D02*
D03*
X0195473Y0087795D02*
D03*
X0193504Y0087795D02*
D03*
X0191536Y0087795D02*
D03*
X0189567Y0087795D02*
D03*
X0187599Y0087795D02*
D03*
X0185630Y0087795D02*
D03*
X0183662Y0087795D02*
D03*
X0181693Y0087795D02*
D03*
X0179725Y0087795D02*
D03*
X0177756Y0087795D02*
D03*
X0175788Y0087795D02*
D03*
X0173819Y0087795D02*
D03*
X0171851Y0087795D02*
D03*
X0169882Y0087795D02*
D03*
X0167914Y0087795D02*
D03*
X0165945Y0087795D02*
D03*
X0163977Y0087795D02*
D03*
X0162008Y0087795D02*
D03*
X0160040Y0087795D02*
D03*
X0158071Y0087795D02*
D03*
X0156103Y0087795D02*
D03*
X0154134Y0087795D02*
D03*
X0152166Y0087795D02*
D03*
X0150197Y0087795D02*
D03*
X0148229Y0087795D02*
D03*
X0148229Y0171457D02*
D03*
X0150197Y0171457D02*
D03*
X0152166Y0171457D02*
D03*
X0154134Y0171457D02*
D03*
X0156103Y0171457D02*
D03*
X0158071Y0171457D02*
D03*
X0160040Y0171457D02*
D03*
X0162008Y0171457D02*
D03*
X0163977Y0171457D02*
D03*
X0165945Y0171457D02*
D03*
X0167914Y0171457D02*
D03*
X0169882Y0171457D02*
D03*
X0171851Y0171457D02*
D03*
X0173819Y0171457D02*
D03*
X0175788Y0171457D02*
D03*
X0177756Y0171457D02*
D03*
X0179725Y0171457D02*
D03*
X0181693Y0171457D02*
D03*
X0183662Y0171457D02*
D03*
X0185630Y0171457D02*
D03*
X0187599Y0171457D02*
D03*
X0189567Y0171457D02*
D03*
X0191536Y0171457D02*
D03*
X0193504Y0171457D02*
D03*
X0195473Y0171457D02*
D03*
X0197442Y0171457D02*
D03*
X0199410Y0171457D02*
D03*
X0201379Y0171457D02*
D03*
X0203347Y0171457D02*
D03*
X0205316Y0171457D02*
D03*
X0207284Y0171457D02*
D03*
X0209253Y0171457D02*
D03*
X0211221Y0171457D02*
D03*
X0213190Y0171457D02*
D03*
X0215158Y0171457D02*
D03*
X0217127Y0171457D02*
D03*
D109*
X0140847Y0095177D02*
D03*
X0140847Y0097146D02*
D03*
X0140847Y0099114D02*
D03*
X0140847Y0101083D02*
D03*
X0140847Y0103051D02*
D03*
X0140847Y0105020D02*
D03*
X0140847Y0106988D02*
D03*
X0140847Y0108957D02*
D03*
X0140847Y0110925D02*
D03*
X0140847Y0112894D02*
D03*
X0140847Y0114862D02*
D03*
X0140847Y0116831D02*
D03*
X0140847Y0118799D02*
D03*
X0140847Y0120768D02*
D03*
X0140847Y0122736D02*
D03*
X0140847Y0124705D02*
D03*
X0140847Y0126673D02*
D03*
X0140847Y0128642D02*
D03*
X0140847Y0130610D02*
D03*
X0140847Y0132579D02*
D03*
X0140847Y0134547D02*
D03*
X0140847Y0136516D02*
D03*
X0140847Y0138484D02*
D03*
X0140847Y0140453D02*
D03*
X0140847Y0142421D02*
D03*
X0140847Y0144390D02*
D03*
X0140847Y0146358D02*
D03*
X0140847Y0148327D02*
D03*
X0140847Y0150295D02*
D03*
X0140847Y0152264D02*
D03*
X0140847Y0154232D02*
D03*
X0140847Y0156201D02*
D03*
X0140847Y0158169D02*
D03*
X0140847Y0160138D02*
D03*
X0140847Y0162106D02*
D03*
X0140847Y0164075D02*
D03*
X0224508Y0164075D02*
D03*
X0224508Y0162106D02*
D03*
X0224508Y0160138D02*
D03*
X0224508Y0158169D02*
D03*
X0224508Y0156201D02*
D03*
X0224508Y0154232D02*
D03*
X0224508Y0152264D02*
D03*
X0224508Y0150295D02*
D03*
X0224508Y0148327D02*
D03*
X0224508Y0146358D02*
D03*
X0224508Y0144390D02*
D03*
X0224508Y0142421D02*
D03*
X0224508Y0140453D02*
D03*
X0224508Y0138484D02*
D03*
X0224508Y0136516D02*
D03*
X0224508Y0134547D02*
D03*
X0224508Y0132579D02*
D03*
X0224508Y0130610D02*
D03*
X0224508Y0128642D02*
D03*
X0224508Y0126673D02*
D03*
X0224508Y0124705D02*
D03*
X0224508Y0122736D02*
D03*
X0224508Y0120768D02*
D03*
X0224508Y0118799D02*
D03*
X0224508Y0116831D02*
D03*
X0224508Y0114862D02*
D03*
X0224508Y0112894D02*
D03*
X0224508Y0110925D02*
D03*
X0224508Y0108957D02*
D03*
X0224508Y0106988D02*
D03*
X0224508Y0105020D02*
D03*
X0224508Y0103051D02*
D03*
X0224508Y0101083D02*
D03*
X0224508Y0099114D02*
D03*
X0224508Y0097146D02*
D03*
X0224508Y0095177D02*
D03*
D344*
X0124502Y0111366D02*
D03*
X0133754Y0107626D02*
D03*
D344*
X0124502Y0103886D02*
D03*
D345*
X0278052Y0113681D02*
D03*
X0259941Y0113681D02*
D03*
D346*
X0268997Y0113681D02*
D03*
D347*
X0268997Y0089272D02*
D03*
D348*
X0247737Y0137697D02*
D03*
X0241044Y0137697D02*
D03*
X0241044Y0130610D02*
D03*
X0247737Y0130610D02*
D03*
X0247737Y0123524D02*
D03*
X0241044Y0123524D02*
D03*
X0241044Y0116437D02*
D03*
X0247737Y0116437D02*
D03*
X0257579Y0145177D02*
D03*
X0264272Y0145177D02*
D03*
X0241044Y0145177D02*
D03*
X0247737Y0145177D02*
D03*
X0257579Y0152264D02*
D03*
X0264272Y0152264D02*
D03*
X0241044Y0152264D02*
D03*
X0247737Y0152264D02*
D03*
X0257579Y0159350D02*
D03*
X0264272Y0159350D02*
D03*
X0241044Y0159350D02*
D03*
X0247737Y0159350D02*
D03*
X0264272Y0166437D02*
D03*
X0257579Y0166437D02*
D03*
X0241044Y0166437D02*
D03*
X0247737Y0166437D02*
D03*
D349*
X0125101Y0086739D02*
D03*
X0128841Y0086739D02*
D03*
X0132582Y0086739D02*
D03*
X0132582Y0096188D02*
D03*
X0128841Y0096188D02*
D03*
X0125101Y0096188D02*
D03*
D116*
X0234784Y0086437D02*
D03*
X0234784Y0091437D02*
D03*
X0239784Y0086437D02*
D03*
X0239784Y0091437D02*
D03*
X0244784Y0086437D02*
D03*
X0244784Y0091437D02*
D03*
D350*
X0280808Y0231398D02*
D03*
X0280808Y0227461D02*
D03*
X0134351Y0218406D02*
D03*
X0134351Y0222343D02*
D03*
X0237894Y0229823D02*
D03*
X0237894Y0233760D02*
D03*
X0223721Y0229823D02*
D03*
X0223721Y0233760D02*
D03*
X0204823Y0225886D02*
D03*
X0204823Y0229823D02*
D03*
X0204823Y0233760D02*
D03*
X0204823Y0229823D02*
D03*
X0195374Y0229823D02*
D03*
X0195374Y0225886D02*
D03*
X0195374Y0229823D02*
D03*
X0195374Y0233760D02*
D03*
X0171752Y0225886D02*
D03*
X0171752Y0229823D02*
D03*
X0148130Y0229823D02*
D03*
X0148130Y0225886D02*
D03*
X0148130Y0229823D02*
D03*
X0148130Y0233760D02*
D03*
X0231496Y0116043D02*
D03*
X0231496Y0112106D02*
D03*
X0143406Y0226280D02*
D03*
X0143406Y0222343D02*
D03*
X0280808Y0210728D02*
D03*
X0280808Y0214665D02*
D03*
X0269390Y0174705D02*
D03*
X0269390Y0170768D02*
D03*
X0124902Y0222343D02*
D03*
X0124902Y0218406D02*
D03*
X0129627Y0222343D02*
D03*
X0129627Y0218406D02*
D03*
X0139075Y0222343D02*
D03*
X0139075Y0218406D02*
D03*
X0275689Y0229823D02*
D03*
X0275689Y0225886D02*
D03*
X0270965Y0229823D02*
D03*
X0270965Y0225886D02*
D03*
X0266241Y0229823D02*
D03*
X0266241Y0225886D02*
D03*
X0261516Y0229823D02*
D03*
X0261516Y0225886D02*
D03*
X0275689Y0229823D02*
D03*
X0275689Y0233760D02*
D03*
X0270965Y0229823D02*
D03*
X0270965Y0233760D02*
D03*
X0266241Y0229823D02*
D03*
X0266241Y0233760D02*
D03*
X0261516Y0229823D02*
D03*
X0261516Y0233760D02*
D03*
X0256792Y0229823D02*
D03*
X0256792Y0225886D02*
D03*
X0252067Y0229823D02*
D03*
X0252067Y0225886D02*
D03*
X0247343Y0229823D02*
D03*
X0247343Y0225886D02*
D03*
X0242501Y0229823D02*
D03*
X0242501Y0225886D02*
D03*
X0256792Y0229823D02*
D03*
X0256792Y0233760D02*
D03*
X0252067Y0229823D02*
D03*
X0252067Y0233760D02*
D03*
X0247343Y0229823D02*
D03*
X0247343Y0233760D02*
D03*
X0242619Y0229823D02*
D03*
X0242619Y0233760D02*
D03*
X0237894Y0229823D02*
D03*
X0237894Y0225886D02*
D03*
X0233170Y0229823D02*
D03*
X0233170Y0225886D02*
D03*
X0228445Y0229823D02*
D03*
X0228445Y0225886D02*
D03*
X0223721Y0229823D02*
D03*
X0223721Y0225886D02*
D03*
X0233170Y0229823D02*
D03*
X0233170Y0233760D02*
D03*
X0228445Y0229823D02*
D03*
X0228445Y0233760D02*
D03*
X0218996Y0225886D02*
D03*
X0218996Y0229823D02*
D03*
X0214272Y0225886D02*
D03*
X0214272Y0229823D02*
D03*
X0209548Y0225886D02*
D03*
X0209548Y0229823D02*
D03*
X0218996Y0233760D02*
D03*
X0218996Y0229823D02*
D03*
X0214272Y0233760D02*
D03*
X0214272Y0229823D02*
D03*
X0209548Y0233760D02*
D03*
X0209548Y0229823D02*
D03*
X0200099Y0229823D02*
D03*
X0200099Y0225886D02*
D03*
X0190650Y0229823D02*
D03*
X0190650Y0225886D02*
D03*
X0185926Y0229823D02*
D03*
X0185926Y0225886D02*
D03*
X0200099Y0229823D02*
D03*
X0200099Y0233760D02*
D03*
X0190650Y0229823D02*
D03*
X0190650Y0233760D02*
D03*
X0185926Y0229823D02*
D03*
X0185926Y0233760D02*
D03*
X0181201Y0225886D02*
D03*
X0181201Y0229823D02*
D03*
X0176477Y0225886D02*
D03*
X0176477Y0229823D02*
D03*
X0167028Y0225886D02*
D03*
X0167028Y0229823D02*
D03*
X0181201Y0233760D02*
D03*
X0181201Y0229823D02*
D03*
X0176477Y0233760D02*
D03*
X0176477Y0229823D02*
D03*
X0171752Y0233760D02*
D03*
X0171752Y0229823D02*
D03*
X0167028Y0233760D02*
D03*
X0167028Y0229823D02*
D03*
X0162304Y0229823D02*
D03*
X0162304Y0225886D02*
D03*
X0157579Y0229823D02*
D03*
X0157579Y0225886D02*
D03*
X0152855Y0229823D02*
D03*
X0152855Y0225886D02*
D03*
X0162304Y0229823D02*
D03*
X0162304Y0233760D02*
D03*
X0157579Y0229823D02*
D03*
X0157579Y0233760D02*
D03*
X0152855Y0229823D02*
D03*
X0152855Y0233760D02*
D03*
X0139075Y0225886D02*
D03*
X0139075Y0229823D02*
D03*
X0134351Y0225886D02*
D03*
X0134351Y0229823D02*
D03*
X0129627Y0225886D02*
D03*
X0129627Y0229823D02*
D03*
X0124902Y0225886D02*
D03*
X0124902Y0229823D02*
D03*
X0139075Y0233760D02*
D03*
X0139075Y0229823D02*
D03*
X0134351Y0233760D02*
D03*
X0134351Y0229823D02*
D03*
X0129627Y0233760D02*
D03*
X0129627Y0229823D02*
D03*
X0124902Y0233760D02*
D03*
X0124902Y0229823D02*
D03*
X0280808Y0219784D02*
D03*
X0280808Y0223721D02*
D03*
X0245375Y0106988D02*
D03*
X0245375Y0103051D02*
D03*
D351*
X0226083Y0213091D02*
D03*
X0226083Y0216831D02*
D03*
X0226083Y0220571D02*
D03*
X0235532Y0220571D02*
D03*
X0235532Y0216831D02*
D03*
X0235532Y0213091D02*
D03*
X0263878Y0213091D02*
D03*
X0263878Y0216831D02*
D03*
X0263878Y0220571D02*
D03*
X0273327Y0220571D02*
D03*
X0273327Y0216831D02*
D03*
X0273327Y0213091D02*
D03*
X0244981Y0213091D02*
D03*
X0244981Y0216831D02*
D03*
X0244981Y0220571D02*
D03*
X0254430Y0220571D02*
D03*
X0254430Y0216831D02*
D03*
X0254430Y0213091D02*
D03*
X0207185Y0213091D02*
D03*
X0207185Y0216831D02*
D03*
X0207185Y0220571D02*
D03*
X0216634Y0220571D02*
D03*
X0216634Y0216831D02*
D03*
X0216634Y0213091D02*
D03*
X0188288Y0213091D02*
D03*
X0188288Y0216831D02*
D03*
X0188288Y0220571D02*
D03*
X0197737Y0220571D02*
D03*
X0197737Y0216831D02*
D03*
X0197737Y0213091D02*
D03*
X0169390Y0213091D02*
D03*
X0169390Y0216831D02*
D03*
X0169390Y0220571D02*
D03*
X0178839Y0220571D02*
D03*
X0178839Y0216831D02*
D03*
X0178839Y0213091D02*
D03*
X0150493Y0213091D02*
D03*
X0150493Y0216831D02*
D03*
X0150493Y0220571D02*
D03*
X0159941Y0220571D02*
D03*
X0159941Y0216831D02*
D03*
X0159941Y0213091D02*
D03*
D352*
X0128839Y0182973D02*
D03*
X0128839Y0165256D02*
D03*
D120*
X0143130Y0233760D02*
D03*
X0280808Y0235728D02*
D03*
D353*
X0274508Y0160236D02*
D03*
X0281595Y0160236D02*
D03*
X0281595Y0170276D02*
D03*
X0274508Y0170276D02*
D03*
X0274508Y0154134D02*
D03*
X0281595Y0154134D02*
D03*
X0281595Y0144094D02*
D03*
X0274508Y0144094D02*
D03*
D354*
X0281595Y0166831D02*
D03*
X0281595Y0163681D02*
D03*
X0274508Y0163681D02*
D03*
X0274508Y0166831D02*
D03*
X0274508Y0150689D02*
D03*
X0274508Y0147539D02*
D03*
X0281595Y0147539D02*
D03*
X0281595Y0150689D02*
D03*
D355*
X0126871Y0117225D02*
D03*
X0126871Y0133760D02*
D03*
X0126871Y0156594D02*
D03*
X0126871Y0140059D02*
D03*
D124*
X0139666Y0183760D02*
D03*
X0142225Y0183760D02*
D03*
X0144784Y0183760D02*
D03*
X0147343Y0183760D02*
D03*
X0149902Y0183760D02*
D03*
X0152461Y0183760D02*
D03*
X0155020Y0183760D02*
D03*
X0139666Y0206201D02*
D03*
X0142225Y0206201D02*
D03*
X0144784Y0206201D02*
D03*
X0147343Y0206201D02*
D03*
X0149902Y0206201D02*
D03*
X0152461Y0206201D02*
D03*
X0155020Y0206201D02*
D03*
X0208170Y0183760D02*
D03*
X0210729Y0183760D02*
D03*
X0213288Y0183760D02*
D03*
X0215847Y0183760D02*
D03*
X0218406Y0183760D02*
D03*
X0220965Y0183760D02*
D03*
X0223524Y0183760D02*
D03*
X0208170Y0206201D02*
D03*
X0210729Y0206201D02*
D03*
X0213288Y0206201D02*
D03*
X0215847Y0206201D02*
D03*
X0218406Y0206201D02*
D03*
X0220965Y0206201D02*
D03*
X0223524Y0206201D02*
D03*
X0185335Y0183760D02*
D03*
X0187894Y0183760D02*
D03*
X0190453Y0183760D02*
D03*
X0193012Y0183760D02*
D03*
X0195571Y0183760D02*
D03*
X0198130Y0183760D02*
D03*
X0200689Y0183760D02*
D03*
X0185335Y0206201D02*
D03*
X0187894Y0206201D02*
D03*
X0190453Y0206201D02*
D03*
X0193012Y0206201D02*
D03*
X0195571Y0206201D02*
D03*
X0198130Y0206201D02*
D03*
X0200689Y0206201D02*
D03*
X0162501Y0183760D02*
D03*
X0165060Y0183760D02*
D03*
X0167619Y0183760D02*
D03*
X0170178Y0183760D02*
D03*
X0172737Y0183760D02*
D03*
X0175296Y0183760D02*
D03*
X0177855Y0183760D02*
D03*
X0162501Y0206201D02*
D03*
X0165060Y0206201D02*
D03*
X0167619Y0206201D02*
D03*
X0170178Y0206201D02*
D03*
X0172737Y0206201D02*
D03*
X0175296Y0206201D02*
D03*
X0177855Y0206201D02*
D03*
D125*
X0229823Y0195177D02*
D03*
X0229823Y0192618D02*
D03*
X0229823Y0190059D02*
D03*
X0229823Y0187500D02*
D03*
X0229823Y0184941D02*
D03*
X0229823Y0182382D02*
D03*
X0229823Y0179823D02*
D03*
X0252264Y0195177D02*
D03*
X0252264Y0192618D02*
D03*
X0252264Y0190059D02*
D03*
X0252264Y0187500D02*
D03*
X0252264Y0184941D02*
D03*
X0252264Y0182382D02*
D03*
X0252264Y0179823D02*
D03*
X0257776Y0195177D02*
D03*
X0257776Y0192618D02*
D03*
X0257776Y0190059D02*
D03*
X0257776Y0187500D02*
D03*
X0257776Y0184941D02*
D03*
X0257776Y0182382D02*
D03*
X0257776Y0179823D02*
D03*
X0280217Y0195177D02*
D03*
X0280217Y0192618D02*
D03*
X0280217Y0190059D02*
D03*
X0280217Y0187500D02*
D03*
X0280217Y0184941D02*
D03*
X0280217Y0182382D02*
D03*
X0280217Y0179823D02*
D03*
D356*
X0247146Y0206791D02*
D03*
X0247146Y0204232D02*
D03*
X0247146Y0201673D02*
D03*
X0254626Y0206791D02*
D03*
X0254626Y0204232D02*
D03*
X0254626Y0201673D02*
D03*
X0267225Y0201673D02*
D03*
X0267225Y0204232D02*
D03*
X0267225Y0206791D02*
D03*
X0259745Y0201673D02*
D03*
X0259745Y0204232D02*
D03*
X0259745Y0206791D02*
D03*
X0271949Y0206791D02*
D03*
X0271949Y0204232D02*
D03*
X0271949Y0201673D02*
D03*
X0279430Y0206791D02*
D03*
X0279430Y0204232D02*
D03*
X0279430Y0201673D02*
D03*
X0242422Y0201673D02*
D03*
X0242422Y0204232D02*
D03*
X0242422Y0206791D02*
D03*
X0234941Y0201673D02*
D03*
X0234941Y0204232D02*
D03*
X0234941Y0206791D02*
D03*
D127*
X0278248Y0122321D02*
D03*
X0278248Y0127321D02*
D03*
X0278248Y0132321D02*
D03*
X0278248Y0137321D02*
D03*
X0259350Y0122321D02*
D03*
X0259350Y0127321D02*
D03*
X0259350Y0132321D02*
D03*
X0259350Y0137321D02*
D03*
D357*
X0125886Y0189862D02*
D03*
X0128445Y0189862D02*
D03*
X0131004Y0189862D02*
D03*
X0125886Y0197343D02*
D03*
X0128445Y0197343D02*
D03*
X0131004Y0197343D02*
D03*
X0125886Y0205217D02*
D03*
X0128445Y0205217D02*
D03*
X0131004Y0205217D02*
D03*
X0125886Y0212697D02*
D03*
X0128445Y0212697D02*
D03*
X0131004Y0212697D02*
D03*
D129*
X0239715Y0106201D02*
D03*
X0239715Y0104232D02*
D03*
X0239715Y0102264D02*
D03*
X0233711Y0102264D02*
D03*
X0233711Y0104232D02*
D03*
X0233711Y0106201D02*
D03*
D130*
X0237697Y0101230D02*
D03*
X0235729Y0101230D02*
D03*
X0235729Y0107234D02*
D03*
X0237697Y0107234D02*
D03*
D358*
X0250591Y0108169D02*
D03*
X0250591Y0101476D02*
D03*
D359*
X0241831Y0173130D02*
D03*
X0245768Y0173130D02*
D03*
D133*
X0229784Y0088937D02*
D03*
X0249784Y0092937D02*
D03*
X0249784Y0084937D02*
D03*
D134*
X0191437Y0177461D02*
D03*
X0144193Y0173130D02*
D03*
X0149311Y0177854D02*
D03*
X0161123Y0177854D02*
D03*
X0172540Y0177854D02*
D03*
X0208760Y0177854D02*
D03*
X0225690Y0176673D02*
D03*
D51*
X0281201Y0085335D02*
D03*
X0275492Y0321752D02*
%LPD*%
G01*
D10*
X0302657Y0263484D03*
X0297933Y0263484D03*
X0307382Y0263484D03*
X0312106Y0263484D03*
X0286673Y0320276D03*
X0282736Y0320276D03*
G36*
G01*
X0293110Y0304311D02*
X0294567Y0304311D01*
G75*
G02*
X0295098Y0303780I0000000J-000531D01*
G01*
X0295098Y0302717D01*
G75*
G02*
X0294567Y0302185I-000531J0000000D01*
G01*
X0293110Y0302185D01*
G75*
G02*
X0292579Y0302717I0000000J0000531D01*
G01*
X0292579Y0303780D01*
G75*
G02*
X0293110Y0304311I0000531J0000000D01*
G01*
G37*
G36*
G01*
X0293110Y0308327D02*
X0294567Y0308327D01*
G75*
G02*
X0295098Y0307795I0000000J-000531D01*
G01*
X0295098Y0306732D01*
G75*
G02*
X0294567Y0306201I-000531J0000000D01*
G01*
X0293110Y0306201D01*
G75*
G02*
X0292579Y0306732I0000000J0000531D01*
G01*
X0292579Y0307795D01*
G75*
G02*
X0293110Y0308327I0000531J0000000D01*
G01*
G37*
G36*
G01*
X0277421Y0281063D02*
X0277421Y0282520D01*
G75*
G02*
X0277953Y0283051I0000531J0000000D01*
G01*
X0279016Y0283051D01*
G75*
G02*
X0279547Y0282520I0000000J-000531D01*
G01*
X0279547Y0281063D01*
G75*
G02*
X0279016Y0280532I-000531J0000000D01*
G01*
X0277953Y0280532D01*
G75*
G02*
X0277421Y0281063I0000000J0000531D01*
G01*
G37*
G36*
G01*
X0281437Y0281063D02*
X0281437Y0282520D01*
G75*
G02*
X0281968Y0283051I0000531J0000000D01*
G01*
X0283031Y0283051D01*
G75*
G02*
X0283563Y0282520I0000000J-000531D01*
G01*
X0283563Y0281063D01*
G75*
G02*
X0283031Y0280532I-000531J0000000D01*
G01*
X0281968Y0280532D01*
G75*
G02*
X0281437Y0281063I0000000J0000531D01*
G01*
G37*
G36*
G01*
X0309764Y0292035D02*
X0310945Y0292035D01*
G75*
G02*
X0311535Y0291445I0000000J-000591D01*
G01*
X0311535Y0284949D01*
G75*
G02*
X0310945Y0284358I-000591J0000000D01*
G01*
X0309764Y0284358D01*
G75*
G02*
X0309173Y0284949I0000000J0000591D01*
G01*
X0309173Y0291445D01*
G75*
G02*
X0309764Y0292035I0000591J0000000D01*
G01*
G37*
G36*
G01*
X0304764Y0292035D02*
X0305945Y0292035D01*
G75*
G02*
X0306535Y0291445I0000000J-000591D01*
G01*
X0306535Y0284949D01*
G75*
G02*
X0305945Y0284358I-000591J0000000D01*
G01*
X0304764Y0284358D01*
G75*
G02*
X0304173Y0284949I0000000J0000591D01*
G01*
X0304173Y0291445D01*
G75*
G02*
X0304764Y0292035I0000591J0000000D01*
G01*
G37*
G36*
G01*
X0299764Y0292035D02*
X0300945Y0292035D01*
G75*
G02*
X0301535Y0291445I0000000J-000591D01*
G01*
X0301535Y0284949D01*
G75*
G02*
X0300945Y0284358I-000591J0000000D01*
G01*
X0299764Y0284358D01*
G75*
G02*
X0299173Y0284949I0000000J0000591D01*
G01*
X0299173Y0291445D01*
G75*
G02*
X0299764Y0292035I0000591J0000000D01*
G01*
G37*
G36*
G01*
X0294764Y0292035D02*
X0295945Y0292035D01*
G75*
G02*
X0296535Y0291445I0000000J-000591D01*
G01*
X0296535Y0284949D01*
G75*
G02*
X0295945Y0284358I-000591J0000000D01*
G01*
X0294764Y0284358D01*
G75*
G02*
X0294173Y0284949I0000000J0000591D01*
G01*
X0294173Y0291445D01*
G75*
G02*
X0294764Y0292035I0000591J0000000D01*
G01*
G37*
G36*
G01*
X0294764Y0272547D02*
X0295945Y0272547D01*
G75*
G02*
X0296535Y0271957I0000000J-000591D01*
G01*
X0296535Y0265461D01*
G75*
G02*
X0295945Y0264870I-000591J0000000D01*
G01*
X0294764Y0264870D01*
G75*
G02*
X0294173Y0265461I0000000J0000591D01*
G01*
X0294173Y0271957D01*
G75*
G02*
X0294764Y0272547I0000591J0000000D01*
G01*
G37*
G36*
G01*
X0299764Y0272547D02*
X0300945Y0272547D01*
G75*
G02*
X0301535Y0271957I0000000J-000591D01*
G01*
X0301535Y0265461D01*
G75*
G02*
X0300945Y0264870I-000591J0000000D01*
G01*
X0299764Y0264870D01*
G75*
G02*
X0299173Y0265461I0000000J0000591D01*
G01*
X0299173Y0271957D01*
G75*
G02*
X0299764Y0272547I0000591J0000000D01*
G01*
G37*
G36*
G01*
X0304764Y0272547D02*
X0305945Y0272547D01*
G75*
G02*
X0306535Y0271957I0000000J-000591D01*
G01*
X0306535Y0265461D01*
G75*
G02*
X0305945Y0264870I-000591J0000000D01*
G01*
X0304764Y0264870D01*
G75*
G02*
X0304173Y0265461I0000000J0000591D01*
G01*
X0304173Y0271957D01*
G75*
G02*
X0304764Y0272547I0000591J0000000D01*
G01*
G37*
G36*
G01*
X0309764Y0272547D02*
X0310945Y0272547D01*
G75*
G02*
X0311535Y0271957I0000000J-000591D01*
G01*
X0311535Y0265461D01*
G75*
G02*
X0310945Y0264870I-000591J0000000D01*
G01*
X0309764Y0264870D01*
G75*
G02*
X0309173Y0265461I0000000J0000591D01*
G01*
X0309173Y0271957D01*
G75*
G02*
X0309764Y0272547I0000591J0000000D01*
G01*
G37*
D181*
X0310492Y0306555D03*
X0307933Y0306555D03*
X0305374Y0306555D03*
X0305374Y0299075D03*
X0307933Y0299075D03*
X0310492Y0299075D03*
G36*
G01*
X0291404Y0290394D02*
X0291404Y0288937D01*
G75*
G02*
X0290872Y0288406I-000531J0000000D01*
G01*
X0289809Y0288406D01*
G75*
G02*
X0289278Y0288937I0000000J0000531D01*
G01*
X0289278Y0290394D01*
G75*
G02*
X0289809Y0290925I0000531J0000000D01*
G01*
X0290872Y0290925D01*
G75*
G02*
X0291404Y0290394I0000000J-000531D01*
G01*
G37*
G36*
G01*
X0287388Y0290394D02*
X0287388Y0288937D01*
G75*
G02*
X0286857Y0288406I-000531J0000000D01*
G01*
X0285794Y0288406D01*
G75*
G02*
X0285262Y0288937I0000000J0000531D01*
G01*
X0285262Y0290394D01*
G75*
G02*
X0285794Y0290925I0000531J0000000D01*
G01*
X0286857Y0290925D01*
G75*
G02*
X0287388Y0290394I0000000J-000531D01*
G01*
G37*
G36*
G01*
X0285341Y0285059D02*
X0285341Y0286398D01*
G75*
G02*
X0285892Y0286949I0000551J0000000D01*
G01*
X0286994Y0286949D01*
G75*
G02*
X0287546Y0286398I0000000J-000551D01*
G01*
X0287546Y0285059D01*
G75*
G02*
X0286994Y0284508I-000551J0000000D01*
G01*
X0285892Y0284508D01*
G75*
G02*
X0285341Y0285059I0000000J0000551D01*
G01*
G37*
G36*
G01*
X0289120Y0285059D02*
X0289120Y0286398D01*
G75*
G02*
X0289672Y0286949I0000551J0000000D01*
G01*
X0290774Y0286949D01*
G75*
G02*
X0291325Y0286398I0000000J-000551D01*
G01*
X0291325Y0285059D01*
G75*
G02*
X0290774Y0284508I-000551J0000000D01*
G01*
X0289672Y0284508D01*
G75*
G02*
X0289120Y0285059I0000000J0000551D01*
G01*
G37*
G36*
G01*
X0277421Y0288937D02*
X0277421Y0290394D01*
G75*
G02*
X0277953Y0290925I0000531J0000000D01*
G01*
X0279016Y0290925D01*
G75*
G02*
X0279547Y0290394I0000000J-000531D01*
G01*
X0279547Y0288937D01*
G75*
G02*
X0279016Y0288406I-000531J0000000D01*
G01*
X0277953Y0288406D01*
G75*
G02*
X0277421Y0288937I0000000J0000531D01*
G01*
G37*
G36*
G01*
X0281437Y0288937D02*
X0281437Y0290394D01*
G75*
G02*
X0281968Y0290925I0000531J0000000D01*
G01*
X0283031Y0290925D01*
G75*
G02*
X0283563Y0290394I0000000J-000531D01*
G01*
X0283563Y0288937D01*
G75*
G02*
X0283031Y0288406I-000531J0000000D01*
G01*
X0281968Y0288406D01*
G75*
G02*
X0281437Y0288937I0000000J0000531D01*
G01*
G37*
G36*
G01*
X0283484Y0277343D02*
X0283484Y0276004D01*
G75*
G02*
X0282933Y0275453I-000551J0000000D01*
G01*
X0281831Y0275453D01*
G75*
G02*
X0281279Y0276004I0000000J0000551D01*
G01*
X0281279Y0277343D01*
G75*
G02*
X0281831Y0277894I0000551J0000000D01*
G01*
X0282933Y0277894D01*
G75*
G02*
X0283484Y0277343I0000000J-000551D01*
G01*
G37*
G36*
G01*
X0279705Y0277343D02*
X0279705Y0276004D01*
G75*
G02*
X0279153Y0275453I-000551J0000000D01*
G01*
X0278051Y0275453D01*
G75*
G02*
X0277500Y0276004I0000000J0000551D01*
G01*
X0277500Y0277343D01*
G75*
G02*
X0278051Y0277894I0000551J0000000D01*
G01*
X0279153Y0277894D01*
G75*
G02*
X0279705Y0277343I0000000J-000551D01*
G01*
G37*
G36*
G01*
X0287342Y0300472D02*
X0287342Y0299134D01*
G75*
G02*
X0286791Y0298583I-000551J0000000D01*
G01*
X0285689Y0298583D01*
G75*
G02*
X0285138Y0299134I0000000J0000551D01*
G01*
X0285138Y0300472D01*
G75*
G02*
X0285689Y0301024I0000551J0000000D01*
G01*
X0286791Y0301024D01*
G75*
G02*
X0287342Y0300472I0000000J-000551D01*
G01*
G37*
G36*
G01*
X0283563Y0300472D02*
X0283563Y0299134D01*
G75*
G02*
X0283012Y0298583I-000551J0000000D01*
G01*
X0281909Y0298583D01*
G75*
G02*
X0281358Y0299134I0000000J0000551D01*
G01*
X0281358Y0300472D01*
G75*
G02*
X0281909Y0301024I0000551J0000000D01*
G01*
X0283012Y0301024D01*
G75*
G02*
X0283563Y0300472I0000000J-000551D01*
G01*
G37*
G36*
G01*
X0290590Y0294705D02*
X0289134Y0294705D01*
G75*
G02*
X0288602Y0295236I0000000J0000531D01*
G01*
X0288602Y0296299D01*
G75*
G02*
X0289134Y0296831I0000531J0000000D01*
G01*
X0290590Y0296831D01*
G75*
G02*
X0291122Y0296299I0000000J-000531D01*
G01*
X0291122Y0295236D01*
G75*
G02*
X0290590Y0294705I-000531J0000000D01*
G01*
G37*
G36*
G01*
X0290590Y0298721D02*
X0289134Y0298721D01*
G75*
G02*
X0288602Y0299252I0000000J0000531D01*
G01*
X0288602Y0300315D01*
G75*
G02*
X0289134Y0300846I0000531J0000000D01*
G01*
X0290590Y0300846D01*
G75*
G02*
X0291122Y0300315I0000000J-000531D01*
G01*
X0291122Y0299252D01*
G75*
G02*
X0290590Y0298721I-000531J0000000D01*
G01*
G37*
G36*
G01*
X0291319Y0263878D02*
X0289980Y0263878D01*
G75*
G02*
X0289429Y0264429I0000000J0000551D01*
G01*
X0289429Y0265532D01*
G75*
G02*
X0289980Y0266083I0000551J0000000D01*
G01*
X0291319Y0266083D01*
G75*
G02*
X0291870Y0265532I0000000J-000551D01*
G01*
X0291870Y0264429D01*
G75*
G02*
X0291319Y0263878I-000551J0000000D01*
G01*
G37*
G36*
G01*
X0291319Y0267658D02*
X0289980Y0267658D01*
G75*
G02*
X0289429Y0268209I0000000J0000551D01*
G01*
X0289429Y0269311D01*
G75*
G02*
X0289980Y0269862I0000551J0000000D01*
G01*
X0291319Y0269862D01*
G75*
G02*
X0291870Y0269311I0000000J-000551D01*
G01*
X0291870Y0268209D01*
G75*
G02*
X0291319Y0267658I-000551J0000000D01*
G01*
G37*
G36*
G01*
X0297082Y0312933D02*
X0299099Y0312933D01*
G75*
G02*
X0299961Y0312072I0000000J-000861D01*
G01*
X0299961Y0310349D01*
G75*
G02*
X0299099Y0309488I-000861J0000000D01*
G01*
X0297082Y0309488D01*
G75*
G02*
X0296220Y0310349I0000000J0000861D01*
G01*
X0296220Y0312072D01*
G75*
G02*
X0297082Y0312933I0000861J0000000D01*
G01*
G37*
G36*
G01*
X0297082Y0319134D02*
X0299099Y0319134D01*
G75*
G02*
X0299961Y0318273I0000000J-000861D01*
G01*
X0299961Y0316550D01*
G75*
G02*
X0299099Y0315689I-000861J0000000D01*
G01*
X0297082Y0315689D01*
G75*
G02*
X0296220Y0316550I0000000J0000861D01*
G01*
X0296220Y0318273D01*
G75*
G02*
X0297082Y0319134I0000861J0000000D01*
G01*
G37*
G36*
G01*
X0302303Y0294154D02*
X0302303Y0295492D01*
G75*
G02*
X0302854Y0296043I0000551J0000000D01*
G01*
X0303957Y0296043D01*
G75*
G02*
X0304508Y0295492I0000000J-000551D01*
G01*
X0304508Y0294154D01*
G75*
G02*
X0303957Y0293602I-000551J0000000D01*
G01*
X0302854Y0293602D01*
G75*
G02*
X0302303Y0294154I0000000J0000551D01*
G01*
G37*
G36*
G01*
X0306083Y0294154D02*
X0306083Y0295492D01*
G75*
G02*
X0306634Y0296043I0000551J0000000D01*
G01*
X0307736Y0296043D01*
G75*
G02*
X0308287Y0295492I0000000J-000551D01*
G01*
X0308287Y0294154D01*
G75*
G02*
X0307736Y0293602I-000551J0000000D01*
G01*
X0306634Y0293602D01*
G75*
G02*
X0306083Y0294154I0000000J0000551D01*
G01*
G37*
G36*
G01*
X0305157Y0311791D02*
X0303701Y0311791D01*
G75*
G02*
X0303169Y0312323I0000000J0000531D01*
G01*
X0303169Y0313386D01*
G75*
G02*
X0303701Y0313917I0000531J0000000D01*
G01*
X0305157Y0313917D01*
G75*
G02*
X0305689Y0313386I0000000J-000531D01*
G01*
X0305689Y0312323D01*
G75*
G02*
X0305157Y0311791I-000531J0000000D01*
G01*
G37*
G36*
G01*
X0305157Y0315807D02*
X0303701Y0315807D01*
G75*
G02*
X0303169Y0316339I0000000J0000531D01*
G01*
X0303169Y0317402D01*
G75*
G02*
X0303701Y0317933I0000531J0000000D01*
G01*
X0305157Y0317933D01*
G75*
G02*
X0305689Y0317402I0000000J-000531D01*
G01*
X0305689Y0316339D01*
G75*
G02*
X0305157Y0315807I-000531J0000000D01*
G01*
G37*
G36*
G01*
X0293071Y0300846D02*
X0294527Y0300846D01*
G75*
G02*
X0295059Y0300315I0000000J-000531D01*
G01*
X0295059Y0299252D01*
G75*
G02*
X0294527Y0298721I-000531J0000000D01*
G01*
X0293071Y0298721D01*
G75*
G02*
X0292539Y0299252I0000000J0000531D01*
G01*
X0292539Y0300315D01*
G75*
G02*
X0293071Y0300846I0000531J0000000D01*
G01*
G37*
G36*
G01*
X0293071Y0296831D02*
X0294527Y0296831D01*
G75*
G02*
X0295059Y0296299I0000000J-000531D01*
G01*
X0295059Y0295236D01*
G75*
G02*
X0294527Y0294705I-000531J0000000D01*
G01*
X0293071Y0294705D01*
G75*
G02*
X0292539Y0295236I0000000J0000531D01*
G01*
X0292539Y0296299D01*
G75*
G02*
X0293071Y0296831I0000531J0000000D01*
G01*
G37*
G36*
G01*
X0287280Y0295709D02*
X0287280Y0294252D01*
G75*
G02*
X0286749Y0293721I-000531J0000000D01*
G01*
X0285686Y0293721D01*
G75*
G02*
X0285154Y0294252I0000000J0000531D01*
G01*
X0285154Y0295709D01*
G75*
G02*
X0285686Y0296240I0000531J0000000D01*
G01*
X0286749Y0296240D01*
G75*
G02*
X0287280Y0295709I0000000J-000531D01*
G01*
G37*
G36*
G01*
X0283264Y0295709D02*
X0283264Y0294252D01*
G75*
G02*
X0282733Y0293721I-000531J0000000D01*
G01*
X0281670Y0293721D01*
G75*
G02*
X0281139Y0294252I0000000J0000531D01*
G01*
X0281139Y0295709D01*
G75*
G02*
X0281670Y0296240I0000531J0000000D01*
G01*
X0282733Y0296240D01*
G75*
G02*
X0283264Y0295709I0000000J-000531D01*
G01*
G37*
G36*
G01*
X0293878Y0313051D02*
X0292539Y0313051D01*
G75*
G02*
X0291988Y0313602I0000000J0000551D01*
G01*
X0291988Y0314705D01*
G75*
G02*
X0292539Y0315256I0000551J0000000D01*
G01*
X0293878Y0315256D01*
G75*
G02*
X0294429Y0314705I0000000J-000551D01*
G01*
X0294429Y0313602D01*
G75*
G02*
X0293878Y0313051I-000551J0000000D01*
G01*
G37*
G36*
G01*
X0293878Y0316831D02*
X0292539Y0316831D01*
G75*
G02*
X0291988Y0317382I0000000J0000551D01*
G01*
X0291988Y0318484D01*
G75*
G02*
X0292539Y0319035I0000551J0000000D01*
G01*
X0293878Y0319035D01*
G75*
G02*
X0294429Y0318484I0000000J-000551D01*
G01*
X0294429Y0317382D01*
G75*
G02*
X0293878Y0316831I-000551J0000000D01*
G01*
G37*
G36*
G01*
X0285341Y0276004D02*
X0285341Y0277343D01*
G75*
G02*
X0285892Y0277894I0000551J0000000D01*
G01*
X0286994Y0277894D01*
G75*
G02*
X0287546Y0277343I0000000J-000551D01*
G01*
X0287546Y0276004D01*
G75*
G02*
X0286994Y0275453I-000551J0000000D01*
G01*
X0285892Y0275453D01*
G75*
G02*
X0285341Y0276004I0000000J0000551D01*
G01*
G37*
G36*
G01*
X0289120Y0276004D02*
X0289120Y0277343D01*
G75*
G02*
X0289672Y0277894I0000551J0000000D01*
G01*
X0290774Y0277894D01*
G75*
G02*
X0291325Y0277343I0000000J-000551D01*
G01*
X0291325Y0276004D01*
G75*
G02*
X0290774Y0275453I-000551J0000000D01*
G01*
X0289672Y0275453D01*
G75*
G02*
X0289120Y0276004I0000000J0000551D01*
G01*
G37*
G36*
G01*
X0277815Y0301024D02*
X0279272Y0301024D01*
G75*
G02*
X0279803Y0300492I0000000J-000531D01*
G01*
X0279803Y0299429D01*
G75*
G02*
X0279272Y0298898I-000531J0000000D01*
G01*
X0277815Y0298898D01*
G75*
G02*
X0277283Y0299429I0000000J0000531D01*
G01*
X0277283Y0300492D01*
G75*
G02*
X0277815Y0301024I0000531J0000000D01*
G01*
G37*
G36*
G01*
X0277815Y0297008D02*
X0279272Y0297008D01*
G75*
G02*
X0279803Y0296476I0000000J-000531D01*
G01*
X0279803Y0295413D01*
G75*
G02*
X0279272Y0294882I-000531J0000000D01*
G01*
X0277815Y0294882D01*
G75*
G02*
X0277283Y0295413I0000000J0000531D01*
G01*
X0277283Y0296476D01*
G75*
G02*
X0277815Y0297008I0000531J0000000D01*
G01*
G37*
D180*
X0279035Y0271765D03*
X0279035Y0269206D03*
X0279035Y0266647D03*
X0286516Y0266647D03*
X0286516Y0269206D03*
X0286516Y0271765D03*
G36*
G01*
X0287821Y0317714D02*
X0289002Y0317714D01*
G75*
G02*
X0289593Y0317123I0000000J-000591D01*
G01*
X0289593Y0313088D01*
G75*
G02*
X0289002Y0312497I-000591J0000000D01*
G01*
X0287821Y0312497D01*
G75*
G02*
X0287231Y0313088I0000000J0000591D01*
G01*
X0287231Y0317123D01*
G75*
G02*
X0287821Y0317714I0000591J0000000D01*
G01*
G37*
G36*
G01*
X0284081Y0317714D02*
X0285262Y0317714D01*
G75*
G02*
X0285853Y0317123I0000000J-000591D01*
G01*
X0285853Y0313088D01*
G75*
G02*
X0285262Y0312497I-000591J0000000D01*
G01*
X0284081Y0312497D01*
G75*
G02*
X0283490Y0313088I0000000J0000591D01*
G01*
X0283490Y0317123D01*
G75*
G02*
X0284081Y0317714I0000591J0000000D01*
G01*
G37*
G36*
G01*
X0280341Y0317714D02*
X0281522Y0317714D01*
G75*
G02*
X0282112Y0317123I0000000J-000591D01*
G01*
X0282112Y0313088D01*
G75*
G02*
X0281522Y0312497I-000591J0000000D01*
G01*
X0280341Y0312497D01*
G75*
G02*
X0279750Y0313088I0000000J0000591D01*
G01*
X0279750Y0317123D01*
G75*
G02*
X0280341Y0317714I0000591J0000000D01*
G01*
G37*
G36*
G01*
X0280341Y0308757D02*
X0281522Y0308757D01*
G75*
G02*
X0282112Y0308167I0000000J-000591D01*
G01*
X0282112Y0304131D01*
G75*
G02*
X0281522Y0303541I-000591J0000000D01*
G01*
X0280341Y0303541D01*
G75*
G02*
X0279750Y0304131I0000000J0000591D01*
G01*
X0279750Y0308167D01*
G75*
G02*
X0280341Y0308757I0000591J0000000D01*
G01*
G37*
G36*
G01*
X0284081Y0308757D02*
X0285262Y0308757D01*
G75*
G02*
X0285853Y0308167I0000000J-000591D01*
G01*
X0285853Y0304131D01*
G75*
G02*
X0285262Y0303541I-000591J0000000D01*
G01*
X0284081Y0303541D01*
G75*
G02*
X0283490Y0304131I0000000J0000591D01*
G01*
X0283490Y0308167D01*
G75*
G02*
X0284081Y0308757I0000591J0000000D01*
G01*
G37*
G36*
G01*
X0287821Y0308757D02*
X0289002Y0308757D01*
G75*
G02*
X0289593Y0308167I0000000J-000591D01*
G01*
X0289593Y0304131D01*
G75*
G02*
X0289002Y0303541I-000591J0000000D01*
G01*
X0287821Y0303541D01*
G75*
G02*
X0287231Y0304131I0000000J0000591D01*
G01*
X0287231Y0308167D01*
G75*
G02*
X0287821Y0308757I0000591J0000000D01*
G01*
G37*
G36*
G01*
X0299705Y0306595D02*
X0301043Y0306595D01*
G75*
G02*
X0301594Y0306043I0000000J-000551D01*
G01*
X0301594Y0304941D01*
G75*
G02*
X0301043Y0304390I-000551J0000000D01*
G01*
X0299705Y0304390D01*
G75*
G02*
X0299153Y0304941I0000000J0000551D01*
G01*
X0299153Y0306043D01*
G75*
G02*
X0299705Y0306595I0000551J0000000D01*
G01*
G37*
G36*
G01*
X0299705Y0302815D02*
X0301043Y0302815D01*
G75*
G02*
X0301594Y0302264I0000000J-000551D01*
G01*
X0301594Y0301161D01*
G75*
G02*
X0301043Y0300610I-000551J0000000D01*
G01*
X0299705Y0300610D01*
G75*
G02*
X0299153Y0301161I0000000J0000551D01*
G01*
X0299153Y0302264D01*
G75*
G02*
X0299705Y0302815I0000551J0000000D01*
G01*
G37*
G36*
G01*
X0277500Y0285059D02*
X0277500Y0286398D01*
G75*
G02*
X0278051Y0286949I0000551J0000000D01*
G01*
X0279153Y0286949D01*
G75*
G02*
X0279705Y0286398I0000000J-000551D01*
G01*
X0279705Y0285059D01*
G75*
G02*
X0279153Y0284508I-000551J0000000D01*
G01*
X0278051Y0284508D01*
G75*
G02*
X0277500Y0285059I0000000J0000551D01*
G01*
G37*
G36*
G01*
X0281279Y0285059D02*
X0281279Y0286398D01*
G75*
G02*
X0281831Y0286949I0000551J0000000D01*
G01*
X0282933Y0286949D01*
G75*
G02*
X0283484Y0286398I0000000J-000551D01*
G01*
X0283484Y0285059D01*
G75*
G02*
X0282933Y0284508I-000551J0000000D01*
G01*
X0281831Y0284508D01*
G75*
G02*
X0281279Y0285059I0000000J0000551D01*
G01*
G37*
G36*
G01*
X0285262Y0281063D02*
X0285262Y0282520D01*
G75*
G02*
X0285794Y0283051I0000531J0000000D01*
G01*
X0286857Y0283051D01*
G75*
G02*
X0287388Y0282520I0000000J-000531D01*
G01*
X0287388Y0281063D01*
G75*
G02*
X0286857Y0280532I-000531J0000000D01*
G01*
X0285794Y0280532D01*
G75*
G02*
X0285262Y0281063I0000000J0000531D01*
G01*
G37*
G36*
G01*
X0289278Y0281063D02*
X0289278Y0282520D01*
G75*
G02*
X0289809Y0283051I0000531J0000000D01*
G01*
X0290872Y0283051D01*
G75*
G02*
X0291404Y0282520I0000000J-000531D01*
G01*
X0291404Y0281063D01*
G75*
G02*
X0290872Y0280532I-000531J0000000D01*
G01*
X0289809Y0280532D01*
G75*
G02*
X0289278Y0281063I0000000J0000531D01*
G01*
G37*
X0230906Y0321506D02*
%LPD*%
G01*
D10*
X0258071Y0263238D03*
X0253347Y0263238D03*
X0262796Y0263238D03*
X0267520Y0263238D03*
X0242087Y0320030D03*
X0238150Y0320030D03*
D384*
X0243898Y0287648D03*
X0241930Y0287648D03*
X0239961Y0287648D03*
X0237993Y0287648D03*
X0236024Y0287648D03*
X0236024Y0270325D03*
X0237993Y0270325D03*
X0239961Y0270325D03*
X0241930Y0270325D03*
X0243898Y0270325D03*
G36*
G01*
X0257087Y0280128D02*
X0257087Y0277057D01*
G75*
G02*
X0256812Y0276782I-000276J0000000D01*
G01*
X0254607Y0276782D01*
G75*
G02*
X0254331Y0277057I0000000J0000276D01*
G01*
X0254331Y0280128D01*
G75*
G02*
X0254607Y0280404I0000276J0000000D01*
G01*
X0256812Y0280404D01*
G75*
G02*
X0257087Y0280128I0000000J-000276D01*
G01*
G37*
G36*
G01*
X0250788Y0280128D02*
X0250788Y0277057D01*
G75*
G02*
X0250512Y0276782I-000276J0000000D01*
G01*
X0248308Y0276782D01*
G75*
G02*
X0248032Y0277057I0000000J0000276D01*
G01*
X0248032Y0280128D01*
G75*
G02*
X0248308Y0280404I0000276J0000000D01*
G01*
X0250512Y0280404D01*
G75*
G02*
X0250788Y0280128I0000000J-000276D01*
G01*
G37*
G36*
G01*
X0263741Y0265797D02*
X0260670Y0265797D01*
G75*
G02*
X0260394Y0266073I0000000J0000276D01*
G01*
X0260394Y0268278D01*
G75*
G02*
X0260670Y0268553I0000276J0000000D01*
G01*
X0263741Y0268553D01*
G75*
G02*
X0264016Y0268278I0000000J-000276D01*
G01*
X0264016Y0266073D01*
G75*
G02*
X0263741Y0265797I-000276J0000000D01*
G01*
G37*
G36*
G01*
X0263741Y0272097D02*
X0260670Y0272097D01*
G75*
G02*
X0260394Y0272372I0000000J0000276D01*
G01*
X0260394Y0274577D01*
G75*
G02*
X0260670Y0274852I0000276J0000000D01*
G01*
X0263741Y0274852D01*
G75*
G02*
X0264016Y0274577I0000000J-000276D01*
G01*
X0264016Y0272372D01*
G75*
G02*
X0263741Y0272097I-000276J0000000D01*
G01*
G37*
G36*
G01*
X0257087Y0286034D02*
X0257087Y0282963D01*
G75*
G02*
X0256812Y0282687I-000276J0000000D01*
G01*
X0254607Y0282687D01*
G75*
G02*
X0254331Y0282963I0000000J0000276D01*
G01*
X0254331Y0286034D01*
G75*
G02*
X0254607Y0286309I0000276J0000000D01*
G01*
X0256812Y0286309D01*
G75*
G02*
X0257087Y0286034I0000000J-000276D01*
G01*
G37*
G36*
G01*
X0250788Y0286034D02*
X0250788Y0282963D01*
G75*
G02*
X0250512Y0282687I-000276J0000000D01*
G01*
X0248308Y0282687D01*
G75*
G02*
X0248032Y0282963I0000000J0000276D01*
G01*
X0248032Y0286034D01*
G75*
G02*
X0248308Y0286309I0000276J0000000D01*
G01*
X0250512Y0286309D01*
G75*
G02*
X0250788Y0286034I0000000J-000276D01*
G01*
G37*
G36*
G01*
X0260827Y0296683D02*
X0260827Y0293967D01*
G75*
G02*
X0259922Y0293061I-000906J0000000D01*
G01*
X0254646Y0293061D01*
G75*
G02*
X0253741Y0293967I0000000J0000906D01*
G01*
X0253741Y0296683D01*
G75*
G02*
X0254646Y0297589I0000906J0000000D01*
G01*
X0259922Y0297589D01*
G75*
G02*
X0260827Y0296683I0000000J-000906D01*
G01*
G37*
G36*
G01*
X0260827Y0308101D02*
X0260827Y0305384D01*
G75*
G02*
X0259922Y0304478I-000906J0000000D01*
G01*
X0254646Y0304478D01*
G75*
G02*
X0253741Y0305384I0000000J0000906D01*
G01*
X0253741Y0308101D01*
G75*
G02*
X0254646Y0309006I0000906J0000000D01*
G01*
X0259922Y0309006D01*
G75*
G02*
X0260827Y0308101I0000000J-000906D01*
G01*
G37*
G36*
G01*
X0250985Y0296683D02*
X0250985Y0293967D01*
G75*
G02*
X0250079Y0293061I-000906J0000000D01*
G01*
X0244804Y0293061D01*
G75*
G02*
X0243898Y0293967I0000000J0000906D01*
G01*
X0243898Y0296683D01*
G75*
G02*
X0244804Y0297589I0000906J0000000D01*
G01*
X0250079Y0297589D01*
G75*
G02*
X0250985Y0296683I0000000J-000906D01*
G01*
G37*
G36*
G01*
X0250985Y0308101D02*
X0250985Y0305384D01*
G75*
G02*
X0250079Y0304478I-000906J0000000D01*
G01*
X0244804Y0304478D01*
G75*
G02*
X0243898Y0305384I0000000J0000906D01*
G01*
X0243898Y0308101D01*
G75*
G02*
X0244804Y0309006I0000906J0000000D01*
G01*
X0250079Y0309006D01*
G75*
G02*
X0250985Y0308101I0000000J-000906D01*
G01*
G37*
G36*
G01*
X0257304Y0318750D02*
X0260020Y0318750D01*
G75*
G02*
X0260926Y0317845I0000000J-000906D01*
G01*
X0260926Y0312569D01*
G75*
G02*
X0260020Y0311663I-000906J0000000D01*
G01*
X0257304Y0311663D01*
G75*
G02*
X0256398Y0312569I0000000J0000906D01*
G01*
X0256398Y0317845D01*
G75*
G02*
X0257304Y0318750I0000906J0000000D01*
G01*
G37*
G36*
G01*
X0245886Y0318750D02*
X0248603Y0318750D01*
G75*
G02*
X0249508Y0317845I0000000J-000906D01*
G01*
X0249508Y0312569D01*
G75*
G02*
X0248603Y0311663I-000906J0000000D01*
G01*
X0245886Y0311663D01*
G75*
G02*
X0244981Y0312569I0000000J0000906D01*
G01*
X0244981Y0317845D01*
G75*
G02*
X0245886Y0318750I0000906J0000000D01*
G01*
G37*
G36*
G01*
X0241536Y0303376D02*
X0241536Y0300660D01*
G75*
G02*
X0240630Y0299754I-000906J0000000D01*
G01*
X0235355Y0299754D01*
G75*
G02*
X0234449Y0300660I0000000J0000906D01*
G01*
X0234449Y0303376D01*
G75*
G02*
X0235355Y0304282I0000906J0000000D01*
G01*
X0240630Y0304282D01*
G75*
G02*
X0241536Y0303376I0000000J-000906D01*
G01*
G37*
G36*
G01*
X0241536Y0314793D02*
X0241536Y0312077D01*
G75*
G02*
X0240630Y0311171I-000906J0000000D01*
G01*
X0235355Y0311171D01*
G75*
G02*
X0234449Y0312077I0000000J0000906D01*
G01*
X0234449Y0314793D01*
G75*
G02*
X0235355Y0315699I0000906J0000000D01*
G01*
X0240630Y0315699D01*
G75*
G02*
X0241536Y0314793I0000000J-000906D01*
G01*
G37*
G36*
G01*
X0263411Y0277707D02*
X0261393Y0277707D01*
G75*
G02*
X0260532Y0278568I0000000J0000861D01*
G01*
X0260532Y0280290D01*
G75*
G02*
X0261393Y0281152I0000861J0000000D01*
G01*
X0263411Y0281152D01*
G75*
G02*
X0264272Y0280290I0000000J-000861D01*
G01*
X0264272Y0278568D01*
G75*
G02*
X0263411Y0277707I-000861J0000000D01*
G01*
G37*
G36*
G01*
X0263411Y0283908D02*
X0261393Y0283908D01*
G75*
G02*
X0260532Y0284769I0000000J0000861D01*
G01*
X0260532Y0286491D01*
G75*
G02*
X0261393Y0287352I0000861J0000000D01*
G01*
X0263411Y0287352D01*
G75*
G02*
X0264272Y0286491I0000000J-000861D01*
G01*
X0264272Y0284769D01*
G75*
G02*
X0263411Y0283908I-000861J0000000D01*
G01*
G37*
G36*
G01*
X0256449Y0271762D02*
X0253772Y0271762D01*
G75*
G02*
X0253437Y0272097I0000000J0000335D01*
G01*
X0253437Y0274774D01*
G75*
G02*
X0253772Y0275108I0000335J0000000D01*
G01*
X0256449Y0275108D01*
G75*
G02*
X0256784Y0274774I0000000J-000335D01*
G01*
X0256784Y0272097D01*
G75*
G02*
X0256449Y0271762I-000335J0000000D01*
G01*
G37*
G36*
G01*
X0256449Y0265541D02*
X0253772Y0265541D01*
G75*
G02*
X0253437Y0265876I0000000J0000335D01*
G01*
X0253437Y0268553D01*
G75*
G02*
X0253772Y0268888I0000335J0000000D01*
G01*
X0256449Y0268888D01*
G75*
G02*
X0256784Y0268553I0000000J-000335D01*
G01*
X0256784Y0265876D01*
G75*
G02*
X0256449Y0265541I-000335J0000000D01*
G01*
G37*
G36*
G01*
X0251142Y0265541D02*
X0248465Y0265541D01*
G75*
G02*
X0248130Y0265876I0000000J0000335D01*
G01*
X0248130Y0268553D01*
G75*
G02*
X0248465Y0268888I0000335J0000000D01*
G01*
X0251142Y0268888D01*
G75*
G02*
X0251477Y0268553I0000000J-000335D01*
G01*
X0251477Y0265876D01*
G75*
G02*
X0251142Y0265541I-000335J0000000D01*
G01*
G37*
G36*
G01*
X0251142Y0271762D02*
X0248465Y0271762D01*
G75*
G02*
X0248130Y0272097I0000000J0000335D01*
G01*
X0248130Y0274774D01*
G75*
G02*
X0248465Y0275108I0000335J0000000D01*
G01*
X0251142Y0275108D01*
G75*
G02*
X0251477Y0274774I0000000J-000335D01*
G01*
X0251477Y0272097D01*
G75*
G02*
X0251142Y0271762I-000335J0000000D01*
G01*
G37*
G36*
G01*
X0257343Y0290955D02*
X0257343Y0288278D01*
G75*
G02*
X0257008Y0287943I-000335J0000000D01*
G01*
X0254331Y0287943D01*
G75*
G02*
X0253997Y0288278I0000000J0000335D01*
G01*
X0253997Y0290955D01*
G75*
G02*
X0254331Y0291289I0000335J0000000D01*
G01*
X0257008Y0291289D01*
G75*
G02*
X0257343Y0290955I0000000J-000335D01*
G01*
G37*
G36*
G01*
X0251123Y0290955D02*
X0251123Y0288278D01*
G75*
G02*
X0250788Y0287943I-000335J0000000D01*
G01*
X0248111Y0287943D01*
G75*
G02*
X0247776Y0288278I0000000J0000335D01*
G01*
X0247776Y0290955D01*
G75*
G02*
X0248111Y0291289I0000335J0000000D01*
G01*
X0250788Y0291289D01*
G75*
G02*
X0251123Y0290955I0000000J-000335D01*
G01*
G37*
X0036909Y0014665D02*
G01*
G75*
D195*
X0081988Y0039032D02*
D03*
X0081988Y0021315D02*
D03*
D196*
X0078661Y0063484D02*
D03*
X0051299Y0063484D02*
D03*
D197*
X0067421Y0040256D02*
D03*
X0051279Y0040256D02*
D03*
D198*
X0069192Y0022145D02*
D03*
X0053444Y0022145D02*
D03*
D199*
X0046253Y0083923D02*
D03*
X0055505Y0080183D02*
D03*
D199*
X0055505Y0087663D02*
D03*
D200*
X0078340Y0093602D02*
D03*
D200*
X0078340Y0089862D02*
D03*
X0078340Y0086122D02*
D03*
X0086804Y0086122D02*
D03*
X0086804Y0093602D02*
D03*
D201*
X0090656Y0079601D02*
D03*
X0077664Y0079601D02*
D03*
D202*
X0072370Y0079889D02*
D03*
X0060952Y0079889D02*
D03*
D203*
X0091555Y0047342D02*
D03*
X0085334Y0047342D02*
D03*
X0080964Y0047342D02*
D03*
X0074744Y0047342D02*
D03*
D204*
X0040878Y0024453D02*
D03*
X0040878Y0028587D02*
D03*
X0091433Y0066327D02*
D03*
X0091433Y0070461D02*
D03*
X0091433Y0061614D02*
D03*
X0091433Y0057480D02*
D03*
X0092325Y0041965D02*
D03*
X0092325Y0037831D02*
D03*
D205*
X0073222Y0086172D02*
D03*
X0073222Y0090109D02*
D03*
X0059547Y0087074D02*
D03*
X0068208Y0087074D02*
D03*
X0059547Y0093471D02*
D03*
X0068208Y0093471D02*
D03*
D206*
X0051174Y0093602D02*
D03*
X0054718Y0093602D02*
D03*
D207*
X0087175Y0070264D02*
D03*
X0087175Y0066720D02*
D03*
X0087175Y0061220D02*
D03*
X0087175Y0057677D02*
D03*
X0092325Y0029664D02*
D03*
X0092325Y0033208D02*
D03*
D208*
X0102657Y0032775D02*
D03*
X0102657Y0028838D02*
D03*
D209*
X0039862Y0086318D02*
D03*
X0039862Y0019389D02*
D03*
X0039862Y0066830D02*
D03*
X0100885Y0066633D02*
D03*
X0100885Y0091830D02*
D03*
X0100885Y0042224D02*
D03*
X0100885Y0059153D02*
D03*
X0100885Y0017618D02*
D03*
X0039862Y0093602D02*
D03*
X0175394Y0321457D02*
G01*
G75*
D406*
X0185618Y0306752D02*
D03*
X0178138Y0306752D02*
D03*
X0178138Y0315217D02*
D03*
X0181878Y0315217D02*
D03*
X0185618Y0291103D02*
D03*
X0178138Y0291103D02*
D03*
X0178138Y0299567D02*
D03*
X0181878Y0299567D02*
D03*
D406*
X0185618Y0315217D02*
D03*
X0185618Y0299567D02*
D03*
D208*
X0185630Y0286024D02*
D03*
X0181890Y0286024D02*
D03*
X0178150Y0286024D02*
D03*
X0182087Y0320276D02*
D03*
X0185630Y0320276D02*
D03*
X0290600Y0053812D02*
G01*
G75*
D230*
X0247293Y0052729D02*
D03*
D231*
X0288041Y0052532D02*
D03*
X0286072Y0052532D02*
D03*
D427*
X0279183Y0040800D02*
D03*
X0282923Y0050052D02*
D03*
D427*
X0286663Y0040800D02*
D03*
D233*
X0271624Y0029186D02*
D03*
X0271624Y0034186D02*
D03*
X0271624Y0039186D02*
D03*
X0271624Y0044186D02*
D03*
X0252726Y0029186D02*
D03*
X0252726Y0034186D02*
D03*
X0252726Y0039186D02*
D03*
X0252726Y0044186D02*
D03*
D428*
X0255915Y0049481D02*
D03*
X0249695Y0049481D02*
D03*
X0264261Y0049481D02*
D03*
X0270482Y0049481D02*
D03*
D429*
X0286073Y0035899D02*
D03*
X0279773Y0035899D02*
D03*
D208*
X0275443Y0051942D02*
D03*
X0259399Y0029403D02*
D03*
X0259104Y0043379D02*
D03*
X0260285Y0048399D02*
D03*
X0263730Y0046332D02*
D03*
X0373720Y0121161D02*
%LPD*%
G01*
G36*
G01*
X0338011Y0188769D02*
X0338011Y0187411D01*
G75*
G02*
X0337431Y0186830I-000581J0000000D01*
G01*
X0336269Y0186830D01*
G75*
G02*
X0335689Y0187411I0000000J0000581D01*
G01*
X0335689Y0188769D01*
G75*
G02*
X0336269Y0189350I0000581J0000000D01*
G01*
X0337431Y0189350D01*
G75*
G02*
X0338011Y0188769I0000000J-000581D01*
G01*
G37*
G36*
G01*
X0334192Y0188769D02*
X0334192Y0187411D01*
G75*
G02*
X0333612Y0186830I-000581J0000000D01*
G01*
X0332450Y0186830D01*
G75*
G02*
X0331870Y0187411I0000000J0000581D01*
G01*
X0331870Y0188769D01*
G75*
G02*
X0332450Y0189350I0000581J0000000D01*
G01*
X0333612Y0189350D01*
G75*
G02*
X0334192Y0188769I0000000J-000581D01*
G01*
G37*
G36*
G01*
X0353435Y0130196D02*
X0352076Y0130196D01*
G75*
G02*
X0351496Y0130777I0000000J0000581D01*
G01*
X0351496Y0131939D01*
G75*
G02*
X0352076Y0132519I0000581J0000000D01*
G01*
X0353435Y0132519D01*
G75*
G02*
X0354015Y0131939I0000000J-000581D01*
G01*
X0354015Y0130777D01*
G75*
G02*
X0353435Y0130196I-000581J0000000D01*
G01*
G37*
G36*
G01*
X0353435Y0134015D02*
X0352076Y0134015D01*
G75*
G02*
X0351496Y0134596I0000000J0000581D01*
G01*
X0351496Y0135757D01*
G75*
G02*
X0352076Y0136338I0000581J0000000D01*
G01*
X0353435Y0136338D01*
G75*
G02*
X0354015Y0135757I0000000J-000581D01*
G01*
X0354015Y0134596D01*
G75*
G02*
X0353435Y0134015I-000581J0000000D01*
G01*
G37*
G36*
G01*
X0338238Y0140723D02*
X0338238Y0142741D01*
G75*
G02*
X0339099Y0143602I0000861J0000000D01*
G01*
X0340821Y0143602D01*
G75*
G02*
X0341683Y0142741I0000000J-000861D01*
G01*
X0341683Y0140723D01*
G75*
G02*
X0340821Y0139862I-000861J0000000D01*
G01*
X0339099Y0139862D01*
G75*
G02*
X0338238Y0140723I0000000J0000861D01*
G01*
G37*
G36*
G01*
X0344439Y0140723D02*
X0344439Y0142741D01*
G75*
G02*
X0345300Y0143602I0000861J0000000D01*
G01*
X0347022Y0143602D01*
G75*
G02*
X0347883Y0142741I0000000J-000861D01*
G01*
X0347883Y0140723D01*
G75*
G02*
X0347022Y0139862I-000861J0000000D01*
G01*
X0345300Y0139862D01*
G75*
G02*
X0344439Y0140723I0000000J0000861D01*
G01*
G37*
G36*
G01*
X0363267Y0187214D02*
X0363267Y0188572D01*
G75*
G02*
X0363848Y0189153I0000581J0000000D01*
G01*
X0365009Y0189153D01*
G75*
G02*
X0365590Y0188572I0000000J-000581D01*
G01*
X0365590Y0187214D01*
G75*
G02*
X0365009Y0186633I-000581J0000000D01*
G01*
X0363848Y0186633D01*
G75*
G02*
X0363267Y0187214I0000000J0000581D01*
G01*
G37*
G36*
G01*
X0367086Y0187214D02*
X0367086Y0188572D01*
G75*
G02*
X0367667Y0189153I0000581J0000000D01*
G01*
X0368828Y0189153D01*
G75*
G02*
X0369409Y0188572I0000000J-000581D01*
G01*
X0369409Y0187214D01*
G75*
G02*
X0368828Y0186633I-000581J0000000D01*
G01*
X0367667Y0186633D01*
G75*
G02*
X0367086Y0187214I0000000J0000581D01*
G01*
G37*
D239*
X0347440Y0136023D03*
X0339960Y0136023D03*
X0343700Y0128149D03*
G36*
G01*
X0363267Y0183031D02*
X0363267Y0184389D01*
G75*
G02*
X0363848Y0184970I0000581J0000000D01*
G01*
X0365009Y0184970D01*
G75*
G02*
X0365590Y0184389I0000000J-000581D01*
G01*
X0365590Y0183031D01*
G75*
G02*
X0365009Y0182450I-000581J0000000D01*
G01*
X0363848Y0182450D01*
G75*
G02*
X0363267Y0183031I0000000J0000581D01*
G01*
G37*
G36*
G01*
X0367086Y0183031D02*
X0367086Y0184389D01*
G75*
G02*
X0367667Y0184970I0000581J0000000D01*
G01*
X0368828Y0184970D01*
G75*
G02*
X0369409Y0184389I0000000J-000581D01*
G01*
X0369409Y0183031D01*
G75*
G02*
X0368828Y0182450I-000581J0000000D01*
G01*
X0367667Y0182450D01*
G75*
G02*
X0367086Y0183031I0000000J0000581D01*
G01*
G37*
G36*
G01*
X0339350Y0187411D02*
X0339350Y0188769D01*
G75*
G02*
X0339931Y0189350I0000581J0000000D01*
G01*
X0341092Y0189350D01*
G75*
G02*
X0341673Y0188769I0000000J-000581D01*
G01*
X0341673Y0187411D01*
G75*
G02*
X0341092Y0186830I-000581J0000000D01*
G01*
X0339931Y0186830D01*
G75*
G02*
X0339350Y0187411I0000000J0000581D01*
G01*
G37*
G36*
G01*
X0343169Y0187411D02*
X0343169Y0188769D01*
G75*
G02*
X0343750Y0189350I0000581J0000000D01*
G01*
X0344911Y0189350D01*
G75*
G02*
X0345492Y0188769I0000000J-000581D01*
G01*
X0345492Y0187411D01*
G75*
G02*
X0344911Y0186830I-000581J0000000D01*
G01*
X0343750Y0186830D01*
G75*
G02*
X0343169Y0187411I0000000J0000581D01*
G01*
G37*
G36*
G01*
X0327086Y0183651D02*
X0327086Y0182293D01*
G75*
G02*
X0326505Y0181712I-000581J0000000D01*
G01*
X0325344Y0181712D01*
G75*
G02*
X0324763Y0182293I0000000J0000581D01*
G01*
X0324763Y0183651D01*
G75*
G02*
X0325344Y0184232I0000581J0000000D01*
G01*
X0326505Y0184232D01*
G75*
G02*
X0327086Y0183651I0000000J-000581D01*
G01*
G37*
G36*
G01*
X0323267Y0183651D02*
X0323267Y0182293D01*
G75*
G02*
X0322687Y0181712I-000581J0000000D01*
G01*
X0321525Y0181712D01*
G75*
G02*
X0320944Y0182293I0000000J0000581D01*
G01*
X0320944Y0183651D01*
G75*
G02*
X0321525Y0184232I0000581J0000000D01*
G01*
X0322687Y0184232D01*
G75*
G02*
X0323267Y0183651I0000000J-000581D01*
G01*
G37*
G36*
G01*
X0353858Y0188769D02*
X0353858Y0187411D01*
G75*
G02*
X0353277Y0186830I-000581J0000000D01*
G01*
X0352116Y0186830D01*
G75*
G02*
X0351535Y0187411I0000000J0000581D01*
G01*
X0351535Y0188769D01*
G75*
G02*
X0352116Y0189350I0000581J0000000D01*
G01*
X0353277Y0189350D01*
G75*
G02*
X0353858Y0188769I0000000J-000581D01*
G01*
G37*
G36*
G01*
X0350039Y0188769D02*
X0350039Y0187411D01*
G75*
G02*
X0349458Y0186830I-000581J0000000D01*
G01*
X0348297Y0186830D01*
G75*
G02*
X0347716Y0187411I0000000J0000581D01*
G01*
X0347716Y0188769D01*
G75*
G02*
X0348297Y0189350I0000581J0000000D01*
G01*
X0349458Y0189350D01*
G75*
G02*
X0350039Y0188769I0000000J-000581D01*
G01*
G37*
G36*
G01*
X0327086Y0149005D02*
X0327086Y0147647D01*
G75*
G02*
X0326505Y0147067I-000581J0000000D01*
G01*
X0325344Y0147067D01*
G75*
G02*
X0324763Y0147647I0000000J0000581D01*
G01*
X0324763Y0149005D01*
G75*
G02*
X0325344Y0149586I0000581J0000000D01*
G01*
X0326505Y0149586D01*
G75*
G02*
X0327086Y0149005I0000000J-000581D01*
G01*
G37*
G36*
G01*
X0323267Y0149005D02*
X0323267Y0147647D01*
G75*
G02*
X0322687Y0147067I-000581J0000000D01*
G01*
X0321525Y0147067D01*
G75*
G02*
X0320944Y0147647I0000000J0000581D01*
G01*
X0320944Y0149005D01*
G75*
G02*
X0321525Y0149586I0000581J0000000D01*
G01*
X0322687Y0149586D01*
G75*
G02*
X0323267Y0149005I0000000J-000581D01*
G01*
G37*
D430*
X0333759Y0213444D03*
D237*
X0362106Y0212342D03*
X0350295Y0204468D03*
X0362106Y0196594D03*
D431*
X0358563Y0204468D03*
D430*
X0333759Y0195492D03*
G36*
G01*
X0353533Y0137972D02*
X0352175Y0137972D01*
G75*
G02*
X0351594Y0138553I0000000J0000581D01*
G01*
X0351594Y0139714D01*
G75*
G02*
X0352175Y0140295I0000581J0000000D01*
G01*
X0353533Y0140295D01*
G75*
G02*
X0354114Y0139714I0000000J-000581D01*
G01*
X0354114Y0138553D01*
G75*
G02*
X0353533Y0137972I-000581J0000000D01*
G01*
G37*
G36*
G01*
X0353533Y0141791D02*
X0352175Y0141791D01*
G75*
G02*
X0351594Y0142372I0000000J0000581D01*
G01*
X0351594Y0143533D01*
G75*
G02*
X0352175Y0144114I0000581J0000000D01*
G01*
X0353533Y0144114D01*
G75*
G02*
X0354114Y0143533I0000000J-000581D01*
G01*
X0354114Y0142372D01*
G75*
G02*
X0353533Y0141791I-000581J0000000D01*
G01*
G37*
G36*
G01*
X0367199Y0176476D02*
X0369217Y0176476D01*
G75*
G02*
X0370078Y0175615I0000000J-000861D01*
G01*
X0370078Y0173892D01*
G75*
G02*
X0369217Y0173031I-000861J0000000D01*
G01*
X0367199Y0173031D01*
G75*
G02*
X0366338Y0173892I0000000J0000861D01*
G01*
X0366338Y0175615D01*
G75*
G02*
X0367199Y0176476I0000861J0000000D01*
G01*
G37*
G36*
G01*
X0367199Y0170275D02*
X0369217Y0170275D01*
G75*
G02*
X0370078Y0169414I0000000J-000861D01*
G01*
X0370078Y0167692D01*
G75*
G02*
X0369217Y0166830I-000861J0000000D01*
G01*
X0367199Y0166830D01*
G75*
G02*
X0366338Y0167692I0000000J0000861D01*
G01*
X0366338Y0169414D01*
G75*
G02*
X0367199Y0170275I0000861J0000000D01*
G01*
G37*
G36*
G01*
X0363267Y0178848D02*
X0363267Y0180206D01*
G75*
G02*
X0363848Y0180787I0000581J0000000D01*
G01*
X0365009Y0180787D01*
G75*
G02*
X0365590Y0180206I0000000J-000581D01*
G01*
X0365590Y0178848D01*
G75*
G02*
X0365009Y0178267I-000581J0000000D01*
G01*
X0363848Y0178267D01*
G75*
G02*
X0363267Y0178848I0000000J0000581D01*
G01*
G37*
G36*
G01*
X0367086Y0178848D02*
X0367086Y0180206D01*
G75*
G02*
X0367667Y0180787I0000581J0000000D01*
G01*
X0368828Y0180787D01*
G75*
G02*
X0369409Y0180206I0000000J-000581D01*
G01*
X0369409Y0178848D01*
G75*
G02*
X0368828Y0178267I-000581J0000000D01*
G01*
X0367667Y0178267D01*
G75*
G02*
X0367086Y0178848I0000000J0000581D01*
G01*
G37*
G36*
G01*
X0367814Y0222957D02*
X0367814Y0220940D01*
G75*
G02*
X0366953Y0220078I-000861J0000000D01*
G01*
X0365231Y0220078D01*
G75*
G02*
X0364370Y0220940I0000000J0000861D01*
G01*
X0364370Y0222957D01*
G75*
G02*
X0365231Y0223818I0000861J0000000D01*
G01*
X0366953Y0223818D01*
G75*
G02*
X0367814Y0222957I0000000J-000861D01*
G01*
G37*
G36*
G01*
X0361614Y0222957D02*
X0361614Y0220940D01*
G75*
G02*
X0360752Y0220078I-000861J0000000D01*
G01*
X0359030Y0220078D01*
G75*
G02*
X0358169Y0220940I0000000J0000861D01*
G01*
X0358169Y0222957D01*
G75*
G02*
X0359030Y0223818I0000861J0000000D01*
G01*
X0360752Y0223818D01*
G75*
G02*
X0361614Y0222957I0000000J-000861D01*
G01*
G37*
G36*
G01*
X0369217Y0155118D02*
X0367199Y0155118D01*
G75*
G02*
X0366338Y0155979I0000000J0000861D01*
G01*
X0366338Y0157701D01*
G75*
G02*
X0367199Y0158563I0000861J0000000D01*
G01*
X0369217Y0158563D01*
G75*
G02*
X0370078Y0157701I0000000J-000861D01*
G01*
X0370078Y0155979D01*
G75*
G02*
X0369217Y0155118I-000861J0000000D01*
G01*
G37*
G36*
G01*
X0369217Y0161318D02*
X0367199Y0161318D01*
G75*
G02*
X0366338Y0162180I0000000J0000861D01*
G01*
X0366338Y0163902D01*
G75*
G02*
X0367199Y0164763I0000861J0000000D01*
G01*
X0369217Y0164763D01*
G75*
G02*
X0370078Y0163902I0000000J-000861D01*
G01*
X0370078Y0162180D01*
G75*
G02*
X0369217Y0161318I-000861J0000000D01*
G01*
G37*
G36*
G01*
X0365039Y0150797D02*
X0365039Y0152155D01*
G75*
G02*
X0365620Y0152736I0000581J0000000D01*
G01*
X0366781Y0152736D01*
G75*
G02*
X0367362Y0152155I0000000J-000581D01*
G01*
X0367362Y0150797D01*
G75*
G02*
X0366781Y0150216I-000581J0000000D01*
G01*
X0365620Y0150216D01*
G75*
G02*
X0365039Y0150797I0000000J0000581D01*
G01*
G37*
G36*
G01*
X0368858Y0150797D02*
X0368858Y0152155D01*
G75*
G02*
X0369439Y0152736I0000581J0000000D01*
G01*
X0370600Y0152736D01*
G75*
G02*
X0371181Y0152155I0000000J-000581D01*
G01*
X0371181Y0150797D01*
G75*
G02*
X0370600Y0150216I-000581J0000000D01*
G01*
X0369439Y0150216D01*
G75*
G02*
X0368858Y0150797I0000000J0000581D01*
G01*
G37*
G36*
G01*
X0352362Y0185236D02*
X0353346Y0185236D01*
G75*
G02*
X0353838Y0184744I0000000J-000492D01*
G01*
X0353838Y0179822D01*
G75*
G02*
X0353346Y0179330I-000492J0000000D01*
G01*
X0352362Y0179330D01*
G75*
G02*
X0351870Y0179822I0000000J0000492D01*
G01*
X0351870Y0184744D01*
G75*
G02*
X0352362Y0185236I0000492J0000000D01*
G01*
G37*
G36*
G01*
X0349212Y0185236D02*
X0350196Y0185236D01*
G75*
G02*
X0350689Y0184744I0000000J-000492D01*
G01*
X0350689Y0179822D01*
G75*
G02*
X0350196Y0179330I-000492J0000000D01*
G01*
X0349212Y0179330D01*
G75*
G02*
X0348720Y0179822I0000000J0000492D01*
G01*
X0348720Y0184744D01*
G75*
G02*
X0349212Y0185236I0000492J0000000D01*
G01*
G37*
G36*
G01*
X0346063Y0185236D02*
X0347047Y0185236D01*
G75*
G02*
X0347539Y0184744I0000000J-000492D01*
G01*
X0347539Y0179822D01*
G75*
G02*
X0347047Y0179330I-000492J0000000D01*
G01*
X0346063Y0179330D01*
G75*
G02*
X0345570Y0179822I0000000J0000492D01*
G01*
X0345570Y0184744D01*
G75*
G02*
X0346063Y0185236I0000492J0000000D01*
G01*
G37*
G36*
G01*
X0342913Y0185236D02*
X0343897Y0185236D01*
G75*
G02*
X0344389Y0184744I0000000J-000492D01*
G01*
X0344389Y0179822D01*
G75*
G02*
X0343897Y0179330I-000492J0000000D01*
G01*
X0342913Y0179330D01*
G75*
G02*
X0342421Y0179822I0000000J0000492D01*
G01*
X0342421Y0184744D01*
G75*
G02*
X0342913Y0185236I0000492J0000000D01*
G01*
G37*
G36*
G01*
X0339763Y0185236D02*
X0340748Y0185236D01*
G75*
G02*
X0341240Y0184744I0000000J-000492D01*
G01*
X0341240Y0179822D01*
G75*
G02*
X0340748Y0179330I-000492J0000000D01*
G01*
X0339763Y0179330D01*
G75*
G02*
X0339271Y0179822I0000000J0000492D01*
G01*
X0339271Y0184744D01*
G75*
G02*
X0339763Y0185236I0000492J0000000D01*
G01*
G37*
G36*
G01*
X0336614Y0185236D02*
X0337598Y0185236D01*
G75*
G02*
X0338090Y0184744I0000000J-000492D01*
G01*
X0338090Y0179822D01*
G75*
G02*
X0337598Y0179330I-000492J0000000D01*
G01*
X0336614Y0179330D01*
G75*
G02*
X0336122Y0179822I0000000J0000492D01*
G01*
X0336122Y0184744D01*
G75*
G02*
X0336614Y0185236I0000492J0000000D01*
G01*
G37*
G36*
G01*
X0333464Y0185236D02*
X0334448Y0185236D01*
G75*
G02*
X0334940Y0184744I0000000J-000492D01*
G01*
X0334940Y0179822D01*
G75*
G02*
X0334448Y0179330I-000492J0000000D01*
G01*
X0333464Y0179330D01*
G75*
G02*
X0332972Y0179822I0000000J0000492D01*
G01*
X0332972Y0184744D01*
G75*
G02*
X0333464Y0185236I0000492J0000000D01*
G01*
G37*
G36*
G01*
X0330314Y0185236D02*
X0331299Y0185236D01*
G75*
G02*
X0331791Y0184744I0000000J-000492D01*
G01*
X0331791Y0179822D01*
G75*
G02*
X0331299Y0179330I-000492J0000000D01*
G01*
X0330314Y0179330D01*
G75*
G02*
X0329822Y0179822I0000000J0000492D01*
G01*
X0329822Y0184744D01*
G75*
G02*
X0330314Y0185236I0000492J0000000D01*
G01*
G37*
G36*
G01*
X0322933Y0177854D02*
X0327854Y0177854D01*
G75*
G02*
X0328346Y0177362I0000000J-000492D01*
G01*
X0328346Y0176378D01*
G75*
G02*
X0327854Y0175885I-000492J0000000D01*
G01*
X0322933Y0175885D01*
G75*
G02*
X0322440Y0176378I0000000J0000492D01*
G01*
X0322440Y0177362D01*
G75*
G02*
X0322933Y0177854I0000492J0000000D01*
G01*
G37*
G36*
G01*
X0322933Y0174704D02*
X0327854Y0174704D01*
G75*
G02*
X0328346Y0174212I0000000J-000492D01*
G01*
X0328346Y0173228D01*
G75*
G02*
X0327854Y0172736I-000492J0000000D01*
G01*
X0322933Y0172736D01*
G75*
G02*
X0322440Y0173228I0000000J0000492D01*
G01*
X0322440Y0174212D01*
G75*
G02*
X0322933Y0174704I0000492J0000000D01*
G01*
G37*
G36*
G01*
X0322933Y0171555D02*
X0327854Y0171555D01*
G75*
G02*
X0328346Y0171063I0000000J-000492D01*
G01*
X0328346Y0170078D01*
G75*
G02*
X0327854Y0169586I-000492J0000000D01*
G01*
X0322933Y0169586D01*
G75*
G02*
X0322440Y0170078I0000000J0000492D01*
G01*
X0322440Y0171063D01*
G75*
G02*
X0322933Y0171555I0000492J0000000D01*
G01*
G37*
G36*
G01*
X0322933Y0168405D02*
X0327854Y0168405D01*
G75*
G02*
X0328346Y0167913I0000000J-000492D01*
G01*
X0328346Y0166929D01*
G75*
G02*
X0327854Y0166437I-000492J0000000D01*
G01*
X0322933Y0166437D01*
G75*
G02*
X0322440Y0166929I0000000J0000492D01*
G01*
X0322440Y0167913D01*
G75*
G02*
X0322933Y0168405I0000492J0000000D01*
G01*
G37*
G36*
G01*
X0322933Y0165255D02*
X0327854Y0165255D01*
G75*
G02*
X0328346Y0164763I0000000J-000492D01*
G01*
X0328346Y0163779D01*
G75*
G02*
X0327854Y0163287I-000492J0000000D01*
G01*
X0322933Y0163287D01*
G75*
G02*
X0322440Y0163779I0000000J0000492D01*
G01*
X0322440Y0164763D01*
G75*
G02*
X0322933Y0165255I0000492J0000000D01*
G01*
G37*
G36*
G01*
X0322933Y0162106D02*
X0327854Y0162106D01*
G75*
G02*
X0328346Y0161614I0000000J-000492D01*
G01*
X0328346Y0160630D01*
G75*
G02*
X0327854Y0160137I-000492J0000000D01*
G01*
X0322933Y0160137D01*
G75*
G02*
X0322440Y0160630I0000000J0000492D01*
G01*
X0322440Y0161614D01*
G75*
G02*
X0322933Y0162106I0000492J0000000D01*
G01*
G37*
G36*
G01*
X0322933Y0158956D02*
X0327854Y0158956D01*
G75*
G02*
X0328346Y0158464I0000000J-000492D01*
G01*
X0328346Y0157480D01*
G75*
G02*
X0327854Y0156988I-000492J0000000D01*
G01*
X0322933Y0156988D01*
G75*
G02*
X0322440Y0157480I0000000J0000492D01*
G01*
X0322440Y0158464D01*
G75*
G02*
X0322933Y0158956I0000492J0000000D01*
G01*
G37*
G36*
G01*
X0322933Y0155807D02*
X0327854Y0155807D01*
G75*
G02*
X0328346Y0155315I0000000J-000492D01*
G01*
X0328346Y0154330D01*
G75*
G02*
X0327854Y0153838I-000492J0000000D01*
G01*
X0322933Y0153838D01*
G75*
G02*
X0322440Y0154330I0000000J0000492D01*
G01*
X0322440Y0155315D01*
G75*
G02*
X0322933Y0155807I0000492J0000000D01*
G01*
G37*
G36*
G01*
X0330314Y0152362D02*
X0331299Y0152362D01*
G75*
G02*
X0331791Y0151870I0000000J-000492D01*
G01*
X0331791Y0146948D01*
G75*
G02*
X0331299Y0146456I-000492J0000000D01*
G01*
X0330314Y0146456D01*
G75*
G02*
X0329822Y0146948I0000000J0000492D01*
G01*
X0329822Y0151870D01*
G75*
G02*
X0330314Y0152362I0000492J0000000D01*
G01*
G37*
G36*
G01*
X0333464Y0152362D02*
X0334448Y0152362D01*
G75*
G02*
X0334940Y0151870I0000000J-000492D01*
G01*
X0334940Y0146948D01*
G75*
G02*
X0334448Y0146456I-000492J0000000D01*
G01*
X0333464Y0146456D01*
G75*
G02*
X0332972Y0146948I0000000J0000492D01*
G01*
X0332972Y0151870D01*
G75*
G02*
X0333464Y0152362I0000492J0000000D01*
G01*
G37*
G36*
G01*
X0336614Y0152362D02*
X0337598Y0152362D01*
G75*
G02*
X0338090Y0151870I0000000J-000492D01*
G01*
X0338090Y0146948D01*
G75*
G02*
X0337598Y0146456I-000492J0000000D01*
G01*
X0336614Y0146456D01*
G75*
G02*
X0336122Y0146948I0000000J0000492D01*
G01*
X0336122Y0151870D01*
G75*
G02*
X0336614Y0152362I0000492J0000000D01*
G01*
G37*
G36*
G01*
X0339763Y0152362D02*
X0340748Y0152362D01*
G75*
G02*
X0341240Y0151870I0000000J-000492D01*
G01*
X0341240Y0146948D01*
G75*
G02*
X0340748Y0146456I-000492J0000000D01*
G01*
X0339763Y0146456D01*
G75*
G02*
X0339271Y0146948I0000000J0000492D01*
G01*
X0339271Y0151870D01*
G75*
G02*
X0339763Y0152362I0000492J0000000D01*
G01*
G37*
G36*
G01*
X0342913Y0152362D02*
X0343897Y0152362D01*
G75*
G02*
X0344389Y0151870I0000000J-000492D01*
G01*
X0344389Y0146948D01*
G75*
G02*
X0343897Y0146456I-000492J0000000D01*
G01*
X0342913Y0146456D01*
G75*
G02*
X0342421Y0146948I0000000J0000492D01*
G01*
X0342421Y0151870D01*
G75*
G02*
X0342913Y0152362I0000492J0000000D01*
G01*
G37*
G36*
G01*
X0346063Y0152362D02*
X0347047Y0152362D01*
G75*
G02*
X0347539Y0151870I0000000J-000492D01*
G01*
X0347539Y0146948D01*
G75*
G02*
X0347047Y0146456I-000492J0000000D01*
G01*
X0346063Y0146456D01*
G75*
G02*
X0345570Y0146948I0000000J0000492D01*
G01*
X0345570Y0151870D01*
G75*
G02*
X0346063Y0152362I0000492J0000000D01*
G01*
G37*
G36*
G01*
X0349212Y0152362D02*
X0350196Y0152362D01*
G75*
G02*
X0350689Y0151870I0000000J-000492D01*
G01*
X0350689Y0146948D01*
G75*
G02*
X0350196Y0146456I-000492J0000000D01*
G01*
X0349212Y0146456D01*
G75*
G02*
X0348720Y0146948I0000000J0000492D01*
G01*
X0348720Y0151870D01*
G75*
G02*
X0349212Y0152362I0000492J0000000D01*
G01*
G37*
G36*
G01*
X0352362Y0152362D02*
X0353346Y0152362D01*
G75*
G02*
X0353838Y0151870I0000000J-000492D01*
G01*
X0353838Y0146948D01*
G75*
G02*
X0353346Y0146456I-000492J0000000D01*
G01*
X0352362Y0146456D01*
G75*
G02*
X0351870Y0146948I0000000J0000492D01*
G01*
X0351870Y0151870D01*
G75*
G02*
X0352362Y0152362I0000492J0000000D01*
G01*
G37*
G36*
G01*
X0355807Y0155807D02*
X0360728Y0155807D01*
G75*
G02*
X0361220Y0155315I0000000J-000492D01*
G01*
X0361220Y0154330D01*
G75*
G02*
X0360728Y0153838I-000492J0000000D01*
G01*
X0355807Y0153838D01*
G75*
G02*
X0355314Y0154330I0000000J0000492D01*
G01*
X0355314Y0155315D01*
G75*
G02*
X0355807Y0155807I0000492J0000000D01*
G01*
G37*
G36*
G01*
X0355807Y0158956D02*
X0360728Y0158956D01*
G75*
G02*
X0361220Y0158464I0000000J-000492D01*
G01*
X0361220Y0157480D01*
G75*
G02*
X0360728Y0156988I-000492J0000000D01*
G01*
X0355807Y0156988D01*
G75*
G02*
X0355314Y0157480I0000000J0000492D01*
G01*
X0355314Y0158464D01*
G75*
G02*
X0355807Y0158956I0000492J0000000D01*
G01*
G37*
G36*
G01*
X0355807Y0162106D02*
X0360728Y0162106D01*
G75*
G02*
X0361220Y0161614I0000000J-000492D01*
G01*
X0361220Y0160630D01*
G75*
G02*
X0360728Y0160137I-000492J0000000D01*
G01*
X0355807Y0160137D01*
G75*
G02*
X0355314Y0160630I0000000J0000492D01*
G01*
X0355314Y0161614D01*
G75*
G02*
X0355807Y0162106I0000492J0000000D01*
G01*
G37*
G36*
G01*
X0355807Y0165255D02*
X0360728Y0165255D01*
G75*
G02*
X0361220Y0164763I0000000J-000492D01*
G01*
X0361220Y0163779D01*
G75*
G02*
X0360728Y0163287I-000492J0000000D01*
G01*
X0355807Y0163287D01*
G75*
G02*
X0355314Y0163779I0000000J0000492D01*
G01*
X0355314Y0164763D01*
G75*
G02*
X0355807Y0165255I0000492J0000000D01*
G01*
G37*
G36*
G01*
X0355807Y0168405D02*
X0360728Y0168405D01*
G75*
G02*
X0361220Y0167913I0000000J-000492D01*
G01*
X0361220Y0166929D01*
G75*
G02*
X0360728Y0166437I-000492J0000000D01*
G01*
X0355807Y0166437D01*
G75*
G02*
X0355314Y0166929I0000000J0000492D01*
G01*
X0355314Y0167913D01*
G75*
G02*
X0355807Y0168405I0000492J0000000D01*
G01*
G37*
G36*
G01*
X0355807Y0171555D02*
X0360728Y0171555D01*
G75*
G02*
X0361220Y0171063I0000000J-000492D01*
G01*
X0361220Y0170078D01*
G75*
G02*
X0360728Y0169586I-000492J0000000D01*
G01*
X0355807Y0169586D01*
G75*
G02*
X0355314Y0170078I0000000J0000492D01*
G01*
X0355314Y0171063D01*
G75*
G02*
X0355807Y0171555I0000492J0000000D01*
G01*
G37*
G36*
G01*
X0355807Y0174704D02*
X0360728Y0174704D01*
G75*
G02*
X0361220Y0174212I0000000J-000492D01*
G01*
X0361220Y0173228D01*
G75*
G02*
X0360728Y0172736I-000492J0000000D01*
G01*
X0355807Y0172736D01*
G75*
G02*
X0355314Y0173228I0000000J0000492D01*
G01*
X0355314Y0174212D01*
G75*
G02*
X0355807Y0174704I0000492J0000000D01*
G01*
G37*
G36*
G01*
X0355807Y0177854D02*
X0360728Y0177854D01*
G75*
G02*
X0361220Y0177362I0000000J-000492D01*
G01*
X0361220Y0176378D01*
G75*
G02*
X0360728Y0175885I-000492J0000000D01*
G01*
X0355807Y0175885D01*
G75*
G02*
X0355314Y0176378I0000000J0000492D01*
G01*
X0355314Y0177362D01*
G75*
G02*
X0355807Y0177854I0000492J0000000D01*
G01*
G37*
G36*
G01*
X0334261Y0143228D02*
X0335620Y0143228D01*
G75*
G02*
X0336200Y0142647I0000000J-000581D01*
G01*
X0336200Y0141486D01*
G75*
G02*
X0335620Y0140905I-000581J0000000D01*
G01*
X0334261Y0140905D01*
G75*
G02*
X0333681Y0141486I0000000J0000581D01*
G01*
X0333681Y0142647D01*
G75*
G02*
X0334261Y0143228I0000581J0000000D01*
G01*
G37*
G36*
G01*
X0334261Y0139409D02*
X0335620Y0139409D01*
G75*
G02*
X0336200Y0138828I0000000J-000581D01*
G01*
X0336200Y0137667D01*
G75*
G02*
X0335620Y0137086I-000581J0000000D01*
G01*
X0334261Y0137086D01*
G75*
G02*
X0333681Y0137667I0000000J0000581D01*
G01*
X0333681Y0138828D01*
G75*
G02*
X0334261Y0139409I0000581J0000000D01*
G01*
G37*
G36*
G01*
X0357657Y0150305D02*
X0357657Y0151663D01*
G75*
G02*
X0358238Y0152244I0000581J0000000D01*
G01*
X0359399Y0152244D01*
G75*
G02*
X0359980Y0151663I0000000J-000581D01*
G01*
X0359980Y0150305D01*
G75*
G02*
X0359399Y0149724I-000581J0000000D01*
G01*
X0358238Y0149724D01*
G75*
G02*
X0357657Y0150305I0000000J0000581D01*
G01*
G37*
G36*
G01*
X0361476Y0150305D02*
X0361476Y0151663D01*
G75*
G02*
X0362057Y0152244I0000581J0000000D01*
G01*
X0363218Y0152244D01*
G75*
G02*
X0363799Y0151663I0000000J-000581D01*
G01*
X0363799Y0150305D01*
G75*
G02*
X0363218Y0149724I-000581J0000000D01*
G01*
X0362057Y0149724D01*
G75*
G02*
X0361476Y0150305I0000000J0000581D01*
G01*
G37*
G36*
G01*
X0335620Y0126661D02*
X0334261Y0126661D01*
G75*
G02*
X0333681Y0127242I0000000J0000581D01*
G01*
X0333681Y0128403D01*
G75*
G02*
X0334261Y0128984I0000581J0000000D01*
G01*
X0335620Y0128984D01*
G75*
G02*
X0336200Y0128403I0000000J-000581D01*
G01*
X0336200Y0127242D01*
G75*
G02*
X0335620Y0126661I-000581J0000000D01*
G01*
G37*
G36*
G01*
X0335620Y0130480D02*
X0334261Y0130480D01*
G75*
G02*
X0333681Y0131061I0000000J0000581D01*
G01*
X0333681Y0132222D01*
G75*
G02*
X0334261Y0132803I0000581J0000000D01*
G01*
X0335620Y0132803D01*
G75*
G02*
X0336200Y0132222I0000000J-000581D01*
G01*
X0336200Y0131061D01*
G75*
G02*
X0335620Y0130480I-000581J0000000D01*
G01*
G37*
D235*
X0330019Y0128149D03*
X0330019Y0135630D03*
X0322145Y0131889D03*
G36*
G01*
X0355787Y0187214D02*
X0355787Y0188572D01*
G75*
G02*
X0356368Y0189153I0000581J0000000D01*
G01*
X0357529Y0189153D01*
G75*
G02*
X0358110Y0188572I0000000J-000581D01*
G01*
X0358110Y0187214D01*
G75*
G02*
X0357529Y0186633I-000581J0000000D01*
G01*
X0356368Y0186633D01*
G75*
G02*
X0355787Y0187214I0000000J0000581D01*
G01*
G37*
G36*
G01*
X0359606Y0187214D02*
X0359606Y0188572D01*
G75*
G02*
X0360187Y0189153I0000581J0000000D01*
G01*
X0361348Y0189153D01*
G75*
G02*
X0361929Y0188572I0000000J-000581D01*
G01*
X0361929Y0187214D01*
G75*
G02*
X0361348Y0186633I-000581J0000000D01*
G01*
X0360187Y0186633D01*
G75*
G02*
X0359606Y0187214I0000000J0000581D01*
G01*
G37*
G36*
G01*
X0320748Y0141087D02*
X0320748Y0143105D01*
G75*
G02*
X0321609Y0143966I0000861J0000000D01*
G01*
X0323331Y0143966D01*
G75*
G02*
X0324192Y0143105I0000000J-000861D01*
G01*
X0324192Y0141087D01*
G75*
G02*
X0323331Y0140226I-000861J0000000D01*
G01*
X0321609Y0140226D01*
G75*
G02*
X0320748Y0141087I0000000J0000861D01*
G01*
G37*
G36*
G01*
X0326948Y0141087D02*
X0326948Y0143105D01*
G75*
G02*
X0327810Y0143966I0000861J0000000D01*
G01*
X0329532Y0143966D01*
G75*
G02*
X0330393Y0143105I0000000J-000861D01*
G01*
X0330393Y0141087D01*
G75*
G02*
X0329532Y0140226I-000861J0000000D01*
G01*
X0327810Y0140226D01*
G75*
G02*
X0326948Y0141087I0000000J0000861D01*
G01*
G37*
D105*
X0362893Y0125334D03*
X0366893Y0145334D03*
X0358893Y0145334D03*
D103*
X0365393Y0130334D03*
X0360393Y0130334D03*
X0365393Y0135334D03*
X0360393Y0135334D03*
X0365393Y0140334D03*
X0360393Y0140334D03*
D432*
X0324015Y0214822D03*
D433*
X0324015Y0204822D03*
X0324015Y0194822D03*
M02*
