G75*
G70*
%OFA0B0*%
%FSLAX25Y25*%
%IPPOS*%
%LPD*%
%AMOC8*
5,1,8,0,0,1.08239X$1,22.5*
%
%AMM167*
21,1,0.039370,0.030320,-0.000000,-0.000000,270.000000*
21,1,0.028350,0.041340,-0.000000,-0.000000,270.000000*
1,1,0.011020,-0.015160,-0.014170*
1,1,0.011020,-0.015160,0.014170*
1,1,0.011020,0.015160,0.014170*
1,1,0.011020,0.015160,-0.014170*
%
%AMM173*
21,1,0.031500,0.018900,-0.000000,-0.000000,0.000000*
21,1,0.022840,0.027560,-0.000000,-0.000000,0.000000*
1,1,0.008660,0.011420,-0.009450*
1,1,0.008660,-0.011420,-0.009450*
1,1,0.008660,-0.011420,0.009450*
1,1,0.008660,0.011420,0.009450*
%
%AMM176*
21,1,0.029530,0.026380,-0.000000,-0.000000,270.000000*
21,1,0.020470,0.035430,-0.000000,-0.000000,270.000000*
1,1,0.009060,-0.013190,-0.010240*
1,1,0.009060,-0.013190,0.010240*
1,1,0.009060,0.013190,0.010240*
1,1,0.009060,0.013190,-0.010240*
%
%AMM177*
21,1,0.021650,0.027950,-0.000000,-0.000000,270.000000*
21,1,0.014170,0.035430,-0.000000,-0.000000,270.000000*
1,1,0.007480,-0.013980,-0.007090*
1,1,0.007480,-0.013980,0.007090*
1,1,0.007480,0.013980,0.007090*
1,1,0.007480,0.013980,-0.007090*
%
%AMM179*
21,1,0.016540,0.028980,-0.000000,-0.000000,270.000000*
21,1,0.010080,0.035430,-0.000000,-0.000000,270.000000*
1,1,0.006460,-0.014490,-0.005040*
1,1,0.006460,-0.014490,0.005040*
1,1,0.006460,0.014490,0.005040*
1,1,0.006460,0.014490,-0.005040*
%
%AMM182*
21,1,0.031500,0.018900,-0.000000,-0.000000,270.000000*
21,1,0.022840,0.027560,-0.000000,-0.000000,270.000000*
1,1,0.008660,-0.009450,-0.011420*
1,1,0.008660,-0.009450,0.011420*
1,1,0.008660,0.009450,0.011420*
1,1,0.008660,0.009450,-0.011420*
%
%AMM195*
21,1,0.037400,0.026770,-0.000000,-0.000000,0.000000*
21,1,0.026770,0.037400,-0.000000,-0.000000,0.000000*
1,1,0.010630,0.013390,-0.013390*
1,1,0.010630,-0.013390,-0.013390*
1,1,0.010630,-0.013390,0.013390*
1,1,0.010630,0.013390,0.013390*
%
%AMM196*
21,1,0.039370,0.030320,-0.000000,-0.000000,0.000000*
21,1,0.028350,0.041340,-0.000000,-0.000000,0.000000*
1,1,0.011020,0.014170,-0.015160*
1,1,0.011020,-0.014170,-0.015160*
1,1,0.011020,-0.014170,0.015160*
1,1,0.011020,0.014170,0.015160*
%
%AMM197*
21,1,0.039760,0.026770,-0.000000,-0.000000,180.000000*
21,1,0.029130,0.037400,-0.000000,-0.000000,180.000000*
1,1,0.010630,-0.014570,0.013390*
1,1,0.010630,0.014570,0.013390*
1,1,0.010630,0.014570,-0.013390*
1,1,0.010630,-0.014570,-0.013390*
%
%AMM198*
21,1,0.074800,0.036220,-0.000000,-0.000000,180.000000*
21,1,0.061810,0.049210,-0.000000,-0.000000,180.000000*
1,1,0.012990,-0.030910,0.018110*
1,1,0.012990,0.030910,0.018110*
1,1,0.012990,0.030910,-0.018110*
1,1,0.012990,-0.030910,-0.018110*
%
%AMM199*
21,1,0.062990,0.020470,-0.000000,-0.000000,270.000000*
21,1,0.053940,0.029530,-0.000000,-0.000000,270.000000*
1,1,0.009060,-0.010240,-0.026970*
1,1,0.009060,-0.010240,0.026970*
1,1,0.009060,0.010240,0.026970*
1,1,0.009060,0.010240,-0.026970*
%
%AMM200*
21,1,0.082680,0.045670,-0.000000,-0.000000,270.000000*
21,1,0.067320,0.061020,-0.000000,-0.000000,270.000000*
1,1,0.015350,-0.022840,-0.033660*
1,1,0.015350,-0.022840,0.033660*
1,1,0.015350,0.022840,0.033660*
1,1,0.015350,0.022840,-0.033660*
%
%AMM201*
21,1,0.029530,0.026380,-0.000000,-0.000000,180.000000*
21,1,0.020470,0.035430,-0.000000,-0.000000,180.000000*
1,1,0.009060,-0.010240,0.013190*
1,1,0.009060,0.010240,0.013190*
1,1,0.009060,0.010240,-0.013190*
1,1,0.009060,-0.010240,-0.013190*
%
%AMM202*
21,1,0.021650,0.027950,-0.000000,-0.000000,180.000000*
21,1,0.014170,0.035430,-0.000000,-0.000000,180.000000*
1,1,0.007480,-0.007090,0.013980*
1,1,0.007480,0.007090,0.013980*
1,1,0.007480,0.007090,-0.013980*
1,1,0.007480,-0.007090,-0.013980*
%
%AMM203*
21,1,0.031500,0.030710,-0.000000,-0.000000,270.000000*
21,1,0.022050,0.040160,-0.000000,-0.000000,270.000000*
1,1,0.009450,-0.015350,-0.011020*
1,1,0.009450,-0.015350,0.011020*
1,1,0.009450,0.015350,0.011020*
1,1,0.009450,0.015350,-0.011020*
%
%AMM204*
21,1,0.031500,0.049610,-0.000000,-0.000000,90.000000*
21,1,0.022050,0.059060,-0.000000,-0.000000,90.000000*
1,1,0.009450,0.024800,0.011020*
1,1,0.009450,0.024800,-0.011020*
1,1,0.009450,-0.024800,-0.011020*
1,1,0.009450,-0.024800,0.011020*
%
%AMM205*
21,1,0.031500,0.030710,-0.000000,-0.000000,180.000000*
21,1,0.022050,0.040160,-0.000000,-0.000000,180.000000*
1,1,0.009450,-0.011020,0.015350*
1,1,0.009450,0.011020,0.015350*
1,1,0.009450,0.011020,-0.015350*
1,1,0.009450,-0.011020,-0.015350*
%
%AMM206*
21,1,0.074800,0.036220,-0.000000,-0.000000,270.000000*
21,1,0.061810,0.049210,-0.000000,-0.000000,270.000000*
1,1,0.012990,-0.018110,-0.030910*
1,1,0.012990,-0.018110,0.030910*
1,1,0.012990,0.018110,0.030910*
1,1,0.012990,0.018110,-0.030910*
%
%AMM233*
21,1,0.029130,0.018900,0.000000,-0.000000,90.000000*
21,1,0.018900,0.029130,0.000000,-0.000000,90.000000*
1,1,0.010240,0.009450,0.009450*
1,1,0.010240,0.009450,-0.009450*
1,1,0.010240,-0.009450,-0.009450*
1,1,0.010240,-0.009450,0.009450*
%
%AMM234*
21,1,0.025200,0.019680,0.000000,-0.000000,180.000000*
21,1,0.015750,0.029130,0.000000,-0.000000,180.000000*
1,1,0.009450,-0.007870,0.009840*
1,1,0.009450,0.007870,0.009840*
1,1,0.009450,0.007870,-0.009840*
1,1,0.009450,-0.007870,-0.009840*
%
%AMM235*
21,1,0.038980,0.026770,0.000000,-0.000000,180.000000*
21,1,0.026770,0.038980,0.000000,-0.000000,180.000000*
1,1,0.012210,-0.013390,0.013390*
1,1,0.012210,0.013390,0.013390*
1,1,0.012210,0.013390,-0.013390*
1,1,0.012210,-0.013390,-0.013390*
%
%AMM236*
21,1,0.025200,0.019680,0.000000,-0.000000,270.000000*
21,1,0.015750,0.029130,0.000000,-0.000000,270.000000*
1,1,0.009450,-0.009840,-0.007870*
1,1,0.009450,-0.009840,0.007870*
1,1,0.009450,0.009840,0.007870*
1,1,0.009450,0.009840,-0.007870*
%
%AMM73*
21,1,0.041340,0.026770,0.000000,0.000000,0.000000*
21,1,0.029130,0.038980,0.000000,0.000000,0.000000*
1,1,0.012210,0.014570,-0.013390*
1,1,0.012210,-0.014570,-0.013390*
1,1,0.012210,-0.014570,0.013390*
1,1,0.012210,0.014570,0.013390*
%
%AMM74*
21,1,0.076380,0.036220,0.000000,0.000000,90.000000*
21,1,0.061810,0.050790,0.000000,0.000000,90.000000*
1,1,0.014570,0.018110,0.030910*
1,1,0.014570,0.018110,-0.030910*
1,1,0.014570,-0.018110,-0.030910*
1,1,0.014570,-0.018110,0.030910*
%
%AMM77*
21,1,0.029130,0.018900,0.000000,0.000000,90.000000*
21,1,0.018900,0.029130,0.000000,0.000000,90.000000*
1,1,0.010240,0.009450,0.009450*
1,1,0.010240,0.009450,-0.009450*
1,1,0.010240,-0.009450,-0.009450*
1,1,0.010240,-0.009450,0.009450*
%
%AMM78*
21,1,0.025200,0.019680,0.000000,0.000000,0.000000*
21,1,0.015750,0.029130,0.000000,0.000000,0.000000*
1,1,0.009450,0.007870,-0.009840*
1,1,0.009450,-0.007870,-0.009840*
1,1,0.009450,-0.007870,0.009840*
1,1,0.009450,0.007870,0.009840*
%
%AMM79*
21,1,0.025200,0.019680,0.000000,0.000000,270.000000*
21,1,0.015750,0.029130,0.000000,0.000000,270.000000*
1,1,0.009450,-0.009840,-0.007870*
1,1,0.009450,-0.009840,0.007870*
1,1,0.009450,0.009840,0.007870*
1,1,0.009450,0.009840,-0.007870*
%
%AMM85*
21,1,0.029130,0.018900,0.000000,0.000000,0.000000*
21,1,0.018900,0.029130,0.000000,0.000000,0.000000*
1,1,0.010240,0.009450,-0.009450*
1,1,0.010240,-0.009450,-0.009450*
1,1,0.010240,-0.009450,0.009450*
1,1,0.010240,0.009450,0.009450*
%
%AMM86*
21,1,0.111810,0.050390,0.000000,0.000000,90.000000*
21,1,0.093700,0.068500,0.000000,0.000000,90.000000*
1,1,0.018110,0.025200,0.046850*
1,1,0.018110,0.025200,-0.046850*
1,1,0.018110,-0.025200,-0.046850*
1,1,0.018110,-0.025200,0.046850*
%
%AMM87*
21,1,0.038980,0.026770,0.000000,0.000000,270.000000*
21,1,0.026770,0.038980,0.000000,0.000000,270.000000*
1,1,0.012210,-0.013390,-0.013390*
1,1,0.012210,-0.013390,0.013390*
1,1,0.012210,0.013390,0.013390*
1,1,0.012210,0.013390,-0.013390*
%
%AMM88*
21,1,0.127560,0.075590,0.000000,0.000000,180.000000*
21,1,0.103150,0.100000,0.000000,0.000000,180.000000*
1,1,0.024410,-0.051580,0.037800*
1,1,0.024410,0.051580,0.037800*
1,1,0.024410,0.051580,-0.037800*
1,1,0.024410,-0.051580,-0.037800*
%
%AMM89*
21,1,0.123620,0.083460,0.000000,0.000000,0.000000*
21,1,0.097240,0.109840,0.000000,0.000000,0.000000*
1,1,0.026380,0.048620,-0.041730*
1,1,0.026380,-0.048620,-0.041730*
1,1,0.026380,-0.048620,0.041730*
1,1,0.026380,0.048620,0.041730*
%
%ADD10C,0.02362*%
%ADD106C,0.03900*%
%ADD13O,0.03937X0.08268*%
%ADD134C,0.04294*%
%ADD135C,0.04724*%
%ADD14O,0.03937X0.07087*%
%ADD161R,0.04331X0.04724*%
%ADD165R,0.09843X0.07087*%
%ADD172O,0.05354X0.01378*%
%ADD173R,0.01378X0.01772*%
%ADD174R,0.01772X0.01378*%
%ADD20C,0.03150*%
%ADD202M73*%
%ADD203M74*%
%ADD206M77*%
%ADD207M78*%
%ADD208M79*%
%ADD209C,0.02913*%
%ADD21C,0.25197*%
%ADD210C,0.06457*%
%ADD217M85*%
%ADD218M86*%
%ADD219M87*%
%ADD220O,0.02520X0.09213*%
%ADD221M88*%
%ADD222M89*%
%ADD23C,0.11811*%
%ADD238C,0.05118*%
%ADD345M167*%
%ADD351M173*%
%ADD354M176*%
%ADD355M177*%
%ADD357M179*%
%ADD360M182*%
%ADD373M195*%
%ADD374M196*%
%ADD375M197*%
%ADD376M198*%
%ADD377M199*%
%ADD378M200*%
%ADD379M201*%
%ADD380M202*%
%ADD381M203*%
%ADD382M204*%
%ADD383M205*%
%ADD384M206*%
%ADD412M233*%
%ADD413M234*%
%ADD414M235*%
%ADD415M236*%
%ADD433R,0.07874X0.07500*%
%ADD434O,0.07874X0.07500*%
%ADD436R,0.01772X0.05709*%
%ADD437R,0.02559X0.04803*%
%ADD50O,0.14567X0.10630*%
%ADD51C,0.06496*%
%ADD52C,0.20669*%
%ADD53C,0.05906*%
%ADD68C,0.02559*%
%ADD69C,0.12992*%
%ADD70C,0.08480*%
X0000000Y0000000D02*
%LPD*%
G01*
D10*
X0185630Y0286024D03*
X0181890Y0286024D03*
X0178150Y0286024D03*
X0182087Y0320276D03*
X0185630Y0320276D03*
D68*
X0122480Y0025020D03*
X0145236Y0025020D03*
D13*
X0116850Y0026988D03*
D14*
X0116850Y0010531D03*
D13*
X0150866Y0026988D03*
D14*
X0150866Y0010531D03*
D10*
X0300689Y0263484D03*
X0295965Y0263484D03*
X0305413Y0263484D03*
X0310138Y0263484D03*
X0284705Y0320276D03*
X0280768Y0320276D03*
D20*
X0004331Y0309055D03*
X0007098Y0315736D03*
X0007098Y0302374D03*
X0013780Y0318504D03*
D21*
X0013780Y0309055D03*
D20*
X0013780Y0299606D03*
X0020461Y0315736D03*
X0020461Y0302374D03*
X0023228Y0309055D03*
X0004331Y0013780D03*
X0007098Y0020461D03*
X0007098Y0007098D03*
X0013780Y0023228D03*
D21*
X0013780Y0013780D03*
D20*
X0013780Y0004331D03*
X0020461Y0020461D03*
X0020461Y0007098D03*
X0023228Y0013780D03*
D69*
X0015748Y0277559D03*
X0015748Y0125984D03*
G36*
G01*
X0068996Y0253256D02*
X0076673Y0253256D01*
G75*
G02*
X0077075Y0252854I0000000J-000402D01*
G01*
X0077075Y0245177D01*
G75*
G02*
X0076673Y0244776I-000402J0000000D01*
G01*
X0068996Y0244776D01*
G75*
G02*
X0068594Y0245177I0000000J0000402D01*
G01*
X0068594Y0252854D01*
G75*
G02*
X0068996Y0253256I0000402J0000000D01*
G01*
G37*
D70*
X0072835Y0237205D03*
X0072835Y0225394D03*
X0072835Y0213583D03*
X0072835Y0201772D03*
X0072835Y0189961D03*
X0072835Y0178150D03*
X0072835Y0166339D03*
X0072835Y0154528D03*
X0062992Y0243110D03*
X0062992Y0231299D03*
X0062992Y0219488D03*
X0062992Y0207677D03*
X0062992Y0195866D03*
X0062992Y0184055D03*
X0062992Y0172244D03*
X0062992Y0160433D03*
X0051181Y0243110D03*
X0051181Y0231299D03*
X0051181Y0219488D03*
X0051181Y0207677D03*
X0051181Y0195866D03*
X0051181Y0184055D03*
X0051181Y0172244D03*
X0051181Y0160433D03*
X0041339Y0249016D03*
X0041339Y0237205D03*
X0041339Y0225394D03*
X0041339Y0213583D03*
X0041339Y0201772D03*
X0041339Y0189961D03*
X0041339Y0178150D03*
X0041339Y0166339D03*
X0041339Y0154528D03*
D10*
X0260285Y0048399D03*
X0263730Y0046332D03*
X0259104Y0043379D03*
X0259400Y0029403D03*
D10*
X0258071Y0263238D03*
X0253346Y0263238D03*
X0262795Y0263238D03*
X0267520Y0263238D03*
X0242087Y0320030D03*
X0238150Y0320030D03*
D23*
X0384941Y0278346D03*
X0384941Y0245276D03*
G36*
G01*
X0349902Y0283661D02*
X0362500Y0283661D01*
G75*
G02*
X0363484Y0282677I0000000J-000984D01*
G01*
X0363484Y0274016D01*
G75*
G02*
X0362500Y0273031I-000984J0000000D01*
G01*
X0349902Y0273031D01*
G75*
G02*
X0348917Y0274016I0000000J0000984D01*
G01*
X0348917Y0282677D01*
G75*
G02*
X0349902Y0283661I0000984J0000000D01*
G01*
G37*
D50*
X0356201Y0261811D03*
X0356201Y0245276D03*
X0334547Y0278346D03*
X0334547Y0261811D03*
X0334547Y0245276D03*
D23*
X0387992Y0050591D03*
G36*
G01*
X0352953Y0064173D02*
X0365551Y0064173D01*
G75*
G02*
X0366535Y0063189I0000000J-000984D01*
G01*
X0366535Y0054528D01*
G75*
G02*
X0365551Y0053543I-000984J0000000D01*
G01*
X0352953Y0053543D01*
G75*
G02*
X0351969Y0054528I0000000J0000984D01*
G01*
X0351969Y0063189D01*
G75*
G02*
X0352953Y0064173I0000984J0000000D01*
G01*
G37*
D50*
X0359252Y0042323D03*
X0337598Y0058858D03*
X0337598Y0042323D03*
D51*
X0370276Y0338780D03*
X0356496Y0338780D03*
X0342717Y0338780D03*
X0235630Y0338780D03*
X0221850Y0338780D03*
X0370276Y0356496D03*
X0356496Y0356496D03*
X0342717Y0356496D03*
X0235630Y0356496D03*
X0221850Y0356496D03*
X0092323Y0338780D03*
X0078543Y0338780D03*
X0064764Y0338780D03*
X0050984Y0338780D03*
X0037205Y0338780D03*
X0023425Y0338780D03*
X0092323Y0356496D03*
X0078543Y0356496D03*
X0064764Y0356496D03*
X0050984Y0356496D03*
X0037205Y0356496D03*
X0023425Y0356496D03*
X0330512Y0338780D03*
X0318701Y0338780D03*
X0306890Y0338780D03*
X0295079Y0338780D03*
X0283268Y0338780D03*
X0271457Y0338780D03*
X0259646Y0338780D03*
X0247835Y0338780D03*
X0330512Y0356496D03*
X0318701Y0356496D03*
X0306890Y0356496D03*
X0295079Y0356496D03*
X0283268Y0356496D03*
X0271457Y0356496D03*
X0259646Y0356496D03*
X0247835Y0356496D03*
X0198425Y0338780D03*
X0186614Y0338780D03*
X0174803Y0338780D03*
X0162992Y0338780D03*
X0151181Y0338780D03*
X0139370Y0338780D03*
X0127559Y0338780D03*
X0115748Y0338780D03*
X0198425Y0356496D03*
X0186614Y0356496D03*
X0174803Y0356496D03*
X0162992Y0356496D03*
X0151181Y0356496D03*
X0139370Y0356496D03*
X0127559Y0356496D03*
X0115748Y0356496D03*
D52*
X0020866Y0378937D03*
X0209646Y0378937D03*
X0372835Y0378937D03*
D20*
X0370472Y0309055D03*
X0373240Y0315736D03*
X0373240Y0302374D03*
X0379921Y0318504D03*
D21*
X0379921Y0309055D03*
D20*
X0379921Y0299606D03*
X0386603Y0315736D03*
X0386603Y0302374D03*
X0389370Y0309055D03*
X0370472Y0013780D03*
X0373240Y0020461D03*
X0373240Y0007098D03*
X0379921Y0023228D03*
D21*
X0379921Y0013780D03*
D20*
X0379921Y0004331D03*
X0386603Y0020461D03*
X0386603Y0007098D03*
X0389370Y0013780D03*
D53*
X0100886Y0091831D03*
X0100886Y0066634D03*
X0100886Y0059154D03*
X0100886Y0042224D03*
D10*
X0102657Y0032776D03*
X0102657Y0028839D03*
D53*
X0100886Y0017618D03*
X0039862Y0093602D03*
X0039862Y0086319D03*
X0039862Y0066831D03*
X0039862Y0019390D03*
G36*
G01*
X0007531Y0177868D02*
X0007531Y0180242D01*
G75*
G02*
X0007927Y0180638I0000396J0000000D01*
G01*
X0015695Y0180638D01*
G75*
G02*
X0016091Y0180242I0000000J-000396D01*
G01*
X0016091Y0177868D01*
G75*
G02*
X0015695Y0177472I-000396J0000000D01*
G01*
X0007927Y0177472D01*
G75*
G02*
X0007531Y0177868I0000000J0000396D01*
G01*
G37*
G36*
G01*
X0007531Y0182868D02*
X0007531Y0185242D01*
G75*
G02*
X0007927Y0185638I0000396J0000000D01*
G01*
X0015695Y0185638D01*
G75*
G02*
X0016091Y0185242I0000000J-000396D01*
G01*
X0016091Y0182868D01*
G75*
G02*
X0015695Y0182472I-000396J0000000D01*
G01*
X0007927Y0182472D01*
G75*
G02*
X0007531Y0182868I0000000J0000396D01*
G01*
G37*
G36*
G01*
X0007531Y0187868D02*
X0007531Y0190242D01*
G75*
G02*
X0007927Y0190638I0000396J0000000D01*
G01*
X0015695Y0190638D01*
G75*
G02*
X0016091Y0190242I0000000J-000396D01*
G01*
X0016091Y0187868D01*
G75*
G02*
X0015695Y0187472I-000396J0000000D01*
G01*
X0007927Y0187472D01*
G75*
G02*
X0007531Y0187868I0000000J0000396D01*
G01*
G37*
G36*
G01*
X0007531Y0192868D02*
X0007531Y0195242D01*
G75*
G02*
X0007927Y0195638I0000396J0000000D01*
G01*
X0015695Y0195638D01*
G75*
G02*
X0016091Y0195242I0000000J-000396D01*
G01*
X0016091Y0192868D01*
G75*
G02*
X0015695Y0192472I-000396J0000000D01*
G01*
X0007927Y0192472D01*
G75*
G02*
X0007531Y0192868I0000000J0000396D01*
G01*
G37*
G36*
G01*
X0027020Y0192868D02*
X0027020Y0195242D01*
G75*
G02*
X0027415Y0195638I0000396J0000000D01*
G01*
X0035183Y0195638D01*
G75*
G02*
X0035579Y0195242I0000000J-000396D01*
G01*
X0035579Y0192868D01*
G75*
G02*
X0035183Y0192472I-000396J0000000D01*
G01*
X0027415Y0192472D01*
G75*
G02*
X0027020Y0192868I0000000J0000396D01*
G01*
G37*
G36*
G01*
X0027020Y0187868D02*
X0027020Y0190242D01*
G75*
G02*
X0027415Y0190638I0000396J0000000D01*
G01*
X0035183Y0190638D01*
G75*
G02*
X0035579Y0190242I0000000J-000396D01*
G01*
X0035579Y0187868D01*
G75*
G02*
X0035183Y0187472I-000396J0000000D01*
G01*
X0027415Y0187472D01*
G75*
G02*
X0027020Y0187868I0000000J0000396D01*
G01*
G37*
G36*
G01*
X0027020Y0182868D02*
X0027020Y0185242D01*
G75*
G02*
X0027415Y0185638I0000396J0000000D01*
G01*
X0035183Y0185638D01*
G75*
G02*
X0035579Y0185242I0000000J-000396D01*
G01*
X0035579Y0182868D01*
G75*
G02*
X0035183Y0182472I-000396J0000000D01*
G01*
X0027415Y0182472D01*
G75*
G02*
X0027020Y0182868I0000000J0000396D01*
G01*
G37*
G36*
G01*
X0027020Y0177868D02*
X0027020Y0180242D01*
G75*
G02*
X0027415Y0180638I0000396J0000000D01*
G01*
X0035183Y0180638D01*
G75*
G02*
X0035579Y0180242I0000000J-000396D01*
G01*
X0035579Y0177868D01*
G75*
G02*
X0035183Y0177472I-000396J0000000D01*
G01*
X0027415Y0177472D01*
G75*
G02*
X0027020Y0177868I0000000J0000396D01*
G01*
G37*
G36*
G01*
X0330453Y0306024D02*
X0328996Y0306024D01*
G75*
G02*
X0328465Y0306555I0000000J0000531D01*
G01*
X0328465Y0307618D01*
G75*
G02*
X0328996Y0308150I0000531J0000000D01*
G01*
X0330453Y0308150D01*
G75*
G02*
X0330984Y0307618I0000000J-000531D01*
G01*
X0330984Y0306555D01*
G75*
G02*
X0330453Y0306024I-000531J0000000D01*
G01*
G37*
G36*
G01*
X0330453Y0310039D02*
X0328996Y0310039D01*
G75*
G02*
X0328465Y0310571I0000000J0000531D01*
G01*
X0328465Y0311634D01*
G75*
G02*
X0328996Y0312165I0000531J0000000D01*
G01*
X0330453Y0312165D01*
G75*
G02*
X0330984Y0311634I0000000J-000531D01*
G01*
X0330984Y0310571D01*
G75*
G02*
X0330453Y0310039I-000531J0000000D01*
G01*
G37*
G36*
G01*
X0344882Y0331201D02*
X0344882Y0328248D01*
G75*
G02*
X0343996Y0327362I-000886J0000000D01*
G01*
X0342224Y0327362D01*
G75*
G02*
X0341339Y0328248I0000000J0000886D01*
G01*
X0341339Y0331201D01*
G75*
G02*
X0342224Y0332087I0000886J0000000D01*
G01*
X0343996Y0332087D01*
G75*
G02*
X0344882Y0331201I0000000J-000886D01*
G01*
G37*
G36*
G01*
X0331890Y0331201D02*
X0331890Y0328248D01*
G75*
G02*
X0331004Y0327362I-000886J0000000D01*
G01*
X0329232Y0327362D01*
G75*
G02*
X0328346Y0328248I0000000J0000886D01*
G01*
X0328346Y0331201D01*
G75*
G02*
X0329232Y0332087I0000886J0000000D01*
G01*
X0331004Y0332087D01*
G75*
G02*
X0331890Y0331201I0000000J-000886D01*
G01*
G37*
G36*
G01*
X0137539Y0015630D02*
X0136083Y0015630D01*
G75*
G02*
X0135551Y0016161I0000000J0000531D01*
G01*
X0135551Y0017224D01*
G75*
G02*
X0136083Y0017756I0000531J0000000D01*
G01*
X0137539Y0017756D01*
G75*
G02*
X0138071Y0017224I0000000J-000531D01*
G01*
X0138071Y0016161D01*
G75*
G02*
X0137539Y0015630I-000531J0000000D01*
G01*
G37*
G36*
G01*
X0137539Y0019646D02*
X0136083Y0019646D01*
G75*
G02*
X0135551Y0020177I0000000J0000531D01*
G01*
X0135551Y0021240D01*
G75*
G02*
X0136083Y0021772I0000531J0000000D01*
G01*
X0137539Y0021772D01*
G75*
G02*
X0138071Y0021240I0000000J-000531D01*
G01*
X0138071Y0020177D01*
G75*
G02*
X0137539Y0019646I-000531J0000000D01*
G01*
G37*
G36*
G01*
X0007630Y0224581D02*
X0007630Y0226955D01*
G75*
G02*
X0008026Y0227350I0000396J0000000D01*
G01*
X0015793Y0227350D01*
G75*
G02*
X0016189Y0226955I0000000J-000396D01*
G01*
X0016189Y0224581D01*
G75*
G02*
X0015793Y0224185I-000396J0000000D01*
G01*
X0008026Y0224185D01*
G75*
G02*
X0007630Y0224581I0000000J0000396D01*
G01*
G37*
G36*
G01*
X0007630Y0229581D02*
X0007630Y0231955D01*
G75*
G02*
X0008026Y0232350I0000396J0000000D01*
G01*
X0015793Y0232350D01*
G75*
G02*
X0016189Y0231955I0000000J-000396D01*
G01*
X0016189Y0229581D01*
G75*
G02*
X0015793Y0229185I-000396J0000000D01*
G01*
X0008026Y0229185D01*
G75*
G02*
X0007630Y0229581I0000000J0000396D01*
G01*
G37*
G36*
G01*
X0007630Y0234581D02*
X0007630Y0236955D01*
G75*
G02*
X0008026Y0237350I0000396J0000000D01*
G01*
X0015793Y0237350D01*
G75*
G02*
X0016189Y0236955I0000000J-000396D01*
G01*
X0016189Y0234581D01*
G75*
G02*
X0015793Y0234185I-000396J0000000D01*
G01*
X0008026Y0234185D01*
G75*
G02*
X0007630Y0234581I0000000J0000396D01*
G01*
G37*
G36*
G01*
X0007630Y0239581D02*
X0007630Y0241955D01*
G75*
G02*
X0008026Y0242350I0000396J0000000D01*
G01*
X0015793Y0242350D01*
G75*
G02*
X0016189Y0241955I0000000J-000396D01*
G01*
X0016189Y0239581D01*
G75*
G02*
X0015793Y0239185I-000396J0000000D01*
G01*
X0008026Y0239185D01*
G75*
G02*
X0007630Y0239581I0000000J0000396D01*
G01*
G37*
G36*
G01*
X0027118Y0239581D02*
X0027118Y0241955D01*
G75*
G02*
X0027514Y0242350I0000396J0000000D01*
G01*
X0035281Y0242350D01*
G75*
G02*
X0035677Y0241955I0000000J-000396D01*
G01*
X0035677Y0239581D01*
G75*
G02*
X0035281Y0239185I-000396J0000000D01*
G01*
X0027514Y0239185D01*
G75*
G02*
X0027118Y0239581I0000000J0000396D01*
G01*
G37*
G36*
G01*
X0027118Y0234581D02*
X0027118Y0236955D01*
G75*
G02*
X0027514Y0237350I0000396J0000000D01*
G01*
X0035281Y0237350D01*
G75*
G02*
X0035677Y0236955I0000000J-000396D01*
G01*
X0035677Y0234581D01*
G75*
G02*
X0035281Y0234185I-000396J0000000D01*
G01*
X0027514Y0234185D01*
G75*
G02*
X0027118Y0234581I0000000J0000396D01*
G01*
G37*
G36*
G01*
X0027118Y0229581D02*
X0027118Y0231955D01*
G75*
G02*
X0027514Y0232350I0000396J0000000D01*
G01*
X0035281Y0232350D01*
G75*
G02*
X0035677Y0231955I0000000J-000396D01*
G01*
X0035677Y0229581D01*
G75*
G02*
X0035281Y0229185I-000396J0000000D01*
G01*
X0027514Y0229185D01*
G75*
G02*
X0027118Y0229581I0000000J0000396D01*
G01*
G37*
G36*
G01*
X0027118Y0224581D02*
X0027118Y0226955D01*
G75*
G02*
X0027514Y0227350I0000396J0000000D01*
G01*
X0035281Y0227350D01*
G75*
G02*
X0035677Y0226955I0000000J-000396D01*
G01*
X0035677Y0224581D01*
G75*
G02*
X0035281Y0224185I-000396J0000000D01*
G01*
X0027514Y0224185D01*
G75*
G02*
X0027118Y0224581I0000000J0000396D01*
G01*
G37*
G36*
G01*
X0022244Y0345965D02*
X0022244Y0348917D01*
G75*
G02*
X0023130Y0349803I0000886J0000000D01*
G01*
X0024902Y0349803D01*
G75*
G02*
X0025787Y0348917I0000000J-000886D01*
G01*
X0025787Y0345965D01*
G75*
G02*
X0024902Y0345079I-000886J0000000D01*
G01*
X0023130Y0345079D01*
G75*
G02*
X0022244Y0345965I0000000J0000886D01*
G01*
G37*
G36*
G01*
X0035236Y0345965D02*
X0035236Y0348917D01*
G75*
G02*
X0036122Y0349803I0000886J0000000D01*
G01*
X0037894Y0349803D01*
G75*
G02*
X0038780Y0348917I0000000J-000886D01*
G01*
X0038780Y0345965D01*
G75*
G02*
X0037894Y0345079I-000886J0000000D01*
G01*
X0036122Y0345079D01*
G75*
G02*
X0035236Y0345965I0000000J0000886D01*
G01*
G37*
G36*
G01*
X0007630Y0200959D02*
X0007630Y0203333D01*
G75*
G02*
X0008026Y0203728I0000396J0000000D01*
G01*
X0015793Y0203728D01*
G75*
G02*
X0016189Y0203333I0000000J-000396D01*
G01*
X0016189Y0200959D01*
G75*
G02*
X0015793Y0200563I-000396J0000000D01*
G01*
X0008026Y0200563D01*
G75*
G02*
X0007630Y0200959I0000000J0000396D01*
G01*
G37*
G36*
G01*
X0007630Y0205959D02*
X0007630Y0208333D01*
G75*
G02*
X0008026Y0208728I0000396J0000000D01*
G01*
X0015793Y0208728D01*
G75*
G02*
X0016189Y0208333I0000000J-000396D01*
G01*
X0016189Y0205959D01*
G75*
G02*
X0015793Y0205563I-000396J0000000D01*
G01*
X0008026Y0205563D01*
G75*
G02*
X0007630Y0205959I0000000J0000396D01*
G01*
G37*
G36*
G01*
X0007630Y0210959D02*
X0007630Y0213333D01*
G75*
G02*
X0008026Y0213728I0000396J0000000D01*
G01*
X0015793Y0213728D01*
G75*
G02*
X0016189Y0213333I0000000J-000396D01*
G01*
X0016189Y0210959D01*
G75*
G02*
X0015793Y0210563I-000396J0000000D01*
G01*
X0008026Y0210563D01*
G75*
G02*
X0007630Y0210959I0000000J0000396D01*
G01*
G37*
G36*
G01*
X0007630Y0215959D02*
X0007630Y0218333D01*
G75*
G02*
X0008026Y0218728I0000396J0000000D01*
G01*
X0015793Y0218728D01*
G75*
G02*
X0016189Y0218333I0000000J-000396D01*
G01*
X0016189Y0215959D01*
G75*
G02*
X0015793Y0215563I-000396J0000000D01*
G01*
X0008026Y0215563D01*
G75*
G02*
X0007630Y0215959I0000000J0000396D01*
G01*
G37*
G36*
G01*
X0027118Y0215959D02*
X0027118Y0218333D01*
G75*
G02*
X0027514Y0218728I0000396J0000000D01*
G01*
X0035281Y0218728D01*
G75*
G02*
X0035677Y0218333I0000000J-000396D01*
G01*
X0035677Y0215959D01*
G75*
G02*
X0035281Y0215563I-000396J0000000D01*
G01*
X0027514Y0215563D01*
G75*
G02*
X0027118Y0215959I0000000J0000396D01*
G01*
G37*
G36*
G01*
X0027118Y0210959D02*
X0027118Y0213333D01*
G75*
G02*
X0027514Y0213728I0000396J0000000D01*
G01*
X0035281Y0213728D01*
G75*
G02*
X0035677Y0213333I0000000J-000396D01*
G01*
X0035677Y0210959D01*
G75*
G02*
X0035281Y0210563I-000396J0000000D01*
G01*
X0027514Y0210563D01*
G75*
G02*
X0027118Y0210959I0000000J0000396D01*
G01*
G37*
G36*
G01*
X0027118Y0205959D02*
X0027118Y0208333D01*
G75*
G02*
X0027514Y0208728I0000396J0000000D01*
G01*
X0035281Y0208728D01*
G75*
G02*
X0035677Y0208333I0000000J-000396D01*
G01*
X0035677Y0205959D01*
G75*
G02*
X0035281Y0205563I-000396J0000000D01*
G01*
X0027514Y0205563D01*
G75*
G02*
X0027118Y0205959I0000000J0000396D01*
G01*
G37*
G36*
G01*
X0027118Y0200959D02*
X0027118Y0203333D01*
G75*
G02*
X0027514Y0203728I0000396J0000000D01*
G01*
X0035281Y0203728D01*
G75*
G02*
X0035677Y0203333I0000000J-000396D01*
G01*
X0035677Y0200959D01*
G75*
G02*
X0035281Y0200563I-000396J0000000D01*
G01*
X0027514Y0200563D01*
G75*
G02*
X0027118Y0200959I0000000J0000396D01*
G01*
G37*
G36*
G01*
X0133602Y0015630D02*
X0132146Y0015630D01*
G75*
G02*
X0131614Y0016161I0000000J0000531D01*
G01*
X0131614Y0017224D01*
G75*
G02*
X0132146Y0017756I0000531J0000000D01*
G01*
X0133602Y0017756D01*
G75*
G02*
X0134134Y0017224I0000000J-000531D01*
G01*
X0134134Y0016161D01*
G75*
G02*
X0133602Y0015630I-000531J0000000D01*
G01*
G37*
G36*
G01*
X0133602Y0019646D02*
X0132146Y0019646D01*
G75*
G02*
X0131614Y0020177I0000000J0000531D01*
G01*
X0131614Y0021240D01*
G75*
G02*
X0132146Y0021772I0000531J0000000D01*
G01*
X0133602Y0021772D01*
G75*
G02*
X0134134Y0021240I0000000J-000531D01*
G01*
X0134134Y0020177D01*
G75*
G02*
X0133602Y0019646I-000531J0000000D01*
G01*
G37*
G36*
G01*
X0046850Y0345965D02*
X0046850Y0348917D01*
G75*
G02*
X0047736Y0349803I0000886J0000000D01*
G01*
X0049508Y0349803D01*
G75*
G02*
X0050394Y0348917I0000000J-000886D01*
G01*
X0050394Y0345965D01*
G75*
G02*
X0049508Y0345079I-000886J0000000D01*
G01*
X0047736Y0345079D01*
G75*
G02*
X0046850Y0345965I0000000J0000886D01*
G01*
G37*
G36*
G01*
X0059843Y0345965D02*
X0059843Y0348917D01*
G75*
G02*
X0060728Y0349803I0000886J0000000D01*
G01*
X0062500Y0349803D01*
G75*
G02*
X0063386Y0348917I0000000J-000886D01*
G01*
X0063386Y0345965D01*
G75*
G02*
X0062500Y0345079I-000886J0000000D01*
G01*
X0060728Y0345079D01*
G75*
G02*
X0059843Y0345965I0000000J0000886D01*
G01*
G37*
G36*
G01*
X0007630Y0153715D02*
X0007630Y0156089D01*
G75*
G02*
X0008026Y0156484I0000396J0000000D01*
G01*
X0015793Y0156484D01*
G75*
G02*
X0016189Y0156089I0000000J-000396D01*
G01*
X0016189Y0153715D01*
G75*
G02*
X0015793Y0153319I-000396J0000000D01*
G01*
X0008026Y0153319D01*
G75*
G02*
X0007630Y0153715I0000000J0000396D01*
G01*
G37*
G36*
G01*
X0007630Y0158715D02*
X0007630Y0161089D01*
G75*
G02*
X0008026Y0161484I0000396J0000000D01*
G01*
X0015793Y0161484D01*
G75*
G02*
X0016189Y0161089I0000000J-000396D01*
G01*
X0016189Y0158715D01*
G75*
G02*
X0015793Y0158319I-000396J0000000D01*
G01*
X0008026Y0158319D01*
G75*
G02*
X0007630Y0158715I0000000J0000396D01*
G01*
G37*
G36*
G01*
X0007630Y0163715D02*
X0007630Y0166089D01*
G75*
G02*
X0008026Y0166484I0000396J0000000D01*
G01*
X0015793Y0166484D01*
G75*
G02*
X0016189Y0166089I0000000J-000396D01*
G01*
X0016189Y0163715D01*
G75*
G02*
X0015793Y0163319I-000396J0000000D01*
G01*
X0008026Y0163319D01*
G75*
G02*
X0007630Y0163715I0000000J0000396D01*
G01*
G37*
G36*
G01*
X0007630Y0168715D02*
X0007630Y0171089D01*
G75*
G02*
X0008026Y0171484I0000396J0000000D01*
G01*
X0015793Y0171484D01*
G75*
G02*
X0016189Y0171089I0000000J-000396D01*
G01*
X0016189Y0168715D01*
G75*
G02*
X0015793Y0168319I-000396J0000000D01*
G01*
X0008026Y0168319D01*
G75*
G02*
X0007630Y0168715I0000000J0000396D01*
G01*
G37*
G36*
G01*
X0027118Y0168715D02*
X0027118Y0171089D01*
G75*
G02*
X0027514Y0171484I0000396J0000000D01*
G01*
X0035281Y0171484D01*
G75*
G02*
X0035677Y0171089I0000000J-000396D01*
G01*
X0035677Y0168715D01*
G75*
G02*
X0035281Y0168319I-000396J0000000D01*
G01*
X0027514Y0168319D01*
G75*
G02*
X0027118Y0168715I0000000J0000396D01*
G01*
G37*
G36*
G01*
X0027118Y0163715D02*
X0027118Y0166089D01*
G75*
G02*
X0027514Y0166484I0000396J0000000D01*
G01*
X0035281Y0166484D01*
G75*
G02*
X0035677Y0166089I0000000J-000396D01*
G01*
X0035677Y0163715D01*
G75*
G02*
X0035281Y0163319I-000396J0000000D01*
G01*
X0027514Y0163319D01*
G75*
G02*
X0027118Y0163715I0000000J0000396D01*
G01*
G37*
G36*
G01*
X0027118Y0158715D02*
X0027118Y0161089D01*
G75*
G02*
X0027514Y0161484I0000396J0000000D01*
G01*
X0035281Y0161484D01*
G75*
G02*
X0035677Y0161089I0000000J-000396D01*
G01*
X0035677Y0158715D01*
G75*
G02*
X0035281Y0158319I-000396J0000000D01*
G01*
X0027514Y0158319D01*
G75*
G02*
X0027118Y0158715I0000000J0000396D01*
G01*
G37*
G36*
G01*
X0027118Y0153715D02*
X0027118Y0156089D01*
G75*
G02*
X0027514Y0156484I0000396J0000000D01*
G01*
X0035281Y0156484D01*
G75*
G02*
X0035677Y0156089I0000000J-000396D01*
G01*
X0035677Y0153715D01*
G75*
G02*
X0035281Y0153319I-000396J0000000D01*
G01*
X0027514Y0153319D01*
G75*
G02*
X0027118Y0153715I0000000J0000396D01*
G01*
G37*
G36*
G01*
X0319626Y0305984D02*
X0318169Y0305984D01*
G75*
G02*
X0317638Y0306516I0000000J0000531D01*
G01*
X0317638Y0307579D01*
G75*
G02*
X0318169Y0308110I0000531J0000000D01*
G01*
X0319626Y0308110D01*
G75*
G02*
X0320157Y0307579I0000000J-000531D01*
G01*
X0320157Y0306516D01*
G75*
G02*
X0319626Y0305984I-000531J0000000D01*
G01*
G37*
G36*
G01*
X0319626Y0310000D02*
X0318169Y0310000D01*
G75*
G02*
X0317638Y0310531I0000000J0000531D01*
G01*
X0317638Y0311594D01*
G75*
G02*
X0318169Y0312126I0000531J0000000D01*
G01*
X0319626Y0312126D01*
G75*
G02*
X0320157Y0311594I0000000J-000531D01*
G01*
X0320157Y0310531D01*
G75*
G02*
X0319626Y0310000I-000531J0000000D01*
G01*
G37*
G36*
G01*
X0303150Y0328248D02*
X0303150Y0331201D01*
G75*
G02*
X0304035Y0332087I0000886J0000000D01*
G01*
X0305807Y0332087D01*
G75*
G02*
X0306693Y0331201I0000000J-000886D01*
G01*
X0306693Y0328248D01*
G75*
G02*
X0305807Y0327362I-000886J0000000D01*
G01*
X0304035Y0327362D01*
G75*
G02*
X0303150Y0328248I0000000J0000886D01*
G01*
G37*
G36*
G01*
X0316142Y0328248D02*
X0316142Y0331201D01*
G75*
G02*
X0317028Y0332087I0000886J0000000D01*
G01*
X0318799Y0332087D01*
G75*
G02*
X0319685Y0331201I0000000J-000886D01*
G01*
X0319685Y0328248D01*
G75*
G02*
X0318799Y0327362I-000886J0000000D01*
G01*
X0317028Y0327362D01*
G75*
G02*
X0316142Y0328248I0000000J0000886D01*
G01*
G37*
X0285532Y0238878D02*
G01*
G75*
D345*
X0273917Y0137636D02*
D03*
X0264665Y0133896D02*
D03*
D345*
X0273917Y0130155D02*
D03*
D351*
X0137550Y0142421D02*
D03*
X0137550Y0146358D02*
D03*
X0253839Y0186910D02*
D03*
X0253839Y0182973D02*
D03*
X0133170Y0143996D02*
D03*
X0133170Y0147933D02*
D03*
X0256890Y0084744D02*
D03*
X0256890Y0088681D02*
D03*
X0223707Y0162106D02*
D03*
X0223707Y0166043D02*
D03*
X0206802Y0162178D02*
D03*
X0206802Y0158241D02*
D03*
X0228839Y0165650D02*
D03*
X0228839Y0161713D02*
D03*
X0280033Y0182062D02*
D03*
X0280033Y0185999D02*
D03*
X0262304Y0112894D02*
D03*
X0262304Y0116831D02*
D03*
X0282776Y0093799D02*
D03*
X0282776Y0089862D02*
D03*
X0150886Y0169587D02*
D03*
X0150886Y0173524D02*
D03*
X0224508Y0105020D02*
D03*
X0224508Y0101083D02*
D03*
X0194291Y0171457D02*
D03*
X0194291Y0167520D02*
D03*
X0205316Y0090157D02*
D03*
X0205316Y0086221D02*
D03*
X0152461Y0157776D02*
D03*
X0152461Y0161713D02*
D03*
X0148524Y0157776D02*
D03*
X0148524Y0161713D02*
D03*
X0278642Y0093799D02*
D03*
X0278642Y0089862D02*
D03*
X0141634Y0142421D02*
D03*
X0141634Y0146358D02*
D03*
X0141831Y0119980D02*
D03*
X0141831Y0123917D02*
D03*
X0189961Y0171457D02*
D03*
X0189961Y0167520D02*
D03*
X0186319Y0084941D02*
D03*
X0186319Y0088878D02*
D03*
X0224508Y0134547D02*
D03*
X0224508Y0130610D02*
D03*
X0224508Y0138091D02*
D03*
X0224508Y0142028D02*
D03*
X0237894Y0214469D02*
D03*
X0237894Y0218406D02*
D03*
X0233170Y0214469D02*
D03*
X0233170Y0218406D02*
D03*
X0228445Y0214469D02*
D03*
X0228445Y0218406D02*
D03*
X0223721Y0214469D02*
D03*
X0223721Y0218406D02*
D03*
X0139075Y0233760D02*
D03*
X0139075Y0229823D02*
D03*
X0134351Y0229823D02*
D03*
X0134351Y0233760D02*
D03*
X0129627Y0233760D02*
D03*
X0129627Y0229823D02*
D03*
X0124902Y0233760D02*
D03*
X0124902Y0229823D02*
D03*
X0257776Y0186910D02*
D03*
X0257776Y0182973D02*
D03*
X0229823Y0186910D02*
D03*
X0229823Y0182973D02*
D03*
X0261516Y0214469D02*
D03*
X0261516Y0218406D02*
D03*
X0266240Y0214469D02*
D03*
X0266240Y0218406D02*
D03*
X0270965Y0214469D02*
D03*
X0270965Y0218406D02*
D03*
X0275689Y0214469D02*
D03*
X0275689Y0218406D02*
D03*
X0242618Y0214469D02*
D03*
X0242618Y0218406D02*
D03*
X0247343Y0214469D02*
D03*
X0247343Y0218406D02*
D03*
X0252067Y0214469D02*
D03*
X0252067Y0218406D02*
D03*
X0256792Y0214469D02*
D03*
X0256792Y0218406D02*
D03*
X0204823Y0214469D02*
D03*
X0204823Y0218406D02*
D03*
X0209547Y0214469D02*
D03*
X0209547Y0218406D02*
D03*
X0214272Y0214469D02*
D03*
X0214272Y0218406D02*
D03*
X0218996Y0214469D02*
D03*
X0218996Y0218406D02*
D03*
X0185925Y0218406D02*
D03*
X0185925Y0214469D02*
D03*
X0190650Y0214469D02*
D03*
X0190650Y0218406D02*
D03*
X0195374Y0214469D02*
D03*
X0195374Y0218406D02*
D03*
X0200099Y0214469D02*
D03*
X0200099Y0218406D02*
D03*
X0167028Y0214469D02*
D03*
X0167028Y0218406D02*
D03*
X0171752Y0214469D02*
D03*
X0171752Y0218406D02*
D03*
X0176477Y0214469D02*
D03*
X0176477Y0218406D02*
D03*
X0181201Y0214469D02*
D03*
X0181201Y0218406D02*
D03*
X0152855Y0214469D02*
D03*
X0152855Y0218406D02*
D03*
X0157579Y0214469D02*
D03*
X0157579Y0218406D02*
D03*
X0162304Y0214469D02*
D03*
X0162304Y0218406D02*
D03*
X0280808Y0223721D02*
D03*
X0280808Y0219784D02*
D03*
X0143799Y0229823D02*
D03*
X0143799Y0233760D02*
D03*
X0229823Y0197146D02*
D03*
X0229823Y0193209D02*
D03*
X0142225Y0218406D02*
D03*
X0142225Y0214469D02*
D03*
X0280808Y0231398D02*
D03*
X0280808Y0227461D02*
D03*
X0142225Y0222343D02*
D03*
X0142225Y0226280D02*
D03*
X0137107Y0092028D02*
D03*
X0137107Y0095965D02*
D03*
X0148130Y0214469D02*
D03*
X0148130Y0218406D02*
D03*
D354*
X0248130Y0122047D02*
D03*
X0241044Y0122047D02*
D03*
X0241044Y0132087D02*
D03*
X0248130Y0132087D02*
D03*
X0233563Y0170276D02*
D03*
X0240650Y0170276D02*
D03*
X0240650Y0160236D02*
D03*
X0233563Y0160236D02*
D03*
X0233563Y0154134D02*
D03*
X0240650Y0154134D02*
D03*
X0240650Y0144094D02*
D03*
X0233563Y0144094D02*
D03*
X0138091Y0189961D02*
D03*
X0145178Y0189961D02*
D03*
X0145178Y0200000D02*
D03*
X0138091Y0200000D02*
D03*
X0156595Y0200000D02*
D03*
X0149508Y0200000D02*
D03*
X0149508Y0189961D02*
D03*
X0156595Y0189961D02*
D03*
X0206595Y0189961D02*
D03*
X0213681Y0189961D02*
D03*
X0213681Y0200000D02*
D03*
X0206595Y0200000D02*
D03*
X0225099Y0200000D02*
D03*
X0218012Y0200000D02*
D03*
X0218012Y0189961D02*
D03*
X0225099Y0189961D02*
D03*
X0183760Y0189961D02*
D03*
X0190847Y0189961D02*
D03*
X0190847Y0200000D02*
D03*
X0183760Y0200000D02*
D03*
X0202264Y0200000D02*
D03*
X0195177Y0200000D02*
D03*
X0195177Y0189961D02*
D03*
X0202264Y0189961D02*
D03*
X0160925Y0189961D02*
D03*
X0168012Y0189961D02*
D03*
X0168012Y0200000D02*
D03*
X0160925Y0200000D02*
D03*
X0179429Y0200000D02*
D03*
X0172343Y0200000D02*
D03*
X0172343Y0189961D02*
D03*
X0179429Y0189961D02*
D03*
D355*
X0241044Y0128642D02*
D03*
X0241044Y0125492D02*
D03*
X0248130Y0125492D02*
D03*
X0248130Y0128642D02*
D03*
X0240650Y0163681D02*
D03*
X0240650Y0166831D02*
D03*
X0233563Y0166831D02*
D03*
X0233563Y0163681D02*
D03*
X0240650Y0147539D02*
D03*
X0240650Y0150689D02*
D03*
X0233563Y0150689D02*
D03*
X0233563Y0147539D02*
D03*
X0138091Y0193406D02*
D03*
X0138091Y0196555D02*
D03*
X0145178Y0196555D02*
D03*
X0145178Y0193406D02*
D03*
X0156595Y0196555D02*
D03*
X0156595Y0193406D02*
D03*
X0149508Y0193406D02*
D03*
X0149508Y0196555D02*
D03*
X0206595Y0193406D02*
D03*
X0206595Y0196555D02*
D03*
X0213681Y0196555D02*
D03*
X0213681Y0193406D02*
D03*
X0225099Y0196555D02*
D03*
X0225099Y0193406D02*
D03*
X0218012Y0193406D02*
D03*
X0218012Y0196555D02*
D03*
X0183760Y0193406D02*
D03*
X0183760Y0196555D02*
D03*
X0190847Y0196555D02*
D03*
X0190847Y0193406D02*
D03*
X0202264Y0196555D02*
D03*
X0202264Y0193406D02*
D03*
X0195177Y0193406D02*
D03*
X0195177Y0196555D02*
D03*
X0160925Y0193406D02*
D03*
X0160925Y0196555D02*
D03*
X0168012Y0196555D02*
D03*
X0168012Y0193406D02*
D03*
X0179429Y0196555D02*
D03*
X0179429Y0193406D02*
D03*
X0172343Y0193406D02*
D03*
X0172343Y0196555D02*
D03*
D357*
X0260138Y0128051D02*
D03*
X0260138Y0125492D02*
D03*
X0260138Y0122933D02*
D03*
X0252658Y0122933D02*
D03*
X0252658Y0128051D02*
D03*
D360*
X0241831Y0087500D02*
D03*
X0245768Y0087500D02*
D03*
X0125689Y0103248D02*
D03*
X0129627Y0103248D02*
D03*
X0266789Y0108069D02*
D03*
X0262852Y0108069D02*
D03*
X0241044Y0114075D02*
D03*
X0244981Y0114075D02*
D03*
X0252855Y0114075D02*
D03*
X0248918Y0114075D02*
D03*
X0144193Y0168799D02*
D03*
X0140256Y0168799D02*
D03*
X0213485Y0086909D02*
D03*
X0209548Y0086909D02*
D03*
X0144784Y0099114D02*
D03*
X0140847Y0099114D02*
D03*
X0172146Y0088091D02*
D03*
X0168209Y0088091D02*
D03*
X0216622Y0174900D02*
D03*
X0220559Y0174900D02*
D03*
X0225886Y0152264D02*
D03*
X0221949Y0152264D02*
D03*
X0215847Y0153839D02*
D03*
X0211910Y0153839D02*
D03*
X0216634Y0125492D02*
D03*
X0212697Y0125492D02*
D03*
X0121359Y0085335D02*
D03*
X0125296Y0085335D02*
D03*
X0234548Y0086319D02*
D03*
X0238485Y0086319D02*
D03*
X0252461Y0100689D02*
D03*
X0248524Y0100689D02*
D03*
X0141437Y0162500D02*
D03*
X0137500Y0162500D02*
D03*
X0141437Y0158563D02*
D03*
X0137500Y0158563D02*
D03*
X0140847Y0095177D02*
D03*
X0144784Y0095177D02*
D03*
X0167914Y0171063D02*
D03*
X0171851Y0171063D02*
D03*
X0224508Y0125886D02*
D03*
X0220571Y0125886D02*
D03*
X0224508Y0157579D02*
D03*
X0220571Y0157579D02*
D03*
X0216241Y0102264D02*
D03*
X0212304Y0102264D02*
D03*
X0217028Y0117618D02*
D03*
X0213091Y0117618D02*
D03*
X0202166Y0171457D02*
D03*
X0198229Y0171457D02*
D03*
X0147933Y0183760D02*
D03*
X0151870Y0183760D02*
D03*
X0216437Y0183760D02*
D03*
X0220374Y0183760D02*
D03*
X0193603Y0183760D02*
D03*
X0197540Y0183760D02*
D03*
X0170768Y0183760D02*
D03*
X0174705Y0183760D02*
D03*
X0209941Y0207776D02*
D03*
X0213878Y0207776D02*
D03*
X0264993Y0204232D02*
D03*
X0261056Y0204232D02*
D03*
X0274182Y0204232D02*
D03*
X0278119Y0204232D02*
D03*
X0240189Y0204232D02*
D03*
X0236252Y0204232D02*
D03*
X0249378Y0204232D02*
D03*
X0253315Y0204232D02*
D03*
X0276280Y0122343D02*
D03*
X0280217Y0122343D02*
D03*
X0271752Y0122343D02*
D03*
X0267815Y0122343D02*
D03*
X0234744Y0210532D02*
D03*
X0238681Y0210532D02*
D03*
X0281595Y0172736D02*
D03*
X0277658Y0172736D02*
D03*
X0281595Y0160335D02*
D03*
X0277658Y0160335D02*
D03*
X0281595Y0156201D02*
D03*
X0277658Y0156201D02*
D03*
X0281595Y0147933D02*
D03*
X0277658Y0147933D02*
D03*
X0281595Y0152067D02*
D03*
X0277658Y0152067D02*
D03*
X0281595Y0143799D02*
D03*
X0277658Y0143799D02*
D03*
X0281595Y0164468D02*
D03*
X0277658Y0164468D02*
D03*
X0281595Y0168602D02*
D03*
X0277658Y0168602D02*
D03*
D134*
X0229784Y0088937D02*
D03*
X0249784Y0092937D02*
D03*
X0249784Y0084937D02*
D03*
D135*
X0191437Y0177461D02*
D03*
X0144193Y0173130D02*
D03*
X0149311Y0177854D02*
D03*
X0161123Y0177854D02*
D03*
X0172540Y0177854D02*
D03*
X0208760Y0177854D02*
D03*
X0225690Y0176673D02*
D03*
D53*
X0281201Y0085335D02*
D03*
D373*
X0231555Y0121358D02*
D03*
X0225335Y0121358D02*
D03*
D374*
X0128952Y0111007D02*
D03*
X0125212Y0120259D02*
D03*
X0211381Y0168758D02*
D03*
X0215121Y0159506D02*
D03*
X0274902Y0107894D02*
D03*
X0278642Y0098642D02*
D03*
X0269193Y0094469D02*
D03*
X0265453Y0103720D02*
D03*
X0132579Y0202854D02*
D03*
X0128839Y0212106D02*
D03*
X0128839Y0197211D02*
D03*
X0132579Y0187959D02*
D03*
X0132579Y0173064D02*
D03*
X0128839Y0182316D02*
D03*
X0133366Y0158169D02*
D03*
X0129626Y0167421D02*
D03*
D374*
X0132692Y0120259D02*
D03*
X0218861Y0168758D02*
D03*
X0282382Y0107894D02*
D03*
X0261713Y0094468D02*
D03*
X0125099Y0202854D02*
D03*
X0125099Y0187959D02*
D03*
X0125099Y0173064D02*
D03*
X0125886Y0158169D02*
D03*
D375*
X0281201Y0115256D02*
D03*
X0268209Y0115256D02*
D03*
X0243800Y0105020D02*
D03*
X0230807Y0105020D02*
D03*
D161*
X0248721Y0106595D02*
D03*
X0255414Y0106595D02*
D03*
D376*
X0126477Y0144390D02*
D03*
X0126477Y0132973D02*
D03*
D377*
X0188406Y0133354D02*
D03*
X0184075Y0133354D02*
D03*
X0179744Y0133354D02*
D03*
X0175414Y0133354D02*
D03*
X0171083Y0133354D02*
D03*
X0166752Y0133354D02*
D03*
X0162421Y0133354D02*
D03*
X0158091Y0133354D02*
D03*
D378*
X0148721Y0143590D02*
D03*
X0148721Y0110913D02*
D03*
X0202854Y0110913D02*
D03*
X0202854Y0143590D02*
D03*
D165*
X0213484Y0132382D02*
D03*
X0213484Y0146949D02*
D03*
D379*
X0166929Y0156201D02*
D03*
X0166929Y0163287D02*
D03*
X0156890Y0163287D02*
D03*
X0156890Y0156201D02*
D03*
X0235827Y0231201D02*
D03*
X0235827Y0224114D02*
D03*
X0225788Y0224114D02*
D03*
X0225788Y0231201D02*
D03*
X0263977Y0196752D02*
D03*
X0263977Y0189665D02*
D03*
X0274016Y0189665D02*
D03*
X0274016Y0196752D02*
D03*
X0274016Y0178248D02*
D03*
X0274016Y0185335D02*
D03*
X0263977Y0185335D02*
D03*
X0263977Y0178248D02*
D03*
X0236024Y0196752D02*
D03*
X0236024Y0189665D02*
D03*
X0246063Y0189665D02*
D03*
X0246063Y0196752D02*
D03*
X0246063Y0178248D02*
D03*
X0246063Y0185335D02*
D03*
X0236024Y0185335D02*
D03*
X0236024Y0178248D02*
D03*
X0273622Y0231201D02*
D03*
X0273622Y0224114D02*
D03*
X0263583Y0224114D02*
D03*
X0263583Y0231201D02*
D03*
X0254725Y0231201D02*
D03*
X0254725Y0224114D02*
D03*
X0244686Y0224114D02*
D03*
X0244686Y0231201D02*
D03*
X0216930Y0231201D02*
D03*
X0216930Y0224114D02*
D03*
X0206890Y0224114D02*
D03*
X0206890Y0231201D02*
D03*
X0198032Y0231201D02*
D03*
X0198032Y0224114D02*
D03*
X0187992Y0224114D02*
D03*
X0187992Y0231201D02*
D03*
X0179134Y0231201D02*
D03*
X0179134Y0224114D02*
D03*
X0169095Y0224114D02*
D03*
X0169095Y0231201D02*
D03*
X0160237Y0231201D02*
D03*
X0160237Y0224114D02*
D03*
X0150197Y0224114D02*
D03*
X0150197Y0231201D02*
D03*
X0126969Y0225492D02*
D03*
X0126969Y0218406D02*
D03*
X0137008Y0218406D02*
D03*
X0137008Y0225492D02*
D03*
D380*
X0163485Y0156201D02*
D03*
X0160335Y0156201D02*
D03*
X0160335Y0163287D02*
D03*
X0163485Y0163287D02*
D03*
X0229233Y0224114D02*
D03*
X0232382Y0224114D02*
D03*
X0232382Y0231201D02*
D03*
X0229233Y0231201D02*
D03*
X0267422Y0196752D02*
D03*
X0270571Y0196752D02*
D03*
X0270571Y0189665D02*
D03*
X0267422Y0189665D02*
D03*
X0270571Y0178248D02*
D03*
X0267422Y0178248D02*
D03*
X0267422Y0185335D02*
D03*
X0270571Y0185335D02*
D03*
X0239469Y0196752D02*
D03*
X0242619Y0196752D02*
D03*
X0242619Y0189665D02*
D03*
X0239469Y0189665D02*
D03*
X0242618Y0178248D02*
D03*
X0239469Y0178248D02*
D03*
X0239469Y0185335D02*
D03*
X0242618Y0185335D02*
D03*
X0267028Y0224114D02*
D03*
X0270177Y0224114D02*
D03*
X0270177Y0231201D02*
D03*
X0267028Y0231201D02*
D03*
X0248130Y0224114D02*
D03*
X0251280Y0224114D02*
D03*
X0251280Y0231201D02*
D03*
X0248130Y0231201D02*
D03*
X0210335Y0224114D02*
D03*
X0213485Y0224114D02*
D03*
X0213485Y0231201D02*
D03*
X0210335Y0231201D02*
D03*
X0191437Y0224114D02*
D03*
X0194587Y0224114D02*
D03*
X0194587Y0231201D02*
D03*
X0191437Y0231201D02*
D03*
X0172540Y0224114D02*
D03*
X0175689Y0224114D02*
D03*
X0175689Y0231201D02*
D03*
X0172540Y0231201D02*
D03*
X0153642Y0224114D02*
D03*
X0156792Y0224114D02*
D03*
X0156792Y0231201D02*
D03*
X0153642Y0231201D02*
D03*
X0130414Y0225492D02*
D03*
X0133563Y0225492D02*
D03*
X0133563Y0218406D02*
D03*
X0130414Y0218406D02*
D03*
D381*
X0141831Y0128642D02*
D03*
X0141831Y0134941D02*
D03*
X0195473Y0092913D02*
D03*
X0195473Y0086614D02*
D03*
X0280807Y0126673D02*
D03*
X0280807Y0132973D02*
D03*
X0136319Y0136122D02*
D03*
X0136319Y0129823D02*
D03*
D382*
X0216241Y0107185D02*
D03*
X0216241Y0113091D02*
D03*
D383*
X0225295Y0112106D02*
D03*
X0231595Y0112106D02*
D03*
X0225295Y0116732D02*
D03*
X0231595Y0116732D02*
D03*
D384*
X0273721Y0087500D02*
D03*
X0262304Y0087500D02*
D03*
D172*
X0271910Y0171752D02*
D03*
X0271910Y0169193D02*
D03*
X0271910Y0166634D02*
D03*
X0271910Y0164075D02*
D03*
X0271910Y0161516D02*
D03*
X0271910Y0158957D02*
D03*
X0271910Y0156398D02*
D03*
X0271910Y0153839D02*
D03*
X0271910Y0151280D02*
D03*
X0271910Y0148720D02*
D03*
X0271910Y0146162D02*
D03*
X0271910Y0143602D02*
D03*
X0248917Y0171752D02*
D03*
X0248917Y0169193D02*
D03*
X0248917Y0166634D02*
D03*
X0248917Y0164075D02*
D03*
X0248917Y0161516D02*
D03*
X0248917Y0158957D02*
D03*
X0248917Y0156398D02*
D03*
X0248917Y0153839D02*
D03*
X0248917Y0151280D02*
D03*
X0248917Y0148720D02*
D03*
X0248917Y0146162D02*
D03*
X0248917Y0143602D02*
D03*
D173*
X0128642Y0095571D02*
D03*
X0130610Y0095571D02*
D03*
X0130610Y0089272D02*
D03*
X0128642Y0089272D02*
D03*
D174*
X0132776Y0095374D02*
D03*
X0132776Y0093405D02*
D03*
X0132776Y0091437D02*
D03*
X0132776Y0089469D02*
D03*
X0126476Y0095374D02*
D03*
X0126476Y0089469D02*
D03*
X0126476Y0093405D02*
D03*
X0126476Y0091437D02*
D03*
X0273524Y0321752D02*
%LPD*%
G01*
D10*
X0300689Y0263484D03*
X0295965Y0263484D03*
X0305414Y0263484D03*
X0310138Y0263484D03*
X0284705Y0320276D03*
X0280768Y0320276D03*
G36*
G01*
X0304118Y0304823D02*
X0302937Y0304823D01*
G75*
G02*
X0302346Y0305413I0000000J0000591D01*
G01*
X0302346Y0309449D01*
G75*
G02*
X0302937Y0310039I0000591J0000000D01*
G01*
X0304118Y0310039D01*
G75*
G02*
X0304708Y0309449I0000000J-000591D01*
G01*
X0304708Y0305413D01*
G75*
G02*
X0304118Y0304823I-000591J0000000D01*
G01*
G37*
G36*
G01*
X0300377Y0304823D02*
X0299196Y0304823D01*
G75*
G02*
X0298606Y0305413I0000000J0000591D01*
G01*
X0298606Y0309449D01*
G75*
G02*
X0299196Y0310039I0000591J0000000D01*
G01*
X0300377Y0310039D01*
G75*
G02*
X0300968Y0309449I0000000J-000591D01*
G01*
X0300968Y0305413D01*
G75*
G02*
X0300377Y0304823I-000591J0000000D01*
G01*
G37*
G36*
G01*
X0296637Y0304823D02*
X0295456Y0304823D01*
G75*
G02*
X0294866Y0305413I0000000J0000591D01*
G01*
X0294866Y0309449D01*
G75*
G02*
X0295456Y0310039I0000591J0000000D01*
G01*
X0296637Y0310039D01*
G75*
G02*
X0297228Y0309449I0000000J-000591D01*
G01*
X0297228Y0305413D01*
G75*
G02*
X0296637Y0304823I-000591J0000000D01*
G01*
G37*
G36*
G01*
X0296637Y0313780D02*
X0295456Y0313780D01*
G75*
G02*
X0294866Y0314370I0000000J0000591D01*
G01*
X0294866Y0318406D01*
G75*
G02*
X0295456Y0318996I0000591J0000000D01*
G01*
X0296637Y0318996D01*
G75*
G02*
X0297228Y0318406I0000000J-000591D01*
G01*
X0297228Y0314370D01*
G75*
G02*
X0296637Y0313780I-000591J0000000D01*
G01*
G37*
G36*
G01*
X0304118Y0313780D02*
X0302937Y0313780D01*
G75*
G02*
X0302346Y0314370I0000000J0000591D01*
G01*
X0302346Y0318406D01*
G75*
G02*
X0302937Y0318996I0000591J0000000D01*
G01*
X0304118Y0318996D01*
G75*
G02*
X0304708Y0318406I0000000J-000591D01*
G01*
X0304708Y0314370D01*
G75*
G02*
X0304118Y0313780I-000591J0000000D01*
G01*
G37*
G36*
G01*
X0281831Y0305098D02*
X0281831Y0303760D01*
G75*
G02*
X0281280Y0303209I-000551J0000000D01*
G01*
X0280178Y0303209D01*
G75*
G02*
X0279626Y0303760I0000000J0000551D01*
G01*
X0279626Y0305098D01*
G75*
G02*
X0280178Y0305650I0000551J0000000D01*
G01*
X0281280Y0305650D01*
G75*
G02*
X0281831Y0305098I0000000J-000551D01*
G01*
G37*
G36*
G01*
X0278052Y0305098D02*
X0278052Y0303760D01*
G75*
G02*
X0277500Y0303209I-000551J0000000D01*
G01*
X0276398Y0303209D01*
G75*
G02*
X0275847Y0303760I0000000J0000551D01*
G01*
X0275847Y0305098D01*
G75*
G02*
X0276398Y0305650I0000551J0000000D01*
G01*
X0277500Y0305650D01*
G75*
G02*
X0278052Y0305098I0000000J-000551D01*
G01*
G37*
G36*
G01*
X0304548Y0278583D02*
X0305886Y0278583D01*
G75*
G02*
X0306437Y0278032I0000000J-000551D01*
G01*
X0306437Y0276929D01*
G75*
G02*
X0305886Y0276378I-000551J0000000D01*
G01*
X0304548Y0276378D01*
G75*
G02*
X0303996Y0276929I0000000J0000551D01*
G01*
X0303996Y0278032D01*
G75*
G02*
X0304548Y0278583I0000551J0000000D01*
G01*
G37*
G36*
G01*
X0304548Y0274803D02*
X0305886Y0274803D01*
G75*
G02*
X0306437Y0274252I0000000J-000551D01*
G01*
X0306437Y0273150D01*
G75*
G02*
X0305886Y0272598I-000551J0000000D01*
G01*
X0304548Y0272598D01*
G75*
G02*
X0303996Y0273150I0000000J0000551D01*
G01*
X0303996Y0274252D01*
G75*
G02*
X0304548Y0274803I0000551J0000000D01*
G01*
G37*
G36*
G01*
X0309548Y0265236D02*
X0308209Y0265236D01*
G75*
G02*
X0307658Y0265787I0000000J0000551D01*
G01*
X0307658Y0266890D01*
G75*
G02*
X0308209Y0267441I0000551J0000000D01*
G01*
X0309548Y0267441D01*
G75*
G02*
X0310099Y0266890I0000000J-000551D01*
G01*
X0310099Y0265787D01*
G75*
G02*
X0309548Y0265236I-000551J0000000D01*
G01*
G37*
G36*
G01*
X0309548Y0269016D02*
X0308209Y0269016D01*
G75*
G02*
X0307658Y0269567I0000000J0000551D01*
G01*
X0307658Y0270669D01*
G75*
G02*
X0308209Y0271221I0000551J0000000D01*
G01*
X0309548Y0271221D01*
G75*
G02*
X0310099Y0270669I0000000J-000551D01*
G01*
X0310099Y0269567D01*
G75*
G02*
X0309548Y0269016I-000551J0000000D01*
G01*
G37*
G36*
G01*
X0300807Y0286988D02*
X0302146Y0286988D01*
G75*
G02*
X0302697Y0286437I0000000J-000551D01*
G01*
X0302697Y0285335D01*
G75*
G02*
X0302146Y0284783I-000551J0000000D01*
G01*
X0300807Y0284783D01*
G75*
G02*
X0300256Y0285335I0000000J0000551D01*
G01*
X0300256Y0286437D01*
G75*
G02*
X0300807Y0286988I0000551J0000000D01*
G01*
G37*
G36*
G01*
X0300807Y0283209D02*
X0302146Y0283209D01*
G75*
G02*
X0302697Y0282658I0000000J-000551D01*
G01*
X0302697Y0281555D01*
G75*
G02*
X0302146Y0281004I-000551J0000000D01*
G01*
X0300807Y0281004D01*
G75*
G02*
X0300256Y0281555I0000000J0000551D01*
G01*
X0300256Y0282658D01*
G75*
G02*
X0300807Y0283209I0000551J0000000D01*
G01*
G37*
G36*
G01*
X0305886Y0265433D02*
X0304548Y0265433D01*
G75*
G02*
X0303996Y0265984I0000000J0000551D01*
G01*
X0303996Y0267087D01*
G75*
G02*
X0304548Y0267638I0000551J0000000D01*
G01*
X0305886Y0267638D01*
G75*
G02*
X0306437Y0267087I0000000J-000551D01*
G01*
X0306437Y0265984D01*
G75*
G02*
X0305886Y0265433I-000551J0000000D01*
G01*
G37*
G36*
G01*
X0305886Y0269213D02*
X0304548Y0269213D01*
G75*
G02*
X0303996Y0269764I0000000J0000551D01*
G01*
X0303996Y0270866D01*
G75*
G02*
X0304548Y0271417I0000551J0000000D01*
G01*
X0305886Y0271417D01*
G75*
G02*
X0306437Y0270866I0000000J-000551D01*
G01*
X0306437Y0269764D01*
G75*
G02*
X0305886Y0269213I-000551J0000000D01*
G01*
G37*
G36*
G01*
X0284370Y0270709D02*
X0285709Y0270709D01*
G75*
G02*
X0286260Y0270158I0000000J-000551D01*
G01*
X0286260Y0269055D01*
G75*
G02*
X0285709Y0268504I-000551J0000000D01*
G01*
X0284370Y0268504D01*
G75*
G02*
X0283819Y0269055I0000000J0000551D01*
G01*
X0283819Y0270158D01*
G75*
G02*
X0284370Y0270709I0000551J0000000D01*
G01*
G37*
G36*
G01*
X0284370Y0266929D02*
X0285709Y0266929D01*
G75*
G02*
X0286260Y0266378I0000000J-000551D01*
G01*
X0286260Y0265276D01*
G75*
G02*
X0285709Y0264724I-000551J0000000D01*
G01*
X0284370Y0264724D01*
G75*
G02*
X0283819Y0265276I0000000J0000551D01*
G01*
X0283819Y0266378D01*
G75*
G02*
X0284370Y0266929I0000551J0000000D01*
G01*
G37*
G36*
G01*
X0276870Y0301218D02*
X0277658Y0301218D01*
G75*
G02*
X0278052Y0300824I0000000J-000394D01*
G01*
X0278052Y0295804D01*
G75*
G02*
X0277658Y0295411I-000394J0000000D01*
G01*
X0276870Y0295411D01*
G75*
G02*
X0276477Y0295804I0000000J0000394D01*
G01*
X0276477Y0300824D01*
G75*
G02*
X0276870Y0301218I0000394J0000000D01*
G01*
G37*
G36*
G01*
X0279430Y0301218D02*
X0280217Y0301218D01*
G75*
G02*
X0280611Y0300824I0000000J-000394D01*
G01*
X0280611Y0295804D01*
G75*
G02*
X0280217Y0295411I-000394J0000000D01*
G01*
X0279430Y0295411D01*
G75*
G02*
X0279036Y0295804I0000000J0000394D01*
G01*
X0279036Y0300824D01*
G75*
G02*
X0279430Y0301218I0000394J0000000D01*
G01*
G37*
G36*
G01*
X0281989Y0301218D02*
X0282776Y0301218D01*
G75*
G02*
X0283170Y0300824I0000000J-000394D01*
G01*
X0283170Y0295804D01*
G75*
G02*
X0282776Y0295411I-000394J0000000D01*
G01*
X0281989Y0295411D01*
G75*
G02*
X0281595Y0295804I0000000J0000394D01*
G01*
X0281595Y0300824D01*
G75*
G02*
X0281989Y0301218I0000394J0000000D01*
G01*
G37*
G36*
G01*
X0284548Y0301218D02*
X0285335Y0301218D01*
G75*
G02*
X0285729Y0300824I0000000J-000394D01*
G01*
X0285729Y0295804D01*
G75*
G02*
X0285335Y0295411I-000394J0000000D01*
G01*
X0284548Y0295411D01*
G75*
G02*
X0284154Y0295804I0000000J0000394D01*
G01*
X0284154Y0300824D01*
G75*
G02*
X0284548Y0301218I0000394J0000000D01*
G01*
G37*
G36*
G01*
X0287107Y0301218D02*
X0287894Y0301218D01*
G75*
G02*
X0288288Y0300824I0000000J-000394D01*
G01*
X0288288Y0295804D01*
G75*
G02*
X0287894Y0295411I-000394J0000000D01*
G01*
X0287107Y0295411D01*
G75*
G02*
X0286713Y0295804I0000000J0000394D01*
G01*
X0286713Y0300824D01*
G75*
G02*
X0287107Y0301218I0000394J0000000D01*
G01*
G37*
G36*
G01*
X0289666Y0301218D02*
X0290453Y0301218D01*
G75*
G02*
X0290847Y0300824I0000000J-000394D01*
G01*
X0290847Y0295804D01*
G75*
G02*
X0290453Y0295411I-000394J0000000D01*
G01*
X0289666Y0295411D01*
G75*
G02*
X0289272Y0295804I0000000J0000394D01*
G01*
X0289272Y0300824D01*
G75*
G02*
X0289666Y0301218I0000394J0000000D01*
G01*
G37*
G36*
G01*
X0292225Y0301218D02*
X0293012Y0301218D01*
G75*
G02*
X0293406Y0300824I0000000J-000394D01*
G01*
X0293406Y0295804D01*
G75*
G02*
X0293012Y0295411I-000394J0000000D01*
G01*
X0292225Y0295411D01*
G75*
G02*
X0291831Y0295804I0000000J0000394D01*
G01*
X0291831Y0300824D01*
G75*
G02*
X0292225Y0301218I0000394J0000000D01*
G01*
G37*
G36*
G01*
X0292225Y0278678D02*
X0293012Y0278678D01*
G75*
G02*
X0293406Y0278285I0000000J-000394D01*
G01*
X0293406Y0273265D01*
G75*
G02*
X0293012Y0272871I-000394J0000000D01*
G01*
X0292225Y0272871D01*
G75*
G02*
X0291831Y0273265I0000000J0000394D01*
G01*
X0291831Y0278285D01*
G75*
G02*
X0292225Y0278678I0000394J0000000D01*
G01*
G37*
G36*
G01*
X0289666Y0278678D02*
X0290453Y0278678D01*
G75*
G02*
X0290847Y0278285I0000000J-000394D01*
G01*
X0290847Y0273265D01*
G75*
G02*
X0290453Y0272871I-000394J0000000D01*
G01*
X0289666Y0272871D01*
G75*
G02*
X0289272Y0273265I0000000J0000394D01*
G01*
X0289272Y0278285D01*
G75*
G02*
X0289666Y0278678I0000394J0000000D01*
G01*
G37*
G36*
G01*
X0287107Y0278678D02*
X0287894Y0278678D01*
G75*
G02*
X0288288Y0278285I0000000J-000394D01*
G01*
X0288288Y0273265D01*
G75*
G02*
X0287894Y0272871I-000394J0000000D01*
G01*
X0287107Y0272871D01*
G75*
G02*
X0286713Y0273265I0000000J0000394D01*
G01*
X0286713Y0278285D01*
G75*
G02*
X0287107Y0278678I0000394J0000000D01*
G01*
G37*
G36*
G01*
X0284548Y0278678D02*
X0285335Y0278678D01*
G75*
G02*
X0285729Y0278285I0000000J-000394D01*
G01*
X0285729Y0273265D01*
G75*
G02*
X0285335Y0272871I-000394J0000000D01*
G01*
X0284548Y0272871D01*
G75*
G02*
X0284154Y0273265I0000000J0000394D01*
G01*
X0284154Y0278285D01*
G75*
G02*
X0284548Y0278678I0000394J0000000D01*
G01*
G37*
G36*
G01*
X0281989Y0278678D02*
X0282776Y0278678D01*
G75*
G02*
X0283170Y0278285I0000000J-000394D01*
G01*
X0283170Y0273265D01*
G75*
G02*
X0282776Y0272871I-000394J0000000D01*
G01*
X0281989Y0272871D01*
G75*
G02*
X0281595Y0273265I0000000J0000394D01*
G01*
X0281595Y0278285D01*
G75*
G02*
X0281989Y0278678I0000394J0000000D01*
G01*
G37*
G36*
G01*
X0279430Y0278678D02*
X0280217Y0278678D01*
G75*
G02*
X0280611Y0278285I0000000J-000394D01*
G01*
X0280611Y0273265D01*
G75*
G02*
X0280217Y0272871I-000394J0000000D01*
G01*
X0279430Y0272871D01*
G75*
G02*
X0279036Y0273265I0000000J0000394D01*
G01*
X0279036Y0278285D01*
G75*
G02*
X0279430Y0278678I0000394J0000000D01*
G01*
G37*
G36*
G01*
X0276870Y0278678D02*
X0277658Y0278678D01*
G75*
G02*
X0278052Y0278285I0000000J-000394D01*
G01*
X0278052Y0273265D01*
G75*
G02*
X0277658Y0272871I-000394J0000000D01*
G01*
X0276870Y0272871D01*
G75*
G02*
X0276477Y0273265I0000000J0000394D01*
G01*
X0276477Y0278285D01*
G75*
G02*
X0276870Y0278678I0000394J0000000D01*
G01*
G37*
G36*
G01*
X0284741Y0318861D02*
X0288284Y0318861D01*
G75*
G02*
X0289268Y0317877I0000000J-000984D01*
G01*
X0289268Y0315810D01*
G75*
G02*
X0288284Y0314826I-000984J0000000D01*
G01*
X0284741Y0314826D01*
G75*
G02*
X0283756Y0315810I0000000J0000984D01*
G01*
X0283756Y0317877D01*
G75*
G02*
X0284741Y0318861I0000984J0000000D01*
G01*
G37*
G36*
G01*
X0284741Y0311676D02*
X0288284Y0311676D01*
G75*
G02*
X0289268Y0310692I0000000J-000984D01*
G01*
X0289268Y0308625D01*
G75*
G02*
X0288284Y0307641I-000984J0000000D01*
G01*
X0284741Y0307641D01*
G75*
G02*
X0283756Y0308625I0000000J0000984D01*
G01*
X0283756Y0310692D01*
G75*
G02*
X0284741Y0311676I0000984J0000000D01*
G01*
G37*
G36*
G01*
X0298465Y0272618D02*
X0297008Y0272618D01*
G75*
G02*
X0296477Y0273150I0000000J0000531D01*
G01*
X0296477Y0274213D01*
G75*
G02*
X0297008Y0274744I0000531J0000000D01*
G01*
X0298465Y0274744D01*
G75*
G02*
X0298996Y0274213I0000000J-000531D01*
G01*
X0298996Y0273150D01*
G75*
G02*
X0298465Y0272618I-000531J0000000D01*
G01*
G37*
G36*
G01*
X0298465Y0276634D02*
X0297008Y0276634D01*
G75*
G02*
X0296477Y0277165I0000000J0000531D01*
G01*
X0296477Y0278228D01*
G75*
G02*
X0297008Y0278760I0000531J0000000D01*
G01*
X0298465Y0278760D01*
G75*
G02*
X0298996Y0278228I0000000J-000531D01*
G01*
X0298996Y0277165D01*
G75*
G02*
X0298465Y0276634I-000531J0000000D01*
G01*
G37*
G36*
G01*
X0309390Y0313051D02*
X0308052Y0313051D01*
G75*
G02*
X0307500Y0313602I0000000J0000551D01*
G01*
X0307500Y0314705D01*
G75*
G02*
X0308052Y0315256I0000551J0000000D01*
G01*
X0309390Y0315256D01*
G75*
G02*
X0309941Y0314705I0000000J-000551D01*
G01*
X0309941Y0313602D01*
G75*
G02*
X0309390Y0313051I-000551J0000000D01*
G01*
G37*
G36*
G01*
X0309390Y0316831D02*
X0308052Y0316831D01*
G75*
G02*
X0307500Y0317382I0000000J0000551D01*
G01*
X0307500Y0318484D01*
G75*
G02*
X0308052Y0319035I0000551J0000000D01*
G01*
X0309390Y0319035D01*
G75*
G02*
X0309941Y0318484I0000000J-000551D01*
G01*
X0309941Y0317382D01*
G75*
G02*
X0309390Y0316831I-000551J0000000D01*
G01*
G37*
G36*
G01*
X0302205Y0264941D02*
X0300748Y0264941D01*
G75*
G02*
X0300217Y0265472I0000000J0000531D01*
G01*
X0300217Y0266535D01*
G75*
G02*
X0300748Y0267067I0000531J0000000D01*
G01*
X0302205Y0267067D01*
G75*
G02*
X0302737Y0266535I0000000J-000531D01*
G01*
X0302737Y0265472D01*
G75*
G02*
X0302205Y0264941I-000531J0000000D01*
G01*
G37*
G36*
G01*
X0302205Y0268957D02*
X0300748Y0268957D01*
G75*
G02*
X0300217Y0269488I0000000J0000531D01*
G01*
X0300217Y0270551D01*
G75*
G02*
X0300748Y0271083I0000531J0000000D01*
G01*
X0302205Y0271083D01*
G75*
G02*
X0302737Y0270551I0000000J-000531D01*
G01*
X0302737Y0269488D01*
G75*
G02*
X0302205Y0268957I-000531J0000000D01*
G01*
G37*
G36*
G01*
X0298465Y0280874D02*
X0297009Y0280874D01*
G75*
G02*
X0296477Y0281406I0000000J0000531D01*
G01*
X0296477Y0282469D01*
G75*
G02*
X0297009Y0283000I0000531J0000000D01*
G01*
X0298465Y0283000D01*
G75*
G02*
X0298997Y0282469I0000000J-000531D01*
G01*
X0298997Y0281406D01*
G75*
G02*
X0298465Y0280874I-000531J0000000D01*
G01*
G37*
G36*
G01*
X0298465Y0284890D02*
X0297009Y0284890D01*
G75*
G02*
X0296477Y0285422I0000000J0000531D01*
G01*
X0296477Y0286485D01*
G75*
G02*
X0297009Y0287016I0000531J0000000D01*
G01*
X0298465Y0287016D01*
G75*
G02*
X0298997Y0286485I0000000J-000531D01*
G01*
X0298997Y0285422D01*
G75*
G02*
X0298465Y0284890I-000531J0000000D01*
G01*
G37*
G36*
G01*
X0280709Y0307641D02*
X0277166Y0307641D01*
G75*
G02*
X0276181Y0308625I0000000J0000984D01*
G01*
X0276181Y0310692D01*
G75*
G02*
X0277166Y0311676I0000984J0000000D01*
G01*
X0280709Y0311676D01*
G75*
G02*
X0281693Y0310692I0000000J-000984D01*
G01*
X0281693Y0308625D01*
G75*
G02*
X0280709Y0307641I-000984J0000000D01*
G01*
G37*
G36*
G01*
X0280709Y0314826D02*
X0277166Y0314826D01*
G75*
G02*
X0276181Y0315810I0000000J0000984D01*
G01*
X0276181Y0317877D01*
G75*
G02*
X0277166Y0318861I0000984J0000000D01*
G01*
X0280709Y0318861D01*
G75*
G02*
X0281693Y0317877I0000000J-000984D01*
G01*
X0281693Y0315810D01*
G75*
G02*
X0280709Y0314826I-000984J0000000D01*
G01*
G37*
G36*
G01*
X0309607Y0280925D02*
X0308150Y0280925D01*
G75*
G02*
X0307618Y0281457I0000000J0000531D01*
G01*
X0307618Y0282520D01*
G75*
G02*
X0308150Y0283051I0000531J0000000D01*
G01*
X0309607Y0283051D01*
G75*
G02*
X0310138Y0282520I0000000J-000531D01*
G01*
X0310138Y0281457D01*
G75*
G02*
X0309607Y0280925I-000531J0000000D01*
G01*
G37*
G36*
G01*
X0309607Y0284941D02*
X0308150Y0284941D01*
G75*
G02*
X0307618Y0285472I0000000J0000531D01*
G01*
X0307618Y0286535D01*
G75*
G02*
X0308150Y0287067I0000531J0000000D01*
G01*
X0309607Y0287067D01*
G75*
G02*
X0310138Y0286535I0000000J-000531D01*
G01*
X0310138Y0285472D01*
G75*
G02*
X0309607Y0284941I-000531J0000000D01*
G01*
G37*
G36*
G01*
X0276103Y0271240D02*
X0277559Y0271240D01*
G75*
G02*
X0278091Y0270709I0000000J-000531D01*
G01*
X0278091Y0269646D01*
G75*
G02*
X0277559Y0269114I-000531J0000000D01*
G01*
X0276103Y0269114D01*
G75*
G02*
X0275571Y0269646I0000000J0000531D01*
G01*
X0275571Y0270709D01*
G75*
G02*
X0276103Y0271240I0000531J0000000D01*
G01*
G37*
G36*
G01*
X0276103Y0267224D02*
X0277559Y0267224D01*
G75*
G02*
X0278091Y0266693I0000000J-000531D01*
G01*
X0278091Y0265630D01*
G75*
G02*
X0277559Y0265098I-000531J0000000D01*
G01*
X0276103Y0265098D01*
G75*
G02*
X0275571Y0265630I0000000J0000531D01*
G01*
X0275571Y0266693D01*
G75*
G02*
X0276103Y0267224I0000531J0000000D01*
G01*
G37*
G36*
G01*
X0288052Y0270787D02*
X0289508Y0270787D01*
G75*
G02*
X0290040Y0270256I0000000J-000531D01*
G01*
X0290040Y0269193D01*
G75*
G02*
X0289508Y0268661I-000531J0000000D01*
G01*
X0288052Y0268661D01*
G75*
G02*
X0287520Y0269193I0000000J0000531D01*
G01*
X0287520Y0270256D01*
G75*
G02*
X0288052Y0270787I0000531J0000000D01*
G01*
G37*
G36*
G01*
X0288052Y0266772D02*
X0289508Y0266772D01*
G75*
G02*
X0290040Y0266240I0000000J-000531D01*
G01*
X0290040Y0265177D01*
G75*
G02*
X0289508Y0264646I-000531J0000000D01*
G01*
X0288052Y0264646D01*
G75*
G02*
X0287520Y0265177I0000000J0000531D01*
G01*
X0287520Y0266240D01*
G75*
G02*
X0288052Y0266772I0000531J0000000D01*
G01*
G37*
G36*
G01*
X0302205Y0272323D02*
X0300748Y0272323D01*
G75*
G02*
X0300217Y0272854I0000000J0000531D01*
G01*
X0300217Y0273917D01*
G75*
G02*
X0300748Y0274449I0000531J0000000D01*
G01*
X0302205Y0274449D01*
G75*
G02*
X0302737Y0273917I0000000J-000531D01*
G01*
X0302737Y0272854D01*
G75*
G02*
X0302205Y0272323I-000531J0000000D01*
G01*
G37*
G36*
G01*
X0302205Y0276339D02*
X0300748Y0276339D01*
G75*
G02*
X0300217Y0276870I0000000J0000531D01*
G01*
X0300217Y0277933D01*
G75*
G02*
X0300748Y0278465I0000531J0000000D01*
G01*
X0302205Y0278465D01*
G75*
G02*
X0302737Y0277933I0000000J-000531D01*
G01*
X0302737Y0276870D01*
G75*
G02*
X0302205Y0276339I-000531J0000000D01*
G01*
G37*
G36*
G01*
X0293288Y0264626D02*
X0291949Y0264626D01*
G75*
G02*
X0291398Y0265177I0000000J0000551D01*
G01*
X0291398Y0266280D01*
G75*
G02*
X0291949Y0266831I0000551J0000000D01*
G01*
X0293288Y0266831D01*
G75*
G02*
X0293839Y0266280I0000000J-000551D01*
G01*
X0293839Y0265177D01*
G75*
G02*
X0293288Y0264626I-000551J0000000D01*
G01*
G37*
G36*
G01*
X0293288Y0268406D02*
X0291949Y0268406D01*
G75*
G02*
X0291398Y0268957I0000000J0000551D01*
G01*
X0291398Y0270059D01*
G75*
G02*
X0291949Y0270610I0000551J0000000D01*
G01*
X0293288Y0270610D01*
G75*
G02*
X0293839Y0270059I0000000J-000551D01*
G01*
X0293839Y0268957D01*
G75*
G02*
X0293288Y0268406I-000551J0000000D01*
G01*
G37*
G36*
G01*
X0283073Y0303774D02*
X0283073Y0305112D01*
G75*
G02*
X0283624Y0305664I0000551J0000000D01*
G01*
X0284726Y0305664D01*
G75*
G02*
X0285278Y0305112I0000000J-000551D01*
G01*
X0285278Y0303774D01*
G75*
G02*
X0284726Y0303223I-000551J0000000D01*
G01*
X0283624Y0303223D01*
G75*
G02*
X0283073Y0303774I0000000J0000551D01*
G01*
G37*
G36*
G01*
X0286852Y0303774D02*
X0286852Y0305112D01*
G75*
G02*
X0287403Y0305664I0000551J0000000D01*
G01*
X0288506Y0305664D01*
G75*
G02*
X0289057Y0305112I0000000J-000551D01*
G01*
X0289057Y0303774D01*
G75*
G02*
X0288506Y0303223I-000551J0000000D01*
G01*
X0287403Y0303223D01*
G75*
G02*
X0286852Y0303774I0000000J0000551D01*
G01*
G37*
G36*
G01*
X0297008Y0271280D02*
X0298465Y0271280D01*
G75*
G02*
X0298996Y0270748I0000000J-000531D01*
G01*
X0298996Y0269685D01*
G75*
G02*
X0298465Y0269154I-000531J0000000D01*
G01*
X0297008Y0269154D01*
G75*
G02*
X0296477Y0269685I0000000J0000531D01*
G01*
X0296477Y0270748D01*
G75*
G02*
X0297008Y0271280I0000531J0000000D01*
G01*
G37*
G36*
G01*
X0297008Y0267264D02*
X0298465Y0267264D01*
G75*
G02*
X0298996Y0266732I0000000J-000531D01*
G01*
X0298996Y0265669D01*
G75*
G02*
X0298465Y0265138I-000531J0000000D01*
G01*
X0297008Y0265138D01*
G75*
G02*
X0296477Y0265669I0000000J0000531D01*
G01*
X0296477Y0266732D01*
G75*
G02*
X0297008Y0267264I0000531J0000000D01*
G01*
G37*
G36*
G01*
X0308367Y0288681D02*
X0307185Y0288681D01*
G75*
G02*
X0306595Y0289272I0000000J0000591D01*
G01*
X0306595Y0293307D01*
G75*
G02*
X0307185Y0293898I0000591J0000000D01*
G01*
X0308367Y0293898D01*
G75*
G02*
X0308957Y0293307I0000000J-000591D01*
G01*
X0308957Y0289272D01*
G75*
G02*
X0308367Y0288681I-000591J0000000D01*
G01*
G37*
G36*
G01*
X0304626Y0288681D02*
X0303445Y0288681D01*
G75*
G02*
X0302855Y0289272I0000000J0000591D01*
G01*
X0302855Y0293307D01*
G75*
G02*
X0303445Y0293898I0000591J0000000D01*
G01*
X0304626Y0293898D01*
G75*
G02*
X0305217Y0293307I0000000J-000591D01*
G01*
X0305217Y0289272D01*
G75*
G02*
X0304626Y0288681I-000591J0000000D01*
G01*
G37*
G36*
G01*
X0300886Y0288681D02*
X0299705Y0288681D01*
G75*
G02*
X0299115Y0289272I0000000J0000591D01*
G01*
X0299115Y0293307D01*
G75*
G02*
X0299705Y0293898I0000591J0000000D01*
G01*
X0300886Y0293898D01*
G75*
G02*
X0301477Y0293307I0000000J-000591D01*
G01*
X0301477Y0289272D01*
G75*
G02*
X0300886Y0288681I-000591J0000000D01*
G01*
G37*
G36*
G01*
X0300886Y0297638D02*
X0299705Y0297638D01*
G75*
G02*
X0299115Y0298228I0000000J0000591D01*
G01*
X0299115Y0302264D01*
G75*
G02*
X0299705Y0302854I0000591J0000000D01*
G01*
X0300886Y0302854D01*
G75*
G02*
X0301477Y0302264I0000000J-000591D01*
G01*
X0301477Y0298228D01*
G75*
G02*
X0300886Y0297638I-000591J0000000D01*
G01*
G37*
G36*
G01*
X0308367Y0297638D02*
X0307185Y0297638D01*
G75*
G02*
X0306595Y0298228I0000000J0000591D01*
G01*
X0306595Y0302264D01*
G75*
G02*
X0307185Y0302854I0000591J0000000D01*
G01*
X0308367Y0302854D01*
G75*
G02*
X0308957Y0302264I0000000J-000591D01*
G01*
X0308957Y0298228D01*
G75*
G02*
X0308367Y0297638I-000591J0000000D01*
G01*
G37*
G36*
G01*
X0304548Y0286988D02*
X0305886Y0286988D01*
G75*
G02*
X0306437Y0286437I0000000J-000551D01*
G01*
X0306437Y0285335D01*
G75*
G02*
X0305886Y0284783I-000551J0000000D01*
G01*
X0304548Y0284783D01*
G75*
G02*
X0303996Y0285335I0000000J0000551D01*
G01*
X0303996Y0286437D01*
G75*
G02*
X0304548Y0286988I0000551J0000000D01*
G01*
G37*
G36*
G01*
X0304548Y0283209D02*
X0305886Y0283209D01*
G75*
G02*
X0306437Y0282658I0000000J-000551D01*
G01*
X0306437Y0281555D01*
G75*
G02*
X0305886Y0281004I-000551J0000000D01*
G01*
X0304548Y0281004D01*
G75*
G02*
X0303996Y0281555I0000000J0000551D01*
G01*
X0303996Y0282658D01*
G75*
G02*
X0304548Y0283209I0000551J0000000D01*
G01*
G37*
X0230906Y0321506D02*
%LPD*%
G01*
D10*
X0258071Y0263238D03*
X0253347Y0263238D03*
X0262796Y0263238D03*
X0267520Y0263238D03*
X0242087Y0320030D03*
X0238150Y0320030D03*
X0036909Y0014665D02*
G01*
G75*
D202*
X0066824Y0091043D02*
D03*
X0053832Y0091043D02*
D03*
D203*
X0086684Y0091437D02*
D03*
X0075267Y0091437D02*
D03*
X0086684Y0083405D02*
D03*
X0075267Y0083405D02*
D03*
D206*
X0049311Y0069389D02*
D03*
X0049311Y0073326D02*
D03*
X0045964Y0083956D02*
D03*
X0054626Y0083956D02*
D03*
X0045177Y0078708D02*
D03*
X0053838Y0078708D02*
D03*
D207*
X0057064Y0026082D02*
D03*
X0053520Y0026082D02*
D03*
X0066455Y0062815D02*
D03*
X0069999Y0062815D02*
D03*
X0058458Y0077920D02*
D03*
X0062001Y0077920D02*
D03*
X0065682Y0026082D02*
D03*
X0062139Y0026082D02*
D03*
X0045177Y0030019D02*
D03*
X0048720Y0030019D02*
D03*
D208*
X0070662Y0079495D02*
D03*
X0070662Y0083039D02*
D03*
X0049895Y0091897D02*
D03*
X0049895Y0088353D02*
D03*
X0098659Y0033580D02*
D03*
X0098659Y0037124D02*
D03*
D209*
X0102657Y0032775D02*
D03*
X0102657Y0028838D02*
D03*
D210*
X0039862Y0086318D02*
D03*
X0039862Y0019389D02*
D03*
X0039862Y0066830D02*
D03*
X0100885Y0066633D02*
D03*
X0100885Y0091830D02*
D03*
X0100885Y0042224D02*
D03*
X0100885Y0059153D02*
D03*
X0100885Y0017618D02*
D03*
X0039862Y0093602D02*
D03*
D217*
X0094783Y0092618D02*
D03*
X0094783Y0083956D02*
D03*
X0056867Y0030019D02*
D03*
X0052930Y0030019D02*
D03*
X0061548Y0030019D02*
D03*
X0065485Y0030019D02*
D03*
X0058261Y0083956D02*
D03*
X0062198Y0083956D02*
D03*
X0081194Y0062342D02*
D03*
X0085131Y0062342D02*
D03*
X0088970Y0024901D02*
D03*
X0085032Y0024901D02*
D03*
D218*
X0086122Y0070964D02*
D03*
X0075098Y0070964D02*
D03*
D219*
X0053444Y0066641D02*
D03*
X0053444Y0072861D02*
D03*
X0067538Y0066641D02*
D03*
X0067538Y0072861D02*
D03*
X0062847Y0066641D02*
D03*
X0062847Y0072861D02*
D03*
X0058155Y0066641D02*
D03*
X0058155Y0072861D02*
D03*
X0066357Y0078885D02*
D03*
X0066357Y0085106D02*
D03*
D220*
X0061981Y0036779D02*
D03*
X0056981Y0036779D02*
D03*
X0051981Y0036779D02*
D03*
X0046981Y0036779D02*
D03*
X0061981Y0059416D02*
D03*
X0056981Y0059416D02*
D03*
X0051981Y0059416D02*
D03*
X0046981Y0059416D02*
D03*
X0085048Y0031496D02*
D03*
X0080048Y0031496D02*
D03*
X0075048Y0031496D02*
D03*
X0070048Y0031496D02*
D03*
X0085048Y0054921D02*
D03*
X0080048Y0054921D02*
D03*
X0075048Y0054921D02*
D03*
X0070048Y0054921D02*
D03*
D221*
X0054481Y0048097D02*
D03*
D222*
X0077548Y0043208D02*
D03*
X0175394Y0321457D02*
G01*
G75*
D209*
X0185630Y0286024D02*
D03*
X0181890Y0286024D02*
D03*
X0178150Y0286024D02*
D03*
X0182087Y0320276D02*
D03*
X0185630Y0320276D02*
D03*
D412*
X0185630Y0293504D02*
D03*
X0185630Y0289567D02*
D03*
X0185630Y0304627D02*
D03*
X0185630Y0308564D02*
D03*
X0185630Y0312993D02*
D03*
X0185630Y0316930D02*
D03*
X0178347Y0293504D02*
D03*
X0178347Y0289567D02*
D03*
D413*
X0178150Y0296889D02*
D03*
X0181693Y0296889D02*
D03*
D414*
X0184863Y0300774D02*
D03*
X0178642Y0300774D02*
D03*
D415*
X0181693Y0313386D02*
D03*
X0181693Y0316929D02*
D03*
X0178150Y0305020D02*
D03*
X0178150Y0308563D02*
D03*
X0181751Y0290158D02*
D03*
X0181751Y0293701D02*
D03*
X0178150Y0316929D02*
D03*
X0178150Y0313386D02*
D03*
X0290600Y0053812D02*
G01*
G75*
D209*
X0259399Y0029403D02*
D03*
X0259104Y0043379D02*
D03*
X0260285Y0048399D02*
D03*
X0263730Y0046332D02*
D03*
X0373720Y0121161D02*
%LPD*%
G01*
D238*
X0362106Y0212342D03*
X0350295Y0204468D03*
X0362106Y0196594D03*
D106*
X0362893Y0125334D03*
X0366893Y0145334D03*
X0358893Y0145334D03*
D433*
X0324015Y0214822D03*
D434*
X0324015Y0204822D03*
X0324015Y0194822D03*
G36*
G01*
X0366361Y0200866D02*
X0365003Y0200866D01*
G75*
G02*
X0364422Y0201446I0000000J0000581D01*
G01*
X0364422Y0202608D01*
G75*
G02*
X0365003Y0203189I0000581J0000000D01*
G01*
X0366361Y0203189D01*
G75*
G02*
X0366942Y0202608I0000000J-000581D01*
G01*
X0366942Y0201446D01*
G75*
G02*
X0366361Y0200866I-000581J0000000D01*
G01*
G37*
G36*
G01*
X0366361Y0204685D02*
X0365003Y0204685D01*
G75*
G02*
X0364422Y0205265I0000000J0000581D01*
G01*
X0364422Y0206427D01*
G75*
G02*
X0365003Y0207007I0000581J0000000D01*
G01*
X0366361Y0207007D01*
G75*
G02*
X0366942Y0206427I0000000J-000581D01*
G01*
X0366942Y0205265D01*
G75*
G02*
X0366361Y0204685I-000581J0000000D01*
G01*
G37*
G36*
G01*
X0351072Y0215334D02*
X0349714Y0215334D01*
G75*
G02*
X0349133Y0215915I0000000J0000581D01*
G01*
X0349133Y0217076D01*
G75*
G02*
X0349714Y0217657I0000581J0000000D01*
G01*
X0351072Y0217657D01*
G75*
G02*
X0351653Y0217076I0000000J-000581D01*
G01*
X0351653Y0215915D01*
G75*
G02*
X0351072Y0215334I-000581J0000000D01*
G01*
G37*
G36*
G01*
X0351072Y0219153D02*
X0349714Y0219153D01*
G75*
G02*
X0349133Y0219734I0000000J0000581D01*
G01*
X0349133Y0220895D01*
G75*
G02*
X0349714Y0221476I0000581J0000000D01*
G01*
X0351072Y0221476D01*
G75*
G02*
X0351653Y0220895I0000000J-000581D01*
G01*
X0351653Y0219734D01*
G75*
G02*
X0351072Y0219153I-000581J0000000D01*
G01*
G37*
G36*
G01*
X0324876Y0165452D02*
X0326894Y0165452D01*
G75*
G02*
X0327755Y0164591I0000000J-000861D01*
G01*
X0327755Y0162869D01*
G75*
G02*
X0326894Y0162007I-000861J0000000D01*
G01*
X0324876Y0162007D01*
G75*
G02*
X0324015Y0162869I0000000J0000861D01*
G01*
X0324015Y0164591D01*
G75*
G02*
X0324876Y0165452I0000861J0000000D01*
G01*
G37*
G36*
G01*
X0324876Y0159252D02*
X0326894Y0159252D01*
G75*
G02*
X0327755Y0158390I0000000J-000861D01*
G01*
X0327755Y0156668D01*
G75*
G02*
X0326894Y0155807I-000861J0000000D01*
G01*
X0324876Y0155807D01*
G75*
G02*
X0324015Y0156668I0000000J0000861D01*
G01*
X0324015Y0158390D01*
G75*
G02*
X0324876Y0159252I0000861J0000000D01*
G01*
G37*
G36*
G01*
X0369202Y0207007D02*
X0370561Y0207007D01*
G75*
G02*
X0371141Y0206427I0000000J-000581D01*
G01*
X0371141Y0205265D01*
G75*
G02*
X0370561Y0204685I-000581J0000000D01*
G01*
X0369202Y0204685D01*
G75*
G02*
X0368622Y0205265I0000000J0000581D01*
G01*
X0368622Y0206427D01*
G75*
G02*
X0369202Y0207007I0000581J0000000D01*
G01*
G37*
G36*
G01*
X0369202Y0203189D02*
X0370561Y0203189D01*
G75*
G02*
X0371141Y0202608I0000000J-000581D01*
G01*
X0371141Y0201446D01*
G75*
G02*
X0370561Y0200866I-000581J0000000D01*
G01*
X0369202Y0200866D01*
G75*
G02*
X0368622Y0201446I0000000J0000581D01*
G01*
X0368622Y0202608D01*
G75*
G02*
X0369202Y0203189I0000581J0000000D01*
G01*
G37*
G36*
G01*
X0330206Y0147306D02*
X0328848Y0147306D01*
G75*
G02*
X0328267Y0147886I0000000J0000581D01*
G01*
X0328267Y0149048D01*
G75*
G02*
X0328848Y0149628I0000581J0000000D01*
G01*
X0330206Y0149628D01*
G75*
G02*
X0330787Y0149048I0000000J-000581D01*
G01*
X0330787Y0147886D01*
G75*
G02*
X0330206Y0147306I-000581J0000000D01*
G01*
G37*
G36*
G01*
X0330206Y0151124D02*
X0328848Y0151124D01*
G75*
G02*
X0328267Y0151705I0000000J0000581D01*
G01*
X0328267Y0152867D01*
G75*
G02*
X0328848Y0153447I0000581J0000000D01*
G01*
X0330206Y0153447D01*
G75*
G02*
X0330787Y0152867I0000000J-000581D01*
G01*
X0330787Y0151705D01*
G75*
G02*
X0330206Y0151124I-000581J0000000D01*
G01*
G37*
G36*
G01*
X0332076Y0155393D02*
X0330718Y0155393D01*
G75*
G02*
X0330137Y0155974I0000000J0000581D01*
G01*
X0330137Y0157135D01*
G75*
G02*
X0330718Y0157716I0000581J0000000D01*
G01*
X0332076Y0157716D01*
G75*
G02*
X0332657Y0157135I0000000J-000581D01*
G01*
X0332657Y0155974D01*
G75*
G02*
X0332076Y0155393I-000581J0000000D01*
G01*
G37*
G36*
G01*
X0332076Y0159212D02*
X0330718Y0159212D01*
G75*
G02*
X0330137Y0159793I0000000J0000581D01*
G01*
X0330137Y0160954D01*
G75*
G02*
X0330718Y0161535I0000581J0000000D01*
G01*
X0332076Y0161535D01*
G75*
G02*
X0332657Y0160954I0000000J-000581D01*
G01*
X0332657Y0159793D01*
G75*
G02*
X0332076Y0159212I-000581J0000000D01*
G01*
G37*
G36*
G01*
X0324744Y0126781D02*
X0324744Y0128139D01*
G75*
G02*
X0325324Y0128720I0000581J0000000D01*
G01*
X0326486Y0128720D01*
G75*
G02*
X0327066Y0128139I0000000J-000581D01*
G01*
X0327066Y0126781D01*
G75*
G02*
X0326486Y0126200I-000581J0000000D01*
G01*
X0325324Y0126200D01*
G75*
G02*
X0324744Y0126781I0000000J0000581D01*
G01*
G37*
G36*
G01*
X0328563Y0126781D02*
X0328563Y0128139D01*
G75*
G02*
X0329143Y0128720I0000581J0000000D01*
G01*
X0330305Y0128720D01*
G75*
G02*
X0330885Y0128139I0000000J-000581D01*
G01*
X0330885Y0126781D01*
G75*
G02*
X0330305Y0126200I-000581J0000000D01*
G01*
X0329143Y0126200D01*
G75*
G02*
X0328563Y0126781I0000000J0000581D01*
G01*
G37*
G36*
G01*
X0342332Y0176299D02*
X0343690Y0176299D01*
G75*
G02*
X0344271Y0175718I0000000J-000581D01*
G01*
X0344271Y0174557D01*
G75*
G02*
X0343690Y0173976I-000581J0000000D01*
G01*
X0342332Y0173976D01*
G75*
G02*
X0341751Y0174557I0000000J0000581D01*
G01*
X0341751Y0175718D01*
G75*
G02*
X0342332Y0176299I0000581J0000000D01*
G01*
G37*
G36*
G01*
X0342332Y0172480D02*
X0343690Y0172480D01*
G75*
G02*
X0344271Y0171899I0000000J-000581D01*
G01*
X0344271Y0170738D01*
G75*
G02*
X0343690Y0170157I-000581J0000000D01*
G01*
X0342332Y0170157D01*
G75*
G02*
X0341751Y0170738I0000000J0000581D01*
G01*
X0341751Y0171899D01*
G75*
G02*
X0342332Y0172480I0000581J0000000D01*
G01*
G37*
G36*
G01*
X0347627Y0170157D02*
X0346269Y0170157D01*
G75*
G02*
X0345689Y0170738I0000000J0000581D01*
G01*
X0345689Y0171899D01*
G75*
G02*
X0346269Y0172480I0000581J0000000D01*
G01*
X0347627Y0172480D01*
G75*
G02*
X0348208Y0171899I0000000J-000581D01*
G01*
X0348208Y0170738D01*
G75*
G02*
X0347627Y0170157I-000581J0000000D01*
G01*
G37*
G36*
G01*
X0347627Y0173976D02*
X0346269Y0173976D01*
G75*
G02*
X0345689Y0174557I0000000J0000581D01*
G01*
X0345689Y0175718D01*
G75*
G02*
X0346269Y0176299I0000581J0000000D01*
G01*
X0347627Y0176299D01*
G75*
G02*
X0348208Y0175718I0000000J-000581D01*
G01*
X0348208Y0174557D01*
G75*
G02*
X0347627Y0173976I-000581J0000000D01*
G01*
G37*
G36*
G01*
X0345187Y0217637D02*
X0346545Y0217637D01*
G75*
G02*
X0347126Y0217057I0000000J-000581D01*
G01*
X0347126Y0215895D01*
G75*
G02*
X0346545Y0215315I-000581J0000000D01*
G01*
X0345187Y0215315D01*
G75*
G02*
X0344606Y0215895I0000000J0000581D01*
G01*
X0344606Y0217057D01*
G75*
G02*
X0345187Y0217637I0000581J0000000D01*
G01*
G37*
G36*
G01*
X0345187Y0213818D02*
X0346545Y0213818D01*
G75*
G02*
X0347126Y0213238I0000000J-000581D01*
G01*
X0347126Y0212076D01*
G75*
G02*
X0346545Y0211496I-000581J0000000D01*
G01*
X0345187Y0211496D01*
G75*
G02*
X0344606Y0212076I0000000J0000581D01*
G01*
X0344606Y0213238D01*
G75*
G02*
X0345187Y0213818I0000581J0000000D01*
G01*
G37*
D436*
X0368602Y0163287D03*
X0366043Y0163287D03*
X0363484Y0163287D03*
X0360925Y0163287D03*
X0358366Y0163287D03*
X0355807Y0163287D03*
X0353248Y0163287D03*
X0353248Y0186515D03*
X0355807Y0186515D03*
X0358366Y0186515D03*
X0360925Y0186515D03*
X0363484Y0186515D03*
X0366043Y0186515D03*
X0368602Y0186515D03*
G36*
G01*
X0325108Y0153464D02*
X0326466Y0153464D01*
G75*
G02*
X0327047Y0152883I0000000J-000581D01*
G01*
X0327047Y0151722D01*
G75*
G02*
X0326466Y0151141I-000581J0000000D01*
G01*
X0325108Y0151141D01*
G75*
G02*
X0324527Y0151722I0000000J0000581D01*
G01*
X0324527Y0152883D01*
G75*
G02*
X0325108Y0153464I0000581J0000000D01*
G01*
G37*
G36*
G01*
X0325108Y0149645D02*
X0326466Y0149645D01*
G75*
G02*
X0327047Y0149065I0000000J-000581D01*
G01*
X0327047Y0147903D01*
G75*
G02*
X0326466Y0147322I-000581J0000000D01*
G01*
X0325108Y0147322D01*
G75*
G02*
X0324527Y0147903I0000000J0000581D01*
G01*
X0324527Y0149065D01*
G75*
G02*
X0325108Y0149645I0000581J0000000D01*
G01*
G37*
G36*
G01*
X0322726Y0147322D02*
X0321368Y0147322D01*
G75*
G02*
X0320787Y0147903I0000000J0000581D01*
G01*
X0320787Y0149065D01*
G75*
G02*
X0321368Y0149645I0000581J0000000D01*
G01*
X0322726Y0149645D01*
G75*
G02*
X0323307Y0149065I0000000J-000581D01*
G01*
X0323307Y0147903D01*
G75*
G02*
X0322726Y0147322I-000581J0000000D01*
G01*
G37*
G36*
G01*
X0322726Y0151141D02*
X0321368Y0151141D01*
G75*
G02*
X0320787Y0151722I0000000J0000581D01*
G01*
X0320787Y0152883D01*
G75*
G02*
X0321368Y0153464I0000581J0000000D01*
G01*
X0322726Y0153464D01*
G75*
G02*
X0323307Y0152883I0000000J-000581D01*
G01*
X0323307Y0151722D01*
G75*
G02*
X0322726Y0151141I-000581J0000000D01*
G01*
G37*
G36*
G01*
X0332175Y0207559D02*
X0330816Y0207559D01*
G75*
G02*
X0330236Y0208139I0000000J0000581D01*
G01*
X0330236Y0209301D01*
G75*
G02*
X0330816Y0209881I0000581J0000000D01*
G01*
X0332175Y0209881D01*
G75*
G02*
X0332755Y0209301I0000000J-000581D01*
G01*
X0332755Y0208139D01*
G75*
G02*
X0332175Y0207559I-000581J0000000D01*
G01*
G37*
G36*
G01*
X0332175Y0211378D02*
X0330816Y0211378D01*
G75*
G02*
X0330236Y0211958I0000000J0000581D01*
G01*
X0330236Y0213120D01*
G75*
G02*
X0330816Y0213700I0000581J0000000D01*
G01*
X0332175Y0213700D01*
G75*
G02*
X0332755Y0213120I0000000J-000581D01*
G01*
X0332755Y0211958D01*
G75*
G02*
X0332175Y0211378I-000581J0000000D01*
G01*
G37*
G36*
G01*
X0361473Y0200866D02*
X0360114Y0200866D01*
G75*
G02*
X0359534Y0201446I0000000J0000581D01*
G01*
X0359534Y0202608D01*
G75*
G02*
X0360114Y0203189I0000581J0000000D01*
G01*
X0361473Y0203189D01*
G75*
G02*
X0362053Y0202608I0000000J-000581D01*
G01*
X0362053Y0201446D01*
G75*
G02*
X0361473Y0200866I-000581J0000000D01*
G01*
G37*
G36*
G01*
X0361473Y0204685D02*
X0360114Y0204685D01*
G75*
G02*
X0359534Y0205265I0000000J0000581D01*
G01*
X0359534Y0206427D01*
G75*
G02*
X0360114Y0207007I0000581J0000000D01*
G01*
X0361473Y0207007D01*
G75*
G02*
X0362053Y0206427I0000000J-000581D01*
G01*
X0362053Y0205265D01*
G75*
G02*
X0361473Y0204685I-000581J0000000D01*
G01*
G37*
G36*
G01*
X0338395Y0173051D02*
X0339753Y0173051D01*
G75*
G02*
X0340334Y0172470I0000000J-000581D01*
G01*
X0340334Y0171309D01*
G75*
G02*
X0339753Y0170728I-000581J0000000D01*
G01*
X0338395Y0170728D01*
G75*
G02*
X0337814Y0171309I0000000J0000581D01*
G01*
X0337814Y0172470D01*
G75*
G02*
X0338395Y0173051I0000581J0000000D01*
G01*
G37*
G36*
G01*
X0338395Y0169232D02*
X0339753Y0169232D01*
G75*
G02*
X0340334Y0168651I0000000J-000581D01*
G01*
X0340334Y0167490D01*
G75*
G02*
X0339753Y0166909I-000581J0000000D01*
G01*
X0338395Y0166909D01*
G75*
G02*
X0337814Y0167490I0000000J0000581D01*
G01*
X0337814Y0168651D01*
G75*
G02*
X0338395Y0169232I0000581J0000000D01*
G01*
G37*
G36*
G01*
X0330816Y0221378D02*
X0332175Y0221378D01*
G75*
G02*
X0332755Y0220797I0000000J-000581D01*
G01*
X0332755Y0219635D01*
G75*
G02*
X0332175Y0219055I-000581J0000000D01*
G01*
X0330816Y0219055D01*
G75*
G02*
X0330236Y0219635I0000000J0000581D01*
G01*
X0330236Y0220797D01*
G75*
G02*
X0330816Y0221378I0000581J0000000D01*
G01*
G37*
G36*
G01*
X0330816Y0217559D02*
X0332175Y0217559D01*
G75*
G02*
X0332755Y0216978I0000000J-000581D01*
G01*
X0332755Y0215817D01*
G75*
G02*
X0332175Y0215236I-000581J0000000D01*
G01*
X0330816Y0215236D01*
G75*
G02*
X0330236Y0215817I0000000J0000581D01*
G01*
X0330236Y0216978D01*
G75*
G02*
X0330816Y0217559I0000581J0000000D01*
G01*
G37*
G36*
G01*
X0346269Y0168917D02*
X0347627Y0168917D01*
G75*
G02*
X0348208Y0168336I0000000J-000581D01*
G01*
X0348208Y0167175D01*
G75*
G02*
X0347627Y0166594I-000581J0000000D01*
G01*
X0346269Y0166594D01*
G75*
G02*
X0345689Y0167175I0000000J0000581D01*
G01*
X0345689Y0168336D01*
G75*
G02*
X0346269Y0168917I0000581J0000000D01*
G01*
G37*
G36*
G01*
X0346269Y0165098D02*
X0347627Y0165098D01*
G75*
G02*
X0348208Y0164517I0000000J-000581D01*
G01*
X0348208Y0163356D01*
G75*
G02*
X0347627Y0162775I-000581J0000000D01*
G01*
X0346269Y0162775D01*
G75*
G02*
X0345689Y0163356I0000000J0000581D01*
G01*
X0345689Y0164517D01*
G75*
G02*
X0346269Y0165098I0000581J0000000D01*
G01*
G37*
G36*
G01*
X0370885Y0157667D02*
X0370885Y0156309D01*
G75*
G02*
X0370305Y0155728I-000581J0000000D01*
G01*
X0369143Y0155728D01*
G75*
G02*
X0368563Y0156309I0000000J0000581D01*
G01*
X0368563Y0157667D01*
G75*
G02*
X0369143Y0158248I0000581J0000000D01*
G01*
X0370305Y0158248D01*
G75*
G02*
X0370885Y0157667I0000000J-000581D01*
G01*
G37*
G36*
G01*
X0367066Y0157667D02*
X0367066Y0156309D01*
G75*
G02*
X0366486Y0155728I-000581J0000000D01*
G01*
X0365324Y0155728D01*
G75*
G02*
X0364744Y0156309I0000000J0000581D01*
G01*
X0364744Y0157667D01*
G75*
G02*
X0365324Y0158248I0000581J0000000D01*
G01*
X0366486Y0158248D01*
G75*
G02*
X0367066Y0157667I0000000J-000581D01*
G01*
G37*
G36*
G01*
X0342332Y0183779D02*
X0343690Y0183779D01*
G75*
G02*
X0344271Y0183198I0000000J-000581D01*
G01*
X0344271Y0182037D01*
G75*
G02*
X0343690Y0181456I-000581J0000000D01*
G01*
X0342332Y0181456D01*
G75*
G02*
X0341751Y0182037I0000000J0000581D01*
G01*
X0341751Y0183198D01*
G75*
G02*
X0342332Y0183779I0000581J0000000D01*
G01*
G37*
G36*
G01*
X0342332Y0179960D02*
X0343690Y0179960D01*
G75*
G02*
X0344271Y0179380I0000000J-000581D01*
G01*
X0344271Y0178218D01*
G75*
G02*
X0343690Y0177637I-000581J0000000D01*
G01*
X0342332Y0177637D01*
G75*
G02*
X0341751Y0178218I0000000J0000581D01*
G01*
X0341751Y0179380D01*
G75*
G02*
X0342332Y0179960I0000581J0000000D01*
G01*
G37*
G36*
G01*
X0343690Y0185118D02*
X0342332Y0185118D01*
G75*
G02*
X0341751Y0185698I0000000J0000581D01*
G01*
X0341751Y0186860D01*
G75*
G02*
X0342332Y0187441I0000581J0000000D01*
G01*
X0343690Y0187441D01*
G75*
G02*
X0344271Y0186860I0000000J-000581D01*
G01*
X0344271Y0185698D01*
G75*
G02*
X0343690Y0185118I-000581J0000000D01*
G01*
G37*
G36*
G01*
X0343690Y0188937D02*
X0342332Y0188937D01*
G75*
G02*
X0341751Y0189517I0000000J0000581D01*
G01*
X0341751Y0190679D01*
G75*
G02*
X0342332Y0191259I0000581J0000000D01*
G01*
X0343690Y0191259D01*
G75*
G02*
X0344271Y0190679I0000000J-000581D01*
G01*
X0344271Y0189517D01*
G75*
G02*
X0343690Y0188937I-000581J0000000D01*
G01*
G37*
G36*
G01*
X0370885Y0153927D02*
X0370885Y0152568D01*
G75*
G02*
X0370305Y0151988I-000581J0000000D01*
G01*
X0369143Y0151988D01*
G75*
G02*
X0368563Y0152568I0000000J0000581D01*
G01*
X0368563Y0153927D01*
G75*
G02*
X0369143Y0154507I0000581J0000000D01*
G01*
X0370305Y0154507D01*
G75*
G02*
X0370885Y0153927I0000000J-000581D01*
G01*
G37*
G36*
G01*
X0367066Y0153927D02*
X0367066Y0152568D01*
G75*
G02*
X0366486Y0151988I-000581J0000000D01*
G01*
X0365324Y0151988D01*
G75*
G02*
X0364744Y0152568I0000000J0000581D01*
G01*
X0364744Y0153927D01*
G75*
G02*
X0365324Y0154507I0000581J0000000D01*
G01*
X0366486Y0154507D01*
G75*
G02*
X0367066Y0153927I0000000J-000581D01*
G01*
G37*
D437*
X0322047Y0143248D03*
X0325787Y0143248D03*
X0329527Y0143248D03*
X0329527Y0132933D03*
X0322047Y0132933D03*
G36*
G01*
X0339753Y0177736D02*
X0338395Y0177736D01*
G75*
G02*
X0337814Y0178317I0000000J0000581D01*
G01*
X0337814Y0179478D01*
G75*
G02*
X0338395Y0180059I0000581J0000000D01*
G01*
X0339753Y0180059D01*
G75*
G02*
X0340334Y0179478I0000000J-000581D01*
G01*
X0340334Y0178317D01*
G75*
G02*
X0339753Y0177736I-000581J0000000D01*
G01*
G37*
G36*
G01*
X0339753Y0181555D02*
X0338395Y0181555D01*
G75*
G02*
X0337814Y0182135I0000000J0000581D01*
G01*
X0337814Y0183297D01*
G75*
G02*
X0338395Y0183878I0000581J0000000D01*
G01*
X0339753Y0183878D01*
G75*
G02*
X0340334Y0183297I0000000J-000581D01*
G01*
X0340334Y0182135D01*
G75*
G02*
X0339753Y0181555I-000581J0000000D01*
G01*
G37*
G36*
G01*
X0335649Y0165147D02*
X0335649Y0163789D01*
G75*
G02*
X0335068Y0163208I-000581J0000000D01*
G01*
X0333907Y0163208D01*
G75*
G02*
X0333326Y0163789I0000000J0000581D01*
G01*
X0333326Y0165147D01*
G75*
G02*
X0333907Y0165728I0000581J0000000D01*
G01*
X0335068Y0165728D01*
G75*
G02*
X0335649Y0165147I0000000J-000581D01*
G01*
G37*
G36*
G01*
X0331830Y0165147D02*
X0331830Y0163789D01*
G75*
G02*
X0331250Y0163208I-000581J0000000D01*
G01*
X0330088Y0163208D01*
G75*
G02*
X0329507Y0163789I0000000J0000581D01*
G01*
X0329507Y0165147D01*
G75*
G02*
X0330088Y0165728I0000581J0000000D01*
G01*
X0331250Y0165728D01*
G75*
G02*
X0331830Y0165147I0000000J-000581D01*
G01*
G37*
G36*
G01*
X0356082Y0156309D02*
X0356082Y0157667D01*
G75*
G02*
X0356663Y0158248I0000581J0000000D01*
G01*
X0357824Y0158248D01*
G75*
G02*
X0358405Y0157667I0000000J-000581D01*
G01*
X0358405Y0156309D01*
G75*
G02*
X0357824Y0155728I-000581J0000000D01*
G01*
X0356663Y0155728D01*
G75*
G02*
X0356082Y0156309I0000000J0000581D01*
G01*
G37*
G36*
G01*
X0359901Y0156309D02*
X0359901Y0157667D01*
G75*
G02*
X0360482Y0158248I0000581J0000000D01*
G01*
X0361643Y0158248D01*
G75*
G02*
X0362224Y0157667I0000000J-000581D01*
G01*
X0362224Y0156309D01*
G75*
G02*
X0361643Y0155728I-000581J0000000D01*
G01*
X0360482Y0155728D01*
G75*
G02*
X0359901Y0156309I0000000J0000581D01*
G01*
G37*
G36*
G01*
X0355127Y0199429D02*
X0356486Y0199429D01*
G75*
G02*
X0357066Y0198848I0000000J-000581D01*
G01*
X0357066Y0197687D01*
G75*
G02*
X0356486Y0197106I-000581J0000000D01*
G01*
X0355127Y0197106D01*
G75*
G02*
X0354547Y0197687I0000000J0000581D01*
G01*
X0354547Y0198848D01*
G75*
G02*
X0355127Y0199429I0000581J0000000D01*
G01*
G37*
G36*
G01*
X0355127Y0195610D02*
X0356486Y0195610D01*
G75*
G02*
X0357066Y0195029I0000000J-000581D01*
G01*
X0357066Y0193868D01*
G75*
G02*
X0356486Y0193287I-000581J0000000D01*
G01*
X0355127Y0193287D01*
G75*
G02*
X0354547Y0193868I0000000J0000581D01*
G01*
X0354547Y0195029D01*
G75*
G02*
X0355127Y0195610I0000581J0000000D01*
G01*
G37*
G36*
G01*
X0355127Y0207007D02*
X0356486Y0207007D01*
G75*
G02*
X0357066Y0206427I0000000J-000581D01*
G01*
X0357066Y0205265D01*
G75*
G02*
X0356486Y0204685I-000581J0000000D01*
G01*
X0355127Y0204685D01*
G75*
G02*
X0354547Y0205265I0000000J0000581D01*
G01*
X0354547Y0206427D01*
G75*
G02*
X0355127Y0207007I0000581J0000000D01*
G01*
G37*
G36*
G01*
X0355127Y0203189D02*
X0356486Y0203189D01*
G75*
G02*
X0357066Y0202608I0000000J-000581D01*
G01*
X0357066Y0201446D01*
G75*
G02*
X0356486Y0200866I-000581J0000000D01*
G01*
X0355127Y0200866D01*
G75*
G02*
X0354547Y0201446I0000000J0000581D01*
G01*
X0354547Y0202608D01*
G75*
G02*
X0355127Y0203189I0000581J0000000D01*
G01*
G37*
G36*
G01*
X0356082Y0152568D02*
X0356082Y0153927D01*
G75*
G02*
X0356663Y0154507I0000581J0000000D01*
G01*
X0357824Y0154507D01*
G75*
G02*
X0358405Y0153927I0000000J-000581D01*
G01*
X0358405Y0152568D01*
G75*
G02*
X0357824Y0151988I-000581J0000000D01*
G01*
X0356663Y0151988D01*
G75*
G02*
X0356082Y0152568I0000000J0000581D01*
G01*
G37*
G36*
G01*
X0359901Y0152568D02*
X0359901Y0153927D01*
G75*
G02*
X0360482Y0154507I0000581J0000000D01*
G01*
X0361643Y0154507D01*
G75*
G02*
X0362224Y0153927I0000000J-000581D01*
G01*
X0362224Y0152568D01*
G75*
G02*
X0361643Y0151988I-000581J0000000D01*
G01*
X0360482Y0151988D01*
G75*
G02*
X0359901Y0152568I0000000J0000581D01*
G01*
G37*
G36*
G01*
X0346269Y0186929D02*
X0347627Y0186929D01*
G75*
G02*
X0348208Y0186348I0000000J-000581D01*
G01*
X0348208Y0185187D01*
G75*
G02*
X0347627Y0184606I-000581J0000000D01*
G01*
X0346269Y0184606D01*
G75*
G02*
X0345689Y0185187I0000000J0000581D01*
G01*
X0345689Y0186348D01*
G75*
G02*
X0346269Y0186929I0000581J0000000D01*
G01*
G37*
G36*
G01*
X0346269Y0183110D02*
X0347627Y0183110D01*
G75*
G02*
X0348208Y0182529I0000000J-000581D01*
G01*
X0348208Y0181368D01*
G75*
G02*
X0347627Y0180787I-000581J0000000D01*
G01*
X0346269Y0180787D01*
G75*
G02*
X0345689Y0181368I0000000J0000581D01*
G01*
X0345689Y0182529D01*
G75*
G02*
X0346269Y0183110I0000581J0000000D01*
G01*
G37*
G36*
G01*
X0356082Y0148828D02*
X0356082Y0150187D01*
G75*
G02*
X0356663Y0150767I0000581J0000000D01*
G01*
X0357824Y0150767D01*
G75*
G02*
X0358405Y0150187I0000000J-000581D01*
G01*
X0358405Y0148828D01*
G75*
G02*
X0357824Y0148248I-000581J0000000D01*
G01*
X0356663Y0148248D01*
G75*
G02*
X0356082Y0148828I0000000J0000581D01*
G01*
G37*
G36*
G01*
X0359901Y0148828D02*
X0359901Y0150187D01*
G75*
G02*
X0360482Y0150767I0000581J0000000D01*
G01*
X0361643Y0150767D01*
G75*
G02*
X0362224Y0150187I0000000J-000581D01*
G01*
X0362224Y0148828D01*
G75*
G02*
X0361643Y0148248I-000581J0000000D01*
G01*
X0360482Y0148248D01*
G75*
G02*
X0359901Y0148828I0000000J0000581D01*
G01*
G37*
G36*
G01*
X0364744Y0148828D02*
X0364744Y0150187D01*
G75*
G02*
X0365324Y0150767I0000581J0000000D01*
G01*
X0366486Y0150767D01*
G75*
G02*
X0367066Y0150187I0000000J-000581D01*
G01*
X0367066Y0148828D01*
G75*
G02*
X0366486Y0148248I-000581J0000000D01*
G01*
X0365324Y0148248D01*
G75*
G02*
X0364744Y0148828I0000000J0000581D01*
G01*
G37*
G36*
G01*
X0368563Y0148828D02*
X0368563Y0150187D01*
G75*
G02*
X0369143Y0150767I0000581J0000000D01*
G01*
X0370305Y0150767D01*
G75*
G02*
X0370885Y0150187I0000000J-000581D01*
G01*
X0370885Y0148828D01*
G75*
G02*
X0370305Y0148248I-000581J0000000D01*
G01*
X0369143Y0148248D01*
G75*
G02*
X0368563Y0148828I0000000J0000581D01*
G01*
G37*
G36*
G01*
X0358937Y0134015D02*
X0357598Y0134015D01*
G75*
G02*
X0357047Y0134566I0000000J0000551D01*
G01*
X0357047Y0135669D01*
G75*
G02*
X0357598Y0136220I0000551J0000000D01*
G01*
X0358937Y0136220D01*
G75*
G02*
X0359488Y0135669I0000000J-000551D01*
G01*
X0359488Y0134566D01*
G75*
G02*
X0358937Y0134015I-000551J0000000D01*
G01*
G37*
G36*
G01*
X0358937Y0137795D02*
X0357598Y0137795D01*
G75*
G02*
X0357047Y0138346I0000000J0000551D01*
G01*
X0357047Y0139448D01*
G75*
G02*
X0357598Y0139999I0000551J0000000D01*
G01*
X0358937Y0139999D01*
G75*
G02*
X0359488Y0139448I0000000J-000551D01*
G01*
X0359488Y0138346D01*
G75*
G02*
X0358937Y0137795I-000551J0000000D01*
G01*
G37*
G36*
G01*
X0332677Y0188956D02*
X0334133Y0188956D01*
G75*
G02*
X0334665Y0188425I0000000J-000531D01*
G01*
X0334665Y0187362D01*
G75*
G02*
X0334133Y0186830I-000531J0000000D01*
G01*
X0332677Y0186830D01*
G75*
G02*
X0332145Y0187362I0000000J0000531D01*
G01*
X0332145Y0188425D01*
G75*
G02*
X0332677Y0188956I0000531J0000000D01*
G01*
G37*
G36*
G01*
X0332677Y0184941D02*
X0334133Y0184941D01*
G75*
G02*
X0334665Y0184409I0000000J-000531D01*
G01*
X0334665Y0183346D01*
G75*
G02*
X0334133Y0182815I-000531J0000000D01*
G01*
X0332677Y0182815D01*
G75*
G02*
X0332145Y0183346I0000000J0000531D01*
G01*
X0332145Y0184409D01*
G75*
G02*
X0332677Y0184941I0000531J0000000D01*
G01*
G37*
G36*
G01*
X0347210Y0128228D02*
X0347210Y0126771D01*
G75*
G02*
X0346678Y0126240I-000531J0000000D01*
G01*
X0345615Y0126240D01*
G75*
G02*
X0345084Y0126771I0000000J0000531D01*
G01*
X0345084Y0128228D01*
G75*
G02*
X0345615Y0128759I0000531J0000000D01*
G01*
X0346678Y0128759D01*
G75*
G02*
X0347210Y0128228I0000000J-000531D01*
G01*
G37*
G36*
G01*
X0343194Y0128228D02*
X0343194Y0126771D01*
G75*
G02*
X0342662Y0126240I-000531J0000000D01*
G01*
X0341599Y0126240D01*
G75*
G02*
X0341068Y0126771I0000000J0000531D01*
G01*
X0341068Y0128228D01*
G75*
G02*
X0341599Y0128759I0000531J0000000D01*
G01*
X0342662Y0128759D01*
G75*
G02*
X0343194Y0128228I0000000J-000531D01*
G01*
G37*
G36*
G01*
X0371161Y0128838D02*
X0369980Y0128838D01*
G75*
G02*
X0369389Y0129429I0000000J0000591D01*
G01*
X0369389Y0134055D01*
G75*
G02*
X0369980Y0134645I0000591J0000000D01*
G01*
X0371161Y0134645D01*
G75*
G02*
X0371751Y0134055I0000000J-000591D01*
G01*
X0371751Y0129429D01*
G75*
G02*
X0371161Y0128838I-000591J0000000D01*
G01*
G37*
G36*
G01*
X0363681Y0128838D02*
X0362500Y0128838D01*
G75*
G02*
X0361909Y0129429I0000000J0000591D01*
G01*
X0361909Y0134055D01*
G75*
G02*
X0362500Y0134645I0000591J0000000D01*
G01*
X0363681Y0134645D01*
G75*
G02*
X0364271Y0134055I0000000J-000591D01*
G01*
X0364271Y0129429D01*
G75*
G02*
X0363681Y0128838I-000591J0000000D01*
G01*
G37*
G36*
G01*
X0367421Y0136220D02*
X0366240Y0136220D01*
G75*
G02*
X0365649Y0136811I0000000J0000591D01*
G01*
X0365649Y0141437D01*
G75*
G02*
X0366240Y0142027I0000591J0000000D01*
G01*
X0367421Y0142027D01*
G75*
G02*
X0368011Y0141437I0000000J-000591D01*
G01*
X0368011Y0136811D01*
G75*
G02*
X0367421Y0136220I-000591J0000000D01*
G01*
G37*
G36*
G01*
X0333229Y0126791D02*
X0333229Y0128130D01*
G75*
G02*
X0333781Y0128681I0000551J0000000D01*
G01*
X0334883Y0128681D01*
G75*
G02*
X0335434Y0128130I0000000J-000551D01*
G01*
X0335434Y0126791D01*
G75*
G02*
X0334883Y0126240I-000551J0000000D01*
G01*
X0333781Y0126240D01*
G75*
G02*
X0333229Y0126791I0000000J0000551D01*
G01*
G37*
G36*
G01*
X0337009Y0126791D02*
X0337009Y0128130D01*
G75*
G02*
X0337560Y0128681I0000551J0000000D01*
G01*
X0338662Y0128681D01*
G75*
G02*
X0339214Y0128130I0000000J-000551D01*
G01*
X0339214Y0126791D01*
G75*
G02*
X0338662Y0126240I-000551J0000000D01*
G01*
X0337560Y0126240D01*
G75*
G02*
X0337009Y0126791I0000000J0000551D01*
G01*
G37*
G36*
G01*
X0336300Y0157578D02*
X0337481Y0157578D01*
G75*
G02*
X0338072Y0156988I0000000J-000591D01*
G01*
X0338072Y0151279D01*
G75*
G02*
X0337481Y0150689I-000591J0000000D01*
G01*
X0336300Y0150689D01*
G75*
G02*
X0335710Y0151279I0000000J0000591D01*
G01*
X0335710Y0156988D01*
G75*
G02*
X0336300Y0157578I0000591J0000000D01*
G01*
G37*
G36*
G01*
X0341300Y0157578D02*
X0342481Y0157578D01*
G75*
G02*
X0343072Y0156988I0000000J-000591D01*
G01*
X0343072Y0151279D01*
G75*
G02*
X0342481Y0150689I-000591J0000000D01*
G01*
X0341300Y0150689D01*
G75*
G02*
X0340710Y0151279I0000000J0000591D01*
G01*
X0340710Y0156988D01*
G75*
G02*
X0341300Y0157578I0000591J0000000D01*
G01*
G37*
G36*
G01*
X0346300Y0157578D02*
X0347481Y0157578D01*
G75*
G02*
X0348072Y0156988I0000000J-000591D01*
G01*
X0348072Y0151279D01*
G75*
G02*
X0347481Y0150689I-000591J0000000D01*
G01*
X0346300Y0150689D01*
G75*
G02*
X0345710Y0151279I0000000J0000591D01*
G01*
X0345710Y0156988D01*
G75*
G02*
X0346300Y0157578I0000591J0000000D01*
G01*
G37*
G36*
G01*
X0351300Y0157578D02*
X0352481Y0157578D01*
G75*
G02*
X0353072Y0156988I0000000J-000591D01*
G01*
X0353072Y0151279D01*
G75*
G02*
X0352481Y0150689I-000591J0000000D01*
G01*
X0351300Y0150689D01*
G75*
G02*
X0350710Y0151279I0000000J0000591D01*
G01*
X0350710Y0156988D01*
G75*
G02*
X0351300Y0157578I0000591J0000000D01*
G01*
G37*
G36*
G01*
X0351300Y0137303D02*
X0352481Y0137303D01*
G75*
G02*
X0353072Y0136712I0000000J-000591D01*
G01*
X0353072Y0131004D01*
G75*
G02*
X0352481Y0130413I-000591J0000000D01*
G01*
X0351300Y0130413D01*
G75*
G02*
X0350710Y0131004I0000000J0000591D01*
G01*
X0350710Y0136712D01*
G75*
G02*
X0351300Y0137303I0000591J0000000D01*
G01*
G37*
G36*
G01*
X0346300Y0137303D02*
X0347481Y0137303D01*
G75*
G02*
X0348072Y0136712I0000000J-000591D01*
G01*
X0348072Y0131004D01*
G75*
G02*
X0347481Y0130413I-000591J0000000D01*
G01*
X0346300Y0130413D01*
G75*
G02*
X0345710Y0131004I0000000J0000591D01*
G01*
X0345710Y0136712D01*
G75*
G02*
X0346300Y0137303I0000591J0000000D01*
G01*
G37*
G36*
G01*
X0341300Y0137303D02*
X0342481Y0137303D01*
G75*
G02*
X0343072Y0136712I0000000J-000591D01*
G01*
X0343072Y0131004D01*
G75*
G02*
X0342481Y0130413I-000591J0000000D01*
G01*
X0341300Y0130413D01*
G75*
G02*
X0340710Y0131004I0000000J0000591D01*
G01*
X0340710Y0136712D01*
G75*
G02*
X0341300Y0137303I0000591J0000000D01*
G01*
G37*
G36*
G01*
X0336300Y0137303D02*
X0337481Y0137303D01*
G75*
G02*
X0338072Y0136712I0000000J-000591D01*
G01*
X0338072Y0131004D01*
G75*
G02*
X0337481Y0130413I-000591J0000000D01*
G01*
X0336300Y0130413D01*
G75*
G02*
X0335710Y0131004I0000000J0000591D01*
G01*
X0335710Y0136712D01*
G75*
G02*
X0336300Y0137303I0000591J0000000D01*
G01*
G37*
M02*
