M48
INCH,TZ
T01C0.013750
T02C0.021650
T03C0.025600
T04C0.031500
T05C0.039200
T06C0.043300
T07C0.051200
T08C0.070900
T09C0.118100
T10C0.127950
T11C0.137800
%
T01
X25910Y4338
X25940Y2940
X26029Y4840
X26373Y4633
X1969Y14764
X6004Y26693
X6299Y27756
X8957Y20276
X9144Y25975
X9442Y26076
X9654Y26476
X9792Y26032
X10329Y21167
X10512Y21850
X10728Y22135
X10925Y34252
X11215Y25793
X11614Y7480
X11614Y7087
X11811Y26772
X11909Y27067
X12042Y27331
X12303Y30906
X12441Y7677
X12598Y27756
X12884Y3543
X12992Y2461
X13041Y27805
X13494Y3543
X13976Y2461
X14144Y28907
X15354Y27559
X15482Y6959
X15650Y27548
X18209Y26102
X18504Y26240
X20669Y26452
X20965Y3445
X21457Y26019
X21866Y26236
X22047Y4554
X26181Y7382
X27799Y23996
X30161Y24146
X31890Y30413
X32972Y30413
X10266Y3278
X10266Y2884
X12018Y22904
X12018Y19951
X12018Y19636
X12018Y19321
X12018Y19006
X12018Y18691
X12018Y18061
X12018Y17746
X12018Y17431
X12018Y17116
X12018Y16801
X12018Y16486
X12018Y16171
X12018Y15856
X12018Y15541
X12018Y15226
X12018Y14281
X12018Y13967
X12018Y13652
X12018Y12392
X12018Y12077
X12018Y11762
X12018Y11447
X12018Y10502
X12018Y10187
X12018Y9872
X12018Y9557
X12018Y9242
X12018Y8219
X12018Y22589
X12018Y18376
X12018Y14911
X12018Y14596
X12018Y13337
X12018Y13022
X12018Y12707
X12018Y11132
X12018Y10817
X12254Y23770
X12333Y8219
X12648Y8219
X12726Y23770
X12963Y8219
X13199Y23770
X13278Y8219
X13593Y8219
X13671Y23770
X13907Y8219
X14144Y23770
X14222Y8219
X14537Y8219
X14577Y23770
X14852Y8219
X15049Y23770
X15167Y8219
X15482Y8219
X15522Y23770
X15797Y8219
X15994Y23770
X16112Y8219
X16427Y8219
X16467Y23770
X16742Y8219
X16939Y23770
X17057Y8219
X17372Y8219
X17411Y23770
X17687Y8219
X17815Y28602
X17884Y23770
X18002Y8219
X18189Y28602
X18209Y32028
X18317Y8219
X18356Y23770
X18563Y32028
X18563Y28602
X18632Y8219
X18829Y23770
X18947Y8219
X19301Y23770
X19774Y23770
X20246Y23770
X20719Y23770
X21112Y8219
X21191Y23770
X21427Y8219
X21663Y23770
X21742Y8219
X22057Y8219
X22136Y23770
X22372Y8219
X22608Y23770
X23081Y23770
X23553Y23770
X23815Y32003
X24026Y23770
X24209Y32003
X24498Y23770
X24970Y23770
X25335Y26324
X25443Y23770
X25443Y8219
X25758Y8219
X25807Y26324
X25915Y23770
X26073Y8219
X26280Y26324
X26388Y23770
X26752Y26324
X26860Y23770
X27333Y23770
X28077Y32028
X28278Y23770
X28435Y19872
X28435Y17116
X28435Y16722
X28435Y16329
X28435Y15935
X28435Y15541
X28435Y15148
X28435Y14754
X28435Y14360
X28435Y8219
X28435Y17510
X28435Y13967
X28435Y13573
X28435Y13179
X28435Y12785
X28435Y12392
X28435Y11998
X28435Y22785
X28435Y22392
X28470Y32028
X29596Y26348
X30069Y26348
X30541Y26348
X31014Y26348
X32530Y12336
X32923Y12336
X33317Y12336
X34215Y12336
X34615Y12336
X35541Y22805
X35935Y22805
X36329Y22805
X36722Y22805
X295Y29331
X394Y25492
X787Y3051
X984Y36319
X984Y33563
X1181Y34646
X1181Y32579
X1476Y25492
X1572Y9231
X1575Y10531
X1575Y7776
X1575Y6299
X2067Y4921
X2165Y33169
X2165Y24311
X2165Y23819
X2165Y23327
X2165Y22835
X2165Y22343
X2165Y21949
X2165Y21457
X2165Y20965
X2165Y20472
X2165Y19980
X2165Y19587
X2165Y19094
X2165Y18602
X2165Y18110
X2165Y17618
X2165Y17224
X2165Y16732
X2165Y16240
X2165Y15748
X2165Y15256
X2461Y29232
X2461Y26476
X2667Y10728
X3051Y1575
X3150Y9744
X3248Y24508
X3248Y22146
X3248Y19783
X3248Y17421
X3248Y9055
X3248Y8071
X3346Y14370
X3346Y5906
X3346Y5020
X3346Y4232
X3346Y3346
X3445Y7579
X3543Y32776
X3839Y24311
X3839Y23130
X3839Y21949
X3839Y19587
X3839Y18406
X3839Y17224
X3839Y16043
X4134Y787
X4331Y25689
X4429Y26870
X4528Y10039
X4626Y30807
X5118Y30807
X5315Y14370
X5413Y32579
X5648Y30807
X5908Y804
X6004Y10039
X6102Y30807
X6201Y14370
X6594Y30807
X6890Y31791
X7283Y14370
X7382Y32776
X7382Y12598
X7382Y10039
X7579Y984
X8071Y14370
X8169Y12598
X8465Y10039
X8760Y32677
X8858Y18799
X8957Y14370
X8957Y12598
X9055Y16437
X9154Y787
X9547Y13967
X9646Y10039
X9809Y19522
X10039Y32776
X10039Y18701
X10039Y15453
X10039Y13652
X10236Y30610
X10335Y28543
X10335Y17126
X10531Y13337
X10728Y8169
X10728Y4724
X10827Y5906
X10827Y1969
X10827Y984
X10925Y9547
X10925Y6791
X10925Y2657
X11024Y13022
X11122Y10925
X11122Y3642
X11220Y14370
X11417Y16831
X11417Y15846
X11516Y22244
X11516Y19980
X11614Y31398
X11614Y28740
X11614Y8862
X11614Y8465
X11713Y23524
X12008Y5217
X12106Y5906
X12598Y30315
X12697Y984
X12795Y5217
X13484Y29331
X13681Y27756
X13780Y6693
X13976Y7677
X14272Y886
X14764Y28051
X15185Y5345
X15551Y3740
X16831Y28839
X16831Y7677
X16929Y32087
X16929Y31004
X16929Y30020
X17224Y6988
X17421Y28150
X17815Y5217
X18209Y27657
X18209Y7677
X18406Y28248
X18406Y6496
X18898Y27756
X19390Y31890
X19390Y7677
X19397Y26476
X19488Y30807
X19488Y29921
X19510Y28746
X19587Y6988
X19780Y26276
X19783Y5315
X20177Y3642
X20571Y25492
X20571Y7677
X21063Y27559
X21063Y6693
X21559Y25501
X21949Y5217
X22146Y7382
X22244Y27264
X22441Y30807
X22539Y31594
X22539Y29823
X22539Y28937
X23228Y7776
X23327Y32382
X23327Y6594
X23425Y25984
X24508Y7776
X24705Y25984
X24902Y32382
X26280Y32382
X26575Y7953
X27067Y6890
X27165Y32087
X27165Y31004
X27165Y30020
X27165Y28937
X27165Y27854
X27165Y26772
X27657Y25984
X27756Y32382
X27854Y7953
X28543Y6890
X28839Y25984
X28839Y23327
X28839Y21654
X28839Y20374
X28839Y19094
X28878Y18209
X29035Y11516
X29035Y10433
X29035Y9547
X29035Y8366
X29232Y32382
X29823Y6890
X30118Y34646
X30610Y32382
X30610Y11122
X30610Y8268
X31299Y23228
X31299Y21555
X31362Y31659
X31376Y30807
X31398Y29724
X31398Y28740
X31398Y27657
X31398Y26673
X31398Y19783
X31398Y17913
X31398Y13484
X31398Y6890
X31443Y15798
X32283Y11024
X32283Y9843
X32283Y8366
X32382Y32579
X32382Y30906
X32963Y7300
X33071Y23425
X33366Y32579
X33465Y30906
X33661Y35925
X33661Y34646
X33684Y11985
X33955Y5996
X33957Y36225
X33957Y6791
X33957Y5118
X34646Y36220
X34646Y35039
X34941Y35925
X34941Y35335
X35049Y23327
X35138Y11220
X35728Y31398
X35728Y29724
X36220Y23327
X36417Y35925
X36417Y35335
X36417Y34154
X36417Y33563
X36713Y36225
X36713Y35039
X36713Y34453
X36713Y33268
X37106Y24508
X37205Y27559
X37402Y36220
X37402Y35039
X37402Y34449
X37402Y33268
X37697Y35925
X37697Y35335
X37697Y34154
X37697Y33563
X37894Y11220
X37992Y15945
X38091Y22638
X38091Y21260
X38091Y19783
X38091Y18012
X38091Y13583
X28277Y23770
X28354Y23371
X28435Y22786
X28435Y22392
X27677Y22132
X26963Y22116
X26679Y22093
X26073Y22274
X25758Y22274
X25192Y22086
X24766Y22086
X24183Y22274
X23868Y22274
X23299Y22104
X23014Y22095
X22326Y22296
X21942Y22296
X21431Y22070
X20989Y22086
X20403Y22274
X20088Y22274
X19508Y22177
X19124Y22116
X18514Y22274
X18199Y22274
X17569Y22116
X17254Y22116
X16624Y22274
X16309Y22274
X15679Y22116
X15364Y22116
X14734Y22274
X14498Y22038
X14222Y21171
X13907Y21290
X13710Y21565
X13356Y21565
X13268Y20640
X13770Y20620
X13707Y20342
X13809Y19498
X13435Y19360
X13331Y19085
X13228Y19597
X13507Y18271
X13515Y17774
X13829Y17746
X13789Y17353
X13907Y16565
X14502Y16489
X14892Y16447
X15226Y16436
X14970Y16723
X14718Y16883
X14555Y16019
X14539Y15632
X14784Y15472
X14398Y15227
X14488Y14519
X14419Y14242
X14537Y13376
X14734Y13022
X14507Y12461
X14486Y12077
X13685Y12373
X13362Y12594
X12979Y12618
X13400Y11158
X13449Y10508
X13230Y10325
X13792Y9910
X14516Y9717
X14892Y10030
X15136Y9882
X15285Y9203
X15561Y9321
X14339Y9114
X14061Y9240
X13917Y8721
X13602Y8620
X12979Y9176
X16888Y9186
X17186Y9136
X17132Y9775
X16793Y9985
X16196Y10660
X16388Y10896
X16624Y11132
X17451Y11368
X18070Y11472
X18041Y11132
X18351Y11560
X18553Y11762
X18396Y12707
X17962Y12731
X17136Y12471
X16821Y12471
X16677Y12887
X16033Y12786
X15994Y12077
X15766Y11906
X15443Y12549
X15443Y13494
X16388Y13809
X16703Y13809
X16624Y14376
X16703Y15345
X16309Y15345
X16031Y14868
X15317Y14759
X15453Y15516
X15439Y15893
X16506Y15975
X16427Y16694
X16112Y16683
X17000Y16768
X16781Y17549
X16466Y17628
X15836Y17510
X15590Y17655
X15296Y17903
X15659Y18376
X16053Y18376
X16703Y18691
X17018Y18688
X17333Y18691
X17962Y18555
X18229Y18366
X18120Y17825
X17907Y17589
X17757Y17994
X18750Y17825
X18671Y17549
X19537Y17510
X19616Y17864
X19616Y18691
X19301Y18688
X18986Y18652
X18710Y19085
X18710Y19400
X18701Y19685
X18474Y20227
X17884Y20227
X17510Y19990
X17510Y19360
X17943Y19498
X16486Y19636
X16491Y19346
X15659Y19498
X15226Y19360
X15226Y19990
X15600Y20227
X16191Y20227
X16762Y20975
X17269Y21073
X17554Y21073
X19158Y21073
X19444Y21073
X19717Y20989
X19793Y19990
X20167Y20227
X20718Y20227
X21053Y19636
X21058Y19346
X21249Y18676
X21584Y18688
X21899Y18691
X22077Y19360
X22510Y19498
X22411Y20227
X22077Y19990
X21839Y20957
X21334Y21112
X21048Y21073
X22581Y20717
X22938Y21073
X23223Y21073
X23238Y20423
X23288Y19722
X23307Y19045
X23294Y18750
X23307Y18391
X23317Y17904
X23277Y17471
X23657Y17343
X23942Y17323
X24104Y17825
X23966Y18258
X24464Y18147
X24884Y18047
X24909Y17762
X25403Y17746
X25740Y17863
X26139Y17580
X25817Y17234
X25325Y17148
X25258Y16665
X25292Y16329
X25246Y15945
X25246Y15660
X25246Y15108
X25285Y14360
X25088Y13849
X25167Y13573
X25143Y13111
X25179Y12531
X25207Y11762
X25600Y11664
X25610Y11324
X26466Y11093
X26447Y11683
X26393Y12431
X26781Y12510
X27175Y12514
X27825Y12518
X28435Y12392
X28435Y12786
X28435Y13179
X28435Y13573
X28435Y13967
X28435Y14360
X28435Y14754
X28435Y15148
X28435Y15542
X28435Y15935
X28435Y16329
X28435Y16723
X28435Y17116
X28435Y17510
X28199Y17746
X27659Y17579
X27667Y18061
X27392Y18199
X27030Y18159
X26762Y18260
X26102Y18465
X26089Y18750
X26102Y19045
X26073Y19400
X26554Y19257
X27056Y19250
X26899Y19675
X27016Y20001
X26628Y20029
X26959Y20423
X26998Y20975
X26717Y21073
X25955Y21004
X25482Y21004
X25113Y21073
X24828Y21073
X24419Y21014
X24065Y21053
X24478Y20423
X24419Y19990
X24104Y19675
X24242Y19282
X23612Y19282
X23738Y20115
X25482Y19990
X25718Y20423
X24942Y19393
X24901Y19110
X24970Y18534
X24439Y17077
X24368Y15832
X24409Y15227
X24431Y14813
X24399Y14301
X24409Y13731
X24409Y13022
X24409Y12392
X24468Y11728
X23565Y11619
X23541Y11005
X23337Y10804
X22894Y10876
X22844Y11290
X22844Y11575
X22844Y12396
X22858Y12785
X23381Y12786
X23381Y13071
X23095Y13090
X22884Y13337
X22962Y13691
X22849Y14144
X21943Y14137
X21660Y14028
X21781Y13770
X22030Y13453
X22018Y14557
X21870Y15339
X21781Y15738
X21968Y16083
X22254Y16998
X22783Y17014
X22926Y16758
X22962Y17756
X22608Y18049
X22528Y18359
X21860Y17825
X21375Y17811
X21388Y17526
X21227Y16545
X20819Y16502
X20758Y16781
X20482Y16486
X19833Y16462
X19842Y16747
X19399Y16388
X19168Y16604
X18681Y16071
X19574Y15778
X20057Y15774
X19793Y15414
X19459Y14912
X18986Y14439
X19892Y14400
X20364Y13219
X20679Y13258
X20958Y13756
X21427Y14193
X20955Y15384
X22805Y15187
X23041Y15778
X23356Y15719
X23766Y15655
X23642Y16270
X23553Y13671
X22028Y12204
X22018Y11762
X22096Y11132
X22088Y10847
X21956Y10373
X22028Y10096
X21899Y9597
X22352Y9012
X21584Y8457
X20788Y8344
X20463Y8389
X20175Y8347
X19856Y8350
X19542Y8356
X19931Y9242
X20551Y9213
X20837Y9213
X21122Y9203
X20977Y10208
X20915Y10502
X21260Y11014
X21112Y11762
X21270Y12274
X20364Y12353
X20009Y12441
X19734Y12707
X19931Y11565
X20384Y11841
X19222Y11132
X19695Y10660
X19695Y9722
X19301Y9518
X18961Y9119
X18012Y9201
X18829Y10463
X18514Y13916
X18002Y13798
X17780Y13979
X17560Y13798
X17382Y14021
X17529Y15187
X18041Y15384
X18159Y14675
X20244Y17598
X20482Y17943
X20620Y18376
X20325Y18376
X20226Y19498
X19793Y19360
X20010Y23573
X19773Y23770
X19537Y23573
X19301Y23770
X19065Y23573
X18829Y23770
X18592Y23573
X18356Y23770
X18120Y23573
X17884Y23770
X17647Y23573
X17411Y23770
X17175Y23573
X16939Y23770
X16703Y23573
X16466Y23770
X16230Y23573
X15994Y23770
X15758Y23573
X15521Y23770
X15285Y23573
X15049Y23770
X14813Y23573
X14577Y23770
X14144Y23770
X13907Y23573
X13671Y23770
X13435Y23573
X13199Y23770
X12962Y23573
X13266Y22866
X13739Y22866
X14773Y21014
X15379Y21073
X15664Y21073
X15049Y18691
X14734Y18688
X14419Y18691
X14133Y18746
X13031Y15729
X15325Y11368
X15284Y11086
X22765Y10499
X23089Y10168
X23014Y9892
X23338Y10027
X23730Y9577
X23998Y9693
X24288Y9854
X24588Y9867
X24537Y10148
X24301Y10778
X23926Y11043
X23797Y9193
X24468Y9349
X25220Y9656
X25589Y9501
X25608Y9796
X25458Y10200
X25787Y10187
X26281Y9988
X27144Y10190
X27553Y10281
X27490Y9715
X28336Y9636
X28356Y10030
X27766Y8750
X27726Y8297
X26644Y8297
X26004Y9094
X25264Y8997
X24244Y8455
X23238Y8573
X27283Y11133
X27451Y11368
X27626Y11946
X28022Y11959
X28435Y11998
X27309Y13391
X27037Y13731
X26869Y14492
X26063Y14518
X26063Y15227
X26063Y15935
X26063Y16644
X26498Y17028
X26813Y16797
X27313Y17333
X28307Y18425
X27697Y19045
X28022Y19715
X28435Y19872
X28199Y20423
X28396Y21014
X27844Y21211
X28081Y21693
X27445Y20878
X27569Y20089
X27844Y23179
X27801Y23739
X27569Y23573
X27333Y23770
X27096Y23573
X26860Y23770
X26624Y23573
X26388Y23770
X26151Y23573
X25915Y23770
X25679Y23573
X25443Y23770
X25207Y23573
X24970Y23770
X24734Y23573
X24498Y23770
X24262Y23573
X24025Y23770
X23789Y23573
X23553Y23770
X23317Y23573
X23081Y23770
X22844Y23573
X22608Y23770
X22372Y23573
X22136Y23770
X21899Y23573
X21663Y23770
X21427Y23573
X21191Y23770
X20955Y23573
X20718Y23770
X20482Y23573
X20246Y23770
X26584Y13199
X12884Y13042
X12697Y12826
X12018Y12707
X12018Y12392
X12018Y12077
X12018Y11762
X12018Y11447
X12018Y11132
X12018Y10817
X12018Y10502
X12018Y10187
X12018Y9872
X12018Y9557
X12018Y9242
X12096Y8927
X12419Y9242
X12291Y10072
X12256Y11290
X12256Y12234
X12873Y11892
X12846Y13807
X12018Y13652
X12018Y13337
X12018Y13022
X12018Y13967
X12018Y14282
X12018Y14597
X12018Y14912
X12018Y15227
X12018Y15542
X12018Y15857
X12018Y16171
X12018Y16486
X12018Y16801
X12018Y17116
X12018Y17431
X12018Y17746
X12018Y18061
X12018Y18376
X12018Y18691
X12018Y19006
X12018Y19321
X12018Y19636
X12018Y19951
X12846Y20076
X12844Y20778
X12529Y20935
X12384Y20689
X12411Y21250
X12293Y21565
X12214Y21841
X12214Y22234
X12018Y22589
X12018Y22904
X12362Y22874
X12824Y22873
X12726Y23770
X12490Y23573
X12254Y23770
X12057Y23455
X12529Y19400
X12869Y19345
X12301Y16451
X12628Y14862
X12923Y14862
X12647Y8219
X12333Y8219
X12018Y8219
X12962Y8219
X13277Y8219
X13592Y8219
X13907Y8219
X14222Y8219
X14537Y8219
X14852Y8219
X15167Y8219
X15482Y8219
X15797Y8219
X16112Y8219
X16427Y8219
X16742Y8219
X17057Y8219
X17372Y8219
X17687Y8219
X18002Y8219
X18317Y8219
X18632Y8219
X18947Y8219
X21112Y8219
X21427Y8219
X21742Y8219
X22057Y8219
X22372Y8219
X24508Y8245
X25443Y8219
X25758Y8219
X26073Y8219
X28435Y8219
X29222Y32037
X30868Y32010
X30039Y31988
X27515Y31266
X28272Y31257
X29051Y31231
X30880Y31183
X29948Y31181
X29246Y31009
X30852Y30835
X27643Y30748
X28958Y30718
X27509Y30443
X31043Y30387
X29496Y30310
X28250Y30299
X30571Y30145
X29560Y30022
X29537Y29728
X29938Y29486
X29132Y29354
X29458Y29301
X28740Y29291
X27657Y29271
X28029Y29221
X28379Y29181
X29037Y28960
X27509Y28651
X29084Y28582
X29508Y28268
X29222Y28149
X28718Y28051
X30181Y28029
X27669Y27986
X29478Y27963
X30852Y27894
X30793Y27598
X29523Y27415
X31022Y27403
X28149Y27076
X28141Y26600
X27972Y26358
X28385Y26348
X27490Y26332
X28470Y32027
X28076Y32027
X31013Y26348
X30541Y26348
X30069Y26348
X29596Y26348
X25315Y31875
X23347Y31875
X26654Y31836
X25237Y31009
X24174Y30852
X23347Y30734
X26654Y30497
X25748Y30104
X24764Y30064
X24134Y29513
X23347Y29474
X26654Y29080
X25945Y28844
X23347Y28765
X25254Y28679
X23701Y28253
X24567Y27742
X23622Y27505
X26654Y27348
X23347Y27033
X25829Y26715
X24961Y26442
X23622Y26442
X24209Y32003
X23815Y32003
X26752Y26324
X26280Y26324
X25808Y26324
X25335Y26324
X4784Y1649
X4512Y2285
X4726Y2670
X4085Y3099
X4045Y3435
X4242Y4025
X4518Y4281
X4636Y4812
X4242Y5108
X4045Y4616
X4045Y5797
X4045Y7372
X4518Y7352
X5629Y7644
X6676Y7619
X6998Y7331
X8051Y7256
X9163Y7372
X9951Y7372
X9478Y6368
X8833Y6362
X8893Y5116
X9360Y5206
X9528Y4726
X9951Y5009
X9529Y3841
X10225Y3669
X10266Y3277
X10266Y2883
X9584Y2977
X9274Y2488
X9661Y2171
X9264Y1741
X8875Y2120
X8800Y2844
X8848Y3277
X7532Y2292
X7532Y1663
X6613Y1649
X5758Y1649
X5981Y2291
X6565Y3316
X6958Y4763
X6211Y4812
X6644Y5322
X7233Y6320
X8179Y8277
X9111Y8344
X9557Y7962
X9951Y8553
X9124Y9340
X7125Y9508
X7083Y9102
X6296Y9092
X6031Y8689
X4594Y8766
X5003Y8131
X4163Y7898
X17668Y32022
X17921Y31870
X18208Y32028
X18563Y32028
X18229Y31026
X18124Y30752
X18337Y30509
X17824Y31059
X18564Y29580
X18563Y28603
X18189Y28603
X17815Y28603
X26373Y4633
X26029Y4840
X25910Y4338
X25940Y2940
X34990Y12273
X32060Y12348
X33730Y12392
X37096Y12392
X36906Y12625
X35626Y12681
X35315Y12681
X32292Y12835
X33883Y13063
X33185Y13155
X35813Y13218
X36746Y13355
X37018Y13647
X31978Y13750
X32615Y13796
X32992Y13838
X34299Y13913
X35536Y13917
X37057Y14193
X34971Y14274
X36260Y14399
X34311Y14459
X33264Y14468
X35021Y14577
X37096Y14675
X31973Y15472
X36289Y15640
X34484Y15930
X33545Y16160
X35045Y16161
X34252Y16162
X34009Y16368
X37195Y16388
X34350Y16446
X32973Y16753
X35108Y16961
X33024Y17050
X37165Y17175
X33671Y17191
X33018Y17360
X36451Y17378
X35069Y17451
X34069Y17510
X33394Y17663
X36368Y17667
X35635Y17968
X32669Y17986
X32368Y17994
X37175Y18366
X32537Y18573
X31952Y18598
X32836Y18607
X32171Y18864
X33813Y19002
X34660Y19048
X35173Y19118
X36073Y19118
X36374Y19118
X36675Y19118
X36976Y19118
X35581Y19122
X34045Y19498
X34262Y19754
X37217Y21829
X35468Y22046
X32215Y22086
X32628Y22234
X35561Y22333
X33209Y22372
X33484Y22372
X33760Y22372
X32648Y22549
X37224Y22569
X33209Y22677
X33484Y22677
X32234Y22874
X32529Y12336
X32923Y12336
X33317Y12336
X34215Y12336
X34615Y12336
X35541Y22805
X35935Y22805
X36329Y22805
X36722Y22805
T02
X433Y30906
X433Y1378
X710Y31574
X710Y30237
X710Y2046
X710Y710
X1378Y31850
X1378Y29961
X1378Y2323
X1378Y433
X2046Y31574
X2046Y30237
X2046Y2046
X2046Y710
X2323Y30906
X2323Y1378
X37047Y30906
X37047Y1378
X37324Y31574
X37324Y30237
X37324Y2046
X37324Y710
X37992Y31850
X37992Y29961
X37992Y2323
X37992Y433
X38660Y31574
X38660Y30237
X38660Y2046
X38660Y710
X38937Y30906
X38937Y1378
X11685Y2915G85X11685Y2482
X11685Y1211G85X11685Y896
X15087Y2915G85X15087Y2482
X15087Y1211G85X15087Y896
T03
X12248Y2502
X14524Y2502
T04
X22569Y17668
X20876Y17786
X19144Y17746
X17254Y17786
X16112Y17786
X14931Y17786
X14419Y17313
T05
X3986Y9360
X3986Y8632
X3986Y6683
X3986Y1939
X10089Y9183
X10089Y6663
X10089Y5915
X10089Y4222
X10089Y1762
X28120Y8534
X24978Y9294
X24978Y8494
X22978Y8894
X3986Y1938
X3986Y6683
X10089Y6663
X10089Y5915
X10089Y4222
X10089Y1761
X10089Y9183
X3986Y9360
X3986Y8631
X36211Y19659
X35029Y20447
X36211Y21234
X36289Y12533
X35889Y14533
X36689Y14533
T06
X2343Y35650
X2343Y33878
X3720Y35650
X3720Y33878
X5098Y35650
X5098Y33878
X6476Y35650
X6476Y33878
X7854Y35650
X7854Y33878
X9232Y35650
X9232Y33878
X11575Y35650
X11575Y33878
X12756Y35650
X12756Y33878
X13937Y35650
X13937Y33878
X15118Y35650
X15118Y33878
X16299Y35650
X16299Y33878
X17480Y35650
X17480Y33878
X18661Y35650
X18661Y33878
X19843Y35650
X19843Y33878
X22185Y35650
X22185Y33878
X23563Y35650
X23563Y33878
X24783Y35650
X24783Y33878
X25965Y35650
X25965Y33878
X27146Y35650
X27146Y33878
X28327Y35650
X28327Y33878
X29508Y35650
X29508Y33878
X30689Y35650
X30689Y33878
X31870Y35650
X31870Y33878
X33051Y35650
X33051Y33878
X34272Y35650
X34272Y33878
X35650Y35650
X35650Y33878
X37028Y35650
X37028Y33878
X32402Y19482
X32402Y20482
X32402Y21482
T07
X4134Y24902
X4134Y23720
X4134Y22539
X4134Y21358
X4134Y20177
X4134Y18996
X4134Y17815
X4134Y16634
X4134Y15453
X5118Y24311
X5118Y23130
X5118Y21949
X5118Y20768
X5118Y19587
X5118Y18406
X5118Y17224
X5118Y16043
X6299Y24311
X6299Y23130
X6299Y21949
X6299Y20768
X6299Y19587
X6299Y18406
X6299Y17224
X6299Y16043
X7283Y24902
X7283Y23720
X7283Y22539
X7283Y21358
X7283Y20177
X7283Y18996
X7283Y17815
X7283Y16634
X7283Y15453
T08
X33455Y27835
X33455Y26181
X33455Y24528
X35620Y27835
X35620Y26181
X35620Y24528
T09
X38494Y27835
X38494Y24528
T10
X1378Y30906
X1378Y1378
X37992Y30906
X37992Y1378
X1575Y27756
X1575Y12598
T11
X2087Y37894
X20965Y37894
X37283Y37894
M30
