G75*
G70*
%OFA0B0*%
%FSLAX25Y25*%
%IPPOS*%
%LPD*%
%AMOC8*
5,1,8,0,0,1.08239X$1,22.5*
%
%AMM151*
21,1,0.035430,0.030320,-0.000000,-0.000000,270.000000*
21,1,0.028350,0.037400,-0.000000,-0.000000,270.000000*
1,1,0.007090,-0.015160,-0.014170*
1,1,0.007090,-0.015160,0.014170*
1,1,0.007090,0.015160,0.014170*
1,1,0.007090,0.015160,-0.014170*
%
%AMM157*
21,1,0.027560,0.018900,-0.000000,-0.000000,0.000000*
21,1,0.022840,0.023620,-0.000000,-0.000000,0.000000*
1,1,0.004720,0.011420,-0.009450*
1,1,0.004720,-0.011420,-0.009450*
1,1,0.004720,-0.011420,0.009450*
1,1,0.004720,0.011420,0.009450*
%
%AMM160*
21,1,0.025590,0.026380,-0.000000,-0.000000,270.000000*
21,1,0.020470,0.031500,-0.000000,-0.000000,270.000000*
1,1,0.005120,-0.013190,-0.010240*
1,1,0.005120,-0.013190,0.010240*
1,1,0.005120,0.013190,0.010240*
1,1,0.005120,0.013190,-0.010240*
%
%AMM161*
21,1,0.017720,0.027950,-0.000000,-0.000000,270.000000*
21,1,0.014170,0.031500,-0.000000,-0.000000,270.000000*
1,1,0.003540,-0.013980,-0.007090*
1,1,0.003540,-0.013980,0.007090*
1,1,0.003540,0.013980,0.007090*
1,1,0.003540,0.013980,-0.007090*
%
%AMM163*
21,1,0.012600,0.028980,-0.000000,-0.000000,270.000000*
21,1,0.010080,0.031500,-0.000000,-0.000000,270.000000*
1,1,0.002520,-0.014490,-0.005040*
1,1,0.002520,-0.014490,0.005040*
1,1,0.002520,0.014490,0.005040*
1,1,0.002520,0.014490,-0.005040*
%
%AMM166*
21,1,0.027560,0.018900,-0.000000,-0.000000,270.000000*
21,1,0.022840,0.023620,-0.000000,-0.000000,270.000000*
1,1,0.004720,-0.009450,-0.011420*
1,1,0.004720,-0.009450,0.011420*
1,1,0.004720,0.009450,0.011420*
1,1,0.004720,0.009450,-0.011420*
%
%AMM183*
21,1,0.033470,0.026770,-0.000000,-0.000000,0.000000*
21,1,0.026770,0.033470,-0.000000,-0.000000,0.000000*
1,1,0.006690,0.013390,-0.013390*
1,1,0.006690,-0.013390,-0.013390*
1,1,0.006690,-0.013390,0.013390*
1,1,0.006690,0.013390,0.013390*
%
%AMM184*
21,1,0.035430,0.030320,-0.000000,-0.000000,0.000000*
21,1,0.028350,0.037400,-0.000000,-0.000000,0.000000*
1,1,0.007090,0.014170,-0.015160*
1,1,0.007090,-0.014170,-0.015160*
1,1,0.007090,-0.014170,0.015160*
1,1,0.007090,0.014170,0.015160*
%
%AMM185*
21,1,0.035830,0.026770,-0.000000,-0.000000,180.000000*
21,1,0.029130,0.033470,-0.000000,-0.000000,180.000000*
1,1,0.006690,-0.014570,0.013390*
1,1,0.006690,0.014570,0.013390*
1,1,0.006690,0.014570,-0.013390*
1,1,0.006690,-0.014570,-0.013390*
%
%AMM186*
21,1,0.070870,0.036220,-0.000000,-0.000000,180.000000*
21,1,0.061810,0.045280,-0.000000,-0.000000,180.000000*
1,1,0.009060,-0.030910,0.018110*
1,1,0.009060,0.030910,0.018110*
1,1,0.009060,0.030910,-0.018110*
1,1,0.009060,-0.030910,-0.018110*
%
%AMM187*
21,1,0.059060,0.020470,-0.000000,-0.000000,270.000000*
21,1,0.053940,0.025590,-0.000000,-0.000000,270.000000*
1,1,0.005120,-0.010240,-0.026970*
1,1,0.005120,-0.010240,0.026970*
1,1,0.005120,0.010240,0.026970*
1,1,0.005120,0.010240,-0.026970*
%
%AMM188*
21,1,0.078740,0.045670,-0.000000,-0.000000,270.000000*
21,1,0.067320,0.057090,-0.000000,-0.000000,270.000000*
1,1,0.011420,-0.022840,-0.033660*
1,1,0.011420,-0.022840,0.033660*
1,1,0.011420,0.022840,0.033660*
1,1,0.011420,0.022840,-0.033660*
%
%AMM189*
21,1,0.025590,0.026380,-0.000000,-0.000000,180.000000*
21,1,0.020470,0.031500,-0.000000,-0.000000,180.000000*
1,1,0.005120,-0.010240,0.013190*
1,1,0.005120,0.010240,0.013190*
1,1,0.005120,0.010240,-0.013190*
1,1,0.005120,-0.010240,-0.013190*
%
%AMM190*
21,1,0.017720,0.027950,-0.000000,-0.000000,180.000000*
21,1,0.014170,0.031500,-0.000000,-0.000000,180.000000*
1,1,0.003540,-0.007090,0.013980*
1,1,0.003540,0.007090,0.013980*
1,1,0.003540,0.007090,-0.013980*
1,1,0.003540,-0.007090,-0.013980*
%
%AMM191*
21,1,0.027560,0.030710,-0.000000,-0.000000,270.000000*
21,1,0.022050,0.036220,-0.000000,-0.000000,270.000000*
1,1,0.005510,-0.015350,-0.011020*
1,1,0.005510,-0.015350,0.011020*
1,1,0.005510,0.015350,0.011020*
1,1,0.005510,0.015350,-0.011020*
%
%AMM192*
21,1,0.027560,0.049610,-0.000000,-0.000000,90.000000*
21,1,0.022050,0.055120,-0.000000,-0.000000,90.000000*
1,1,0.005510,0.024800,0.011020*
1,1,0.005510,0.024800,-0.011020*
1,1,0.005510,-0.024800,-0.011020*
1,1,0.005510,-0.024800,0.011020*
%
%AMM193*
21,1,0.027560,0.030710,-0.000000,-0.000000,180.000000*
21,1,0.022050,0.036220,-0.000000,-0.000000,180.000000*
1,1,0.005510,-0.011020,0.015350*
1,1,0.005510,0.011020,0.015350*
1,1,0.005510,0.011020,-0.015350*
1,1,0.005510,-0.011020,-0.015350*
%
%AMM194*
21,1,0.070870,0.036220,-0.000000,-0.000000,270.000000*
21,1,0.061810,0.045280,-0.000000,-0.000000,270.000000*
1,1,0.009060,-0.018110,-0.030910*
1,1,0.009060,-0.018110,0.030910*
1,1,0.009060,0.018110,0.030910*
1,1,0.009060,0.018110,-0.030910*
%
%AMM229*
21,1,0.023620,0.018900,0.000000,-0.000000,90.000000*
21,1,0.018900,0.023620,0.000000,-0.000000,90.000000*
1,1,0.004720,0.009450,0.009450*
1,1,0.004720,0.009450,-0.009450*
1,1,0.004720,-0.009450,-0.009450*
1,1,0.004720,-0.009450,0.009450*
%
%AMM230*
21,1,0.019680,0.019680,0.000000,-0.000000,180.000000*
21,1,0.015750,0.023620,0.000000,-0.000000,180.000000*
1,1,0.003940,-0.007870,0.009840*
1,1,0.003940,0.007870,0.009840*
1,1,0.003940,0.007870,-0.009840*
1,1,0.003940,-0.007870,-0.009840*
%
%AMM231*
21,1,0.033470,0.026770,0.000000,-0.000000,180.000000*
21,1,0.026770,0.033470,0.000000,-0.000000,180.000000*
1,1,0.006690,-0.013390,0.013390*
1,1,0.006690,0.013390,0.013390*
1,1,0.006690,0.013390,-0.013390*
1,1,0.006690,-0.013390,-0.013390*
%
%AMM232*
21,1,0.019680,0.019680,0.000000,-0.000000,270.000000*
21,1,0.015750,0.023620,0.000000,-0.000000,270.000000*
1,1,0.003940,-0.009840,-0.007870*
1,1,0.003940,-0.009840,0.007870*
1,1,0.003940,0.009840,0.007870*
1,1,0.003940,0.009840,-0.007870*
%
%AMM35*
21,1,0.035830,0.026770,0.000000,0.000000,0.000000*
21,1,0.029130,0.033470,0.000000,0.000000,0.000000*
1,1,0.006690,0.014570,-0.013390*
1,1,0.006690,-0.014570,-0.013390*
1,1,0.006690,-0.014570,0.013390*
1,1,0.006690,0.014570,0.013390*
%
%AMM44*
21,1,0.070870,0.036220,0.000000,0.000000,90.000000*
21,1,0.061810,0.045280,0.000000,0.000000,90.000000*
1,1,0.009060,0.018110,0.030910*
1,1,0.009060,0.018110,-0.030910*
1,1,0.009060,-0.018110,-0.030910*
1,1,0.009060,-0.018110,0.030910*
%
%AMM64*
21,1,0.023620,0.018900,0.000000,0.000000,90.000000*
21,1,0.018900,0.023620,0.000000,0.000000,90.000000*
1,1,0.004720,0.009450,0.009450*
1,1,0.004720,0.009450,-0.009450*
1,1,0.004720,-0.009450,-0.009450*
1,1,0.004720,-0.009450,0.009450*
%
%AMM65*
21,1,0.019680,0.019680,0.000000,0.000000,0.000000*
21,1,0.015750,0.023620,0.000000,0.000000,0.000000*
1,1,0.003940,0.007870,-0.009840*
1,1,0.003940,-0.007870,-0.009840*
1,1,0.003940,-0.007870,0.009840*
1,1,0.003940,0.007870,0.009840*
%
%AMM66*
21,1,0.019680,0.019680,0.000000,0.000000,270.000000*
21,1,0.015750,0.023620,0.000000,0.000000,270.000000*
1,1,0.003940,-0.009840,-0.007870*
1,1,0.003940,-0.009840,0.007870*
1,1,0.003940,0.009840,0.007870*
1,1,0.003940,0.009840,-0.007870*
%
%AMM80*
21,1,0.023620,0.018900,0.000000,0.000000,0.000000*
21,1,0.018900,0.023620,0.000000,0.000000,0.000000*
1,1,0.004720,0.009450,-0.009450*
1,1,0.004720,-0.009450,-0.009450*
1,1,0.004720,-0.009450,0.009450*
1,1,0.004720,0.009450,0.009450*
%
%AMM81*
21,1,0.106300,0.050390,0.000000,0.000000,90.000000*
21,1,0.093700,0.062990,0.000000,0.000000,90.000000*
1,1,0.012600,0.025200,0.046850*
1,1,0.012600,0.025200,-0.046850*
1,1,0.012600,-0.025200,-0.046850*
1,1,0.012600,-0.025200,0.046850*
%
%AMM82*
21,1,0.033470,0.026770,0.000000,0.000000,270.000000*
21,1,0.026770,0.033470,0.000000,0.000000,270.000000*
1,1,0.006690,-0.013390,-0.013390*
1,1,0.006690,-0.013390,0.013390*
1,1,0.006690,0.013390,0.013390*
1,1,0.006690,0.013390,-0.013390*
%
%AMM83*
21,1,0.122050,0.075590,0.000000,0.000000,180.000000*
21,1,0.103150,0.094490,0.000000,0.000000,180.000000*
1,1,0.018900,-0.051580,0.037800*
1,1,0.018900,0.051580,0.037800*
1,1,0.018900,0.051580,-0.037800*
1,1,0.018900,-0.051580,-0.037800*
%
%AMM84*
21,1,0.118110,0.083460,0.000000,0.000000,0.000000*
21,1,0.097240,0.104330,0.000000,0.000000,0.000000*
1,1,0.020870,0.048620,-0.041730*
1,1,0.020870,-0.048620,-0.041730*
1,1,0.020870,-0.048620,0.041730*
1,1,0.020870,0.048620,0.041730*
%
%ADD139M35*%
%ADD140R,0.03937X0.04331*%
%ADD145R,0.09449X0.06693*%
%ADD151M44*%
%ADD152O,0.04961X0.00984*%
%ADD153R,0.00984X0.01378*%
%ADD154R,0.01378X0.00984*%
%ADD190M64*%
%ADD191M65*%
%ADD192M66*%
%ADD209M80*%
%ADD210M81*%
%ADD211M82*%
%ADD212O,0.01968X0.08661*%
%ADD213M83*%
%ADD214M84*%
%ADD31R,0.00787X0.09055*%
%ADD32R,0.00787X0.21260*%
%ADD327M151*%
%ADD33R,0.00787X0.33858*%
%ADD333M157*%
%ADD336M160*%
%ADD337M161*%
%ADD339M163*%
%ADD34R,0.00787X0.19685*%
%ADD342M166*%
%ADD35R,0.05512X0.00787*%
%ADD359M183*%
%ADD36R,0.19685X0.00787*%
%ADD360M184*%
%ADD361M185*%
%ADD362M186*%
%ADD363M187*%
%ADD364M188*%
%ADD365M189*%
%ADD366M190*%
%ADD367M191*%
%ADD368M192*%
%ADD369M193*%
%ADD37R,0.26772X0.00787*%
%ADD370M194*%
%ADD38R,0.17717X0.00787*%
%ADD39R,0.00787X0.06299*%
%ADD40R,0.00787X0.22441*%
%ADD406M229*%
%ADD407M230*%
%ADD408M231*%
%ADD409M232*%
%ADD41R,0.00787X0.07874*%
%ADD434R,0.01772X0.05709*%
%ADD435R,0.02559X0.04803*%
X0000000Y0000000D02*
%LPD*%
G01*
G36*
G01*
X0007933Y0178169D02*
X0007933Y0179941D01*
G75*
G02*
X0008228Y0180236I0000295J0000000D01*
G01*
X0015394Y0180236D01*
G75*
G02*
X0015689Y0179941I0000000J-000295D01*
G01*
X0015689Y0178169D01*
G75*
G02*
X0015394Y0177874I-000295J0000000D01*
G01*
X0008228Y0177874D01*
G75*
G02*
X0007933Y0178169I0000000J0000295D01*
G01*
G37*
G36*
G01*
X0007933Y0183169D02*
X0007933Y0184941D01*
G75*
G02*
X0008228Y0185236I0000295J0000000D01*
G01*
X0015394Y0185236D01*
G75*
G02*
X0015689Y0184941I0000000J-000295D01*
G01*
X0015689Y0183169D01*
G75*
G02*
X0015394Y0182874I-000295J0000000D01*
G01*
X0008228Y0182874D01*
G75*
G02*
X0007933Y0183169I0000000J0000295D01*
G01*
G37*
G36*
G01*
X0007933Y0188169D02*
X0007933Y0189941D01*
G75*
G02*
X0008228Y0190236I0000295J0000000D01*
G01*
X0015394Y0190236D01*
G75*
G02*
X0015689Y0189941I0000000J-000295D01*
G01*
X0015689Y0188169D01*
G75*
G02*
X0015394Y0187874I-000295J0000000D01*
G01*
X0008228Y0187874D01*
G75*
G02*
X0007933Y0188169I0000000J0000295D01*
G01*
G37*
G36*
G01*
X0007933Y0193169D02*
X0007933Y0194941D01*
G75*
G02*
X0008228Y0195236I0000295J0000000D01*
G01*
X0015394Y0195236D01*
G75*
G02*
X0015689Y0194941I0000000J-000295D01*
G01*
X0015689Y0193169D01*
G75*
G02*
X0015394Y0192874I-000295J0000000D01*
G01*
X0008228Y0192874D01*
G75*
G02*
X0007933Y0193169I0000000J0000295D01*
G01*
G37*
G36*
G01*
X0027421Y0193169D02*
X0027421Y0194941D01*
G75*
G02*
X0027717Y0195236I0000295J0000000D01*
G01*
X0034882Y0195236D01*
G75*
G02*
X0035177Y0194941I0000000J-000295D01*
G01*
X0035177Y0193169D01*
G75*
G02*
X0034882Y0192874I-000295J0000000D01*
G01*
X0027717Y0192874D01*
G75*
G02*
X0027421Y0193169I0000000J0000295D01*
G01*
G37*
G36*
G01*
X0027421Y0188169D02*
X0027421Y0189941D01*
G75*
G02*
X0027717Y0190236I0000295J0000000D01*
G01*
X0034882Y0190236D01*
G75*
G02*
X0035177Y0189941I0000000J-000295D01*
G01*
X0035177Y0188169D01*
G75*
G02*
X0034882Y0187874I-000295J0000000D01*
G01*
X0027717Y0187874D01*
G75*
G02*
X0027421Y0188169I0000000J0000295D01*
G01*
G37*
G36*
G01*
X0027421Y0183169D02*
X0027421Y0184941D01*
G75*
G02*
X0027717Y0185236I0000295J0000000D01*
G01*
X0034882Y0185236D01*
G75*
G02*
X0035177Y0184941I0000000J-000295D01*
G01*
X0035177Y0183169D01*
G75*
G02*
X0034882Y0182874I-000295J0000000D01*
G01*
X0027717Y0182874D01*
G75*
G02*
X0027421Y0183169I0000000J0000295D01*
G01*
G37*
G36*
G01*
X0027421Y0178169D02*
X0027421Y0179941D01*
G75*
G02*
X0027717Y0180236I0000295J0000000D01*
G01*
X0034882Y0180236D01*
G75*
G02*
X0035177Y0179941I0000000J-000295D01*
G01*
X0035177Y0178169D01*
G75*
G02*
X0034882Y0177874I-000295J0000000D01*
G01*
X0027717Y0177874D01*
G75*
G02*
X0027421Y0178169I0000000J0000295D01*
G01*
G37*
G36*
G01*
X0330453Y0306024D02*
X0328996Y0306024D01*
G75*
G02*
X0328465Y0306555I0000000J0000531D01*
G01*
X0328465Y0307618D01*
G75*
G02*
X0328996Y0308150I0000531J0000000D01*
G01*
X0330453Y0308150D01*
G75*
G02*
X0330984Y0307618I0000000J-000531D01*
G01*
X0330984Y0306555D01*
G75*
G02*
X0330453Y0306024I-000531J0000000D01*
G01*
G37*
G36*
G01*
X0330453Y0310039D02*
X0328996Y0310039D01*
G75*
G02*
X0328465Y0310571I0000000J0000531D01*
G01*
X0328465Y0311634D01*
G75*
G02*
X0328996Y0312165I0000531J0000000D01*
G01*
X0330453Y0312165D01*
G75*
G02*
X0330984Y0311634I0000000J-000531D01*
G01*
X0330984Y0310571D01*
G75*
G02*
X0330453Y0310039I-000531J0000000D01*
G01*
G37*
G36*
G01*
X0344882Y0331201D02*
X0344882Y0328248D01*
G75*
G02*
X0343996Y0327362I-000886J0000000D01*
G01*
X0342224Y0327362D01*
G75*
G02*
X0341339Y0328248I0000000J0000886D01*
G01*
X0341339Y0331201D01*
G75*
G02*
X0342224Y0332087I0000886J0000000D01*
G01*
X0343996Y0332087D01*
G75*
G02*
X0344882Y0331201I0000000J-000886D01*
G01*
G37*
G36*
G01*
X0331890Y0331201D02*
X0331890Y0328248D01*
G75*
G02*
X0331004Y0327362I-000886J0000000D01*
G01*
X0329232Y0327362D01*
G75*
G02*
X0328346Y0328248I0000000J0000886D01*
G01*
X0328346Y0331201D01*
G75*
G02*
X0329232Y0332087I0000886J0000000D01*
G01*
X0331004Y0332087D01*
G75*
G02*
X0331890Y0331201I0000000J-000886D01*
G01*
G37*
G36*
G01*
X0137539Y0015630D02*
X0136083Y0015630D01*
G75*
G02*
X0135551Y0016161I0000000J0000531D01*
G01*
X0135551Y0017224D01*
G75*
G02*
X0136083Y0017756I0000531J0000000D01*
G01*
X0137539Y0017756D01*
G75*
G02*
X0138071Y0017224I0000000J-000531D01*
G01*
X0138071Y0016161D01*
G75*
G02*
X0137539Y0015630I-000531J0000000D01*
G01*
G37*
G36*
G01*
X0137539Y0019646D02*
X0136083Y0019646D01*
G75*
G02*
X0135551Y0020177I0000000J0000531D01*
G01*
X0135551Y0021240D01*
G75*
G02*
X0136083Y0021772I0000531J0000000D01*
G01*
X0137539Y0021772D01*
G75*
G02*
X0138071Y0021240I0000000J-000531D01*
G01*
X0138071Y0020177D01*
G75*
G02*
X0137539Y0019646I-000531J0000000D01*
G01*
G37*
G36*
G01*
X0008031Y0224882D02*
X0008031Y0226654D01*
G75*
G02*
X0008327Y0226949I0000295J0000000D01*
G01*
X0015492Y0226949D01*
G75*
G02*
X0015787Y0226654I0000000J-000295D01*
G01*
X0015787Y0224882D01*
G75*
G02*
X0015492Y0224587I-000295J0000000D01*
G01*
X0008327Y0224587D01*
G75*
G02*
X0008031Y0224882I0000000J0000295D01*
G01*
G37*
G36*
G01*
X0008031Y0229882D02*
X0008031Y0231654D01*
G75*
G02*
X0008327Y0231949I0000295J0000000D01*
G01*
X0015492Y0231949D01*
G75*
G02*
X0015787Y0231654I0000000J-000295D01*
G01*
X0015787Y0229882D01*
G75*
G02*
X0015492Y0229587I-000295J0000000D01*
G01*
X0008327Y0229587D01*
G75*
G02*
X0008031Y0229882I0000000J0000295D01*
G01*
G37*
G36*
G01*
X0008031Y0234882D02*
X0008031Y0236654D01*
G75*
G02*
X0008327Y0236949I0000295J0000000D01*
G01*
X0015492Y0236949D01*
G75*
G02*
X0015787Y0236654I0000000J-000295D01*
G01*
X0015787Y0234882D01*
G75*
G02*
X0015492Y0234587I-000295J0000000D01*
G01*
X0008327Y0234587D01*
G75*
G02*
X0008031Y0234882I0000000J0000295D01*
G01*
G37*
G36*
G01*
X0008031Y0239882D02*
X0008031Y0241654D01*
G75*
G02*
X0008327Y0241949I0000295J0000000D01*
G01*
X0015492Y0241949D01*
G75*
G02*
X0015787Y0241654I0000000J-000295D01*
G01*
X0015787Y0239882D01*
G75*
G02*
X0015492Y0239587I-000295J0000000D01*
G01*
X0008327Y0239587D01*
G75*
G02*
X0008031Y0239882I0000000J0000295D01*
G01*
G37*
G36*
G01*
X0027520Y0239882D02*
X0027520Y0241654D01*
G75*
G02*
X0027815Y0241949I0000295J0000000D01*
G01*
X0034980Y0241949D01*
G75*
G02*
X0035276Y0241654I0000000J-000295D01*
G01*
X0035276Y0239882D01*
G75*
G02*
X0034980Y0239587I-000295J0000000D01*
G01*
X0027815Y0239587D01*
G75*
G02*
X0027520Y0239882I0000000J0000295D01*
G01*
G37*
G36*
G01*
X0027520Y0234882D02*
X0027520Y0236654D01*
G75*
G02*
X0027815Y0236949I0000295J0000000D01*
G01*
X0034980Y0236949D01*
G75*
G02*
X0035276Y0236654I0000000J-000295D01*
G01*
X0035276Y0234882D01*
G75*
G02*
X0034980Y0234587I-000295J0000000D01*
G01*
X0027815Y0234587D01*
G75*
G02*
X0027520Y0234882I0000000J0000295D01*
G01*
G37*
G36*
G01*
X0027520Y0229882D02*
X0027520Y0231654D01*
G75*
G02*
X0027815Y0231949I0000295J0000000D01*
G01*
X0034980Y0231949D01*
G75*
G02*
X0035276Y0231654I0000000J-000295D01*
G01*
X0035276Y0229882D01*
G75*
G02*
X0034980Y0229587I-000295J0000000D01*
G01*
X0027815Y0229587D01*
G75*
G02*
X0027520Y0229882I0000000J0000295D01*
G01*
G37*
G36*
G01*
X0027520Y0224882D02*
X0027520Y0226654D01*
G75*
G02*
X0027815Y0226949I0000295J0000000D01*
G01*
X0034980Y0226949D01*
G75*
G02*
X0035276Y0226654I0000000J-000295D01*
G01*
X0035276Y0224882D01*
G75*
G02*
X0034980Y0224587I-000295J0000000D01*
G01*
X0027815Y0224587D01*
G75*
G02*
X0027520Y0224882I0000000J0000295D01*
G01*
G37*
G36*
G01*
X0022244Y0345965D02*
X0022244Y0348917D01*
G75*
G02*
X0023130Y0349803I0000886J0000000D01*
G01*
X0024902Y0349803D01*
G75*
G02*
X0025787Y0348917I0000000J-000886D01*
G01*
X0025787Y0345965D01*
G75*
G02*
X0024902Y0345079I-000886J0000000D01*
G01*
X0023130Y0345079D01*
G75*
G02*
X0022244Y0345965I0000000J0000886D01*
G01*
G37*
G36*
G01*
X0035236Y0345965D02*
X0035236Y0348917D01*
G75*
G02*
X0036122Y0349803I0000886J0000000D01*
G01*
X0037894Y0349803D01*
G75*
G02*
X0038780Y0348917I0000000J-000886D01*
G01*
X0038780Y0345965D01*
G75*
G02*
X0037894Y0345079I-000886J0000000D01*
G01*
X0036122Y0345079D01*
G75*
G02*
X0035236Y0345965I0000000J0000886D01*
G01*
G37*
G36*
G01*
X0008031Y0201260D02*
X0008031Y0203031D01*
G75*
G02*
X0008327Y0203327I0000295J0000000D01*
G01*
X0015492Y0203327D01*
G75*
G02*
X0015787Y0203031I0000000J-000295D01*
G01*
X0015787Y0201260D01*
G75*
G02*
X0015492Y0200965I-000295J0000000D01*
G01*
X0008327Y0200965D01*
G75*
G02*
X0008031Y0201260I0000000J0000295D01*
G01*
G37*
G36*
G01*
X0008031Y0206260D02*
X0008031Y0208031D01*
G75*
G02*
X0008327Y0208327I0000295J0000000D01*
G01*
X0015492Y0208327D01*
G75*
G02*
X0015787Y0208031I0000000J-000295D01*
G01*
X0015787Y0206260D01*
G75*
G02*
X0015492Y0205965I-000295J0000000D01*
G01*
X0008327Y0205965D01*
G75*
G02*
X0008031Y0206260I0000000J0000295D01*
G01*
G37*
G36*
G01*
X0008031Y0211260D02*
X0008031Y0213031D01*
G75*
G02*
X0008327Y0213327I0000295J0000000D01*
G01*
X0015492Y0213327D01*
G75*
G02*
X0015787Y0213031I0000000J-000295D01*
G01*
X0015787Y0211260D01*
G75*
G02*
X0015492Y0210965I-000295J0000000D01*
G01*
X0008327Y0210965D01*
G75*
G02*
X0008031Y0211260I0000000J0000295D01*
G01*
G37*
G36*
G01*
X0008031Y0216260D02*
X0008031Y0218031D01*
G75*
G02*
X0008327Y0218327I0000295J0000000D01*
G01*
X0015492Y0218327D01*
G75*
G02*
X0015787Y0218031I0000000J-000295D01*
G01*
X0015787Y0216260D01*
G75*
G02*
X0015492Y0215965I-000295J0000000D01*
G01*
X0008327Y0215965D01*
G75*
G02*
X0008031Y0216260I0000000J0000295D01*
G01*
G37*
G36*
G01*
X0027520Y0216260D02*
X0027520Y0218031D01*
G75*
G02*
X0027815Y0218327I0000295J0000000D01*
G01*
X0034980Y0218327D01*
G75*
G02*
X0035276Y0218031I0000000J-000295D01*
G01*
X0035276Y0216260D01*
G75*
G02*
X0034980Y0215965I-000295J0000000D01*
G01*
X0027815Y0215965D01*
G75*
G02*
X0027520Y0216260I0000000J0000295D01*
G01*
G37*
G36*
G01*
X0027520Y0211260D02*
X0027520Y0213031D01*
G75*
G02*
X0027815Y0213327I0000295J0000000D01*
G01*
X0034980Y0213327D01*
G75*
G02*
X0035276Y0213031I0000000J-000295D01*
G01*
X0035276Y0211260D01*
G75*
G02*
X0034980Y0210965I-000295J0000000D01*
G01*
X0027815Y0210965D01*
G75*
G02*
X0027520Y0211260I0000000J0000295D01*
G01*
G37*
G36*
G01*
X0027520Y0206260D02*
X0027520Y0208031D01*
G75*
G02*
X0027815Y0208327I0000295J0000000D01*
G01*
X0034980Y0208327D01*
G75*
G02*
X0035276Y0208031I0000000J-000295D01*
G01*
X0035276Y0206260D01*
G75*
G02*
X0034980Y0205965I-000295J0000000D01*
G01*
X0027815Y0205965D01*
G75*
G02*
X0027520Y0206260I0000000J0000295D01*
G01*
G37*
G36*
G01*
X0027520Y0201260D02*
X0027520Y0203031D01*
G75*
G02*
X0027815Y0203327I0000295J0000000D01*
G01*
X0034980Y0203327D01*
G75*
G02*
X0035276Y0203031I0000000J-000295D01*
G01*
X0035276Y0201260D01*
G75*
G02*
X0034980Y0200965I-000295J0000000D01*
G01*
X0027815Y0200965D01*
G75*
G02*
X0027520Y0201260I0000000J0000295D01*
G01*
G37*
G36*
G01*
X0133602Y0015630D02*
X0132146Y0015630D01*
G75*
G02*
X0131614Y0016161I0000000J0000531D01*
G01*
X0131614Y0017224D01*
G75*
G02*
X0132146Y0017756I0000531J0000000D01*
G01*
X0133602Y0017756D01*
G75*
G02*
X0134134Y0017224I0000000J-000531D01*
G01*
X0134134Y0016161D01*
G75*
G02*
X0133602Y0015630I-000531J0000000D01*
G01*
G37*
G36*
G01*
X0133602Y0019646D02*
X0132146Y0019646D01*
G75*
G02*
X0131614Y0020177I0000000J0000531D01*
G01*
X0131614Y0021240D01*
G75*
G02*
X0132146Y0021772I0000531J0000000D01*
G01*
X0133602Y0021772D01*
G75*
G02*
X0134134Y0021240I0000000J-000531D01*
G01*
X0134134Y0020177D01*
G75*
G02*
X0133602Y0019646I-000531J0000000D01*
G01*
G37*
G36*
G01*
X0046850Y0345965D02*
X0046850Y0348917D01*
G75*
G02*
X0047736Y0349803I0000886J0000000D01*
G01*
X0049508Y0349803D01*
G75*
G02*
X0050394Y0348917I0000000J-000886D01*
G01*
X0050394Y0345965D01*
G75*
G02*
X0049508Y0345079I-000886J0000000D01*
G01*
X0047736Y0345079D01*
G75*
G02*
X0046850Y0345965I0000000J0000886D01*
G01*
G37*
G36*
G01*
X0059843Y0345965D02*
X0059843Y0348917D01*
G75*
G02*
X0060728Y0349803I0000886J0000000D01*
G01*
X0062500Y0349803D01*
G75*
G02*
X0063386Y0348917I0000000J-000886D01*
G01*
X0063386Y0345965D01*
G75*
G02*
X0062500Y0345079I-000886J0000000D01*
G01*
X0060728Y0345079D01*
G75*
G02*
X0059843Y0345965I0000000J0000886D01*
G01*
G37*
G36*
G01*
X0008031Y0154016D02*
X0008031Y0155787D01*
G75*
G02*
X0008327Y0156083I0000295J0000000D01*
G01*
X0015492Y0156083D01*
G75*
G02*
X0015787Y0155787I0000000J-000295D01*
G01*
X0015787Y0154016D01*
G75*
G02*
X0015492Y0153720I-000295J0000000D01*
G01*
X0008327Y0153720D01*
G75*
G02*
X0008031Y0154016I0000000J0000295D01*
G01*
G37*
G36*
G01*
X0008031Y0159016D02*
X0008031Y0160787D01*
G75*
G02*
X0008327Y0161083I0000295J0000000D01*
G01*
X0015492Y0161083D01*
G75*
G02*
X0015787Y0160787I0000000J-000295D01*
G01*
X0015787Y0159016D01*
G75*
G02*
X0015492Y0158720I-000295J0000000D01*
G01*
X0008327Y0158720D01*
G75*
G02*
X0008031Y0159016I0000000J0000295D01*
G01*
G37*
G36*
G01*
X0008031Y0164016D02*
X0008031Y0165787D01*
G75*
G02*
X0008327Y0166083I0000295J0000000D01*
G01*
X0015492Y0166083D01*
G75*
G02*
X0015787Y0165787I0000000J-000295D01*
G01*
X0015787Y0164016D01*
G75*
G02*
X0015492Y0163720I-000295J0000000D01*
G01*
X0008327Y0163720D01*
G75*
G02*
X0008031Y0164016I0000000J0000295D01*
G01*
G37*
G36*
G01*
X0008031Y0169016D02*
X0008031Y0170787D01*
G75*
G02*
X0008327Y0171083I0000295J0000000D01*
G01*
X0015492Y0171083D01*
G75*
G02*
X0015787Y0170787I0000000J-000295D01*
G01*
X0015787Y0169016D01*
G75*
G02*
X0015492Y0168720I-000295J0000000D01*
G01*
X0008327Y0168720D01*
G75*
G02*
X0008031Y0169016I0000000J0000295D01*
G01*
G37*
G36*
G01*
X0027520Y0169016D02*
X0027520Y0170787D01*
G75*
G02*
X0027815Y0171083I0000295J0000000D01*
G01*
X0034980Y0171083D01*
G75*
G02*
X0035276Y0170787I0000000J-000295D01*
G01*
X0035276Y0169016D01*
G75*
G02*
X0034980Y0168720I-000295J0000000D01*
G01*
X0027815Y0168720D01*
G75*
G02*
X0027520Y0169016I0000000J0000295D01*
G01*
G37*
G36*
G01*
X0027520Y0164016D02*
X0027520Y0165787D01*
G75*
G02*
X0027815Y0166083I0000295J0000000D01*
G01*
X0034980Y0166083D01*
G75*
G02*
X0035276Y0165787I0000000J-000295D01*
G01*
X0035276Y0164016D01*
G75*
G02*
X0034980Y0163720I-000295J0000000D01*
G01*
X0027815Y0163720D01*
G75*
G02*
X0027520Y0164016I0000000J0000295D01*
G01*
G37*
G36*
G01*
X0027520Y0159016D02*
X0027520Y0160787D01*
G75*
G02*
X0027815Y0161083I0000295J0000000D01*
G01*
X0034980Y0161083D01*
G75*
G02*
X0035276Y0160787I0000000J-000295D01*
G01*
X0035276Y0159016D01*
G75*
G02*
X0034980Y0158720I-000295J0000000D01*
G01*
X0027815Y0158720D01*
G75*
G02*
X0027520Y0159016I0000000J0000295D01*
G01*
G37*
G36*
G01*
X0027520Y0154016D02*
X0027520Y0155787D01*
G75*
G02*
X0027815Y0156083I0000295J0000000D01*
G01*
X0034980Y0156083D01*
G75*
G02*
X0035276Y0155787I0000000J-000295D01*
G01*
X0035276Y0154016D01*
G75*
G02*
X0034980Y0153720I-000295J0000000D01*
G01*
X0027815Y0153720D01*
G75*
G02*
X0027520Y0154016I0000000J0000295D01*
G01*
G37*
G36*
G01*
X0319626Y0305984D02*
X0318169Y0305984D01*
G75*
G02*
X0317638Y0306516I0000000J0000531D01*
G01*
X0317638Y0307579D01*
G75*
G02*
X0318169Y0308110I0000531J0000000D01*
G01*
X0319626Y0308110D01*
G75*
G02*
X0320157Y0307579I0000000J-000531D01*
G01*
X0320157Y0306516D01*
G75*
G02*
X0319626Y0305984I-000531J0000000D01*
G01*
G37*
G36*
G01*
X0319626Y0310000D02*
X0318169Y0310000D01*
G75*
G02*
X0317638Y0310531I0000000J0000531D01*
G01*
X0317638Y0311594D01*
G75*
G02*
X0318169Y0312126I0000531J0000000D01*
G01*
X0319626Y0312126D01*
G75*
G02*
X0320157Y0311594I0000000J-000531D01*
G01*
X0320157Y0310531D01*
G75*
G02*
X0319626Y0310000I-000531J0000000D01*
G01*
G37*
G36*
G01*
X0303150Y0328248D02*
X0303150Y0331201D01*
G75*
G02*
X0304035Y0332087I0000886J0000000D01*
G01*
X0305807Y0332087D01*
G75*
G02*
X0306693Y0331201I0000000J-000886D01*
G01*
X0306693Y0328248D01*
G75*
G02*
X0305807Y0327362I-000886J0000000D01*
G01*
X0304035Y0327362D01*
G75*
G02*
X0303150Y0328248I0000000J0000886D01*
G01*
G37*
G36*
G01*
X0316142Y0328248D02*
X0316142Y0331201D01*
G75*
G02*
X0317028Y0332087I0000886J0000000D01*
G01*
X0318799Y0332087D01*
G75*
G02*
X0319685Y0331201I0000000J-000886D01*
G01*
X0319685Y0328248D01*
G75*
G02*
X0318799Y0327362I-000886J0000000D01*
G01*
X0317028Y0327362D01*
G75*
G02*
X0316142Y0328248I0000000J0000886D01*
G01*
G37*
X0285532Y0238878D02*
G01*
G75*
D32*
X0285138Y0211319D02*
D03*
D31*
X0285138Y0234350D02*
D03*
D34*
X0285138Y0186910D02*
D03*
D41*
X0119390Y0234941D02*
D03*
D36*
X0272540Y0081398D02*
D03*
D37*
X0239075Y0081398D02*
D03*
D38*
X0200296Y0081398D02*
D03*
D40*
X0119390Y0212697D02*
D03*
D39*
X0119390Y0087303D02*
D03*
D35*
X0278052Y0238484D02*
D03*
D33*
X0285138Y0101083D02*
D03*
D327*
X0273917Y0137636D02*
D03*
X0264665Y0133896D02*
D03*
D327*
X0273917Y0130155D02*
D03*
D333*
X0137550Y0142421D02*
D03*
X0137550Y0146358D02*
D03*
X0253839Y0186910D02*
D03*
X0253839Y0182973D02*
D03*
X0133170Y0143996D02*
D03*
X0133170Y0147933D02*
D03*
X0256890Y0084744D02*
D03*
X0256890Y0088681D02*
D03*
X0223707Y0162106D02*
D03*
X0223707Y0166043D02*
D03*
X0206802Y0162178D02*
D03*
X0206802Y0158241D02*
D03*
X0228839Y0165650D02*
D03*
X0228839Y0161713D02*
D03*
X0280033Y0182062D02*
D03*
X0280033Y0185999D02*
D03*
X0262304Y0112894D02*
D03*
X0262304Y0116831D02*
D03*
X0282776Y0093799D02*
D03*
X0282776Y0089862D02*
D03*
X0150886Y0169587D02*
D03*
X0150886Y0173524D02*
D03*
X0224508Y0105020D02*
D03*
X0224508Y0101083D02*
D03*
X0194291Y0171457D02*
D03*
X0194291Y0167520D02*
D03*
X0205316Y0090157D02*
D03*
X0205316Y0086221D02*
D03*
X0152461Y0157776D02*
D03*
X0152461Y0161713D02*
D03*
X0148524Y0157776D02*
D03*
X0148524Y0161713D02*
D03*
X0278642Y0093799D02*
D03*
X0278642Y0089862D02*
D03*
X0141634Y0142421D02*
D03*
X0141634Y0146358D02*
D03*
X0141831Y0119980D02*
D03*
X0141831Y0123917D02*
D03*
X0189961Y0171457D02*
D03*
X0189961Y0167520D02*
D03*
X0186319Y0084941D02*
D03*
X0186319Y0088878D02*
D03*
X0224508Y0134547D02*
D03*
X0224508Y0130610D02*
D03*
X0224508Y0138091D02*
D03*
X0224508Y0142028D02*
D03*
X0237894Y0214469D02*
D03*
X0237894Y0218406D02*
D03*
X0233170Y0214469D02*
D03*
X0233170Y0218406D02*
D03*
X0228445Y0214469D02*
D03*
X0228445Y0218406D02*
D03*
X0223721Y0214469D02*
D03*
X0223721Y0218406D02*
D03*
X0139075Y0233760D02*
D03*
X0139075Y0229823D02*
D03*
X0134351Y0229823D02*
D03*
X0134351Y0233760D02*
D03*
X0129627Y0233760D02*
D03*
X0129627Y0229823D02*
D03*
X0124902Y0233760D02*
D03*
X0124902Y0229823D02*
D03*
X0257776Y0186910D02*
D03*
X0257776Y0182973D02*
D03*
X0229823Y0186910D02*
D03*
X0229823Y0182973D02*
D03*
X0261516Y0214469D02*
D03*
X0261516Y0218406D02*
D03*
X0266240Y0214469D02*
D03*
X0266240Y0218406D02*
D03*
X0270965Y0214469D02*
D03*
X0270965Y0218406D02*
D03*
X0275689Y0214469D02*
D03*
X0275689Y0218406D02*
D03*
X0242618Y0214469D02*
D03*
X0242618Y0218406D02*
D03*
X0247343Y0214469D02*
D03*
X0247343Y0218406D02*
D03*
X0252067Y0214469D02*
D03*
X0252067Y0218406D02*
D03*
X0256792Y0214469D02*
D03*
X0256792Y0218406D02*
D03*
X0204823Y0214469D02*
D03*
X0204823Y0218406D02*
D03*
X0209547Y0214469D02*
D03*
X0209547Y0218406D02*
D03*
X0214272Y0214469D02*
D03*
X0214272Y0218406D02*
D03*
X0218996Y0214469D02*
D03*
X0218996Y0218406D02*
D03*
X0185925Y0218406D02*
D03*
X0185925Y0214469D02*
D03*
X0190650Y0214469D02*
D03*
X0190650Y0218406D02*
D03*
X0195374Y0214469D02*
D03*
X0195374Y0218406D02*
D03*
X0200099Y0214469D02*
D03*
X0200099Y0218406D02*
D03*
X0167028Y0214469D02*
D03*
X0167028Y0218406D02*
D03*
X0171752Y0214469D02*
D03*
X0171752Y0218406D02*
D03*
X0176477Y0214469D02*
D03*
X0176477Y0218406D02*
D03*
X0181201Y0214469D02*
D03*
X0181201Y0218406D02*
D03*
X0152855Y0214469D02*
D03*
X0152855Y0218406D02*
D03*
X0157579Y0214469D02*
D03*
X0157579Y0218406D02*
D03*
X0162304Y0214469D02*
D03*
X0162304Y0218406D02*
D03*
X0280808Y0223721D02*
D03*
X0280808Y0219784D02*
D03*
X0143799Y0229823D02*
D03*
X0143799Y0233760D02*
D03*
X0229823Y0197146D02*
D03*
X0229823Y0193209D02*
D03*
X0142225Y0218406D02*
D03*
X0142225Y0214469D02*
D03*
X0280808Y0231398D02*
D03*
X0280808Y0227461D02*
D03*
X0142225Y0222343D02*
D03*
X0142225Y0226280D02*
D03*
X0137107Y0092028D02*
D03*
X0137107Y0095965D02*
D03*
X0148130Y0214469D02*
D03*
X0148130Y0218406D02*
D03*
D336*
X0248130Y0122047D02*
D03*
X0241044Y0122047D02*
D03*
X0241044Y0132087D02*
D03*
X0248130Y0132087D02*
D03*
X0233563Y0170276D02*
D03*
X0240650Y0170276D02*
D03*
X0240650Y0160236D02*
D03*
X0233563Y0160236D02*
D03*
X0233563Y0154134D02*
D03*
X0240650Y0154134D02*
D03*
X0240650Y0144094D02*
D03*
X0233563Y0144094D02*
D03*
X0138091Y0189961D02*
D03*
X0145178Y0189961D02*
D03*
X0145178Y0200000D02*
D03*
X0138091Y0200000D02*
D03*
X0156595Y0200000D02*
D03*
X0149508Y0200000D02*
D03*
X0149508Y0189961D02*
D03*
X0156595Y0189961D02*
D03*
X0206595Y0189961D02*
D03*
X0213681Y0189961D02*
D03*
X0213681Y0200000D02*
D03*
X0206595Y0200000D02*
D03*
X0225099Y0200000D02*
D03*
X0218012Y0200000D02*
D03*
X0218012Y0189961D02*
D03*
X0225099Y0189961D02*
D03*
X0183760Y0189961D02*
D03*
X0190847Y0189961D02*
D03*
X0190847Y0200000D02*
D03*
X0183760Y0200000D02*
D03*
X0202264Y0200000D02*
D03*
X0195177Y0200000D02*
D03*
X0195177Y0189961D02*
D03*
X0202264Y0189961D02*
D03*
X0160925Y0189961D02*
D03*
X0168012Y0189961D02*
D03*
X0168012Y0200000D02*
D03*
X0160925Y0200000D02*
D03*
X0179429Y0200000D02*
D03*
X0172343Y0200000D02*
D03*
X0172343Y0189961D02*
D03*
X0179429Y0189961D02*
D03*
D337*
X0241044Y0128642D02*
D03*
X0241044Y0125492D02*
D03*
X0248130Y0125492D02*
D03*
X0248130Y0128642D02*
D03*
X0240650Y0163681D02*
D03*
X0240650Y0166831D02*
D03*
X0233563Y0166831D02*
D03*
X0233563Y0163681D02*
D03*
X0240650Y0147539D02*
D03*
X0240650Y0150689D02*
D03*
X0233563Y0150689D02*
D03*
X0233563Y0147539D02*
D03*
X0138091Y0193406D02*
D03*
X0138091Y0196555D02*
D03*
X0145178Y0196555D02*
D03*
X0145178Y0193406D02*
D03*
X0156595Y0196555D02*
D03*
X0156595Y0193406D02*
D03*
X0149508Y0193406D02*
D03*
X0149508Y0196555D02*
D03*
X0206595Y0193406D02*
D03*
X0206595Y0196555D02*
D03*
X0213681Y0196555D02*
D03*
X0213681Y0193406D02*
D03*
X0225099Y0196555D02*
D03*
X0225099Y0193406D02*
D03*
X0218012Y0193406D02*
D03*
X0218012Y0196555D02*
D03*
X0183760Y0193406D02*
D03*
X0183760Y0196555D02*
D03*
X0190847Y0196555D02*
D03*
X0190847Y0193406D02*
D03*
X0202264Y0196555D02*
D03*
X0202264Y0193406D02*
D03*
X0195177Y0193406D02*
D03*
X0195177Y0196555D02*
D03*
X0160925Y0193406D02*
D03*
X0160925Y0196555D02*
D03*
X0168012Y0196555D02*
D03*
X0168012Y0193406D02*
D03*
X0179429Y0196555D02*
D03*
X0179429Y0193406D02*
D03*
X0172343Y0193406D02*
D03*
X0172343Y0196555D02*
D03*
D339*
X0260138Y0128051D02*
D03*
X0260138Y0125492D02*
D03*
X0260138Y0122933D02*
D03*
X0252658Y0122933D02*
D03*
X0252658Y0128051D02*
D03*
D342*
X0241831Y0087500D02*
D03*
X0245768Y0087500D02*
D03*
X0125689Y0103248D02*
D03*
X0129627Y0103248D02*
D03*
X0266789Y0108069D02*
D03*
X0262852Y0108069D02*
D03*
X0241044Y0114075D02*
D03*
X0244981Y0114075D02*
D03*
X0252855Y0114075D02*
D03*
X0248918Y0114075D02*
D03*
X0144193Y0168799D02*
D03*
X0140256Y0168799D02*
D03*
X0213485Y0086909D02*
D03*
X0209548Y0086909D02*
D03*
X0144784Y0099114D02*
D03*
X0140847Y0099114D02*
D03*
X0172146Y0088091D02*
D03*
X0168209Y0088091D02*
D03*
X0216622Y0174900D02*
D03*
X0220559Y0174900D02*
D03*
X0225886Y0152264D02*
D03*
X0221949Y0152264D02*
D03*
X0215847Y0153839D02*
D03*
X0211910Y0153839D02*
D03*
X0216634Y0125492D02*
D03*
X0212697Y0125492D02*
D03*
X0121359Y0085335D02*
D03*
X0125296Y0085335D02*
D03*
X0234548Y0086319D02*
D03*
X0238485Y0086319D02*
D03*
X0252461Y0100689D02*
D03*
X0248524Y0100689D02*
D03*
X0141437Y0162500D02*
D03*
X0137500Y0162500D02*
D03*
X0141437Y0158563D02*
D03*
X0137500Y0158563D02*
D03*
X0140847Y0095177D02*
D03*
X0144784Y0095177D02*
D03*
X0167914Y0171063D02*
D03*
X0171851Y0171063D02*
D03*
X0224508Y0125886D02*
D03*
X0220571Y0125886D02*
D03*
X0224508Y0157579D02*
D03*
X0220571Y0157579D02*
D03*
X0216241Y0102264D02*
D03*
X0212304Y0102264D02*
D03*
X0217028Y0117618D02*
D03*
X0213091Y0117618D02*
D03*
X0202166Y0171457D02*
D03*
X0198229Y0171457D02*
D03*
X0147933Y0183760D02*
D03*
X0151870Y0183760D02*
D03*
X0216437Y0183760D02*
D03*
X0220374Y0183760D02*
D03*
X0193603Y0183760D02*
D03*
X0197540Y0183760D02*
D03*
X0170768Y0183760D02*
D03*
X0174705Y0183760D02*
D03*
X0209941Y0207776D02*
D03*
X0213878Y0207776D02*
D03*
X0264993Y0204232D02*
D03*
X0261056Y0204232D02*
D03*
X0274182Y0204232D02*
D03*
X0278119Y0204232D02*
D03*
X0240189Y0204232D02*
D03*
X0236252Y0204232D02*
D03*
X0249378Y0204232D02*
D03*
X0253315Y0204232D02*
D03*
X0276280Y0122343D02*
D03*
X0280217Y0122343D02*
D03*
X0271752Y0122343D02*
D03*
X0267815Y0122343D02*
D03*
X0234744Y0210532D02*
D03*
X0238681Y0210532D02*
D03*
X0281595Y0172736D02*
D03*
X0277658Y0172736D02*
D03*
X0281595Y0160335D02*
D03*
X0277658Y0160335D02*
D03*
X0281595Y0156201D02*
D03*
X0277658Y0156201D02*
D03*
X0281595Y0147933D02*
D03*
X0277658Y0147933D02*
D03*
X0281595Y0152067D02*
D03*
X0277658Y0152067D02*
D03*
X0281595Y0143799D02*
D03*
X0277658Y0143799D02*
D03*
X0281595Y0164468D02*
D03*
X0277658Y0164468D02*
D03*
X0281595Y0168602D02*
D03*
X0277658Y0168602D02*
D03*
D359*
X0231555Y0121358D02*
D03*
X0225335Y0121358D02*
D03*
D360*
X0128952Y0111007D02*
D03*
X0125212Y0120259D02*
D03*
X0211381Y0168758D02*
D03*
X0215121Y0159506D02*
D03*
X0274902Y0107894D02*
D03*
X0278642Y0098642D02*
D03*
X0269193Y0094469D02*
D03*
X0265453Y0103720D02*
D03*
X0132579Y0202854D02*
D03*
X0128839Y0212106D02*
D03*
X0128839Y0197211D02*
D03*
X0132579Y0187959D02*
D03*
X0132579Y0173064D02*
D03*
X0128839Y0182316D02*
D03*
X0133366Y0158169D02*
D03*
X0129626Y0167421D02*
D03*
D360*
X0132692Y0120259D02*
D03*
X0218861Y0168758D02*
D03*
X0282382Y0107894D02*
D03*
X0261713Y0094468D02*
D03*
X0125099Y0202854D02*
D03*
X0125099Y0187959D02*
D03*
X0125099Y0173064D02*
D03*
X0125886Y0158169D02*
D03*
D361*
X0281201Y0115256D02*
D03*
X0268209Y0115256D02*
D03*
X0243800Y0105020D02*
D03*
X0230807Y0105020D02*
D03*
D140*
X0248721Y0106595D02*
D03*
X0255414Y0106595D02*
D03*
D362*
X0126477Y0144390D02*
D03*
X0126477Y0132973D02*
D03*
D363*
X0188406Y0133354D02*
D03*
X0184075Y0133354D02*
D03*
X0179744Y0133354D02*
D03*
X0175414Y0133354D02*
D03*
X0171083Y0133354D02*
D03*
X0166752Y0133354D02*
D03*
X0162421Y0133354D02*
D03*
X0158091Y0133354D02*
D03*
D364*
X0148721Y0143590D02*
D03*
X0148721Y0110913D02*
D03*
X0202854Y0110913D02*
D03*
X0202854Y0143590D02*
D03*
D145*
X0213484Y0132382D02*
D03*
X0213484Y0146949D02*
D03*
D365*
X0166929Y0156201D02*
D03*
X0166929Y0163287D02*
D03*
X0156890Y0163287D02*
D03*
X0156890Y0156201D02*
D03*
X0235827Y0231201D02*
D03*
X0235827Y0224114D02*
D03*
X0225788Y0224114D02*
D03*
X0225788Y0231201D02*
D03*
X0263977Y0196752D02*
D03*
X0263977Y0189665D02*
D03*
X0274016Y0189665D02*
D03*
X0274016Y0196752D02*
D03*
X0274016Y0178248D02*
D03*
X0274016Y0185335D02*
D03*
X0263977Y0185335D02*
D03*
X0263977Y0178248D02*
D03*
X0236024Y0196752D02*
D03*
X0236024Y0189665D02*
D03*
X0246063Y0189665D02*
D03*
X0246063Y0196752D02*
D03*
X0246063Y0178248D02*
D03*
X0246063Y0185335D02*
D03*
X0236024Y0185335D02*
D03*
X0236024Y0178248D02*
D03*
X0273622Y0231201D02*
D03*
X0273622Y0224114D02*
D03*
X0263583Y0224114D02*
D03*
X0263583Y0231201D02*
D03*
X0254725Y0231201D02*
D03*
X0254725Y0224114D02*
D03*
X0244686Y0224114D02*
D03*
X0244686Y0231201D02*
D03*
X0216930Y0231201D02*
D03*
X0216930Y0224114D02*
D03*
X0206890Y0224114D02*
D03*
X0206890Y0231201D02*
D03*
X0198032Y0231201D02*
D03*
X0198032Y0224114D02*
D03*
X0187992Y0224114D02*
D03*
X0187992Y0231201D02*
D03*
X0179134Y0231201D02*
D03*
X0179134Y0224114D02*
D03*
X0169095Y0224114D02*
D03*
X0169095Y0231201D02*
D03*
X0160237Y0231201D02*
D03*
X0160237Y0224114D02*
D03*
X0150197Y0224114D02*
D03*
X0150197Y0231201D02*
D03*
X0126969Y0225492D02*
D03*
X0126969Y0218406D02*
D03*
X0137008Y0218406D02*
D03*
X0137008Y0225492D02*
D03*
D366*
X0163485Y0156201D02*
D03*
X0160335Y0156201D02*
D03*
X0160335Y0163287D02*
D03*
X0163485Y0163287D02*
D03*
X0229233Y0224114D02*
D03*
X0232382Y0224114D02*
D03*
X0232382Y0231201D02*
D03*
X0229233Y0231201D02*
D03*
X0267422Y0196752D02*
D03*
X0270571Y0196752D02*
D03*
X0270571Y0189665D02*
D03*
X0267422Y0189665D02*
D03*
X0270571Y0178248D02*
D03*
X0267422Y0178248D02*
D03*
X0267422Y0185335D02*
D03*
X0270571Y0185335D02*
D03*
X0239469Y0196752D02*
D03*
X0242619Y0196752D02*
D03*
X0242619Y0189665D02*
D03*
X0239469Y0189665D02*
D03*
X0242618Y0178248D02*
D03*
X0239469Y0178248D02*
D03*
X0239469Y0185335D02*
D03*
X0242618Y0185335D02*
D03*
X0267028Y0224114D02*
D03*
X0270177Y0224114D02*
D03*
X0270177Y0231201D02*
D03*
X0267028Y0231201D02*
D03*
X0248130Y0224114D02*
D03*
X0251280Y0224114D02*
D03*
X0251280Y0231201D02*
D03*
X0248130Y0231201D02*
D03*
X0210335Y0224114D02*
D03*
X0213485Y0224114D02*
D03*
X0213485Y0231201D02*
D03*
X0210335Y0231201D02*
D03*
X0191437Y0224114D02*
D03*
X0194587Y0224114D02*
D03*
X0194587Y0231201D02*
D03*
X0191437Y0231201D02*
D03*
X0172540Y0224114D02*
D03*
X0175689Y0224114D02*
D03*
X0175689Y0231201D02*
D03*
X0172540Y0231201D02*
D03*
X0153642Y0224114D02*
D03*
X0156792Y0224114D02*
D03*
X0156792Y0231201D02*
D03*
X0153642Y0231201D02*
D03*
X0130414Y0225492D02*
D03*
X0133563Y0225492D02*
D03*
X0133563Y0218406D02*
D03*
X0130414Y0218406D02*
D03*
D367*
X0141831Y0128642D02*
D03*
X0141831Y0134941D02*
D03*
X0195473Y0092913D02*
D03*
X0195473Y0086614D02*
D03*
X0280807Y0126673D02*
D03*
X0280807Y0132973D02*
D03*
X0136319Y0136122D02*
D03*
X0136319Y0129823D02*
D03*
D368*
X0216241Y0107185D02*
D03*
X0216241Y0113091D02*
D03*
D369*
X0225295Y0112106D02*
D03*
X0231595Y0112106D02*
D03*
X0225295Y0116732D02*
D03*
X0231595Y0116732D02*
D03*
D370*
X0273721Y0087500D02*
D03*
X0262304Y0087500D02*
D03*
D152*
X0271910Y0171752D02*
D03*
X0271910Y0169193D02*
D03*
X0271910Y0166634D02*
D03*
X0271910Y0164075D02*
D03*
X0271910Y0161516D02*
D03*
X0271910Y0158957D02*
D03*
X0271910Y0156398D02*
D03*
X0271910Y0153839D02*
D03*
X0271910Y0151280D02*
D03*
X0271910Y0148720D02*
D03*
X0271910Y0146162D02*
D03*
X0271910Y0143602D02*
D03*
X0248917Y0171752D02*
D03*
X0248917Y0169193D02*
D03*
X0248917Y0166634D02*
D03*
X0248917Y0164075D02*
D03*
X0248917Y0161516D02*
D03*
X0248917Y0158957D02*
D03*
X0248917Y0156398D02*
D03*
X0248917Y0153839D02*
D03*
X0248917Y0151280D02*
D03*
X0248917Y0148720D02*
D03*
X0248917Y0146162D02*
D03*
X0248917Y0143602D02*
D03*
D153*
X0128642Y0095571D02*
D03*
X0130610Y0095571D02*
D03*
X0130610Y0089272D02*
D03*
X0128642Y0089272D02*
D03*
D154*
X0132776Y0095374D02*
D03*
X0132776Y0093405D02*
D03*
X0132776Y0091437D02*
D03*
X0132776Y0089469D02*
D03*
X0126476Y0095374D02*
D03*
X0126476Y0089469D02*
D03*
X0126476Y0093405D02*
D03*
X0126476Y0091437D02*
D03*
X0275492Y0321752D02*
%LPD*%
G01*
G36*
G01*
X0306086Y0304823D02*
X0304905Y0304823D01*
G75*
G02*
X0304314Y0305413I0000000J0000591D01*
G01*
X0304314Y0309449D01*
G75*
G02*
X0304905Y0310039I0000591J0000000D01*
G01*
X0306086Y0310039D01*
G75*
G02*
X0306676Y0309449I0000000J-000591D01*
G01*
X0306676Y0305413D01*
G75*
G02*
X0306086Y0304823I-000591J0000000D01*
G01*
G37*
G36*
G01*
X0302345Y0304823D02*
X0301164Y0304823D01*
G75*
G02*
X0300574Y0305413I0000000J0000591D01*
G01*
X0300574Y0309449D01*
G75*
G02*
X0301164Y0310039I0000591J0000000D01*
G01*
X0302345Y0310039D01*
G75*
G02*
X0302936Y0309449I0000000J-000591D01*
G01*
X0302936Y0305413D01*
G75*
G02*
X0302345Y0304823I-000591J0000000D01*
G01*
G37*
G36*
G01*
X0298605Y0304823D02*
X0297424Y0304823D01*
G75*
G02*
X0296834Y0305413I0000000J0000591D01*
G01*
X0296834Y0309449D01*
G75*
G02*
X0297424Y0310039I0000591J0000000D01*
G01*
X0298605Y0310039D01*
G75*
G02*
X0299196Y0309449I0000000J-000591D01*
G01*
X0299196Y0305413D01*
G75*
G02*
X0298605Y0304823I-000591J0000000D01*
G01*
G37*
G36*
G01*
X0298605Y0313780D02*
X0297424Y0313780D01*
G75*
G02*
X0296834Y0314370I0000000J0000591D01*
G01*
X0296834Y0318406D01*
G75*
G02*
X0297424Y0318996I0000591J0000000D01*
G01*
X0298605Y0318996D01*
G75*
G02*
X0299196Y0318406I0000000J-000591D01*
G01*
X0299196Y0314370D01*
G75*
G02*
X0298605Y0313780I-000591J0000000D01*
G01*
G37*
G36*
G01*
X0306086Y0313780D02*
X0304905Y0313780D01*
G75*
G02*
X0304314Y0314370I0000000J0000591D01*
G01*
X0304314Y0318406D01*
G75*
G02*
X0304905Y0318996I0000591J0000000D01*
G01*
X0306086Y0318996D01*
G75*
G02*
X0306676Y0318406I0000000J-000591D01*
G01*
X0306676Y0314370D01*
G75*
G02*
X0306086Y0313780I-000591J0000000D01*
G01*
G37*
G36*
G01*
X0283799Y0305098D02*
X0283799Y0303760D01*
G75*
G02*
X0283248Y0303209I-000551J0000000D01*
G01*
X0282146Y0303209D01*
G75*
G02*
X0281594Y0303760I0000000J0000551D01*
G01*
X0281594Y0305098D01*
G75*
G02*
X0282146Y0305650I0000551J0000000D01*
G01*
X0283248Y0305650D01*
G75*
G02*
X0283799Y0305098I0000000J-000551D01*
G01*
G37*
G36*
G01*
X0280020Y0305098D02*
X0280020Y0303760D01*
G75*
G02*
X0279468Y0303209I-000551J0000000D01*
G01*
X0278366Y0303209D01*
G75*
G02*
X0277815Y0303760I0000000J0000551D01*
G01*
X0277815Y0305098D01*
G75*
G02*
X0278366Y0305650I0000551J0000000D01*
G01*
X0279468Y0305650D01*
G75*
G02*
X0280020Y0305098I0000000J-000551D01*
G01*
G37*
G36*
G01*
X0306516Y0278583D02*
X0307854Y0278583D01*
G75*
G02*
X0308405Y0278032I0000000J-000551D01*
G01*
X0308405Y0276929D01*
G75*
G02*
X0307854Y0276378I-000551J0000000D01*
G01*
X0306516Y0276378D01*
G75*
G02*
X0305964Y0276929I0000000J0000551D01*
G01*
X0305964Y0278032D01*
G75*
G02*
X0306516Y0278583I0000551J0000000D01*
G01*
G37*
G36*
G01*
X0306516Y0274803D02*
X0307854Y0274803D01*
G75*
G02*
X0308405Y0274252I0000000J-000551D01*
G01*
X0308405Y0273150D01*
G75*
G02*
X0307854Y0272598I-000551J0000000D01*
G01*
X0306516Y0272598D01*
G75*
G02*
X0305964Y0273150I0000000J0000551D01*
G01*
X0305964Y0274252D01*
G75*
G02*
X0306516Y0274803I0000551J0000000D01*
G01*
G37*
G36*
G01*
X0311516Y0265236D02*
X0310177Y0265236D01*
G75*
G02*
X0309626Y0265787I0000000J0000551D01*
G01*
X0309626Y0266890D01*
G75*
G02*
X0310177Y0267441I0000551J0000000D01*
G01*
X0311516Y0267441D01*
G75*
G02*
X0312067Y0266890I0000000J-000551D01*
G01*
X0312067Y0265787D01*
G75*
G02*
X0311516Y0265236I-000551J0000000D01*
G01*
G37*
G36*
G01*
X0311516Y0269016D02*
X0310177Y0269016D01*
G75*
G02*
X0309626Y0269567I0000000J0000551D01*
G01*
X0309626Y0270669D01*
G75*
G02*
X0310177Y0271221I0000551J0000000D01*
G01*
X0311516Y0271221D01*
G75*
G02*
X0312067Y0270669I0000000J-000551D01*
G01*
X0312067Y0269567D01*
G75*
G02*
X0311516Y0269016I-000551J0000000D01*
G01*
G37*
G36*
G01*
X0302775Y0286988D02*
X0304114Y0286988D01*
G75*
G02*
X0304665Y0286437I0000000J-000551D01*
G01*
X0304665Y0285335D01*
G75*
G02*
X0304114Y0284783I-000551J0000000D01*
G01*
X0302775Y0284783D01*
G75*
G02*
X0302224Y0285335I0000000J0000551D01*
G01*
X0302224Y0286437D01*
G75*
G02*
X0302775Y0286988I0000551J0000000D01*
G01*
G37*
G36*
G01*
X0302775Y0283209D02*
X0304114Y0283209D01*
G75*
G02*
X0304665Y0282658I0000000J-000551D01*
G01*
X0304665Y0281555D01*
G75*
G02*
X0304114Y0281004I-000551J0000000D01*
G01*
X0302775Y0281004D01*
G75*
G02*
X0302224Y0281555I0000000J0000551D01*
G01*
X0302224Y0282658D01*
G75*
G02*
X0302775Y0283209I0000551J0000000D01*
G01*
G37*
G36*
G01*
X0307854Y0265433D02*
X0306516Y0265433D01*
G75*
G02*
X0305964Y0265984I0000000J0000551D01*
G01*
X0305964Y0267087D01*
G75*
G02*
X0306516Y0267638I0000551J0000000D01*
G01*
X0307854Y0267638D01*
G75*
G02*
X0308405Y0267087I0000000J-000551D01*
G01*
X0308405Y0265984D01*
G75*
G02*
X0307854Y0265433I-000551J0000000D01*
G01*
G37*
G36*
G01*
X0307854Y0269213D02*
X0306516Y0269213D01*
G75*
G02*
X0305964Y0269764I0000000J0000551D01*
G01*
X0305964Y0270866D01*
G75*
G02*
X0306516Y0271417I0000551J0000000D01*
G01*
X0307854Y0271417D01*
G75*
G02*
X0308405Y0270866I0000000J-000551D01*
G01*
X0308405Y0269764D01*
G75*
G02*
X0307854Y0269213I-000551J0000000D01*
G01*
G37*
G36*
G01*
X0286338Y0270709D02*
X0287677Y0270709D01*
G75*
G02*
X0288228Y0270158I0000000J-000551D01*
G01*
X0288228Y0269055D01*
G75*
G02*
X0287677Y0268504I-000551J0000000D01*
G01*
X0286338Y0268504D01*
G75*
G02*
X0285787Y0269055I0000000J0000551D01*
G01*
X0285787Y0270158D01*
G75*
G02*
X0286338Y0270709I0000551J0000000D01*
G01*
G37*
G36*
G01*
X0286338Y0266929D02*
X0287677Y0266929D01*
G75*
G02*
X0288228Y0266378I0000000J-000551D01*
G01*
X0288228Y0265276D01*
G75*
G02*
X0287677Y0264724I-000551J0000000D01*
G01*
X0286338Y0264724D01*
G75*
G02*
X0285787Y0265276I0000000J0000551D01*
G01*
X0285787Y0266378D01*
G75*
G02*
X0286338Y0266929I0000551J0000000D01*
G01*
G37*
G36*
G01*
X0278838Y0301218D02*
X0279626Y0301218D01*
G75*
G02*
X0280020Y0300824I0000000J-000394D01*
G01*
X0280020Y0295804D01*
G75*
G02*
X0279626Y0295411I-000394J0000000D01*
G01*
X0278838Y0295411D01*
G75*
G02*
X0278445Y0295804I0000000J0000394D01*
G01*
X0278445Y0300824D01*
G75*
G02*
X0278838Y0301218I0000394J0000000D01*
G01*
G37*
G36*
G01*
X0281398Y0301218D02*
X0282185Y0301218D01*
G75*
G02*
X0282579Y0300824I0000000J-000394D01*
G01*
X0282579Y0295804D01*
G75*
G02*
X0282185Y0295411I-000394J0000000D01*
G01*
X0281398Y0295411D01*
G75*
G02*
X0281004Y0295804I0000000J0000394D01*
G01*
X0281004Y0300824D01*
G75*
G02*
X0281398Y0301218I0000394J0000000D01*
G01*
G37*
G36*
G01*
X0283957Y0301218D02*
X0284744Y0301218D01*
G75*
G02*
X0285138Y0300824I0000000J-000394D01*
G01*
X0285138Y0295804D01*
G75*
G02*
X0284744Y0295411I-000394J0000000D01*
G01*
X0283957Y0295411D01*
G75*
G02*
X0283563Y0295804I0000000J0000394D01*
G01*
X0283563Y0300824D01*
G75*
G02*
X0283957Y0301218I0000394J0000000D01*
G01*
G37*
G36*
G01*
X0286516Y0301218D02*
X0287303Y0301218D01*
G75*
G02*
X0287697Y0300824I0000000J-000394D01*
G01*
X0287697Y0295804D01*
G75*
G02*
X0287303Y0295411I-000394J0000000D01*
G01*
X0286516Y0295411D01*
G75*
G02*
X0286122Y0295804I0000000J0000394D01*
G01*
X0286122Y0300824D01*
G75*
G02*
X0286516Y0301218I0000394J0000000D01*
G01*
G37*
G36*
G01*
X0289075Y0301218D02*
X0289862Y0301218D01*
G75*
G02*
X0290256Y0300824I0000000J-000394D01*
G01*
X0290256Y0295804D01*
G75*
G02*
X0289862Y0295411I-000394J0000000D01*
G01*
X0289075Y0295411D01*
G75*
G02*
X0288681Y0295804I0000000J0000394D01*
G01*
X0288681Y0300824D01*
G75*
G02*
X0289075Y0301218I0000394J0000000D01*
G01*
G37*
G36*
G01*
X0291634Y0301218D02*
X0292421Y0301218D01*
G75*
G02*
X0292815Y0300824I0000000J-000394D01*
G01*
X0292815Y0295804D01*
G75*
G02*
X0292421Y0295411I-000394J0000000D01*
G01*
X0291634Y0295411D01*
G75*
G02*
X0291240Y0295804I0000000J0000394D01*
G01*
X0291240Y0300824D01*
G75*
G02*
X0291634Y0301218I0000394J0000000D01*
G01*
G37*
G36*
G01*
X0294193Y0301218D02*
X0294980Y0301218D01*
G75*
G02*
X0295374Y0300824I0000000J-000394D01*
G01*
X0295374Y0295804D01*
G75*
G02*
X0294980Y0295411I-000394J0000000D01*
G01*
X0294193Y0295411D01*
G75*
G02*
X0293799Y0295804I0000000J0000394D01*
G01*
X0293799Y0300824D01*
G75*
G02*
X0294193Y0301218I0000394J0000000D01*
G01*
G37*
G36*
G01*
X0294193Y0278678D02*
X0294980Y0278678D01*
G75*
G02*
X0295374Y0278285I0000000J-000394D01*
G01*
X0295374Y0273265D01*
G75*
G02*
X0294980Y0272871I-000394J0000000D01*
G01*
X0294193Y0272871D01*
G75*
G02*
X0293799Y0273265I0000000J0000394D01*
G01*
X0293799Y0278285D01*
G75*
G02*
X0294193Y0278678I0000394J0000000D01*
G01*
G37*
G36*
G01*
X0291634Y0278678D02*
X0292421Y0278678D01*
G75*
G02*
X0292815Y0278285I0000000J-000394D01*
G01*
X0292815Y0273265D01*
G75*
G02*
X0292421Y0272871I-000394J0000000D01*
G01*
X0291634Y0272871D01*
G75*
G02*
X0291240Y0273265I0000000J0000394D01*
G01*
X0291240Y0278285D01*
G75*
G02*
X0291634Y0278678I0000394J0000000D01*
G01*
G37*
G36*
G01*
X0289075Y0278678D02*
X0289862Y0278678D01*
G75*
G02*
X0290256Y0278285I0000000J-000394D01*
G01*
X0290256Y0273265D01*
G75*
G02*
X0289862Y0272871I-000394J0000000D01*
G01*
X0289075Y0272871D01*
G75*
G02*
X0288681Y0273265I0000000J0000394D01*
G01*
X0288681Y0278285D01*
G75*
G02*
X0289075Y0278678I0000394J0000000D01*
G01*
G37*
G36*
G01*
X0286516Y0278678D02*
X0287303Y0278678D01*
G75*
G02*
X0287697Y0278285I0000000J-000394D01*
G01*
X0287697Y0273265D01*
G75*
G02*
X0287303Y0272871I-000394J0000000D01*
G01*
X0286516Y0272871D01*
G75*
G02*
X0286122Y0273265I0000000J0000394D01*
G01*
X0286122Y0278285D01*
G75*
G02*
X0286516Y0278678I0000394J0000000D01*
G01*
G37*
G36*
G01*
X0283957Y0278678D02*
X0284744Y0278678D01*
G75*
G02*
X0285138Y0278285I0000000J-000394D01*
G01*
X0285138Y0273265D01*
G75*
G02*
X0284744Y0272871I-000394J0000000D01*
G01*
X0283957Y0272871D01*
G75*
G02*
X0283563Y0273265I0000000J0000394D01*
G01*
X0283563Y0278285D01*
G75*
G02*
X0283957Y0278678I0000394J0000000D01*
G01*
G37*
G36*
G01*
X0281398Y0278678D02*
X0282185Y0278678D01*
G75*
G02*
X0282579Y0278285I0000000J-000394D01*
G01*
X0282579Y0273265D01*
G75*
G02*
X0282185Y0272871I-000394J0000000D01*
G01*
X0281398Y0272871D01*
G75*
G02*
X0281004Y0273265I0000000J0000394D01*
G01*
X0281004Y0278285D01*
G75*
G02*
X0281398Y0278678I0000394J0000000D01*
G01*
G37*
G36*
G01*
X0278838Y0278678D02*
X0279626Y0278678D01*
G75*
G02*
X0280020Y0278285I0000000J-000394D01*
G01*
X0280020Y0273265D01*
G75*
G02*
X0279626Y0272871I-000394J0000000D01*
G01*
X0278838Y0272871D01*
G75*
G02*
X0278445Y0273265I0000000J0000394D01*
G01*
X0278445Y0278285D01*
G75*
G02*
X0278838Y0278678I0000394J0000000D01*
G01*
G37*
G36*
G01*
X0286709Y0318861D02*
X0290252Y0318861D01*
G75*
G02*
X0291236Y0317877I0000000J-000984D01*
G01*
X0291236Y0315810D01*
G75*
G02*
X0290252Y0314826I-000984J0000000D01*
G01*
X0286709Y0314826D01*
G75*
G02*
X0285724Y0315810I0000000J0000984D01*
G01*
X0285724Y0317877D01*
G75*
G02*
X0286709Y0318861I0000984J0000000D01*
G01*
G37*
G36*
G01*
X0286709Y0311676D02*
X0290252Y0311676D01*
G75*
G02*
X0291236Y0310692I0000000J-000984D01*
G01*
X0291236Y0308625D01*
G75*
G02*
X0290252Y0307641I-000984J0000000D01*
G01*
X0286709Y0307641D01*
G75*
G02*
X0285724Y0308625I0000000J0000984D01*
G01*
X0285724Y0310692D01*
G75*
G02*
X0286709Y0311676I0000984J0000000D01*
G01*
G37*
G36*
G01*
X0300433Y0272618D02*
X0298976Y0272618D01*
G75*
G02*
X0298445Y0273150I0000000J0000531D01*
G01*
X0298445Y0274213D01*
G75*
G02*
X0298976Y0274744I0000531J0000000D01*
G01*
X0300433Y0274744D01*
G75*
G02*
X0300964Y0274213I0000000J-000531D01*
G01*
X0300964Y0273150D01*
G75*
G02*
X0300433Y0272618I-000531J0000000D01*
G01*
G37*
G36*
G01*
X0300433Y0276634D02*
X0298976Y0276634D01*
G75*
G02*
X0298445Y0277165I0000000J0000531D01*
G01*
X0298445Y0278228D01*
G75*
G02*
X0298976Y0278760I0000531J0000000D01*
G01*
X0300433Y0278760D01*
G75*
G02*
X0300964Y0278228I0000000J-000531D01*
G01*
X0300964Y0277165D01*
G75*
G02*
X0300433Y0276634I-000531J0000000D01*
G01*
G37*
G36*
G01*
X0311358Y0313051D02*
X0310020Y0313051D01*
G75*
G02*
X0309468Y0313602I0000000J0000551D01*
G01*
X0309468Y0314705D01*
G75*
G02*
X0310020Y0315256I0000551J0000000D01*
G01*
X0311358Y0315256D01*
G75*
G02*
X0311909Y0314705I0000000J-000551D01*
G01*
X0311909Y0313602D01*
G75*
G02*
X0311358Y0313051I-000551J0000000D01*
G01*
G37*
G36*
G01*
X0311358Y0316831D02*
X0310020Y0316831D01*
G75*
G02*
X0309468Y0317382I0000000J0000551D01*
G01*
X0309468Y0318484D01*
G75*
G02*
X0310020Y0319035I0000551J0000000D01*
G01*
X0311358Y0319035D01*
G75*
G02*
X0311909Y0318484I0000000J-000551D01*
G01*
X0311909Y0317382D01*
G75*
G02*
X0311358Y0316831I-000551J0000000D01*
G01*
G37*
G36*
G01*
X0304173Y0264941D02*
X0302716Y0264941D01*
G75*
G02*
X0302185Y0265472I0000000J0000531D01*
G01*
X0302185Y0266535D01*
G75*
G02*
X0302716Y0267067I0000531J0000000D01*
G01*
X0304173Y0267067D01*
G75*
G02*
X0304705Y0266535I0000000J-000531D01*
G01*
X0304705Y0265472D01*
G75*
G02*
X0304173Y0264941I-000531J0000000D01*
G01*
G37*
G36*
G01*
X0304173Y0268957D02*
X0302716Y0268957D01*
G75*
G02*
X0302185Y0269488I0000000J0000531D01*
G01*
X0302185Y0270551D01*
G75*
G02*
X0302716Y0271083I0000531J0000000D01*
G01*
X0304173Y0271083D01*
G75*
G02*
X0304705Y0270551I0000000J-000531D01*
G01*
X0304705Y0269488D01*
G75*
G02*
X0304173Y0268957I-000531J0000000D01*
G01*
G37*
G36*
G01*
X0300433Y0280874D02*
X0298977Y0280874D01*
G75*
G02*
X0298445Y0281406I0000000J0000531D01*
G01*
X0298445Y0282469D01*
G75*
G02*
X0298977Y0283000I0000531J0000000D01*
G01*
X0300433Y0283000D01*
G75*
G02*
X0300965Y0282469I0000000J-000531D01*
G01*
X0300965Y0281406D01*
G75*
G02*
X0300433Y0280874I-000531J0000000D01*
G01*
G37*
G36*
G01*
X0300433Y0284890D02*
X0298977Y0284890D01*
G75*
G02*
X0298445Y0285422I0000000J0000531D01*
G01*
X0298445Y0286485D01*
G75*
G02*
X0298977Y0287016I0000531J0000000D01*
G01*
X0300433Y0287016D01*
G75*
G02*
X0300965Y0286485I0000000J-000531D01*
G01*
X0300965Y0285422D01*
G75*
G02*
X0300433Y0284890I-000531J0000000D01*
G01*
G37*
G36*
G01*
X0282677Y0307641D02*
X0279134Y0307641D01*
G75*
G02*
X0278149Y0308625I0000000J0000984D01*
G01*
X0278149Y0310692D01*
G75*
G02*
X0279134Y0311676I0000984J0000000D01*
G01*
X0282677Y0311676D01*
G75*
G02*
X0283661Y0310692I0000000J-000984D01*
G01*
X0283661Y0308625D01*
G75*
G02*
X0282677Y0307641I-000984J0000000D01*
G01*
G37*
G36*
G01*
X0282677Y0314826D02*
X0279134Y0314826D01*
G75*
G02*
X0278149Y0315810I0000000J0000984D01*
G01*
X0278149Y0317877D01*
G75*
G02*
X0279134Y0318861I0000984J0000000D01*
G01*
X0282677Y0318861D01*
G75*
G02*
X0283661Y0317877I0000000J-000984D01*
G01*
X0283661Y0315810D01*
G75*
G02*
X0282677Y0314826I-000984J0000000D01*
G01*
G37*
G36*
G01*
X0311575Y0280925D02*
X0310118Y0280925D01*
G75*
G02*
X0309586Y0281457I0000000J0000531D01*
G01*
X0309586Y0282520D01*
G75*
G02*
X0310118Y0283051I0000531J0000000D01*
G01*
X0311575Y0283051D01*
G75*
G02*
X0312106Y0282520I0000000J-000531D01*
G01*
X0312106Y0281457D01*
G75*
G02*
X0311575Y0280925I-000531J0000000D01*
G01*
G37*
G36*
G01*
X0311575Y0284941D02*
X0310118Y0284941D01*
G75*
G02*
X0309586Y0285472I0000000J0000531D01*
G01*
X0309586Y0286535D01*
G75*
G02*
X0310118Y0287067I0000531J0000000D01*
G01*
X0311575Y0287067D01*
G75*
G02*
X0312106Y0286535I0000000J-000531D01*
G01*
X0312106Y0285472D01*
G75*
G02*
X0311575Y0284941I-000531J0000000D01*
G01*
G37*
G36*
G01*
X0278071Y0271240D02*
X0279527Y0271240D01*
G75*
G02*
X0280059Y0270709I0000000J-000531D01*
G01*
X0280059Y0269646D01*
G75*
G02*
X0279527Y0269114I-000531J0000000D01*
G01*
X0278071Y0269114D01*
G75*
G02*
X0277539Y0269646I0000000J0000531D01*
G01*
X0277539Y0270709D01*
G75*
G02*
X0278071Y0271240I0000531J0000000D01*
G01*
G37*
G36*
G01*
X0278071Y0267224D02*
X0279527Y0267224D01*
G75*
G02*
X0280059Y0266693I0000000J-000531D01*
G01*
X0280059Y0265630D01*
G75*
G02*
X0279527Y0265098I-000531J0000000D01*
G01*
X0278071Y0265098D01*
G75*
G02*
X0277539Y0265630I0000000J0000531D01*
G01*
X0277539Y0266693D01*
G75*
G02*
X0278071Y0267224I0000531J0000000D01*
G01*
G37*
G36*
G01*
X0290020Y0270787D02*
X0291476Y0270787D01*
G75*
G02*
X0292008Y0270256I0000000J-000531D01*
G01*
X0292008Y0269193D01*
G75*
G02*
X0291476Y0268661I-000531J0000000D01*
G01*
X0290020Y0268661D01*
G75*
G02*
X0289488Y0269193I0000000J0000531D01*
G01*
X0289488Y0270256D01*
G75*
G02*
X0290020Y0270787I0000531J0000000D01*
G01*
G37*
G36*
G01*
X0290020Y0266772D02*
X0291476Y0266772D01*
G75*
G02*
X0292008Y0266240I0000000J-000531D01*
G01*
X0292008Y0265177D01*
G75*
G02*
X0291476Y0264646I-000531J0000000D01*
G01*
X0290020Y0264646D01*
G75*
G02*
X0289488Y0265177I0000000J0000531D01*
G01*
X0289488Y0266240D01*
G75*
G02*
X0290020Y0266772I0000531J0000000D01*
G01*
G37*
G36*
G01*
X0304173Y0272323D02*
X0302716Y0272323D01*
G75*
G02*
X0302185Y0272854I0000000J0000531D01*
G01*
X0302185Y0273917D01*
G75*
G02*
X0302716Y0274449I0000531J0000000D01*
G01*
X0304173Y0274449D01*
G75*
G02*
X0304705Y0273917I0000000J-000531D01*
G01*
X0304705Y0272854D01*
G75*
G02*
X0304173Y0272323I-000531J0000000D01*
G01*
G37*
G36*
G01*
X0304173Y0276339D02*
X0302716Y0276339D01*
G75*
G02*
X0302185Y0276870I0000000J0000531D01*
G01*
X0302185Y0277933D01*
G75*
G02*
X0302716Y0278465I0000531J0000000D01*
G01*
X0304173Y0278465D01*
G75*
G02*
X0304705Y0277933I0000000J-000531D01*
G01*
X0304705Y0276870D01*
G75*
G02*
X0304173Y0276339I-000531J0000000D01*
G01*
G37*
G36*
G01*
X0295256Y0264626D02*
X0293917Y0264626D01*
G75*
G02*
X0293366Y0265177I0000000J0000551D01*
G01*
X0293366Y0266280D01*
G75*
G02*
X0293917Y0266831I0000551J0000000D01*
G01*
X0295256Y0266831D01*
G75*
G02*
X0295807Y0266280I0000000J-000551D01*
G01*
X0295807Y0265177D01*
G75*
G02*
X0295256Y0264626I-000551J0000000D01*
G01*
G37*
G36*
G01*
X0295256Y0268406D02*
X0293917Y0268406D01*
G75*
G02*
X0293366Y0268957I0000000J0000551D01*
G01*
X0293366Y0270059D01*
G75*
G02*
X0293917Y0270610I0000551J0000000D01*
G01*
X0295256Y0270610D01*
G75*
G02*
X0295807Y0270059I0000000J-000551D01*
G01*
X0295807Y0268957D01*
G75*
G02*
X0295256Y0268406I-000551J0000000D01*
G01*
G37*
G36*
G01*
X0285041Y0303774D02*
X0285041Y0305112D01*
G75*
G02*
X0285592Y0305664I0000551J0000000D01*
G01*
X0286694Y0305664D01*
G75*
G02*
X0287246Y0305112I0000000J-000551D01*
G01*
X0287246Y0303774D01*
G75*
G02*
X0286694Y0303223I-000551J0000000D01*
G01*
X0285592Y0303223D01*
G75*
G02*
X0285041Y0303774I0000000J0000551D01*
G01*
G37*
G36*
G01*
X0288820Y0303774D02*
X0288820Y0305112D01*
G75*
G02*
X0289371Y0305664I0000551J0000000D01*
G01*
X0290474Y0305664D01*
G75*
G02*
X0291025Y0305112I0000000J-000551D01*
G01*
X0291025Y0303774D01*
G75*
G02*
X0290474Y0303223I-000551J0000000D01*
G01*
X0289371Y0303223D01*
G75*
G02*
X0288820Y0303774I0000000J0000551D01*
G01*
G37*
G36*
G01*
X0298976Y0271280D02*
X0300433Y0271280D01*
G75*
G02*
X0300964Y0270748I0000000J-000531D01*
G01*
X0300964Y0269685D01*
G75*
G02*
X0300433Y0269154I-000531J0000000D01*
G01*
X0298976Y0269154D01*
G75*
G02*
X0298445Y0269685I0000000J0000531D01*
G01*
X0298445Y0270748D01*
G75*
G02*
X0298976Y0271280I0000531J0000000D01*
G01*
G37*
G36*
G01*
X0298976Y0267264D02*
X0300433Y0267264D01*
G75*
G02*
X0300964Y0266732I0000000J-000531D01*
G01*
X0300964Y0265669D01*
G75*
G02*
X0300433Y0265138I-000531J0000000D01*
G01*
X0298976Y0265138D01*
G75*
G02*
X0298445Y0265669I0000000J0000531D01*
G01*
X0298445Y0266732D01*
G75*
G02*
X0298976Y0267264I0000531J0000000D01*
G01*
G37*
G36*
G01*
X0310335Y0288681D02*
X0309153Y0288681D01*
G75*
G02*
X0308563Y0289272I0000000J0000591D01*
G01*
X0308563Y0293307D01*
G75*
G02*
X0309153Y0293898I0000591J0000000D01*
G01*
X0310335Y0293898D01*
G75*
G02*
X0310925Y0293307I0000000J-000591D01*
G01*
X0310925Y0289272D01*
G75*
G02*
X0310335Y0288681I-000591J0000000D01*
G01*
G37*
G36*
G01*
X0306594Y0288681D02*
X0305413Y0288681D01*
G75*
G02*
X0304823Y0289272I0000000J0000591D01*
G01*
X0304823Y0293307D01*
G75*
G02*
X0305413Y0293898I0000591J0000000D01*
G01*
X0306594Y0293898D01*
G75*
G02*
X0307185Y0293307I0000000J-000591D01*
G01*
X0307185Y0289272D01*
G75*
G02*
X0306594Y0288681I-000591J0000000D01*
G01*
G37*
G36*
G01*
X0302854Y0288681D02*
X0301673Y0288681D01*
G75*
G02*
X0301083Y0289272I0000000J0000591D01*
G01*
X0301083Y0293307D01*
G75*
G02*
X0301673Y0293898I0000591J0000000D01*
G01*
X0302854Y0293898D01*
G75*
G02*
X0303445Y0293307I0000000J-000591D01*
G01*
X0303445Y0289272D01*
G75*
G02*
X0302854Y0288681I-000591J0000000D01*
G01*
G37*
G36*
G01*
X0302854Y0297638D02*
X0301673Y0297638D01*
G75*
G02*
X0301083Y0298228I0000000J0000591D01*
G01*
X0301083Y0302264D01*
G75*
G02*
X0301673Y0302854I0000591J0000000D01*
G01*
X0302854Y0302854D01*
G75*
G02*
X0303445Y0302264I0000000J-000591D01*
G01*
X0303445Y0298228D01*
G75*
G02*
X0302854Y0297638I-000591J0000000D01*
G01*
G37*
G36*
G01*
X0310335Y0297638D02*
X0309153Y0297638D01*
G75*
G02*
X0308563Y0298228I0000000J0000591D01*
G01*
X0308563Y0302264D01*
G75*
G02*
X0309153Y0302854I0000591J0000000D01*
G01*
X0310335Y0302854D01*
G75*
G02*
X0310925Y0302264I0000000J-000591D01*
G01*
X0310925Y0298228D01*
G75*
G02*
X0310335Y0297638I-000591J0000000D01*
G01*
G37*
G36*
G01*
X0306516Y0286988D02*
X0307854Y0286988D01*
G75*
G02*
X0308405Y0286437I0000000J-000551D01*
G01*
X0308405Y0285335D01*
G75*
G02*
X0307854Y0284783I-000551J0000000D01*
G01*
X0306516Y0284783D01*
G75*
G02*
X0305964Y0285335I0000000J0000551D01*
G01*
X0305964Y0286437D01*
G75*
G02*
X0306516Y0286988I0000551J0000000D01*
G01*
G37*
G36*
G01*
X0306516Y0283209D02*
X0307854Y0283209D01*
G75*
G02*
X0308405Y0282658I0000000J-000551D01*
G01*
X0308405Y0281555D01*
G75*
G02*
X0307854Y0281004I-000551J0000000D01*
G01*
X0306516Y0281004D01*
G75*
G02*
X0305964Y0281555I0000000J0000551D01*
G01*
X0305964Y0282658D01*
G75*
G02*
X0306516Y0283209I0000551J0000000D01*
G01*
G37*
X0230906Y0321506D02*
%LPD*%
G01*
X0036909Y0014665D02*
G01*
G75*
D139*
X0066824Y0091043D02*
D03*
X0053832Y0091043D02*
D03*
D151*
X0086684Y0091437D02*
D03*
X0075267Y0091437D02*
D03*
X0086684Y0083405D02*
D03*
X0075267Y0083405D02*
D03*
D190*
X0049311Y0069389D02*
D03*
X0049311Y0073326D02*
D03*
X0045964Y0083956D02*
D03*
X0054626Y0083956D02*
D03*
X0045177Y0078708D02*
D03*
X0053838Y0078708D02*
D03*
D191*
X0057064Y0026082D02*
D03*
X0053520Y0026082D02*
D03*
X0066455Y0062815D02*
D03*
X0069999Y0062815D02*
D03*
X0058458Y0077920D02*
D03*
X0062001Y0077920D02*
D03*
X0065682Y0026082D02*
D03*
X0062139Y0026082D02*
D03*
X0045177Y0030019D02*
D03*
X0048720Y0030019D02*
D03*
D192*
X0070662Y0079495D02*
D03*
X0070662Y0083039D02*
D03*
X0049895Y0091897D02*
D03*
X0049895Y0088353D02*
D03*
X0098659Y0033580D02*
D03*
X0098659Y0037124D02*
D03*
D209*
X0094783Y0092618D02*
D03*
X0094783Y0083956D02*
D03*
X0056867Y0030019D02*
D03*
X0052930Y0030019D02*
D03*
X0061548Y0030019D02*
D03*
X0065485Y0030019D02*
D03*
X0058261Y0083956D02*
D03*
X0062198Y0083956D02*
D03*
X0081194Y0062342D02*
D03*
X0085131Y0062342D02*
D03*
X0088970Y0024901D02*
D03*
X0085032Y0024901D02*
D03*
D210*
X0086122Y0070964D02*
D03*
X0075098Y0070964D02*
D03*
D211*
X0053444Y0066641D02*
D03*
X0053444Y0072861D02*
D03*
X0067538Y0066641D02*
D03*
X0067538Y0072861D02*
D03*
X0062847Y0066641D02*
D03*
X0062847Y0072861D02*
D03*
X0058155Y0066641D02*
D03*
X0058155Y0072861D02*
D03*
X0066357Y0078885D02*
D03*
X0066357Y0085106D02*
D03*
D212*
X0061981Y0036779D02*
D03*
X0056981Y0036779D02*
D03*
X0051981Y0036779D02*
D03*
X0046981Y0036779D02*
D03*
X0061981Y0059416D02*
D03*
X0056981Y0059416D02*
D03*
X0051981Y0059416D02*
D03*
X0046981Y0059416D02*
D03*
X0085048Y0031496D02*
D03*
X0080048Y0031496D02*
D03*
X0075048Y0031496D02*
D03*
X0070048Y0031496D02*
D03*
X0085048Y0054921D02*
D03*
X0080048Y0054921D02*
D03*
X0075048Y0054921D02*
D03*
X0070048Y0054921D02*
D03*
D213*
X0054481Y0048097D02*
D03*
D214*
X0077548Y0043208D02*
D03*
X0175394Y0321457D02*
G01*
G75*
D406*
X0185630Y0293504D02*
D03*
X0185630Y0289567D02*
D03*
X0185630Y0304627D02*
D03*
X0185630Y0308564D02*
D03*
X0185630Y0312993D02*
D03*
X0185630Y0316930D02*
D03*
X0178347Y0293504D02*
D03*
X0178347Y0289567D02*
D03*
D407*
X0178150Y0296889D02*
D03*
X0181693Y0296889D02*
D03*
D408*
X0184863Y0300774D02*
D03*
X0178642Y0300774D02*
D03*
D409*
X0181693Y0313386D02*
D03*
X0181693Y0316929D02*
D03*
X0178150Y0305020D02*
D03*
X0178150Y0308563D02*
D03*
X0181751Y0290158D02*
D03*
X0181751Y0293701D02*
D03*
X0178150Y0316929D02*
D03*
X0178150Y0313386D02*
D03*
X0378346Y0130217D02*
%LPD*%
G01*
G36*
G01*
X0370987Y0209922D02*
X0369629Y0209922D01*
G75*
G02*
X0369048Y0210502I0000000J0000581D01*
G01*
X0369048Y0211664D01*
G75*
G02*
X0369629Y0212245I0000581J0000000D01*
G01*
X0370987Y0212245D01*
G75*
G02*
X0371568Y0211664I0000000J-000581D01*
G01*
X0371568Y0210502D01*
G75*
G02*
X0370987Y0209922I-000581J0000000D01*
G01*
G37*
G36*
G01*
X0370987Y0213741D02*
X0369629Y0213741D01*
G75*
G02*
X0369048Y0214321I0000000J0000581D01*
G01*
X0369048Y0215483D01*
G75*
G02*
X0369629Y0216063I0000581J0000000D01*
G01*
X0370987Y0216063D01*
G75*
G02*
X0371568Y0215483I0000000J-000581D01*
G01*
X0371568Y0214321D01*
G75*
G02*
X0370987Y0213741I-000581J0000000D01*
G01*
G37*
G36*
G01*
X0355698Y0224390D02*
X0354340Y0224390D01*
G75*
G02*
X0353759Y0224971I0000000J0000581D01*
G01*
X0353759Y0226132D01*
G75*
G02*
X0354340Y0226713I0000581J0000000D01*
G01*
X0355698Y0226713D01*
G75*
G02*
X0356279Y0226132I0000000J-000581D01*
G01*
X0356279Y0224971D01*
G75*
G02*
X0355698Y0224390I-000581J0000000D01*
G01*
G37*
G36*
G01*
X0355698Y0228209D02*
X0354340Y0228209D01*
G75*
G02*
X0353759Y0228790I0000000J0000581D01*
G01*
X0353759Y0229951D01*
G75*
G02*
X0354340Y0230532I0000581J0000000D01*
G01*
X0355698Y0230532D01*
G75*
G02*
X0356279Y0229951I0000000J-000581D01*
G01*
X0356279Y0228790D01*
G75*
G02*
X0355698Y0228209I-000581J0000000D01*
G01*
G37*
G36*
G01*
X0329502Y0174508D02*
X0331520Y0174508D01*
G75*
G02*
X0332381Y0173647I0000000J-000861D01*
G01*
X0332381Y0171925D01*
G75*
G02*
X0331520Y0171063I-000861J0000000D01*
G01*
X0329502Y0171063D01*
G75*
G02*
X0328641Y0171925I0000000J0000861D01*
G01*
X0328641Y0173647D01*
G75*
G02*
X0329502Y0174508I0000861J0000000D01*
G01*
G37*
G36*
G01*
X0329502Y0168308D02*
X0331520Y0168308D01*
G75*
G02*
X0332381Y0167446I0000000J-000861D01*
G01*
X0332381Y0165724D01*
G75*
G02*
X0331520Y0164863I-000861J0000000D01*
G01*
X0329502Y0164863D01*
G75*
G02*
X0328641Y0165724I0000000J0000861D01*
G01*
X0328641Y0167446D01*
G75*
G02*
X0329502Y0168308I0000861J0000000D01*
G01*
G37*
G36*
G01*
X0373828Y0216063D02*
X0375187Y0216063D01*
G75*
G02*
X0375767Y0215483I0000000J-000581D01*
G01*
X0375767Y0214321D01*
G75*
G02*
X0375187Y0213741I-000581J0000000D01*
G01*
X0373828Y0213741D01*
G75*
G02*
X0373248Y0214321I0000000J0000581D01*
G01*
X0373248Y0215483D01*
G75*
G02*
X0373828Y0216063I0000581J0000000D01*
G01*
G37*
G36*
G01*
X0373828Y0212245D02*
X0375187Y0212245D01*
G75*
G02*
X0375767Y0211664I0000000J-000581D01*
G01*
X0375767Y0210502D01*
G75*
G02*
X0375187Y0209922I-000581J0000000D01*
G01*
X0373828Y0209922D01*
G75*
G02*
X0373248Y0210502I0000000J0000581D01*
G01*
X0373248Y0211664D01*
G75*
G02*
X0373828Y0212245I0000581J0000000D01*
G01*
G37*
G36*
G01*
X0334832Y0156362D02*
X0333474Y0156362D01*
G75*
G02*
X0332893Y0156942I0000000J0000581D01*
G01*
X0332893Y0158104D01*
G75*
G02*
X0333474Y0158684I0000581J0000000D01*
G01*
X0334832Y0158684D01*
G75*
G02*
X0335413Y0158104I0000000J-000581D01*
G01*
X0335413Y0156942D01*
G75*
G02*
X0334832Y0156362I-000581J0000000D01*
G01*
G37*
G36*
G01*
X0334832Y0160180D02*
X0333474Y0160180D01*
G75*
G02*
X0332893Y0160761I0000000J0000581D01*
G01*
X0332893Y0161923D01*
G75*
G02*
X0333474Y0162503I0000581J0000000D01*
G01*
X0334832Y0162503D01*
G75*
G02*
X0335413Y0161923I0000000J-000581D01*
G01*
X0335413Y0160761D01*
G75*
G02*
X0334832Y0160180I-000581J0000000D01*
G01*
G37*
G36*
G01*
X0336702Y0164449D02*
X0335344Y0164449D01*
G75*
G02*
X0334763Y0165030I0000000J0000581D01*
G01*
X0334763Y0166191D01*
G75*
G02*
X0335344Y0166772I0000581J0000000D01*
G01*
X0336702Y0166772D01*
G75*
G02*
X0337283Y0166191I0000000J-000581D01*
G01*
X0337283Y0165030D01*
G75*
G02*
X0336702Y0164449I-000581J0000000D01*
G01*
G37*
G36*
G01*
X0336702Y0168268D02*
X0335344Y0168268D01*
G75*
G02*
X0334763Y0168849I0000000J0000581D01*
G01*
X0334763Y0170010D01*
G75*
G02*
X0335344Y0170591I0000581J0000000D01*
G01*
X0336702Y0170591D01*
G75*
G02*
X0337283Y0170010I0000000J-000581D01*
G01*
X0337283Y0168849D01*
G75*
G02*
X0336702Y0168268I-000581J0000000D01*
G01*
G37*
G36*
G01*
X0329370Y0135837D02*
X0329370Y0137195D01*
G75*
G02*
X0329950Y0137776I0000581J0000000D01*
G01*
X0331112Y0137776D01*
G75*
G02*
X0331692Y0137195I0000000J-000581D01*
G01*
X0331692Y0135837D01*
G75*
G02*
X0331112Y0135256I-000581J0000000D01*
G01*
X0329950Y0135256D01*
G75*
G02*
X0329370Y0135837I0000000J0000581D01*
G01*
G37*
G36*
G01*
X0333189Y0135837D02*
X0333189Y0137195D01*
G75*
G02*
X0333769Y0137776I0000581J0000000D01*
G01*
X0334931Y0137776D01*
G75*
G02*
X0335511Y0137195I0000000J-000581D01*
G01*
X0335511Y0135837D01*
G75*
G02*
X0334931Y0135256I-000581J0000000D01*
G01*
X0333769Y0135256D01*
G75*
G02*
X0333189Y0135837I0000000J0000581D01*
G01*
G37*
G36*
G01*
X0346958Y0185355D02*
X0348316Y0185355D01*
G75*
G02*
X0348897Y0184774I0000000J-000581D01*
G01*
X0348897Y0183613D01*
G75*
G02*
X0348316Y0183032I-000581J0000000D01*
G01*
X0346958Y0183032D01*
G75*
G02*
X0346377Y0183613I0000000J0000581D01*
G01*
X0346377Y0184774D01*
G75*
G02*
X0346958Y0185355I0000581J0000000D01*
G01*
G37*
G36*
G01*
X0346958Y0181536D02*
X0348316Y0181536D01*
G75*
G02*
X0348897Y0180955I0000000J-000581D01*
G01*
X0348897Y0179794D01*
G75*
G02*
X0348316Y0179213I-000581J0000000D01*
G01*
X0346958Y0179213D01*
G75*
G02*
X0346377Y0179794I0000000J0000581D01*
G01*
X0346377Y0180955D01*
G75*
G02*
X0346958Y0181536I0000581J0000000D01*
G01*
G37*
G36*
G01*
X0352253Y0179213D02*
X0350895Y0179213D01*
G75*
G02*
X0350315Y0179794I0000000J0000581D01*
G01*
X0350315Y0180955D01*
G75*
G02*
X0350895Y0181536I0000581J0000000D01*
G01*
X0352253Y0181536D01*
G75*
G02*
X0352834Y0180955I0000000J-000581D01*
G01*
X0352834Y0179794D01*
G75*
G02*
X0352253Y0179213I-000581J0000000D01*
G01*
G37*
G36*
G01*
X0352253Y0183032D02*
X0350895Y0183032D01*
G75*
G02*
X0350315Y0183613I0000000J0000581D01*
G01*
X0350315Y0184774D01*
G75*
G02*
X0350895Y0185355I0000581J0000000D01*
G01*
X0352253Y0185355D01*
G75*
G02*
X0352834Y0184774I0000000J-000581D01*
G01*
X0352834Y0183613D01*
G75*
G02*
X0352253Y0183032I-000581J0000000D01*
G01*
G37*
G36*
G01*
X0349813Y0226693D02*
X0351171Y0226693D01*
G75*
G02*
X0351752Y0226113I0000000J-000581D01*
G01*
X0351752Y0224951D01*
G75*
G02*
X0351171Y0224371I-000581J0000000D01*
G01*
X0349813Y0224371D01*
G75*
G02*
X0349232Y0224951I0000000J0000581D01*
G01*
X0349232Y0226113D01*
G75*
G02*
X0349813Y0226693I0000581J0000000D01*
G01*
G37*
G36*
G01*
X0349813Y0222874D02*
X0351171Y0222874D01*
G75*
G02*
X0351752Y0222294I0000000J-000581D01*
G01*
X0351752Y0221132D01*
G75*
G02*
X0351171Y0220552I-000581J0000000D01*
G01*
X0349813Y0220552D01*
G75*
G02*
X0349232Y0221132I0000000J0000581D01*
G01*
X0349232Y0222294D01*
G75*
G02*
X0349813Y0222874I0000581J0000000D01*
G01*
G37*
D434*
X0373228Y0172343D03*
X0370669Y0172343D03*
X0368110Y0172343D03*
X0365551Y0172343D03*
X0362992Y0172343D03*
X0360433Y0172343D03*
X0357874Y0172343D03*
X0357874Y0195571D03*
X0360433Y0195571D03*
X0362992Y0195571D03*
X0365551Y0195571D03*
X0368110Y0195571D03*
X0370669Y0195571D03*
X0373228Y0195571D03*
G36*
G01*
X0329734Y0162520D02*
X0331092Y0162520D01*
G75*
G02*
X0331673Y0161939I0000000J-000581D01*
G01*
X0331673Y0160778D01*
G75*
G02*
X0331092Y0160197I-000581J0000000D01*
G01*
X0329734Y0160197D01*
G75*
G02*
X0329153Y0160778I0000000J0000581D01*
G01*
X0329153Y0161939D01*
G75*
G02*
X0329734Y0162520I0000581J0000000D01*
G01*
G37*
G36*
G01*
X0329734Y0158701D02*
X0331092Y0158701D01*
G75*
G02*
X0331673Y0158121I0000000J-000581D01*
G01*
X0331673Y0156959D01*
G75*
G02*
X0331092Y0156378I-000581J0000000D01*
G01*
X0329734Y0156378D01*
G75*
G02*
X0329153Y0156959I0000000J0000581D01*
G01*
X0329153Y0158121D01*
G75*
G02*
X0329734Y0158701I0000581J0000000D01*
G01*
G37*
G36*
G01*
X0327352Y0156378D02*
X0325994Y0156378D01*
G75*
G02*
X0325413Y0156959I0000000J0000581D01*
G01*
X0325413Y0158121D01*
G75*
G02*
X0325994Y0158701I0000581J0000000D01*
G01*
X0327352Y0158701D01*
G75*
G02*
X0327933Y0158121I0000000J-000581D01*
G01*
X0327933Y0156959D01*
G75*
G02*
X0327352Y0156378I-000581J0000000D01*
G01*
G37*
G36*
G01*
X0327352Y0160197D02*
X0325994Y0160197D01*
G75*
G02*
X0325413Y0160778I0000000J0000581D01*
G01*
X0325413Y0161939D01*
G75*
G02*
X0325994Y0162520I0000581J0000000D01*
G01*
X0327352Y0162520D01*
G75*
G02*
X0327933Y0161939I0000000J-000581D01*
G01*
X0327933Y0160778D01*
G75*
G02*
X0327352Y0160197I-000581J0000000D01*
G01*
G37*
G36*
G01*
X0336801Y0216615D02*
X0335442Y0216615D01*
G75*
G02*
X0334862Y0217195I0000000J0000581D01*
G01*
X0334862Y0218357D01*
G75*
G02*
X0335442Y0218937I0000581J0000000D01*
G01*
X0336801Y0218937D01*
G75*
G02*
X0337381Y0218357I0000000J-000581D01*
G01*
X0337381Y0217195D01*
G75*
G02*
X0336801Y0216615I-000581J0000000D01*
G01*
G37*
G36*
G01*
X0336801Y0220434D02*
X0335442Y0220434D01*
G75*
G02*
X0334862Y0221014I0000000J0000581D01*
G01*
X0334862Y0222176D01*
G75*
G02*
X0335442Y0222756I0000581J0000000D01*
G01*
X0336801Y0222756D01*
G75*
G02*
X0337381Y0222176I0000000J-000581D01*
G01*
X0337381Y0221014D01*
G75*
G02*
X0336801Y0220434I-000581J0000000D01*
G01*
G37*
G36*
G01*
X0366099Y0209922D02*
X0364740Y0209922D01*
G75*
G02*
X0364160Y0210502I0000000J0000581D01*
G01*
X0364160Y0211664D01*
G75*
G02*
X0364740Y0212245I0000581J0000000D01*
G01*
X0366099Y0212245D01*
G75*
G02*
X0366679Y0211664I0000000J-000581D01*
G01*
X0366679Y0210502D01*
G75*
G02*
X0366099Y0209922I-000581J0000000D01*
G01*
G37*
G36*
G01*
X0366099Y0213741D02*
X0364740Y0213741D01*
G75*
G02*
X0364160Y0214321I0000000J0000581D01*
G01*
X0364160Y0215483D01*
G75*
G02*
X0364740Y0216063I0000581J0000000D01*
G01*
X0366099Y0216063D01*
G75*
G02*
X0366679Y0215483I0000000J-000581D01*
G01*
X0366679Y0214321D01*
G75*
G02*
X0366099Y0213741I-000581J0000000D01*
G01*
G37*
G36*
G01*
X0343021Y0182107D02*
X0344379Y0182107D01*
G75*
G02*
X0344960Y0181526I0000000J-000581D01*
G01*
X0344960Y0180365D01*
G75*
G02*
X0344379Y0179784I-000581J0000000D01*
G01*
X0343021Y0179784D01*
G75*
G02*
X0342440Y0180365I0000000J0000581D01*
G01*
X0342440Y0181526D01*
G75*
G02*
X0343021Y0182107I0000581J0000000D01*
G01*
G37*
G36*
G01*
X0343021Y0178288D02*
X0344379Y0178288D01*
G75*
G02*
X0344960Y0177707I0000000J-000581D01*
G01*
X0344960Y0176546D01*
G75*
G02*
X0344379Y0175965I-000581J0000000D01*
G01*
X0343021Y0175965D01*
G75*
G02*
X0342440Y0176546I0000000J0000581D01*
G01*
X0342440Y0177707D01*
G75*
G02*
X0343021Y0178288I0000581J0000000D01*
G01*
G37*
G36*
G01*
X0335442Y0230434D02*
X0336801Y0230434D01*
G75*
G02*
X0337381Y0229853I0000000J-000581D01*
G01*
X0337381Y0228691D01*
G75*
G02*
X0336801Y0228111I-000581J0000000D01*
G01*
X0335442Y0228111D01*
G75*
G02*
X0334862Y0228691I0000000J0000581D01*
G01*
X0334862Y0229853D01*
G75*
G02*
X0335442Y0230434I0000581J0000000D01*
G01*
G37*
G36*
G01*
X0335442Y0226615D02*
X0336801Y0226615D01*
G75*
G02*
X0337381Y0226034I0000000J-000581D01*
G01*
X0337381Y0224873D01*
G75*
G02*
X0336801Y0224292I-000581J0000000D01*
G01*
X0335442Y0224292D01*
G75*
G02*
X0334862Y0224873I0000000J0000581D01*
G01*
X0334862Y0226034D01*
G75*
G02*
X0335442Y0226615I0000581J0000000D01*
G01*
G37*
G36*
G01*
X0350895Y0177973D02*
X0352253Y0177973D01*
G75*
G02*
X0352834Y0177392I0000000J-000581D01*
G01*
X0352834Y0176231D01*
G75*
G02*
X0352253Y0175650I-000581J0000000D01*
G01*
X0350895Y0175650D01*
G75*
G02*
X0350315Y0176231I0000000J0000581D01*
G01*
X0350315Y0177392D01*
G75*
G02*
X0350895Y0177973I0000581J0000000D01*
G01*
G37*
G36*
G01*
X0350895Y0174154D02*
X0352253Y0174154D01*
G75*
G02*
X0352834Y0173573I0000000J-000581D01*
G01*
X0352834Y0172412D01*
G75*
G02*
X0352253Y0171831I-000581J0000000D01*
G01*
X0350895Y0171831D01*
G75*
G02*
X0350315Y0172412I0000000J0000581D01*
G01*
X0350315Y0173573D01*
G75*
G02*
X0350895Y0174154I0000581J0000000D01*
G01*
G37*
G36*
G01*
X0375511Y0166723D02*
X0375511Y0165365D01*
G75*
G02*
X0374931Y0164784I-000581J0000000D01*
G01*
X0373769Y0164784D01*
G75*
G02*
X0373189Y0165365I0000000J0000581D01*
G01*
X0373189Y0166723D01*
G75*
G02*
X0373769Y0167304I0000581J0000000D01*
G01*
X0374931Y0167304D01*
G75*
G02*
X0375511Y0166723I0000000J-000581D01*
G01*
G37*
G36*
G01*
X0371692Y0166723D02*
X0371692Y0165365D01*
G75*
G02*
X0371112Y0164784I-000581J0000000D01*
G01*
X0369950Y0164784D01*
G75*
G02*
X0369370Y0165365I0000000J0000581D01*
G01*
X0369370Y0166723D01*
G75*
G02*
X0369950Y0167304I0000581J0000000D01*
G01*
X0371112Y0167304D01*
G75*
G02*
X0371692Y0166723I0000000J-000581D01*
G01*
G37*
G36*
G01*
X0346958Y0192835D02*
X0348316Y0192835D01*
G75*
G02*
X0348897Y0192254I0000000J-000581D01*
G01*
X0348897Y0191093D01*
G75*
G02*
X0348316Y0190512I-000581J0000000D01*
G01*
X0346958Y0190512D01*
G75*
G02*
X0346377Y0191093I0000000J0000581D01*
G01*
X0346377Y0192254D01*
G75*
G02*
X0346958Y0192835I0000581J0000000D01*
G01*
G37*
G36*
G01*
X0346958Y0189016D02*
X0348316Y0189016D01*
G75*
G02*
X0348897Y0188436I0000000J-000581D01*
G01*
X0348897Y0187274D01*
G75*
G02*
X0348316Y0186693I-000581J0000000D01*
G01*
X0346958Y0186693D01*
G75*
G02*
X0346377Y0187274I0000000J0000581D01*
G01*
X0346377Y0188436D01*
G75*
G02*
X0346958Y0189016I0000581J0000000D01*
G01*
G37*
G36*
G01*
X0348316Y0194174D02*
X0346958Y0194174D01*
G75*
G02*
X0346377Y0194754I0000000J0000581D01*
G01*
X0346377Y0195916D01*
G75*
G02*
X0346958Y0196497I0000581J0000000D01*
G01*
X0348316Y0196497D01*
G75*
G02*
X0348897Y0195916I0000000J-000581D01*
G01*
X0348897Y0194754D01*
G75*
G02*
X0348316Y0194174I-000581J0000000D01*
G01*
G37*
G36*
G01*
X0348316Y0197993D02*
X0346958Y0197993D01*
G75*
G02*
X0346377Y0198573I0000000J0000581D01*
G01*
X0346377Y0199735D01*
G75*
G02*
X0346958Y0200315I0000581J0000000D01*
G01*
X0348316Y0200315D01*
G75*
G02*
X0348897Y0199735I0000000J-000581D01*
G01*
X0348897Y0198573D01*
G75*
G02*
X0348316Y0197993I-000581J0000000D01*
G01*
G37*
G36*
G01*
X0375511Y0162983D02*
X0375511Y0161624D01*
G75*
G02*
X0374931Y0161044I-000581J0000000D01*
G01*
X0373769Y0161044D01*
G75*
G02*
X0373189Y0161624I0000000J0000581D01*
G01*
X0373189Y0162983D01*
G75*
G02*
X0373769Y0163563I0000581J0000000D01*
G01*
X0374931Y0163563D01*
G75*
G02*
X0375511Y0162983I0000000J-000581D01*
G01*
G37*
G36*
G01*
X0371692Y0162983D02*
X0371692Y0161624D01*
G75*
G02*
X0371112Y0161044I-000581J0000000D01*
G01*
X0369950Y0161044D01*
G75*
G02*
X0369370Y0161624I0000000J0000581D01*
G01*
X0369370Y0162983D01*
G75*
G02*
X0369950Y0163563I0000581J0000000D01*
G01*
X0371112Y0163563D01*
G75*
G02*
X0371692Y0162983I0000000J-000581D01*
G01*
G37*
D435*
X0326673Y0152304D03*
X0330413Y0152304D03*
X0334153Y0152304D03*
X0334153Y0141989D03*
X0326673Y0141989D03*
G36*
G01*
X0344379Y0186792D02*
X0343021Y0186792D01*
G75*
G02*
X0342440Y0187373I0000000J0000581D01*
G01*
X0342440Y0188534D01*
G75*
G02*
X0343021Y0189115I0000581J0000000D01*
G01*
X0344379Y0189115D01*
G75*
G02*
X0344960Y0188534I0000000J-000581D01*
G01*
X0344960Y0187373D01*
G75*
G02*
X0344379Y0186792I-000581J0000000D01*
G01*
G37*
G36*
G01*
X0344379Y0190611D02*
X0343021Y0190611D01*
G75*
G02*
X0342440Y0191191I0000000J0000581D01*
G01*
X0342440Y0192353D01*
G75*
G02*
X0343021Y0192934I0000581J0000000D01*
G01*
X0344379Y0192934D01*
G75*
G02*
X0344960Y0192353I0000000J-000581D01*
G01*
X0344960Y0191191D01*
G75*
G02*
X0344379Y0190611I-000581J0000000D01*
G01*
G37*
G36*
G01*
X0340275Y0174203D02*
X0340275Y0172845D01*
G75*
G02*
X0339694Y0172264I-000581J0000000D01*
G01*
X0338533Y0172264D01*
G75*
G02*
X0337952Y0172845I0000000J0000581D01*
G01*
X0337952Y0174203D01*
G75*
G02*
X0338533Y0174784I0000581J0000000D01*
G01*
X0339694Y0174784D01*
G75*
G02*
X0340275Y0174203I0000000J-000581D01*
G01*
G37*
G36*
G01*
X0336456Y0174203D02*
X0336456Y0172845D01*
G75*
G02*
X0335876Y0172264I-000581J0000000D01*
G01*
X0334714Y0172264D01*
G75*
G02*
X0334133Y0172845I0000000J0000581D01*
G01*
X0334133Y0174203D01*
G75*
G02*
X0334714Y0174784I0000581J0000000D01*
G01*
X0335876Y0174784D01*
G75*
G02*
X0336456Y0174203I0000000J-000581D01*
G01*
G37*
G36*
G01*
X0360708Y0165365D02*
X0360708Y0166723D01*
G75*
G02*
X0361289Y0167304I0000581J0000000D01*
G01*
X0362450Y0167304D01*
G75*
G02*
X0363031Y0166723I0000000J-000581D01*
G01*
X0363031Y0165365D01*
G75*
G02*
X0362450Y0164784I-000581J0000000D01*
G01*
X0361289Y0164784D01*
G75*
G02*
X0360708Y0165365I0000000J0000581D01*
G01*
G37*
G36*
G01*
X0364527Y0165365D02*
X0364527Y0166723D01*
G75*
G02*
X0365108Y0167304I0000581J0000000D01*
G01*
X0366269Y0167304D01*
G75*
G02*
X0366850Y0166723I0000000J-000581D01*
G01*
X0366850Y0165365D01*
G75*
G02*
X0366269Y0164784I-000581J0000000D01*
G01*
X0365108Y0164784D01*
G75*
G02*
X0364527Y0165365I0000000J0000581D01*
G01*
G37*
G36*
G01*
X0359753Y0208485D02*
X0361112Y0208485D01*
G75*
G02*
X0361692Y0207904I0000000J-000581D01*
G01*
X0361692Y0206743D01*
G75*
G02*
X0361112Y0206162I-000581J0000000D01*
G01*
X0359753Y0206162D01*
G75*
G02*
X0359173Y0206743I0000000J0000581D01*
G01*
X0359173Y0207904D01*
G75*
G02*
X0359753Y0208485I0000581J0000000D01*
G01*
G37*
G36*
G01*
X0359753Y0204666D02*
X0361112Y0204666D01*
G75*
G02*
X0361692Y0204085I0000000J-000581D01*
G01*
X0361692Y0202924D01*
G75*
G02*
X0361112Y0202343I-000581J0000000D01*
G01*
X0359753Y0202343D01*
G75*
G02*
X0359173Y0202924I0000000J0000581D01*
G01*
X0359173Y0204085D01*
G75*
G02*
X0359753Y0204666I0000581J0000000D01*
G01*
G37*
G36*
G01*
X0359753Y0216063D02*
X0361112Y0216063D01*
G75*
G02*
X0361692Y0215483I0000000J-000581D01*
G01*
X0361692Y0214321D01*
G75*
G02*
X0361112Y0213741I-000581J0000000D01*
G01*
X0359753Y0213741D01*
G75*
G02*
X0359173Y0214321I0000000J0000581D01*
G01*
X0359173Y0215483D01*
G75*
G02*
X0359753Y0216063I0000581J0000000D01*
G01*
G37*
G36*
G01*
X0359753Y0212245D02*
X0361112Y0212245D01*
G75*
G02*
X0361692Y0211664I0000000J-000581D01*
G01*
X0361692Y0210502D01*
G75*
G02*
X0361112Y0209922I-000581J0000000D01*
G01*
X0359753Y0209922D01*
G75*
G02*
X0359173Y0210502I0000000J0000581D01*
G01*
X0359173Y0211664D01*
G75*
G02*
X0359753Y0212245I0000581J0000000D01*
G01*
G37*
G36*
G01*
X0360708Y0161624D02*
X0360708Y0162983D01*
G75*
G02*
X0361289Y0163563I0000581J0000000D01*
G01*
X0362450Y0163563D01*
G75*
G02*
X0363031Y0162983I0000000J-000581D01*
G01*
X0363031Y0161624D01*
G75*
G02*
X0362450Y0161044I-000581J0000000D01*
G01*
X0361289Y0161044D01*
G75*
G02*
X0360708Y0161624I0000000J0000581D01*
G01*
G37*
G36*
G01*
X0364527Y0161624D02*
X0364527Y0162983D01*
G75*
G02*
X0365108Y0163563I0000581J0000000D01*
G01*
X0366269Y0163563D01*
G75*
G02*
X0366850Y0162983I0000000J-000581D01*
G01*
X0366850Y0161624D01*
G75*
G02*
X0366269Y0161044I-000581J0000000D01*
G01*
X0365108Y0161044D01*
G75*
G02*
X0364527Y0161624I0000000J0000581D01*
G01*
G37*
G36*
G01*
X0350895Y0195985D02*
X0352253Y0195985D01*
G75*
G02*
X0352834Y0195404I0000000J-000581D01*
G01*
X0352834Y0194243D01*
G75*
G02*
X0352253Y0193662I-000581J0000000D01*
G01*
X0350895Y0193662D01*
G75*
G02*
X0350315Y0194243I0000000J0000581D01*
G01*
X0350315Y0195404D01*
G75*
G02*
X0350895Y0195985I0000581J0000000D01*
G01*
G37*
G36*
G01*
X0350895Y0192166D02*
X0352253Y0192166D01*
G75*
G02*
X0352834Y0191585I0000000J-000581D01*
G01*
X0352834Y0190424D01*
G75*
G02*
X0352253Y0189843I-000581J0000000D01*
G01*
X0350895Y0189843D01*
G75*
G02*
X0350315Y0190424I0000000J0000581D01*
G01*
X0350315Y0191585D01*
G75*
G02*
X0350895Y0192166I0000581J0000000D01*
G01*
G37*
G36*
G01*
X0360708Y0157884D02*
X0360708Y0159243D01*
G75*
G02*
X0361289Y0159823I0000581J0000000D01*
G01*
X0362450Y0159823D01*
G75*
G02*
X0363031Y0159243I0000000J-000581D01*
G01*
X0363031Y0157884D01*
G75*
G02*
X0362450Y0157304I-000581J0000000D01*
G01*
X0361289Y0157304D01*
G75*
G02*
X0360708Y0157884I0000000J0000581D01*
G01*
G37*
G36*
G01*
X0364527Y0157884D02*
X0364527Y0159243D01*
G75*
G02*
X0365108Y0159823I0000581J0000000D01*
G01*
X0366269Y0159823D01*
G75*
G02*
X0366850Y0159243I0000000J-000581D01*
G01*
X0366850Y0157884D01*
G75*
G02*
X0366269Y0157304I-000581J0000000D01*
G01*
X0365108Y0157304D01*
G75*
G02*
X0364527Y0157884I0000000J0000581D01*
G01*
G37*
G36*
G01*
X0369370Y0157884D02*
X0369370Y0159243D01*
G75*
G02*
X0369950Y0159823I0000581J0000000D01*
G01*
X0371112Y0159823D01*
G75*
G02*
X0371692Y0159243I0000000J-000581D01*
G01*
X0371692Y0157884D01*
G75*
G02*
X0371112Y0157304I-000581J0000000D01*
G01*
X0369950Y0157304D01*
G75*
G02*
X0369370Y0157884I0000000J0000581D01*
G01*
G37*
G36*
G01*
X0373189Y0157884D02*
X0373189Y0159243D01*
G75*
G02*
X0373769Y0159823I0000581J0000000D01*
G01*
X0374931Y0159823D01*
G75*
G02*
X0375511Y0159243I0000000J-000581D01*
G01*
X0375511Y0157884D01*
G75*
G02*
X0374931Y0157304I-000581J0000000D01*
G01*
X0373769Y0157304D01*
G75*
G02*
X0373189Y0157884I0000000J0000581D01*
G01*
G37*
G36*
G01*
X0363563Y0143071D02*
X0362224Y0143071D01*
G75*
G02*
X0361673Y0143622I0000000J0000551D01*
G01*
X0361673Y0144725D01*
G75*
G02*
X0362224Y0145276I0000551J0000000D01*
G01*
X0363563Y0145276D01*
G75*
G02*
X0364114Y0144725I0000000J-000551D01*
G01*
X0364114Y0143622D01*
G75*
G02*
X0363563Y0143071I-000551J0000000D01*
G01*
G37*
G36*
G01*
X0363563Y0146851D02*
X0362224Y0146851D01*
G75*
G02*
X0361673Y0147402I0000000J0000551D01*
G01*
X0361673Y0148504D01*
G75*
G02*
X0362224Y0149055I0000551J0000000D01*
G01*
X0363563Y0149055D01*
G75*
G02*
X0364114Y0148504I0000000J-000551D01*
G01*
X0364114Y0147402D01*
G75*
G02*
X0363563Y0146851I-000551J0000000D01*
G01*
G37*
G36*
G01*
X0337303Y0198012D02*
X0338759Y0198012D01*
G75*
G02*
X0339291Y0197481I0000000J-000531D01*
G01*
X0339291Y0196418D01*
G75*
G02*
X0338759Y0195886I-000531J0000000D01*
G01*
X0337303Y0195886D01*
G75*
G02*
X0336771Y0196418I0000000J0000531D01*
G01*
X0336771Y0197481D01*
G75*
G02*
X0337303Y0198012I0000531J0000000D01*
G01*
G37*
G36*
G01*
X0337303Y0193997D02*
X0338759Y0193997D01*
G75*
G02*
X0339291Y0193465I0000000J-000531D01*
G01*
X0339291Y0192402D01*
G75*
G02*
X0338759Y0191871I-000531J0000000D01*
G01*
X0337303Y0191871D01*
G75*
G02*
X0336771Y0192402I0000000J0000531D01*
G01*
X0336771Y0193465D01*
G75*
G02*
X0337303Y0193997I0000531J0000000D01*
G01*
G37*
G36*
G01*
X0351836Y0137284D02*
X0351836Y0135827D01*
G75*
G02*
X0351304Y0135296I-000531J0000000D01*
G01*
X0350241Y0135296D01*
G75*
G02*
X0349710Y0135827I0000000J0000531D01*
G01*
X0349710Y0137284D01*
G75*
G02*
X0350241Y0137815I0000531J0000000D01*
G01*
X0351304Y0137815D01*
G75*
G02*
X0351836Y0137284I0000000J-000531D01*
G01*
G37*
G36*
G01*
X0347820Y0137284D02*
X0347820Y0135827D01*
G75*
G02*
X0347288Y0135296I-000531J0000000D01*
G01*
X0346225Y0135296D01*
G75*
G02*
X0345694Y0135827I0000000J0000531D01*
G01*
X0345694Y0137284D01*
G75*
G02*
X0346225Y0137815I0000531J0000000D01*
G01*
X0347288Y0137815D01*
G75*
G02*
X0347820Y0137284I0000000J-000531D01*
G01*
G37*
G36*
G01*
X0375787Y0137894D02*
X0374606Y0137894D01*
G75*
G02*
X0374015Y0138485I0000000J0000591D01*
G01*
X0374015Y0143111D01*
G75*
G02*
X0374606Y0143701I0000591J0000000D01*
G01*
X0375787Y0143701D01*
G75*
G02*
X0376377Y0143111I0000000J-000591D01*
G01*
X0376377Y0138485D01*
G75*
G02*
X0375787Y0137894I-000591J0000000D01*
G01*
G37*
G36*
G01*
X0368307Y0137894D02*
X0367126Y0137894D01*
G75*
G02*
X0366535Y0138485I0000000J0000591D01*
G01*
X0366535Y0143111D01*
G75*
G02*
X0367126Y0143701I0000591J0000000D01*
G01*
X0368307Y0143701D01*
G75*
G02*
X0368897Y0143111I0000000J-000591D01*
G01*
X0368897Y0138485D01*
G75*
G02*
X0368307Y0137894I-000591J0000000D01*
G01*
G37*
G36*
G01*
X0372047Y0145276D02*
X0370866Y0145276D01*
G75*
G02*
X0370275Y0145867I0000000J0000591D01*
G01*
X0370275Y0150493D01*
G75*
G02*
X0370866Y0151083I0000591J0000000D01*
G01*
X0372047Y0151083D01*
G75*
G02*
X0372637Y0150493I0000000J-000591D01*
G01*
X0372637Y0145867D01*
G75*
G02*
X0372047Y0145276I-000591J0000000D01*
G01*
G37*
G36*
G01*
X0337855Y0135847D02*
X0337855Y0137186D01*
G75*
G02*
X0338407Y0137737I0000551J0000000D01*
G01*
X0339509Y0137737D01*
G75*
G02*
X0340060Y0137186I0000000J-000551D01*
G01*
X0340060Y0135847D01*
G75*
G02*
X0339509Y0135296I-000551J0000000D01*
G01*
X0338407Y0135296D01*
G75*
G02*
X0337855Y0135847I0000000J0000551D01*
G01*
G37*
G36*
G01*
X0341635Y0135847D02*
X0341635Y0137186D01*
G75*
G02*
X0342186Y0137737I0000551J0000000D01*
G01*
X0343288Y0137737D01*
G75*
G02*
X0343840Y0137186I0000000J-000551D01*
G01*
X0343840Y0135847D01*
G75*
G02*
X0343288Y0135296I-000551J0000000D01*
G01*
X0342186Y0135296D01*
G75*
G02*
X0341635Y0135847I0000000J0000551D01*
G01*
G37*
G36*
G01*
X0340926Y0166634D02*
X0342107Y0166634D01*
G75*
G02*
X0342698Y0166044I0000000J-000591D01*
G01*
X0342698Y0160335D01*
G75*
G02*
X0342107Y0159745I-000591J0000000D01*
G01*
X0340926Y0159745D01*
G75*
G02*
X0340336Y0160335I0000000J0000591D01*
G01*
X0340336Y0166044D01*
G75*
G02*
X0340926Y0166634I0000591J0000000D01*
G01*
G37*
G36*
G01*
X0345926Y0166634D02*
X0347107Y0166634D01*
G75*
G02*
X0347698Y0166044I0000000J-000591D01*
G01*
X0347698Y0160335D01*
G75*
G02*
X0347107Y0159745I-000591J0000000D01*
G01*
X0345926Y0159745D01*
G75*
G02*
X0345336Y0160335I0000000J0000591D01*
G01*
X0345336Y0166044D01*
G75*
G02*
X0345926Y0166634I0000591J0000000D01*
G01*
G37*
G36*
G01*
X0350926Y0166634D02*
X0352107Y0166634D01*
G75*
G02*
X0352698Y0166044I0000000J-000591D01*
G01*
X0352698Y0160335D01*
G75*
G02*
X0352107Y0159745I-000591J0000000D01*
G01*
X0350926Y0159745D01*
G75*
G02*
X0350336Y0160335I0000000J0000591D01*
G01*
X0350336Y0166044D01*
G75*
G02*
X0350926Y0166634I0000591J0000000D01*
G01*
G37*
G36*
G01*
X0355926Y0166634D02*
X0357107Y0166634D01*
G75*
G02*
X0357698Y0166044I0000000J-000591D01*
G01*
X0357698Y0160335D01*
G75*
G02*
X0357107Y0159745I-000591J0000000D01*
G01*
X0355926Y0159745D01*
G75*
G02*
X0355336Y0160335I0000000J0000591D01*
G01*
X0355336Y0166044D01*
G75*
G02*
X0355926Y0166634I0000591J0000000D01*
G01*
G37*
G36*
G01*
X0355926Y0146359D02*
X0357107Y0146359D01*
G75*
G02*
X0357698Y0145768I0000000J-000591D01*
G01*
X0357698Y0140060D01*
G75*
G02*
X0357107Y0139469I-000591J0000000D01*
G01*
X0355926Y0139469D01*
G75*
G02*
X0355336Y0140060I0000000J0000591D01*
G01*
X0355336Y0145768D01*
G75*
G02*
X0355926Y0146359I0000591J0000000D01*
G01*
G37*
G36*
G01*
X0350926Y0146359D02*
X0352107Y0146359D01*
G75*
G02*
X0352698Y0145768I0000000J-000591D01*
G01*
X0352698Y0140060D01*
G75*
G02*
X0352107Y0139469I-000591J0000000D01*
G01*
X0350926Y0139469D01*
G75*
G02*
X0350336Y0140060I0000000J0000591D01*
G01*
X0350336Y0145768D01*
G75*
G02*
X0350926Y0146359I0000591J0000000D01*
G01*
G37*
G36*
G01*
X0345926Y0146359D02*
X0347107Y0146359D01*
G75*
G02*
X0347698Y0145768I0000000J-000591D01*
G01*
X0347698Y0140060D01*
G75*
G02*
X0347107Y0139469I-000591J0000000D01*
G01*
X0345926Y0139469D01*
G75*
G02*
X0345336Y0140060I0000000J0000591D01*
G01*
X0345336Y0145768D01*
G75*
G02*
X0345926Y0146359I0000591J0000000D01*
G01*
G37*
G36*
G01*
X0340926Y0146359D02*
X0342107Y0146359D01*
G75*
G02*
X0342698Y0145768I0000000J-000591D01*
G01*
X0342698Y0140060D01*
G75*
G02*
X0342107Y0139469I-000591J0000000D01*
G01*
X0340926Y0139469D01*
G75*
G02*
X0340336Y0140060I0000000J0000591D01*
G01*
X0340336Y0145768D01*
G75*
G02*
X0340926Y0146359I0000591J0000000D01*
G01*
G37*
M02*
