M48
INCH,TZ
T01C0.013750
T02C0.024600
T03C0.031500
T04C0.039200
T05C0.043300
T06C0.051200
T07C0.129900
T08C0.137800
%
T01
X25910Y4338
X25940Y2940
X26029Y4840
X26373Y4633
X9144Y25975
X9442Y26076
X9654Y26476
X9792Y26032
X10329Y21167
X10512Y21850
X10728Y22135
X11614Y7480
X11614Y7087
X11811Y26772
X11909Y27067
X12042Y27331
X12303Y30906
X12441Y7677
X12884Y3543
X12992Y2461
X13494Y3543
X13976Y2461
X18209Y26102
X18504Y26240
X20669Y26452
X20965Y3445
X21457Y26019
X21866Y26236
X24606Y7087
X26378Y7382
X29035Y25886
X31890Y30413
X32972Y30413
X10266Y3278
X10266Y2884
X12018Y22904
X12018Y19951
X12018Y19636
X12018Y19321
X12018Y19006
X12018Y18691
X12018Y18061
X12018Y17746
X12018Y17431
X12018Y17116
X12018Y16801
X12018Y16486
X12018Y16171
X12018Y15856
X12018Y15541
X12018Y15226
X12018Y14281
X12018Y13967
X12018Y13652
X12018Y12392
X12018Y12077
X12018Y11762
X12018Y11447
X12018Y10502
X12018Y10187
X12018Y9872
X12018Y9557
X12018Y9242
X12018Y8219
X12018Y22589
X12018Y18376
X12018Y14911
X12018Y14596
X12018Y13337
X12018Y13022
X12018Y12707
X12018Y11132
X12018Y10817
X12254Y23770
X12333Y8219
X12648Y8219
X12726Y23770
X12963Y8219
X13199Y23770
X13278Y8219
X13593Y8219
X13671Y23770
X13907Y8219
X14144Y23770
X14222Y8219
X14537Y8219
X14577Y23770
X14852Y8219
X15049Y23770
X15167Y8219
X15482Y8219
X15522Y23770
X15797Y8219
X15994Y23770
X16112Y8219
X16427Y8219
X16467Y23770
X16742Y8219
X16939Y23770
X17057Y8219
X17372Y8219
X17411Y23770
X17687Y8219
X17815Y28602
X17884Y23770
X18002Y8219
X18189Y28602
X18209Y32028
X18317Y8219
X18356Y23770
X18563Y32028
X18563Y28602
X18632Y8219
X18829Y23770
X18947Y8219
X19301Y23770
X19774Y23770
X20246Y23770
X20719Y23770
X21112Y8219
X21191Y23770
X21427Y8219
X21663Y23770
X21742Y8219
X22057Y8219
X22136Y23770
X22372Y8219
X22608Y23770
X23081Y23770
X23553Y23770
X23815Y32003
X24026Y23770
X24209Y32003
X24498Y23770
X24970Y23770
X25335Y26324
X25443Y23770
X25443Y8219
X25758Y8219
X25807Y26324
X25915Y23770
X26073Y8219
X26280Y26324
X26388Y23770
X26752Y26324
X26860Y23770
X27333Y23770
X28274Y32028
X28278Y23770
X28435Y19872
X28435Y17116
X28435Y16722
X28435Y16329
X28435Y15935
X28435Y15541
X28435Y15148
X28435Y14754
X28435Y14360
X28435Y8219
X28435Y17510
X28435Y13967
X28435Y13573
X28435Y13179
X28435Y12785
X28435Y12392
X28435Y11998
X28435Y22785
X28435Y22392
X28667Y32028
X29793Y26348
X30266Y26348
X30738Y26348
X31211Y26348
X32992Y13242
X33386Y13242
X33780Y13242
X34677Y13242
X35077Y13242
X36004Y23711
X36398Y23711
X36791Y23711
X37185Y23711
X2667Y10728
X9547Y13967
X10039Y13652
X10531Y13337
X11024Y13022
X22244Y27264
X30118Y34646
X33661Y34646
X28277Y23770
X28354Y23371
X28435Y22786
X28435Y22392
X27677Y22132
X26963Y22116
X26679Y22093
X26073Y22274
X25758Y22274
X25192Y22086
X24766Y22086
X24183Y22274
X23868Y22274
X23299Y22104
X23014Y22095
X22326Y22296
X21942Y22296
X21431Y22070
X20989Y22086
X20403Y22274
X20088Y22274
X19508Y22177
X19124Y22116
X18514Y22274
X18199Y22274
X17569Y22116
X17254Y22116
X16624Y22274
X16309Y22274
X15679Y22116
X15364Y22116
X14734Y22274
X14498Y22038
X14222Y21171
X13907Y21290
X13710Y21565
X13356Y21565
X13268Y20640
X13770Y20620
X13707Y20342
X13809Y19498
X13435Y19360
X13331Y19085
X13228Y19597
X13507Y18271
X13515Y17774
X13829Y17746
X13789Y17353
X13907Y16565
X14502Y16489
X14892Y16447
X15226Y16436
X14970Y16723
X14718Y16883
X14555Y16019
X14539Y15632
X14784Y15472
X14398Y15227
X14488Y14519
X14419Y14242
X14537Y13376
X14734Y13022
X14507Y12461
X14486Y12077
X13685Y12373
X13362Y12594
X12979Y12618
X13400Y11158
X13449Y10508
X13230Y10325
X13792Y9910
X14516Y9717
X14892Y10030
X15136Y9882
X15285Y9203
X15561Y9321
X14339Y9114
X14061Y9240
X13917Y8721
X13602Y8620
X12979Y9176
X16888Y9186
X17186Y9136
X17132Y9775
X16793Y9985
X16196Y10660
X16388Y10896
X16624Y11132
X17451Y11368
X18070Y11472
X18041Y11132
X18351Y11560
X18553Y11762
X18396Y12707
X17962Y12731
X17136Y12471
X16821Y12471
X16677Y12887
X16033Y12786
X15994Y12077
X15766Y11906
X15443Y12549
X15443Y13494
X16388Y13809
X16703Y13809
X16624Y14376
X16703Y15345
X16309Y15345
X16031Y14868
X15317Y14759
X15453Y15516
X15439Y15893
X16506Y15975
X16427Y16694
X16112Y16683
X17000Y16768
X16781Y17549
X16466Y17628
X15836Y17510
X15590Y17655
X15296Y17903
X15659Y18376
X16053Y18376
X16703Y18691
X17018Y18688
X17333Y18691
X17962Y18555
X18229Y18366
X18120Y17825
X17907Y17589
X17757Y17994
X18750Y17825
X18671Y17549
X19537Y17510
X19616Y17864
X19616Y18691
X19301Y18688
X18986Y18652
X18710Y19085
X18710Y19400
X18701Y19685
X18474Y20227
X17884Y20227
X17510Y19990
X17510Y19360
X17943Y19498
X16486Y19636
X16491Y19346
X15659Y19498
X15226Y19360
X15226Y19990
X15600Y20227
X16191Y20227
X16762Y20975
X17269Y21073
X17554Y21073
X19158Y21073
X19444Y21073
X19717Y20989
X19793Y19990
X20167Y20227
X20718Y20227
X21053Y19636
X21058Y19346
X21249Y18676
X21584Y18688
X21899Y18691
X22077Y19360
X22510Y19498
X22411Y20227
X22077Y19990
X21839Y20957
X21334Y21112
X21048Y21073
X22581Y20717
X22938Y21073
X23223Y21073
X23238Y20423
X23288Y19722
X23307Y19045
X23294Y18750
X23307Y18391
X23317Y17904
X23277Y17471
X23657Y17343
X23942Y17323
X24104Y17825
X23966Y18258
X24464Y18147
X24884Y18047
X24909Y17762
X25403Y17746
X25740Y17863
X26139Y17580
X25817Y17234
X25325Y17148
X25258Y16665
X25292Y16329
X25246Y15945
X25246Y15660
X25246Y15108
X25285Y14360
X25088Y13849
X25167Y13573
X25143Y13111
X25179Y12531
X25207Y11762
X25600Y11664
X25610Y11324
X26466Y11093
X26447Y11683
X26393Y12431
X26781Y12510
X27175Y12514
X27825Y12518
X28435Y12392
X28435Y12786
X28435Y13179
X28435Y13573
X28435Y13967
X28435Y14360
X28435Y14754
X28435Y15148
X28435Y15542
X28435Y15935
X28435Y16329
X28435Y16723
X28435Y17116
X28435Y17510
X28199Y17746
X27659Y17579
X27667Y18061
X27392Y18199
X27030Y18159
X26762Y18260
X26102Y18465
X26089Y18750
X26102Y19045
X26073Y19400
X26554Y19257
X27056Y19250
X26899Y19675
X27016Y20001
X26628Y20029
X26959Y20423
X26998Y20975
X26717Y21073
X25955Y21004
X25482Y21004
X25113Y21073
X24828Y21073
X24419Y21014
X24065Y21053
X24478Y20423
X24419Y19990
X24104Y19675
X24242Y19282
X23612Y19282
X23738Y20115
X25482Y19990
X25718Y20423
X24942Y19393
X24901Y19110
X24970Y18534
X24439Y17077
X24368Y15832
X24409Y15227
X24431Y14813
X24399Y14301
X24409Y13731
X24409Y13022
X24409Y12392
X24468Y11728
X23565Y11619
X23541Y11005
X23337Y10804
X22894Y10876
X22844Y11290
X22844Y11575
X22844Y12396
X22858Y12785
X23381Y12786
X23381Y13071
X23095Y13090
X22884Y13337
X22962Y13691
X22849Y14144
X21943Y14137
X21660Y14028
X21781Y13770
X22030Y13453
X22018Y14557
X21870Y15339
X21781Y15738
X21968Y16083
X22254Y16998
X22783Y17014
X22926Y16758
X22962Y17756
X22608Y18049
X22528Y18359
X21860Y17825
X21375Y17811
X21388Y17526
X21227Y16545
X20819Y16502
X20758Y16781
X20482Y16486
X19833Y16462
X19842Y16747
X19399Y16388
X19168Y16604
X18681Y16071
X19574Y15778
X20057Y15774
X19793Y15414
X19459Y14912
X18986Y14439
X19892Y14400
X20364Y13219
X20679Y13258
X20958Y13756
X21427Y14193
X20955Y15384
X22805Y15187
X23041Y15778
X23356Y15719
X23766Y15655
X23642Y16270
X23553Y13671
X22028Y12204
X22018Y11762
X22096Y11132
X22088Y10847
X21956Y10373
X22028Y10096
X21899Y9597
X22352Y9012
X21584Y8457
X20788Y8344
X20463Y8389
X20175Y8347
X19856Y8350
X19542Y8356
X19931Y9242
X20551Y9213
X20837Y9213
X21122Y9203
X20977Y10208
X20915Y10502
X21260Y11014
X21112Y11762
X21270Y12274
X20364Y12353
X20009Y12441
X19734Y12707
X19931Y11565
X20384Y11841
X19222Y11132
X19695Y10660
X19695Y9722
X19301Y9518
X18961Y9119
X18012Y9201
X18829Y10463
X18514Y13916
X18002Y13798
X17780Y13979
X17560Y13798
X17382Y14021
X17529Y15187
X18041Y15384
X18159Y14675
X20244Y17598
X20482Y17943
X20620Y18376
X20325Y18376
X20226Y19498
X19793Y19360
X20010Y23573
X19773Y23770
X19537Y23573
X19301Y23770
X19065Y23573
X18829Y23770
X18592Y23573
X18356Y23770
X18120Y23573
X17884Y23770
X17647Y23573
X17411Y23770
X17175Y23573
X16939Y23770
X16703Y23573
X16466Y23770
X16230Y23573
X15994Y23770
X15758Y23573
X15521Y23770
X15285Y23573
X15049Y23770
X14813Y23573
X14577Y23770
X14144Y23770
X13907Y23573
X13671Y23770
X13435Y23573
X13199Y23770
X12962Y23573
X13266Y22866
X13739Y22866
X14773Y21014
X15379Y21073
X15664Y21073
X15049Y18691
X14734Y18688
X14419Y18691
X14133Y18746
X13031Y15729
X15325Y11368
X15284Y11086
X22765Y10499
X23089Y10168
X23014Y9892
X23338Y10027
X23730Y9577
X23998Y9693
X24288Y9854
X24588Y9867
X24537Y10148
X24301Y10778
X23926Y11043
X23797Y9193
X24468Y9349
X25220Y9656
X25589Y9501
X25608Y9796
X25458Y10200
X25787Y10187
X26281Y9988
X27144Y10190
X27553Y10281
X27490Y9715
X28336Y9636
X28356Y10030
X27766Y8750
X27726Y8297
X26644Y8297
X26004Y9094
X25264Y8997
X24244Y8455
X23238Y8573
X27283Y11133
X27451Y11368
X27626Y11946
X28022Y11959
X28435Y11998
X27309Y13391
X27037Y13731
X26869Y14492
X26063Y14518
X26063Y15227
X26063Y15935
X26063Y16644
X26498Y17028
X26813Y16797
X27313Y17333
X28307Y18425
X27697Y19045
X28022Y19715
X28435Y19872
X28199Y20423
X28396Y21014
X27844Y21211
X28081Y21693
X27445Y20878
X27569Y20089
X27844Y23179
X27801Y23739
X27569Y23573
X27333Y23770
X27096Y23573
X26860Y23770
X26624Y23573
X26388Y23770
X26151Y23573
X25915Y23770
X25679Y23573
X25443Y23770
X25207Y23573
X24970Y23770
X24734Y23573
X24498Y23770
X24262Y23573
X24025Y23770
X23789Y23573
X23553Y23770
X23317Y23573
X23081Y23770
X22844Y23573
X22608Y23770
X22372Y23573
X22136Y23770
X21899Y23573
X21663Y23770
X21427Y23573
X21191Y23770
X20955Y23573
X20718Y23770
X20482Y23573
X20246Y23770
X26584Y13199
X12884Y13042
X12697Y12826
X12018Y12707
X12018Y12392
X12018Y12077
X12018Y11762
X12018Y11447
X12018Y11132
X12018Y10817
X12018Y10502
X12018Y10187
X12018Y9872
X12018Y9557
X12018Y9242
X12096Y8927
X12419Y9242
X12291Y10072
X12256Y11290
X12256Y12234
X12873Y11892
X12846Y13807
X12018Y13652
X12018Y13337
X12018Y13022
X12018Y13967
X12018Y14282
X12018Y14597
X12018Y14912
X12018Y15227
X12018Y15542
X12018Y15857
X12018Y16171
X12018Y16486
X12018Y16801
X12018Y17116
X12018Y17431
X12018Y17746
X12018Y18061
X12018Y18376
X12018Y18691
X12018Y19006
X12018Y19321
X12018Y19636
X12018Y19951
X12846Y20076
X12844Y20778
X12529Y20935
X12384Y20689
X12411Y21250
X12293Y21565
X12214Y21841
X12214Y22234
X12018Y22589
X12018Y22904
X12362Y22874
X12824Y22873
X12726Y23770
X12490Y23573
X12254Y23770
X12057Y23455
X12529Y19400
X12869Y19345
X12301Y16451
X12628Y14862
X12923Y14862
X12647Y8219
X12333Y8219
X12018Y8219
X12962Y8219
X13277Y8219
X13592Y8219
X13907Y8219
X14222Y8219
X14537Y8219
X14852Y8219
X15167Y8219
X15482Y8219
X15797Y8219
X16112Y8219
X16427Y8219
X16742Y8219
X17057Y8219
X17372Y8219
X17687Y8219
X18002Y8219
X18317Y8219
X18632Y8219
X18947Y8219
X21112Y8219
X21427Y8219
X21742Y8219
X22057Y8219
X22372Y8219
X24508Y8245
X25443Y8219
X25758Y8219
X26073Y8219
X28435Y8219
X29419Y32037
X31065Y32010
X30236Y31988
X27712Y31266
X28469Y31257
X29248Y31231
X31077Y31183
X30145Y31181
X29443Y31009
X31049Y30835
X27840Y30748
X29155Y30718
X27706Y30443
X31240Y30387
X29693Y30310
X28447Y30299
X30768Y30145
X29757Y30022
X29734Y29728
X30135Y29486
X29329Y29354
X29655Y29301
X28937Y29291
X27854Y29271
X28226Y29221
X28576Y29181
X29234Y28960
X27706Y28651
X29281Y28582
X29705Y28268
X29419Y28149
X28915Y28051
X30378Y28029
X27866Y27986
X29675Y27963
X31049Y27894
X30990Y27598
X29720Y27415
X31219Y27403
X28346Y27076
X28338Y26600
X28169Y26358
X28582Y26348
X27687Y26332
X28667Y32027
X28273Y32027
X31210Y26348
X30738Y26348
X30266Y26348
X29793Y26348
X25315Y31875
X23347Y31875
X26654Y31836
X25237Y31009
X24174Y30852
X23347Y30734
X26654Y30497
X25748Y30104
X24764Y30064
X24134Y29513
X23347Y29474
X26654Y29080
X25945Y28844
X23347Y28765
X25254Y28679
X23701Y28253
X24567Y27742
X23622Y27505
X26654Y27348
X23347Y27033
X25829Y26715
X24961Y26442
X23622Y26442
X24209Y32003
X23815Y32003
X26752Y26324
X26280Y26324
X25808Y26324
X25335Y26324
X4784Y1649
X4512Y2285
X4726Y2670
X4085Y3099
X4045Y3435
X4242Y4025
X4518Y4281
X4636Y4812
X4242Y5108
X4045Y4616
X4045Y5797
X4045Y7372
X4518Y7352
X5629Y7644
X6676Y7619
X6998Y7331
X8051Y7256
X9163Y7372
X9951Y7372
X9478Y6368
X8833Y6362
X8893Y5116
X9360Y5206
X9528Y4726
X9951Y5009
X9529Y3841
X10225Y3669
X10266Y3277
X10266Y2883
X9584Y2977
X9274Y2488
X9661Y2171
X9264Y1741
X8875Y2120
X8800Y2844
X8848Y3277
X7532Y2292
X7532Y1663
X6613Y1649
X5758Y1649
X5981Y2291
X6565Y3316
X6958Y4763
X6211Y4812
X6644Y5322
X7233Y6320
X8179Y8277
X9111Y8344
X9557Y7962
X9951Y8553
X9124Y9340
X7125Y9508
X7083Y9102
X6296Y9092
X6031Y8689
X4594Y8766
X5003Y8131
X4163Y7898
X17668Y32022
X17921Y31870
X18208Y32028
X18563Y32028
X18229Y31026
X18124Y30752
X18337Y30509
X17824Y31059
X18564Y29580
X18563Y28603
X18189Y28603
X17815Y28603
X26373Y4633
X26029Y4840
X25910Y4338
X25940Y2940
X35453Y13179
X32523Y13254
X34193Y13298
X37559Y13298
X37369Y13531
X36089Y13587
X35778Y13587
X32755Y13741
X34346Y13969
X33648Y14061
X36276Y14124
X37209Y14261
X37481Y14553
X32441Y14656
X33078Y14702
X33455Y14744
X34762Y14819
X35999Y14823
X37520Y15099
X35434Y15180
X36723Y15305
X34774Y15365
X33727Y15374
X35484Y15483
X37559Y15581
X32436Y16378
X36752Y16546
X34947Y16836
X34008Y17066
X35508Y17067
X34715Y17068
X34472Y17274
X37658Y17294
X34813Y17352
X33436Y17659
X35571Y17867
X33487Y17956
X37628Y18081
X34134Y18097
X33481Y18266
X36914Y18284
X35532Y18357
X34532Y18416
X33857Y18569
X36831Y18573
X36098Y18874
X33132Y18892
X32831Y18900
X37638Y19272
X33000Y19479
X32415Y19504
X33299Y19513
X32634Y19770
X34276Y19908
X35123Y19954
X35636Y20024
X36536Y20024
X36837Y20024
X37138Y20024
X37439Y20024
X36044Y20028
X34508Y20404
X34725Y20660
X37680Y22735
X35931Y22952
X32678Y22992
X33091Y23140
X36024Y23239
X33672Y23278
X33947Y23278
X34223Y23278
X33111Y23455
X37687Y23475
X33672Y23583
X33947Y23583
X32697Y23780
X32992Y13242
X33386Y13242
X33780Y13242
X34678Y13242
X35078Y13242
X36004Y23711
X36398Y23711
X36792Y23711
X37185Y23711
T02
X11685Y2915G85X11685Y2482
X11685Y1211G85X11685Y896
X15087Y2915G85X15087Y2482
X15087Y1211G85X15087Y896
X12248Y2502
X14524Y2502
T03
X22569Y17668
X20876Y17786
X19144Y17746
X17254Y17786
X16112Y17786
X14931Y17786
X14419Y17313
T04
X3986Y9360
X3986Y8632
X3986Y6683
X3986Y1939
X10089Y9183
X10089Y6663
X10089Y5915
X10089Y4222
X10089Y1762
X28120Y8534
X24978Y9294
X24978Y8494
X22978Y8894
X3986Y1938
X3986Y6683
X10089Y6663
X10089Y5915
X10089Y4222
X10089Y1761
X10089Y9183
X3986Y9360
X3986Y8631
X36674Y20565
X35492Y21353
X36674Y22140
X36752Y13439
X36352Y15439
X37152Y15439
T05
X2343Y35650
X2343Y33878
X3720Y35650
X3720Y33878
X5098Y35650
X5098Y33878
X6476Y35650
X6476Y33878
X7854Y35650
X7854Y33878
X9232Y35650
X9232Y33878
X11575Y35650
X11575Y33878
X12756Y35650
X12756Y33878
X13937Y35650
X13937Y33878
X15118Y35650
X15118Y33878
X16299Y35650
X16299Y33878
X17480Y35650
X17480Y33878
X18661Y35650
X18661Y33878
X19843Y35650
X19843Y33878
X22185Y35650
X22185Y33878
X23563Y35650
X23563Y33878
X24783Y35650
X24783Y33878
X25965Y35650
X25965Y33878
X27146Y35650
X27146Y33878
X28327Y35650
X28327Y33878
X29508Y35650
X29508Y33878
X30689Y35650
X30689Y33878
X31870Y35650
X31870Y33878
X33051Y35650
X33051Y33878
X34272Y35650
X34272Y33878
X35650Y35650
X35650Y33878
X37028Y35650
X37028Y33878
X32865Y20388
X32865Y21388
X32865Y22388
T06
X4134Y24902
X4134Y23720
X4134Y22539
X4134Y21358
X4134Y20177
X4134Y18996
X4134Y17815
X4134Y16634
X4134Y15453
X5118Y24311
X5118Y23130
X5118Y21949
X5118Y20768
X5118Y19587
X5118Y18406
X5118Y17224
X5118Y16043
X6299Y24311
X6299Y23130
X6299Y21949
X6299Y20768
X6299Y19587
X6299Y18406
X6299Y17224
X6299Y16043
X7283Y24902
X7283Y23720
X7283Y22539
X7283Y21358
X7283Y20177
X7283Y18996
X7283Y17815
X7283Y16634
X7283Y15453
T07
X1575Y27756
X1575Y12598
T08
X2087Y37894
X20965Y37894
X37283Y37894
M30
