M48
; DRILL file {KiCad 8.0.9-8.0.9-0~ubuntu24.04.1} date 2026-02-16T06:16:27+0000
; FORMAT={2:4/ absolute / inch / suppress leading zeros}
; #@! TF.CreationDate,2026-02-16T06:16:27+00:00
; #@! TF.GenerationSoftware,Kicad,Pcbnew,8.0.9-8.0.9-0~ubuntu24.04.1
; #@! TF.FileFunction,MixedPlating,1,4
FMAT,2
INCH,TZ
; #@! TA.AperFunction,Plated,PTH,ComponentDrill
T1C0.0118
; #@! TA.AperFunction,Plated,PTH,ViaDrill
T2C0.0118
; #@! TA.AperFunction,Plated,PTH,ComponentDrill
T3C0.0118
; #@! TA.AperFunction,Plated,PTH,ViaDrill
T4C0.0157
; #@! TA.AperFunction,Plated,PTH,ComponentDrill
T5C0.0197
; #@! TA.AperFunction,Plated,PTH,ComponentDrill
T6C0.0236
; #@! TA.AperFunction,Plated,PTH,ComponentDrill
T7C0.0394
; #@! TA.AperFunction,Plated,PTH,ComponentDrill
T8C0.0433
; #@! TA.AperFunction,Plated,PTH,ComponentDrill
T9C0.0512
; #@! TA.AperFunction,Plated,PTH,ComponentDrill
T10C0.0709
; #@! TA.AperFunction,Plated,PTH,ComponentDrill
T11C0.1260
; #@! TA.AperFunction,Plated,PTH,ComponentDrill
T12C0.1378
; #@! TA.AperFunction,NonPlated,NPTH,ComponentDrill
T13C0.0256
; #@! TA.AperFunction,NonPlated,NPTH,ComponentDrill
T14C0.1181
; #@! TA.AperFunction,NonPlated,NPTH,ComponentDrill
T15C0.1299
%
G90
G05
T1
X25910Y4338
X25940Y2940
X26029Y4840
X26373Y4633
T2
X1969Y14764
X6004Y26693
X6299Y27756
X8957Y20276
X9144Y25975
X9442Y26076
X9654Y26476
X9792Y26032
X10329Y21167
X10512Y21850
X10728Y22135
X10925Y34252
X11215Y25793
X11614Y7480
X11614Y7087
X11811Y26772
X11909Y27067
X12042Y27331
X12303Y30906
X12441Y7677
X12598Y27756
X12884Y3543
X12992Y2461
X13041Y27805
X13494Y3543
X13976Y2461
X14144Y28907
X15354Y27559
X15482Y6959
X15650Y27548
X18209Y26102
X18504Y26240
X20669Y26452
X20965Y3445
X21457Y26019
X21866Y26236
X22047Y4554
X26181Y7382
X27799Y23996
X30161Y24146
X31890Y30413
X32972Y30413
T3
X10266Y3278
X10266Y2884
X12018Y22904
X12018Y19951
X12018Y19636
X12018Y19321
X12018Y19006
X12018Y18691
X12018Y18061
X12018Y17746
X12018Y17431
X12018Y17116
X12018Y16801
X12018Y16486
X12018Y16171
X12018Y15856
X12018Y15541
X12018Y15226
X12018Y14281
X12018Y13967
X12018Y13652
X12018Y12392
X12018Y12077
X12018Y11762
X12018Y11447
X12018Y10502
X12018Y10187
X12018Y9872
X12018Y9557
X12018Y9242
X12018Y8219
X12018Y22589
X12018Y18376
X12018Y14911
X12018Y14596
X12018Y13337
X12018Y13022
X12018Y12707
X12018Y11132
X12018Y10817
X12254Y23770
X12333Y8219
X12648Y8219
X12726Y23770
X12963Y8219
X13199Y23770
X13278Y8219
X13593Y8219
X13671Y23770
X13907Y8219
X14144Y23770
X14222Y8219
X14537Y8219
X14577Y23770
X14852Y8219
X15049Y23770
X15167Y8219
X15482Y8219
X15522Y23770
X15797Y8219
X15994Y23770
X16112Y8219
X16427Y8219
X16467Y23770
X16742Y8219
X16939Y23770
X17057Y8219
X17372Y8219
X17411Y23770
X17687Y8219
X17815Y28602
X17884Y23770
X18002Y8219
X18189Y28602
X18209Y32028
X18317Y8219
X18356Y23770
X18563Y32028
X18563Y28602
X18632Y8219
X18829Y23770
X18947Y8219
X19301Y23770
X19774Y23770
X20246Y23770
X20719Y23770
X21112Y8219
X21191Y23770
X21427Y8219
X21663Y23770
X21742Y8219
X22057Y8219
X22136Y23770
X22372Y8219
X22608Y23770
X23081Y23770
X23553Y23770
X23815Y32003
X24026Y23770
X24209Y32003
X24498Y23770
X24970Y23770
X25335Y26324
X25443Y23770
X25443Y8219
X25758Y8219
X25807Y26324
X25915Y23770
X26073Y8219
X26280Y26324
X26388Y23770
X26752Y26324
X26860Y23770
X27333Y23770
X28077Y32028
X28278Y23770
X28435Y19872
X28435Y17116
X28435Y16722
X28435Y16329
X28435Y15935
X28435Y15541
X28435Y15148
X28435Y14754
X28435Y14360
X28435Y8219
X28435Y17510
X28435Y13967
X28435Y13573
X28435Y13179
X28435Y12785
X28435Y12392
X28435Y11998
X28435Y22785
X28435Y22392
X28470Y32028
X29596Y26348
X30069Y26348
X30541Y26348
X31014Y26348
X32530Y12336
X32923Y12336
X33317Y12336
X34215Y12336
X34615Y12336
X35541Y22805
X35935Y22805
X36329Y22805
X36722Y22805
T4
X295Y29331
X394Y25492
X787Y3051
X984Y36319
X984Y33563
X1181Y34646
X1181Y32579
X1476Y25492
X1572Y9231
X1575Y10531
X1575Y7776
X1575Y6299
X2067Y4921
X2165Y33169
X2165Y24311
X2165Y23819
X2165Y23327
X2165Y22835
X2165Y22343
X2165Y21949
X2165Y21457
X2165Y20965
X2165Y20472
X2165Y19980
X2165Y19587
X2165Y19094
X2165Y18602
X2165Y18110
X2165Y17618
X2165Y17224
X2165Y16732
X2165Y16240
X2165Y15748
X2165Y15256
X2461Y29232
X2461Y26476
X2667Y10728
X3051Y1575
X3150Y9744
X3248Y24508
X3248Y22146
X3248Y19783
X3248Y17421
X3248Y9055
X3248Y8071
X3346Y14370
X3346Y5906
X3346Y5020
X3346Y4232
X3346Y3346
X3445Y7579
X3543Y32776
X3839Y24311
X3839Y23130
X3839Y21949
X3839Y19587
X3839Y18406
X3839Y17224
X3839Y16043
X4134Y787
X4331Y30906
X4331Y25689
X4429Y26870
X4528Y10039
X4823Y32579
X4823Y30906
X5315Y30906
X5315Y14370
X5512Y28445
X5906Y32579
X5906Y30906
X5908Y804
X6004Y10039
X6201Y14370
X6299Y32972
X6496Y31791
X7087Y30709
X7283Y14370
X7382Y32776
X7382Y12598
X7382Y10039
X7579Y984
X8071Y14370
X8169Y12598
X8465Y10039
X8760Y32677
X8858Y18799
X8957Y14370
X8957Y12598
X9055Y16437
X9154Y787
X9547Y13967
X9646Y10039
X9809Y19522
X10039Y32776
X10039Y18701
X10039Y15453
X10039Y13652
X10236Y30610
X10335Y28543
X10335Y17126
X10531Y13337
X10728Y8169
X10728Y4724
X10827Y5906
X10827Y1969
X10827Y984
X10925Y9547
X10925Y6791
X10925Y2657
X11024Y13022
X11122Y10925
X11122Y3642
X11220Y14370
X11417Y16831
X11417Y15846
X11516Y22244
X11516Y19980
X11614Y31398
X11614Y28740
X11614Y8862
X11614Y8465
X11713Y23524
X12008Y5217
X12106Y5906
X12598Y30315
X12697Y984
X12795Y5217
X13484Y29331
X13681Y27756
X13780Y6693
X13976Y7677
X14272Y886
X14764Y28051
X15185Y5345
X15551Y3740
X16831Y28839
X16831Y7677
X16929Y32087
X16929Y31004
X16929Y30020
X17224Y6988
X17421Y28150
X17815Y5217
X18209Y27657
X18209Y7677
X18406Y28248
X18406Y6496
X18898Y27756
X19390Y31890
X19390Y7677
X19397Y26476
X19488Y30807
X19488Y29921
X19510Y28746
X19587Y6988
X19780Y26276
X19783Y5315
X20177Y3642
X20571Y25492
X20571Y7677
X21063Y27559
X21063Y6693
X21559Y25501
X21949Y5217
X22146Y7382
X22244Y27264
X22441Y30807
X22539Y31594
X22539Y29823
X22539Y28937
X23228Y7776
X23327Y32382
X23327Y6594
X23425Y25984
X24508Y7776
X24705Y25984
X24902Y32382
X26280Y32382
X26575Y7953
X27067Y6890
X27165Y32087
X27165Y31004
X27165Y30020
X27165Y28937
X27165Y27854
X27165Y26772
X27657Y25984
X27756Y32382
X27854Y7953
X28543Y6890
X28839Y25984
X28839Y23327
X28839Y21654
X28839Y20374
X28839Y19094
X28878Y18209
X29035Y11516
X29035Y10433
X29035Y9547
X29035Y8366
X29232Y32382
X29823Y6890
X30118Y34646
X30610Y32382
X30610Y11122
X30610Y8268
X31299Y23228
X31299Y21555
X31362Y31659
X31376Y30807
X31398Y29724
X31398Y28740
X31398Y27657
X31398Y26673
X31398Y19783
X31398Y17913
X31398Y13484
X31398Y6890
X31443Y15798
X32283Y11024
X32283Y9843
X32283Y8366
X32382Y32579
X32382Y30906
X32963Y7300
X33071Y23425
X33366Y32579
X33465Y30906
X33661Y35925
X33661Y34646
X33684Y11985
X33955Y5996
X33957Y36225
X33957Y6791
X33957Y5118
X34646Y36220
X34646Y35039
X34941Y35925
X34941Y35335
X35049Y23327
X35138Y11220
X35728Y31398
X35728Y29724
X36220Y23327
X36417Y35925
X36417Y35335
X36417Y34154
X36417Y33563
X36713Y36225
X36713Y35039
X36713Y34453
X36713Y33268
X37106Y24508
X37205Y27559
X37402Y36220
X37402Y35039
X37402Y34449
X37402Y33268
X37697Y35925
X37697Y35335
X37697Y34154
X37697Y33563
X37894Y11220
X37992Y15945
X38091Y22638
X38091Y21260
X38091Y19783
X38091Y18012
X38091Y13583
T5
X433Y30906
X433Y1378
X710Y31574
X710Y30237
X710Y2046
X710Y710
X1378Y31850
X1378Y29961
X1378Y2323
X1378Y433
X2046Y31574
X2046Y30237
X2046Y2046
X2046Y710
X2323Y30906
X2323Y1378
X37047Y30906
X37047Y1378
X37324Y31574
X37324Y30237
X37324Y2046
X37324Y710
X37992Y31850
X37992Y29961
X37992Y2323
X37992Y433
X38660Y31574
X38660Y30237
X38660Y2046
X38660Y710
X38937Y30906
X38937Y1378
T7
X3986Y9360
X3986Y8632
X3986Y6683
X3986Y1939
X10089Y9183
X10089Y6663
X10089Y5915
X10089Y4222
X10089Y1762
T8
X2343Y35650
X2343Y33878
X3720Y35650
X3720Y33878
X5098Y35650
X5098Y33878
X6476Y35650
X6476Y33878
X7854Y35650
X7854Y33878
X9232Y35650
X9232Y33878
X11575Y35650
X11575Y33878
X12756Y35650
X12756Y33878
X13937Y35650
X13937Y33878
X15118Y35650
X15118Y33878
X16299Y35650
X16299Y33878
X17480Y35650
X17480Y33878
X18661Y35650
X18661Y33878
X19843Y35650
X19843Y33878
X22185Y35650
X22185Y33878
X23563Y35650
X23563Y33878
X24783Y35650
X24783Y33878
X25965Y35650
X25965Y33878
X27146Y35650
X27146Y33878
X28327Y35650
X28327Y33878
X29508Y35650
X29508Y33878
X30689Y35650
X30689Y33878
X31870Y35650
X31870Y33878
X33051Y35650
X33051Y33878
X34272Y35650
X34272Y33878
X35650Y35650
X35650Y33878
X37028Y35650
X37028Y33878
T9
X4134Y24902
X4134Y23720
X4134Y22539
X4134Y21358
X4134Y20177
X4134Y18996
X4134Y17815
X4134Y16634
X4134Y15453
X5118Y24311
X5118Y23130
X5118Y21949
X5118Y20768
X5118Y19587
X5118Y18406
X5118Y17224
X5118Y16043
X6299Y24311
X6299Y23130
X6299Y21949
X6299Y20768
X6299Y19587
X6299Y18406
X6299Y17224
X6299Y16043
X7283Y24902
X7283Y23720
X7283Y22539
X7283Y21358
X7283Y20177
X7283Y18996
X7283Y17815
X7283Y16634
X7283Y15453
T10
X33455Y27835
X33455Y26181
X33455Y24528
X35620Y27835
X35620Y26181
X35620Y24528
T11
X1378Y30906
X1378Y1378
X37992Y30906
X37992Y1378
T12
X2087Y37894
X20965Y37894
X37283Y37894
T13
X12248Y2502
X14524Y2502
T14
X38494Y27835
X38494Y24528
T15
X1575Y27756
X1575Y12598
T6
X11685Y2915G85X11685Y2482
G05
X11685Y1211G85X11685Y896
G05
X15087Y2915G85X15087Y2482
G05
X15087Y1211G85X15087Y896
G05
M30
