G04 #@! TF.GenerationSoftware,KiCad,Pcbnew,8.0.9-8.0.9-0~ubuntu24.04.1*
G04 #@! TF.CreationDate,2026-02-17T03:28:48+00:00*
G04 #@! TF.ProjectId,AE101Corolla,41453130-3143-46f7-926f-6c6c612e6b69,rev?*
G04 #@! TF.SameCoordinates,Original*
G04 #@! TF.FileFunction,Legend,Bot*
G04 #@! TF.FilePolarity,Positive*
%FSLAX46Y46*%
G04 Gerber Fmt 4.6, Leading zero omitted, Abs format (unit mm)*
G04 Created by KiCad (PCBNEW 8.0.9-8.0.9-0~ubuntu24.04.1) date 2026-02-17 03:28:48*
%MOMM*%
%LPD*%
G01*
G04 APERTURE LIST*
%ADD10C,0.150000*%
%ADD11C,0.200000*%
%ADD12C,0.127000*%
%ADD13C,0.120000*%
G04 APERTURE END LIST*
D10*
X704819Y47511905D02*
X1514342Y47511905D01*
X1514342Y47511905D02*
X1609580Y47464286D01*
X1609580Y47464286D02*
X1657200Y47416667D01*
X1657200Y47416667D02*
X1704819Y47321429D01*
X1704819Y47321429D02*
X1704819Y47130953D01*
X1704819Y47130953D02*
X1657200Y47035715D01*
X1657200Y47035715D02*
X1609580Y46988096D01*
X1609580Y46988096D02*
X1514342Y46940477D01*
X1514342Y46940477D02*
X704819Y46940477D01*
X704819Y46035715D02*
X704819Y46226191D01*
X704819Y46226191D02*
X752438Y46321429D01*
X752438Y46321429D02*
X800057Y46369048D01*
X800057Y46369048D02*
X942914Y46464286D01*
X942914Y46464286D02*
X1133390Y46511905D01*
X1133390Y46511905D02*
X1514342Y46511905D01*
X1514342Y46511905D02*
X1609580Y46464286D01*
X1609580Y46464286D02*
X1657200Y46416667D01*
X1657200Y46416667D02*
X1704819Y46321429D01*
X1704819Y46321429D02*
X1704819Y46130953D01*
X1704819Y46130953D02*
X1657200Y46035715D01*
X1657200Y46035715D02*
X1609580Y45988096D01*
X1609580Y45988096D02*
X1514342Y45940477D01*
X1514342Y45940477D02*
X1276247Y45940477D01*
X1276247Y45940477D02*
X1181009Y45988096D01*
X1181009Y45988096D02*
X1133390Y46035715D01*
X1133390Y46035715D02*
X1085771Y46130953D01*
X1085771Y46130953D02*
X1085771Y46321429D01*
X1085771Y46321429D02*
X1133390Y46416667D01*
X1133390Y46416667D02*
X1181009Y46464286D01*
X1181009Y46464286D02*
X1276247Y46511905D01*
X3204819Y64142858D02*
X2728628Y64476191D01*
X3204819Y64714286D02*
X2204819Y64714286D01*
X2204819Y64714286D02*
X2204819Y64333334D01*
X2204819Y64333334D02*
X2252438Y64238096D01*
X2252438Y64238096D02*
X2300057Y64190477D01*
X2300057Y64190477D02*
X2395295Y64142858D01*
X2395295Y64142858D02*
X2538152Y64142858D01*
X2538152Y64142858D02*
X2633390Y64190477D01*
X2633390Y64190477D02*
X2681009Y64238096D01*
X2681009Y64238096D02*
X2728628Y64333334D01*
X2728628Y64333334D02*
X2728628Y64714286D01*
X3204819Y63190477D02*
X3204819Y63761905D01*
X3204819Y63476191D02*
X2204819Y63476191D01*
X2204819Y63476191D02*
X2347676Y63571429D01*
X2347676Y63571429D02*
X2442914Y63666667D01*
X2442914Y63666667D02*
X2490533Y63761905D01*
X2204819Y62857143D02*
X2204819Y62238096D01*
X2204819Y62238096D02*
X2585771Y62571429D01*
X2585771Y62571429D02*
X2585771Y62428572D01*
X2585771Y62428572D02*
X2633390Y62333334D01*
X2633390Y62333334D02*
X2681009Y62285715D01*
X2681009Y62285715D02*
X2776247Y62238096D01*
X2776247Y62238096D02*
X3014342Y62238096D01*
X3014342Y62238096D02*
X3109580Y62285715D01*
X3109580Y62285715D02*
X3157200Y62333334D01*
X3157200Y62333334D02*
X3204819Y62428572D01*
X3204819Y62428572D02*
X3204819Y62714286D01*
X3204819Y62714286D02*
X3157200Y62809524D01*
X3157200Y62809524D02*
X3109580Y62857143D01*
X84204819Y80666667D02*
X83728628Y81000000D01*
X84204819Y81238095D02*
X83204819Y81238095D01*
X83204819Y81238095D02*
X83204819Y80857143D01*
X83204819Y80857143D02*
X83252438Y80761905D01*
X83252438Y80761905D02*
X83300057Y80714286D01*
X83300057Y80714286D02*
X83395295Y80666667D01*
X83395295Y80666667D02*
X83538152Y80666667D01*
X83538152Y80666667D02*
X83633390Y80714286D01*
X83633390Y80714286D02*
X83681009Y80761905D01*
X83681009Y80761905D02*
X83728628Y80857143D01*
X83728628Y80857143D02*
X83728628Y81238095D01*
X83300057Y80285714D02*
X83252438Y80238095D01*
X83252438Y80238095D02*
X83204819Y80142857D01*
X83204819Y80142857D02*
X83204819Y79904762D01*
X83204819Y79904762D02*
X83252438Y79809524D01*
X83252438Y79809524D02*
X83300057Y79761905D01*
X83300057Y79761905D02*
X83395295Y79714286D01*
X83395295Y79714286D02*
X83490533Y79714286D01*
X83490533Y79714286D02*
X83633390Y79761905D01*
X83633390Y79761905D02*
X84204819Y80333333D01*
X84204819Y80333333D02*
X84204819Y79714286D01*
X85954819Y86488095D02*
X84954819Y86488095D01*
X84954819Y86488095D02*
X84954819Y86250000D01*
X84954819Y86250000D02*
X85002438Y86107143D01*
X85002438Y86107143D02*
X85097676Y86011905D01*
X85097676Y86011905D02*
X85192914Y85964286D01*
X85192914Y85964286D02*
X85383390Y85916667D01*
X85383390Y85916667D02*
X85526247Y85916667D01*
X85526247Y85916667D02*
X85716723Y85964286D01*
X85716723Y85964286D02*
X85811961Y86011905D01*
X85811961Y86011905D02*
X85907200Y86107143D01*
X85907200Y86107143D02*
X85954819Y86250000D01*
X85954819Y86250000D02*
X85954819Y86488095D01*
X84954819Y85583333D02*
X84954819Y84964286D01*
X84954819Y84964286D02*
X85335771Y85297619D01*
X85335771Y85297619D02*
X85335771Y85154762D01*
X85335771Y85154762D02*
X85383390Y85059524D01*
X85383390Y85059524D02*
X85431009Y85011905D01*
X85431009Y85011905D02*
X85526247Y84964286D01*
X85526247Y84964286D02*
X85764342Y84964286D01*
X85764342Y84964286D02*
X85859580Y85011905D01*
X85859580Y85011905D02*
X85907200Y85059524D01*
X85907200Y85059524D02*
X85954819Y85154762D01*
X85954819Y85154762D02*
X85954819Y85440476D01*
X85954819Y85440476D02*
X85907200Y85535714D01*
X85907200Y85535714D02*
X85859580Y85583333D01*
X35454819Y2916667D02*
X34978628Y3250000D01*
X35454819Y3488095D02*
X34454819Y3488095D01*
X34454819Y3488095D02*
X34454819Y3107143D01*
X34454819Y3107143D02*
X34502438Y3011905D01*
X34502438Y3011905D02*
X34550057Y2964286D01*
X34550057Y2964286D02*
X34645295Y2916667D01*
X34645295Y2916667D02*
X34788152Y2916667D01*
X34788152Y2916667D02*
X34883390Y2964286D01*
X34883390Y2964286D02*
X34931009Y3011905D01*
X34931009Y3011905D02*
X34978628Y3107143D01*
X34978628Y3107143D02*
X34978628Y3488095D01*
X34454819Y2011905D02*
X34454819Y2488095D01*
X34454819Y2488095D02*
X34931009Y2535714D01*
X34931009Y2535714D02*
X34883390Y2488095D01*
X34883390Y2488095D02*
X34835771Y2392857D01*
X34835771Y2392857D02*
X34835771Y2154762D01*
X34835771Y2154762D02*
X34883390Y2059524D01*
X34883390Y2059524D02*
X34931009Y2011905D01*
X34931009Y2011905D02*
X35026247Y1964286D01*
X35026247Y1964286D02*
X35264342Y1964286D01*
X35264342Y1964286D02*
X35359580Y2011905D01*
X35359580Y2011905D02*
X35407200Y2059524D01*
X35407200Y2059524D02*
X35454819Y2154762D01*
X35454819Y2154762D02*
X35454819Y2392857D01*
X35454819Y2392857D02*
X35407200Y2488095D01*
X35407200Y2488095D02*
X35359580Y2535714D01*
X704819Y60011905D02*
X1514342Y60011905D01*
X1514342Y60011905D02*
X1609580Y59964286D01*
X1609580Y59964286D02*
X1657200Y59916667D01*
X1657200Y59916667D02*
X1704819Y59821429D01*
X1704819Y59821429D02*
X1704819Y59630953D01*
X1704819Y59630953D02*
X1657200Y59535715D01*
X1657200Y59535715D02*
X1609580Y59488096D01*
X1609580Y59488096D02*
X1514342Y59440477D01*
X1514342Y59440477D02*
X704819Y59440477D01*
X800057Y59011905D02*
X752438Y58964286D01*
X752438Y58964286D02*
X704819Y58869048D01*
X704819Y58869048D02*
X704819Y58630953D01*
X704819Y58630953D02*
X752438Y58535715D01*
X752438Y58535715D02*
X800057Y58488096D01*
X800057Y58488096D02*
X895295Y58440477D01*
X895295Y58440477D02*
X990533Y58440477D01*
X990533Y58440477D02*
X1133390Y58488096D01*
X1133390Y58488096D02*
X1704819Y59059524D01*
X1704819Y59059524D02*
X1704819Y58440477D01*
X8204819Y86988095D02*
X7204819Y86988095D01*
X7204819Y86988095D02*
X7204819Y86750000D01*
X7204819Y86750000D02*
X7252438Y86607143D01*
X7252438Y86607143D02*
X7347676Y86511905D01*
X7347676Y86511905D02*
X7442914Y86464286D01*
X7442914Y86464286D02*
X7633390Y86416667D01*
X7633390Y86416667D02*
X7776247Y86416667D01*
X7776247Y86416667D02*
X7966723Y86464286D01*
X7966723Y86464286D02*
X8061961Y86511905D01*
X8061961Y86511905D02*
X8157200Y86607143D01*
X8157200Y86607143D02*
X8204819Y86750000D01*
X8204819Y86750000D02*
X8204819Y86988095D01*
X7300057Y86035714D02*
X7252438Y85988095D01*
X7252438Y85988095D02*
X7204819Y85892857D01*
X7204819Y85892857D02*
X7204819Y85654762D01*
X7204819Y85654762D02*
X7252438Y85559524D01*
X7252438Y85559524D02*
X7300057Y85511905D01*
X7300057Y85511905D02*
X7395295Y85464286D01*
X7395295Y85464286D02*
X7490533Y85464286D01*
X7490533Y85464286D02*
X7633390Y85511905D01*
X7633390Y85511905D02*
X8204819Y86083333D01*
X8204819Y86083333D02*
X8204819Y85464286D01*
X704819Y54261905D02*
X1514342Y54261905D01*
X1514342Y54261905D02*
X1609580Y54214286D01*
X1609580Y54214286D02*
X1657200Y54166667D01*
X1657200Y54166667D02*
X1704819Y54071429D01*
X1704819Y54071429D02*
X1704819Y53880953D01*
X1704819Y53880953D02*
X1657200Y53785715D01*
X1657200Y53785715D02*
X1609580Y53738096D01*
X1609580Y53738096D02*
X1514342Y53690477D01*
X1514342Y53690477D02*
X704819Y53690477D01*
X1704819Y52690477D02*
X1704819Y53261905D01*
X1704819Y52976191D02*
X704819Y52976191D01*
X704819Y52976191D02*
X847676Y53071429D01*
X847676Y53071429D02*
X942914Y53166667D01*
X942914Y53166667D02*
X990533Y53261905D01*
X33954819Y2916667D02*
X33478628Y3250000D01*
X33954819Y3488095D02*
X32954819Y3488095D01*
X32954819Y3488095D02*
X32954819Y3107143D01*
X32954819Y3107143D02*
X33002438Y3011905D01*
X33002438Y3011905D02*
X33050057Y2964286D01*
X33050057Y2964286D02*
X33145295Y2916667D01*
X33145295Y2916667D02*
X33288152Y2916667D01*
X33288152Y2916667D02*
X33383390Y2964286D01*
X33383390Y2964286D02*
X33431009Y3011905D01*
X33431009Y3011905D02*
X33478628Y3107143D01*
X33478628Y3107143D02*
X33478628Y3488095D01*
X32954819Y2059524D02*
X32954819Y2250000D01*
X32954819Y2250000D02*
X33002438Y2345238D01*
X33002438Y2345238D02*
X33050057Y2392857D01*
X33050057Y2392857D02*
X33192914Y2488095D01*
X33192914Y2488095D02*
X33383390Y2535714D01*
X33383390Y2535714D02*
X33764342Y2535714D01*
X33764342Y2535714D02*
X33859580Y2488095D01*
X33859580Y2488095D02*
X33907200Y2440476D01*
X33907200Y2440476D02*
X33954819Y2345238D01*
X33954819Y2345238D02*
X33954819Y2154762D01*
X33954819Y2154762D02*
X33907200Y2059524D01*
X33907200Y2059524D02*
X33859580Y2011905D01*
X33859580Y2011905D02*
X33764342Y1964286D01*
X33764342Y1964286D02*
X33526247Y1964286D01*
X33526247Y1964286D02*
X33431009Y2011905D01*
X33431009Y2011905D02*
X33383390Y2059524D01*
X33383390Y2059524D02*
X33335771Y2154762D01*
X33335771Y2154762D02*
X33335771Y2345238D01*
X33335771Y2345238D02*
X33383390Y2440476D01*
X33383390Y2440476D02*
X33431009Y2488095D01*
X33431009Y2488095D02*
X33526247Y2535714D01*
X15204819Y86988095D02*
X14204819Y86988095D01*
X14204819Y86988095D02*
X14204819Y86750000D01*
X14204819Y86750000D02*
X14252438Y86607143D01*
X14252438Y86607143D02*
X14347676Y86511905D01*
X14347676Y86511905D02*
X14442914Y86464286D01*
X14442914Y86464286D02*
X14633390Y86416667D01*
X14633390Y86416667D02*
X14776247Y86416667D01*
X14776247Y86416667D02*
X14966723Y86464286D01*
X14966723Y86464286D02*
X15061961Y86511905D01*
X15061961Y86511905D02*
X15157200Y86607143D01*
X15157200Y86607143D02*
X15204819Y86750000D01*
X15204819Y86750000D02*
X15204819Y86988095D01*
X15204819Y85464286D02*
X15204819Y86035714D01*
X15204819Y85750000D02*
X14204819Y85750000D01*
X14204819Y85750000D02*
X14347676Y85845238D01*
X14347676Y85845238D02*
X14442914Y85940476D01*
X14442914Y85940476D02*
X14490533Y86035714D01*
X1954819Y64142858D02*
X1478628Y64476191D01*
X1954819Y64714286D02*
X954819Y64714286D01*
X954819Y64714286D02*
X954819Y64333334D01*
X954819Y64333334D02*
X1002438Y64238096D01*
X1002438Y64238096D02*
X1050057Y64190477D01*
X1050057Y64190477D02*
X1145295Y64142858D01*
X1145295Y64142858D02*
X1288152Y64142858D01*
X1288152Y64142858D02*
X1383390Y64190477D01*
X1383390Y64190477D02*
X1431009Y64238096D01*
X1431009Y64238096D02*
X1478628Y64333334D01*
X1478628Y64333334D02*
X1478628Y64714286D01*
X1954819Y63190477D02*
X1954819Y63761905D01*
X1954819Y63476191D02*
X954819Y63476191D01*
X954819Y63476191D02*
X1097676Y63571429D01*
X1097676Y63571429D02*
X1192914Y63666667D01*
X1192914Y63666667D02*
X1240533Y63761905D01*
X1050057Y62809524D02*
X1002438Y62761905D01*
X1002438Y62761905D02*
X954819Y62666667D01*
X954819Y62666667D02*
X954819Y62428572D01*
X954819Y62428572D02*
X1002438Y62333334D01*
X1002438Y62333334D02*
X1050057Y62285715D01*
X1050057Y62285715D02*
X1145295Y62238096D01*
X1145295Y62238096D02*
X1240533Y62238096D01*
X1240533Y62238096D02*
X1383390Y62285715D01*
X1383390Y62285715D02*
X1954819Y62857143D01*
X1954819Y62857143D02*
X1954819Y62238096D01*
X704819Y41761905D02*
X1514342Y41761905D01*
X1514342Y41761905D02*
X1609580Y41714286D01*
X1609580Y41714286D02*
X1657200Y41666667D01*
X1657200Y41666667D02*
X1704819Y41571429D01*
X1704819Y41571429D02*
X1704819Y41380953D01*
X1704819Y41380953D02*
X1657200Y41285715D01*
X1657200Y41285715D02*
X1609580Y41238096D01*
X1609580Y41238096D02*
X1514342Y41190477D01*
X1514342Y41190477D02*
X704819Y41190477D01*
X704819Y40238096D02*
X704819Y40714286D01*
X704819Y40714286D02*
X1181009Y40761905D01*
X1181009Y40761905D02*
X1133390Y40714286D01*
X1133390Y40714286D02*
X1085771Y40619048D01*
X1085771Y40619048D02*
X1085771Y40380953D01*
X1085771Y40380953D02*
X1133390Y40285715D01*
X1133390Y40285715D02*
X1181009Y40238096D01*
X1181009Y40238096D02*
X1276247Y40190477D01*
X1276247Y40190477D02*
X1514342Y40190477D01*
X1514342Y40190477D02*
X1609580Y40238096D01*
X1609580Y40238096D02*
X1657200Y40285715D01*
X1657200Y40285715D02*
X1704819Y40380953D01*
X1704819Y40380953D02*
X1704819Y40619048D01*
X1704819Y40619048D02*
X1657200Y40714286D01*
X1657200Y40714286D02*
X1609580Y40761905D01*
X81454819Y80416667D02*
X80978628Y80750000D01*
X81454819Y80988095D02*
X80454819Y80988095D01*
X80454819Y80988095D02*
X80454819Y80607143D01*
X80454819Y80607143D02*
X80502438Y80511905D01*
X80502438Y80511905D02*
X80550057Y80464286D01*
X80550057Y80464286D02*
X80645295Y80416667D01*
X80645295Y80416667D02*
X80788152Y80416667D01*
X80788152Y80416667D02*
X80883390Y80464286D01*
X80883390Y80464286D02*
X80931009Y80511905D01*
X80931009Y80511905D02*
X80978628Y80607143D01*
X80978628Y80607143D02*
X80978628Y80988095D01*
X81454819Y79464286D02*
X81454819Y80035714D01*
X81454819Y79750000D02*
X80454819Y79750000D01*
X80454819Y79750000D02*
X80597676Y79845238D01*
X80597676Y79845238D02*
X80692914Y79940476D01*
X80692914Y79940476D02*
X80740533Y80035714D01*
X4454819Y64142858D02*
X3978628Y64476191D01*
X4454819Y64714286D02*
X3454819Y64714286D01*
X3454819Y64714286D02*
X3454819Y64333334D01*
X3454819Y64333334D02*
X3502438Y64238096D01*
X3502438Y64238096D02*
X3550057Y64190477D01*
X3550057Y64190477D02*
X3645295Y64142858D01*
X3645295Y64142858D02*
X3788152Y64142858D01*
X3788152Y64142858D02*
X3883390Y64190477D01*
X3883390Y64190477D02*
X3931009Y64238096D01*
X3931009Y64238096D02*
X3978628Y64333334D01*
X3978628Y64333334D02*
X3978628Y64714286D01*
X4454819Y63190477D02*
X4454819Y63761905D01*
X4454819Y63476191D02*
X3454819Y63476191D01*
X3454819Y63476191D02*
X3597676Y63571429D01*
X3597676Y63571429D02*
X3692914Y63666667D01*
X3692914Y63666667D02*
X3740533Y63761905D01*
X3788152Y62333334D02*
X4454819Y62333334D01*
X3407200Y62571429D02*
X4121485Y62809524D01*
X4121485Y62809524D02*
X4121485Y62190477D01*
X5954819Y64142858D02*
X5478628Y64476191D01*
X5954819Y64714286D02*
X4954819Y64714286D01*
X4954819Y64714286D02*
X4954819Y64333334D01*
X4954819Y64333334D02*
X5002438Y64238096D01*
X5002438Y64238096D02*
X5050057Y64190477D01*
X5050057Y64190477D02*
X5145295Y64142858D01*
X5145295Y64142858D02*
X5288152Y64142858D01*
X5288152Y64142858D02*
X5383390Y64190477D01*
X5383390Y64190477D02*
X5431009Y64238096D01*
X5431009Y64238096D02*
X5478628Y64333334D01*
X5478628Y64333334D02*
X5478628Y64714286D01*
X5954819Y63190477D02*
X5954819Y63761905D01*
X5954819Y63476191D02*
X4954819Y63476191D01*
X4954819Y63476191D02*
X5097676Y63571429D01*
X5097676Y63571429D02*
X5192914Y63666667D01*
X5192914Y63666667D02*
X5240533Y63761905D01*
X5954819Y62238096D02*
X5954819Y62809524D01*
X5954819Y62523810D02*
X4954819Y62523810D01*
X4954819Y62523810D02*
X5097676Y62619048D01*
X5097676Y62619048D02*
X5192914Y62714286D01*
X5192914Y62714286D02*
X5240533Y62809524D01*
X79954819Y86488095D02*
X78954819Y86488095D01*
X78954819Y86488095D02*
X78954819Y86250000D01*
X78954819Y86250000D02*
X79002438Y86107143D01*
X79002438Y86107143D02*
X79097676Y86011905D01*
X79097676Y86011905D02*
X79192914Y85964286D01*
X79192914Y85964286D02*
X79383390Y85916667D01*
X79383390Y85916667D02*
X79526247Y85916667D01*
X79526247Y85916667D02*
X79716723Y85964286D01*
X79716723Y85964286D02*
X79811961Y86011905D01*
X79811961Y86011905D02*
X79907200Y86107143D01*
X79907200Y86107143D02*
X79954819Y86250000D01*
X79954819Y86250000D02*
X79954819Y86488095D01*
X79288152Y85059524D02*
X79954819Y85059524D01*
X78907200Y85297619D02*
X79621485Y85535714D01*
X79621485Y85535714D02*
X79621485Y84916667D01*
D11*
G04 #@! TO.C,M5*
X44650000Y81550000D02*
X44650000Y72450000D01*
X44650000Y81550000D02*
X45650002Y81550000D01*
X47750003Y81550000D02*
X47750003Y72450000D01*
G04 #@! TO.C,M2*
X69575000Y81625000D02*
X69575000Y66625000D01*
X69575000Y81625000D02*
X70875000Y81625000D01*
X69575000Y66625000D02*
X74675000Y66625000D01*
X79175000Y81625000D02*
X72775000Y81625000D01*
X79175000Y67225000D02*
X79175000Y81625000D01*
G04 #@! TO.C,M7*
X80925000Y58375000D02*
X94825000Y58375000D01*
X94825000Y30875000D01*
X80925000Y30875000D01*
X80925000Y58375000D01*
G04 #@! TO.C,M1*
X30325002Y60575003D02*
X30324999Y20675004D01*
X31624999Y20675004D02*
X30324999Y20675004D01*
X72425002Y60575003D02*
X30325002Y60575003D01*
X72425002Y60575003D02*
X72425002Y20675004D01*
X72425002Y20675004D02*
X31624999Y20675004D01*
G04 #@! TO.C,M6*
X62537502Y13218337D02*
X62537502Y6681663D01*
X73381296Y13568337D02*
X63112499Y13568337D01*
X73437498Y13518337D02*
X73381296Y13568337D01*
X73437498Y13518337D02*
X73437498Y12693338D01*
X73712499Y6681663D02*
X62537502Y6681663D01*
X73712502Y12418332D02*
X73437498Y12693338D01*
X73712502Y12418332D02*
X73712502Y6768337D01*
G04 #@! TO.C,M3*
X58750000Y81562500D02*
X58750000Y66562500D01*
X58750000Y81562500D02*
X60050000Y81562500D01*
X58750000Y66562500D02*
X63850000Y66562500D01*
X68350000Y81562500D02*
X61950000Y81562500D01*
X68350000Y67162500D02*
X68350000Y81562500D01*
G04 #@! TO.C,M4*
X9474999Y17824999D02*
X9474999Y21025002D01*
X9474999Y5724999D02*
X9474999Y16125001D01*
X9474999Y3824999D02*
X9474999Y4124999D01*
X9474999Y3824999D02*
X24874999Y3824999D01*
X10974999Y24424997D02*
X26274998Y24424999D01*
X26274996Y17725001D02*
X26274996Y22525001D01*
X26274996Y11524999D02*
X26274996Y14224999D01*
X26274996Y8825001D02*
X26274996Y9925004D01*
X26274996Y5274999D02*
X26275001Y6824999D01*
X26274998Y24125001D02*
X26274998Y24424999D01*
D12*
G04 #@! TO.C,U6*
X7425000Y49910000D02*
X3525000Y49910000D01*
X7425000Y44860000D02*
X3525000Y44860000D01*
D11*
X1130000Y45480000D02*
G75*
G02*
X930000Y45480000I-100000J0D01*
G01*
X930000Y45480000D02*
G75*
G02*
X1130000Y45480000I100000J0D01*
G01*
D13*
G04 #@! TO.C,R13*
X2370000Y65903641D02*
X2370000Y65596359D01*
X3130000Y65903641D02*
X3130000Y65596359D01*
G04 #@! TO.C,R2*
X83370000Y78663641D02*
X83370000Y78356359D01*
X84130000Y78663641D02*
X84130000Y78356359D01*
G04 #@! TO.C,D3*
X83850000Y84750000D02*
X87860000Y84750000D01*
X83850000Y82750000D02*
X87860000Y82750000D01*
X87860000Y82750000D02*
X87860000Y84750000D01*
G04 #@! TO.C,R5*
X34370000Y4903641D02*
X34370000Y4596359D01*
X35130000Y4903641D02*
X35130000Y4596359D01*
D12*
G04 #@! TO.C,U2*
X7450000Y61775000D02*
X3550000Y61775000D01*
X7450000Y56725000D02*
X3550000Y56725000D01*
D11*
X1155000Y57345000D02*
G75*
G02*
X955000Y57345000I-100000J0D01*
G01*
X955000Y57345000D02*
G75*
G02*
X1155000Y57345000I100000J0D01*
G01*
D13*
G04 #@! TO.C,D2*
X5390000Y89250000D02*
X5390000Y87250000D01*
X9400000Y89250000D02*
X5390000Y89250000D01*
X9400000Y87250000D02*
X5390000Y87250000D01*
D12*
G04 #@! TO.C,U1*
X7450000Y55775000D02*
X3550000Y55775000D01*
X7450000Y50725000D02*
X3550000Y50725000D01*
D11*
X1155000Y51345000D02*
G75*
G02*
X955000Y51345000I-100000J0D01*
G01*
X955000Y51345000D02*
G75*
G02*
X1155000Y51345000I100000J0D01*
G01*
D13*
G04 #@! TO.C,R6*
X33370000Y4903641D02*
X33370000Y4596359D01*
X34130000Y4903641D02*
X34130000Y4596359D01*
G04 #@! TO.C,D1*
X11640000Y89250000D02*
X11640000Y87250000D01*
X15650000Y89250000D02*
X11640000Y89250000D01*
X15650000Y87250000D02*
X11640000Y87250000D01*
G04 #@! TO.C,R12*
X1120000Y65903641D02*
X1120000Y65596359D01*
X1880000Y65903641D02*
X1880000Y65596359D01*
D12*
G04 #@! TO.C,U5*
X7450000Y43775000D02*
X3550000Y43775000D01*
X7450000Y38725000D02*
X3550000Y38725000D01*
D11*
X1155000Y39345000D02*
G75*
G02*
X955000Y39345000I-100000J0D01*
G01*
X955000Y39345000D02*
G75*
G02*
X1155000Y39345000I100000J0D01*
G01*
D13*
G04 #@! TO.C,R1*
X80620000Y78653641D02*
X80620000Y78346359D01*
X81380000Y78653641D02*
X81380000Y78346359D01*
G04 #@! TO.C,R14*
X3620000Y65903641D02*
X3620000Y65596359D01*
X4380000Y65903641D02*
X4380000Y65596359D01*
G04 #@! TO.C,R11*
X4870000Y65903641D02*
X4870000Y65596359D01*
X5630000Y65903641D02*
X5630000Y65596359D01*
G04 #@! TO.C,D4*
X76740000Y84750000D02*
X76740000Y82750000D01*
X80750000Y84750000D02*
X76740000Y84750000D01*
X80750000Y82750000D02*
X76740000Y82750000D01*
G04 #@! TD*
M02*
