G04 #@! TF.GenerationSoftware,KiCad,Pcbnew,8.0.9-8.0.9-0~ubuntu24.04.1*
G04 #@! TF.CreationDate,2026-02-13T03:28:50+00:00*
G04 #@! TF.ProjectId,AE101Corolla,41453130-3143-46f7-926f-6c6c612e6b69,rev?*
G04 #@! TF.SameCoordinates,Original*
G04 #@! TF.FileFunction,Paste,Bot*
G04 #@! TF.FilePolarity,Positive*
%FSLAX46Y46*%
G04 Gerber Fmt 4.6, Leading zero omitted, Abs format (unit mm)*
G04 Created by KiCad (PCBNEW 8.0.9-8.0.9-0~ubuntu24.04.1) date 2026-02-13 03:28:50*
%MOMM*%
%LPD*%
G01*
G04 APERTURE LIST*
G04 APERTURE END LIST*
G04 #@! TO.C,U6*
G36*
G01*
X2015000Y45255000D02*
X2015000Y45705000D01*
G75*
G02*
X2090000Y45780000I75000J0D01*
G01*
X3910000Y45780000D01*
G75*
G02*
X3985000Y45705000I0J-75000D01*
G01*
X3985000Y45255000D01*
G75*
G02*
X3910000Y45180000I-75000J0D01*
G01*
X2090000Y45180000D01*
G75*
G02*
X2015000Y45255000I0J75000D01*
G01*
G37*
G36*
G01*
X2015000Y46525000D02*
X2015000Y46975000D01*
G75*
G02*
X2090000Y47050000I75000J0D01*
G01*
X3910000Y47050000D01*
G75*
G02*
X3985000Y46975000I0J-75000D01*
G01*
X3985000Y46525000D01*
G75*
G02*
X3910000Y46450000I-75000J0D01*
G01*
X2090000Y46450000D01*
G75*
G02*
X2015000Y46525000I0J75000D01*
G01*
G37*
G36*
G01*
X2015000Y47795000D02*
X2015000Y48245000D01*
G75*
G02*
X2090000Y48320000I75000J0D01*
G01*
X3910000Y48320000D01*
G75*
G02*
X3985000Y48245000I0J-75000D01*
G01*
X3985000Y47795000D01*
G75*
G02*
X3910000Y47720000I-75000J0D01*
G01*
X2090000Y47720000D01*
G75*
G02*
X2015000Y47795000I0J75000D01*
G01*
G37*
G36*
G01*
X2015000Y49065000D02*
X2015000Y49515000D01*
G75*
G02*
X2090000Y49590000I75000J0D01*
G01*
X3910000Y49590000D01*
G75*
G02*
X3985000Y49515000I0J-75000D01*
G01*
X3985000Y49065000D01*
G75*
G02*
X3910000Y48990000I-75000J0D01*
G01*
X2090000Y48990000D01*
G75*
G02*
X2015000Y49065000I0J75000D01*
G01*
G37*
G36*
G01*
X6965000Y49065000D02*
X6965000Y49515000D01*
G75*
G02*
X7040000Y49590000I75000J0D01*
G01*
X8860000Y49590000D01*
G75*
G02*
X8935000Y49515000I0J-75000D01*
G01*
X8935000Y49065000D01*
G75*
G02*
X8860000Y48990000I-75000J0D01*
G01*
X7040000Y48990000D01*
G75*
G02*
X6965000Y49065000I0J75000D01*
G01*
G37*
G36*
G01*
X6965000Y47795000D02*
X6965000Y48245000D01*
G75*
G02*
X7040000Y48320000I75000J0D01*
G01*
X8860000Y48320000D01*
G75*
G02*
X8935000Y48245000I0J-75000D01*
G01*
X8935000Y47795000D01*
G75*
G02*
X8860000Y47720000I-75000J0D01*
G01*
X7040000Y47720000D01*
G75*
G02*
X6965000Y47795000I0J75000D01*
G01*
G37*
G36*
G01*
X6965000Y46525000D02*
X6965000Y46975000D01*
G75*
G02*
X7040000Y47050000I75000J0D01*
G01*
X8860000Y47050000D01*
G75*
G02*
X8935000Y46975000I0J-75000D01*
G01*
X8935000Y46525000D01*
G75*
G02*
X8860000Y46450000I-75000J0D01*
G01*
X7040000Y46450000D01*
G75*
G02*
X6965000Y46525000I0J75000D01*
G01*
G37*
G36*
G01*
X6965000Y45255000D02*
X6965000Y45705000D01*
G75*
G02*
X7040000Y45780000I75000J0D01*
G01*
X8860000Y45780000D01*
G75*
G02*
X8935000Y45705000I0J-75000D01*
G01*
X8935000Y45255000D01*
G75*
G02*
X8860000Y45180000I-75000J0D01*
G01*
X7040000Y45180000D01*
G75*
G02*
X6965000Y45255000I0J75000D01*
G01*
G37*
G04 #@! TD*
G04 #@! TO.C,R2*
G36*
G01*
X83935000Y77730000D02*
X83565000Y77730000D01*
G75*
G02*
X83430000Y77865000I0J135000D01*
G01*
X83430000Y78135000D01*
G75*
G02*
X83565000Y78270000I135000J0D01*
G01*
X83935000Y78270000D01*
G75*
G02*
X84070000Y78135000I0J-135000D01*
G01*
X84070000Y77865000D01*
G75*
G02*
X83935000Y77730000I-135000J0D01*
G01*
G37*
G36*
G01*
X83935000Y78750000D02*
X83565000Y78750000D01*
G75*
G02*
X83430000Y78885000I0J135000D01*
G01*
X83430000Y79155000D01*
G75*
G02*
X83565000Y79290000I135000J0D01*
G01*
X83935000Y79290000D01*
G75*
G02*
X84070000Y79155000I0J-135000D01*
G01*
X84070000Y78885000D01*
G75*
G02*
X83935000Y78750000I-135000J0D01*
G01*
G37*
G04 #@! TD*
G04 #@! TO.C,D3*
G36*
G01*
X87600000Y84125000D02*
X87600000Y83375000D01*
G75*
G02*
X87375000Y83150000I-225000J0D01*
G01*
X86925000Y83150000D01*
G75*
G02*
X86700000Y83375000I0J225000D01*
G01*
X86700000Y84125000D01*
G75*
G02*
X86925000Y84350000I225000J0D01*
G01*
X87375000Y84350000D01*
G75*
G02*
X87600000Y84125000I0J-225000D01*
G01*
G37*
G36*
G01*
X84300000Y84125000D02*
X84300000Y83375000D01*
G75*
G02*
X84075000Y83150000I-225000J0D01*
G01*
X83625000Y83150000D01*
G75*
G02*
X83400000Y83375000I0J225000D01*
G01*
X83400000Y84125000D01*
G75*
G02*
X83625000Y84350000I225000J0D01*
G01*
X84075000Y84350000D01*
G75*
G02*
X84300000Y84125000I0J-225000D01*
G01*
G37*
G04 #@! TD*
G04 #@! TO.C,R5*
G36*
G01*
X34935000Y3970000D02*
X34565000Y3970000D01*
G75*
G02*
X34430000Y4105000I0J135000D01*
G01*
X34430000Y4375000D01*
G75*
G02*
X34565000Y4510000I135000J0D01*
G01*
X34935000Y4510000D01*
G75*
G02*
X35070000Y4375000I0J-135000D01*
G01*
X35070000Y4105000D01*
G75*
G02*
X34935000Y3970000I-135000J0D01*
G01*
G37*
G36*
G01*
X34935000Y4990000D02*
X34565000Y4990000D01*
G75*
G02*
X34430000Y5125000I0J135000D01*
G01*
X34430000Y5395000D01*
G75*
G02*
X34565000Y5530000I135000J0D01*
G01*
X34935000Y5530000D01*
G75*
G02*
X35070000Y5395000I0J-135000D01*
G01*
X35070000Y5125000D01*
G75*
G02*
X34935000Y4990000I-135000J0D01*
G01*
G37*
G04 #@! TD*
G04 #@! TO.C,U2*
G36*
G01*
X2040000Y57120000D02*
X2040000Y57570000D01*
G75*
G02*
X2115000Y57645000I75000J0D01*
G01*
X3935000Y57645000D01*
G75*
G02*
X4010000Y57570000I0J-75000D01*
G01*
X4010000Y57120000D01*
G75*
G02*
X3935000Y57045000I-75000J0D01*
G01*
X2115000Y57045000D01*
G75*
G02*
X2040000Y57120000I0J75000D01*
G01*
G37*
G36*
G01*
X2040000Y58390000D02*
X2040000Y58840000D01*
G75*
G02*
X2115000Y58915000I75000J0D01*
G01*
X3935000Y58915000D01*
G75*
G02*
X4010000Y58840000I0J-75000D01*
G01*
X4010000Y58390000D01*
G75*
G02*
X3935000Y58315000I-75000J0D01*
G01*
X2115000Y58315000D01*
G75*
G02*
X2040000Y58390000I0J75000D01*
G01*
G37*
G36*
G01*
X2040000Y59660000D02*
X2040000Y60110000D01*
G75*
G02*
X2115000Y60185000I75000J0D01*
G01*
X3935000Y60185000D01*
G75*
G02*
X4010000Y60110000I0J-75000D01*
G01*
X4010000Y59660000D01*
G75*
G02*
X3935000Y59585000I-75000J0D01*
G01*
X2115000Y59585000D01*
G75*
G02*
X2040000Y59660000I0J75000D01*
G01*
G37*
G36*
G01*
X2040000Y60930000D02*
X2040000Y61380000D01*
G75*
G02*
X2115000Y61455000I75000J0D01*
G01*
X3935000Y61455000D01*
G75*
G02*
X4010000Y61380000I0J-75000D01*
G01*
X4010000Y60930000D01*
G75*
G02*
X3935000Y60855000I-75000J0D01*
G01*
X2115000Y60855000D01*
G75*
G02*
X2040000Y60930000I0J75000D01*
G01*
G37*
G36*
G01*
X6990000Y60930000D02*
X6990000Y61380000D01*
G75*
G02*
X7065000Y61455000I75000J0D01*
G01*
X8885000Y61455000D01*
G75*
G02*
X8960000Y61380000I0J-75000D01*
G01*
X8960000Y60930000D01*
G75*
G02*
X8885000Y60855000I-75000J0D01*
G01*
X7065000Y60855000D01*
G75*
G02*
X6990000Y60930000I0J75000D01*
G01*
G37*
G36*
G01*
X6990000Y59660000D02*
X6990000Y60110000D01*
G75*
G02*
X7065000Y60185000I75000J0D01*
G01*
X8885000Y60185000D01*
G75*
G02*
X8960000Y60110000I0J-75000D01*
G01*
X8960000Y59660000D01*
G75*
G02*
X8885000Y59585000I-75000J0D01*
G01*
X7065000Y59585000D01*
G75*
G02*
X6990000Y59660000I0J75000D01*
G01*
G37*
G36*
G01*
X6990000Y58390000D02*
X6990000Y58840000D01*
G75*
G02*
X7065000Y58915000I75000J0D01*
G01*
X8885000Y58915000D01*
G75*
G02*
X8960000Y58840000I0J-75000D01*
G01*
X8960000Y58390000D01*
G75*
G02*
X8885000Y58315000I-75000J0D01*
G01*
X7065000Y58315000D01*
G75*
G02*
X6990000Y58390000I0J75000D01*
G01*
G37*
G36*
G01*
X6990000Y57120000D02*
X6990000Y57570000D01*
G75*
G02*
X7065000Y57645000I75000J0D01*
G01*
X8885000Y57645000D01*
G75*
G02*
X8960000Y57570000I0J-75000D01*
G01*
X8960000Y57120000D01*
G75*
G02*
X8885000Y57045000I-75000J0D01*
G01*
X7065000Y57045000D01*
G75*
G02*
X6990000Y57120000I0J75000D01*
G01*
G37*
G04 #@! TD*
G04 #@! TO.C,D2*
G36*
G01*
X5650000Y87875000D02*
X5650000Y88625000D01*
G75*
G02*
X5875000Y88850000I225000J0D01*
G01*
X6325000Y88850000D01*
G75*
G02*
X6550000Y88625000I0J-225000D01*
G01*
X6550000Y87875000D01*
G75*
G02*
X6325000Y87650000I-225000J0D01*
G01*
X5875000Y87650000D01*
G75*
G02*
X5650000Y87875000I0J225000D01*
G01*
G37*
G36*
G01*
X8950000Y87875000D02*
X8950000Y88625000D01*
G75*
G02*
X9175000Y88850000I225000J0D01*
G01*
X9625000Y88850000D01*
G75*
G02*
X9850000Y88625000I0J-225000D01*
G01*
X9850000Y87875000D01*
G75*
G02*
X9625000Y87650000I-225000J0D01*
G01*
X9175000Y87650000D01*
G75*
G02*
X8950000Y87875000I0J225000D01*
G01*
G37*
G04 #@! TD*
G04 #@! TO.C,U1*
G36*
G01*
X2040000Y51120000D02*
X2040000Y51570000D01*
G75*
G02*
X2115000Y51645000I75000J0D01*
G01*
X3935000Y51645000D01*
G75*
G02*
X4010000Y51570000I0J-75000D01*
G01*
X4010000Y51120000D01*
G75*
G02*
X3935000Y51045000I-75000J0D01*
G01*
X2115000Y51045000D01*
G75*
G02*
X2040000Y51120000I0J75000D01*
G01*
G37*
G36*
G01*
X2040000Y52390000D02*
X2040000Y52840000D01*
G75*
G02*
X2115000Y52915000I75000J0D01*
G01*
X3935000Y52915000D01*
G75*
G02*
X4010000Y52840000I0J-75000D01*
G01*
X4010000Y52390000D01*
G75*
G02*
X3935000Y52315000I-75000J0D01*
G01*
X2115000Y52315000D01*
G75*
G02*
X2040000Y52390000I0J75000D01*
G01*
G37*
G36*
G01*
X2040000Y53660000D02*
X2040000Y54110000D01*
G75*
G02*
X2115000Y54185000I75000J0D01*
G01*
X3935000Y54185000D01*
G75*
G02*
X4010000Y54110000I0J-75000D01*
G01*
X4010000Y53660000D01*
G75*
G02*
X3935000Y53585000I-75000J0D01*
G01*
X2115000Y53585000D01*
G75*
G02*
X2040000Y53660000I0J75000D01*
G01*
G37*
G36*
G01*
X2040000Y54930000D02*
X2040000Y55380000D01*
G75*
G02*
X2115000Y55455000I75000J0D01*
G01*
X3935000Y55455000D01*
G75*
G02*
X4010000Y55380000I0J-75000D01*
G01*
X4010000Y54930000D01*
G75*
G02*
X3935000Y54855000I-75000J0D01*
G01*
X2115000Y54855000D01*
G75*
G02*
X2040000Y54930000I0J75000D01*
G01*
G37*
G36*
G01*
X6990000Y54930000D02*
X6990000Y55380000D01*
G75*
G02*
X7065000Y55455000I75000J0D01*
G01*
X8885000Y55455000D01*
G75*
G02*
X8960000Y55380000I0J-75000D01*
G01*
X8960000Y54930000D01*
G75*
G02*
X8885000Y54855000I-75000J0D01*
G01*
X7065000Y54855000D01*
G75*
G02*
X6990000Y54930000I0J75000D01*
G01*
G37*
G36*
G01*
X6990000Y53660000D02*
X6990000Y54110000D01*
G75*
G02*
X7065000Y54185000I75000J0D01*
G01*
X8885000Y54185000D01*
G75*
G02*
X8960000Y54110000I0J-75000D01*
G01*
X8960000Y53660000D01*
G75*
G02*
X8885000Y53585000I-75000J0D01*
G01*
X7065000Y53585000D01*
G75*
G02*
X6990000Y53660000I0J75000D01*
G01*
G37*
G36*
G01*
X6990000Y52390000D02*
X6990000Y52840000D01*
G75*
G02*
X7065000Y52915000I75000J0D01*
G01*
X8885000Y52915000D01*
G75*
G02*
X8960000Y52840000I0J-75000D01*
G01*
X8960000Y52390000D01*
G75*
G02*
X8885000Y52315000I-75000J0D01*
G01*
X7065000Y52315000D01*
G75*
G02*
X6990000Y52390000I0J75000D01*
G01*
G37*
G36*
G01*
X6990000Y51120000D02*
X6990000Y51570000D01*
G75*
G02*
X7065000Y51645000I75000J0D01*
G01*
X8885000Y51645000D01*
G75*
G02*
X8960000Y51570000I0J-75000D01*
G01*
X8960000Y51120000D01*
G75*
G02*
X8885000Y51045000I-75000J0D01*
G01*
X7065000Y51045000D01*
G75*
G02*
X6990000Y51120000I0J75000D01*
G01*
G37*
G04 #@! TD*
G04 #@! TO.C,R6*
G36*
G01*
X33935000Y3970000D02*
X33565000Y3970000D01*
G75*
G02*
X33430000Y4105000I0J135000D01*
G01*
X33430000Y4375000D01*
G75*
G02*
X33565000Y4510000I135000J0D01*
G01*
X33935000Y4510000D01*
G75*
G02*
X34070000Y4375000I0J-135000D01*
G01*
X34070000Y4105000D01*
G75*
G02*
X33935000Y3970000I-135000J0D01*
G01*
G37*
G36*
G01*
X33935000Y4990000D02*
X33565000Y4990000D01*
G75*
G02*
X33430000Y5125000I0J135000D01*
G01*
X33430000Y5395000D01*
G75*
G02*
X33565000Y5530000I135000J0D01*
G01*
X33935000Y5530000D01*
G75*
G02*
X34070000Y5395000I0J-135000D01*
G01*
X34070000Y5125000D01*
G75*
G02*
X33935000Y4990000I-135000J0D01*
G01*
G37*
G04 #@! TD*
G04 #@! TO.C,D1*
G36*
G01*
X11900000Y87875000D02*
X11900000Y88625000D01*
G75*
G02*
X12125000Y88850000I225000J0D01*
G01*
X12575000Y88850000D01*
G75*
G02*
X12800000Y88625000I0J-225000D01*
G01*
X12800000Y87875000D01*
G75*
G02*
X12575000Y87650000I-225000J0D01*
G01*
X12125000Y87650000D01*
G75*
G02*
X11900000Y87875000I0J225000D01*
G01*
G37*
G36*
G01*
X15200000Y87875000D02*
X15200000Y88625000D01*
G75*
G02*
X15425000Y88850000I225000J0D01*
G01*
X15875000Y88850000D01*
G75*
G02*
X16100000Y88625000I0J-225000D01*
G01*
X16100000Y87875000D01*
G75*
G02*
X15875000Y87650000I-225000J0D01*
G01*
X15425000Y87650000D01*
G75*
G02*
X15200000Y87875000I0J225000D01*
G01*
G37*
G04 #@! TD*
G04 #@! TO.C,U5*
G36*
G01*
X2040000Y39120000D02*
X2040000Y39570000D01*
G75*
G02*
X2115000Y39645000I75000J0D01*
G01*
X3935000Y39645000D01*
G75*
G02*
X4010000Y39570000I0J-75000D01*
G01*
X4010000Y39120000D01*
G75*
G02*
X3935000Y39045000I-75000J0D01*
G01*
X2115000Y39045000D01*
G75*
G02*
X2040000Y39120000I0J75000D01*
G01*
G37*
G36*
G01*
X2040000Y40390000D02*
X2040000Y40840000D01*
G75*
G02*
X2115000Y40915000I75000J0D01*
G01*
X3935000Y40915000D01*
G75*
G02*
X4010000Y40840000I0J-75000D01*
G01*
X4010000Y40390000D01*
G75*
G02*
X3935000Y40315000I-75000J0D01*
G01*
X2115000Y40315000D01*
G75*
G02*
X2040000Y40390000I0J75000D01*
G01*
G37*
G36*
G01*
X2040000Y41660000D02*
X2040000Y42110000D01*
G75*
G02*
X2115000Y42185000I75000J0D01*
G01*
X3935000Y42185000D01*
G75*
G02*
X4010000Y42110000I0J-75000D01*
G01*
X4010000Y41660000D01*
G75*
G02*
X3935000Y41585000I-75000J0D01*
G01*
X2115000Y41585000D01*
G75*
G02*
X2040000Y41660000I0J75000D01*
G01*
G37*
G36*
G01*
X2040000Y42930000D02*
X2040000Y43380000D01*
G75*
G02*
X2115000Y43455000I75000J0D01*
G01*
X3935000Y43455000D01*
G75*
G02*
X4010000Y43380000I0J-75000D01*
G01*
X4010000Y42930000D01*
G75*
G02*
X3935000Y42855000I-75000J0D01*
G01*
X2115000Y42855000D01*
G75*
G02*
X2040000Y42930000I0J75000D01*
G01*
G37*
G36*
G01*
X6990000Y42930000D02*
X6990000Y43380000D01*
G75*
G02*
X7065000Y43455000I75000J0D01*
G01*
X8885000Y43455000D01*
G75*
G02*
X8960000Y43380000I0J-75000D01*
G01*
X8960000Y42930000D01*
G75*
G02*
X8885000Y42855000I-75000J0D01*
G01*
X7065000Y42855000D01*
G75*
G02*
X6990000Y42930000I0J75000D01*
G01*
G37*
G36*
G01*
X6990000Y41660000D02*
X6990000Y42110000D01*
G75*
G02*
X7065000Y42185000I75000J0D01*
G01*
X8885000Y42185000D01*
G75*
G02*
X8960000Y42110000I0J-75000D01*
G01*
X8960000Y41660000D01*
G75*
G02*
X8885000Y41585000I-75000J0D01*
G01*
X7065000Y41585000D01*
G75*
G02*
X6990000Y41660000I0J75000D01*
G01*
G37*
G36*
G01*
X6990000Y40390000D02*
X6990000Y40840000D01*
G75*
G02*
X7065000Y40915000I75000J0D01*
G01*
X8885000Y40915000D01*
G75*
G02*
X8960000Y40840000I0J-75000D01*
G01*
X8960000Y40390000D01*
G75*
G02*
X8885000Y40315000I-75000J0D01*
G01*
X7065000Y40315000D01*
G75*
G02*
X6990000Y40390000I0J75000D01*
G01*
G37*
G36*
G01*
X6990000Y39120000D02*
X6990000Y39570000D01*
G75*
G02*
X7065000Y39645000I75000J0D01*
G01*
X8885000Y39645000D01*
G75*
G02*
X8960000Y39570000I0J-75000D01*
G01*
X8960000Y39120000D01*
G75*
G02*
X8885000Y39045000I-75000J0D01*
G01*
X7065000Y39045000D01*
G75*
G02*
X6990000Y39120000I0J75000D01*
G01*
G37*
G04 #@! TD*
G04 #@! TO.C,R1*
G36*
G01*
X81185000Y77720000D02*
X80815000Y77720000D01*
G75*
G02*
X80680000Y77855000I0J135000D01*
G01*
X80680000Y78125000D01*
G75*
G02*
X80815000Y78260000I135000J0D01*
G01*
X81185000Y78260000D01*
G75*
G02*
X81320000Y78125000I0J-135000D01*
G01*
X81320000Y77855000D01*
G75*
G02*
X81185000Y77720000I-135000J0D01*
G01*
G37*
G36*
G01*
X81185000Y78740000D02*
X80815000Y78740000D01*
G75*
G02*
X80680000Y78875000I0J135000D01*
G01*
X80680000Y79145000D01*
G75*
G02*
X80815000Y79280000I135000J0D01*
G01*
X81185000Y79280000D01*
G75*
G02*
X81320000Y79145000I0J-135000D01*
G01*
X81320000Y78875000D01*
G75*
G02*
X81185000Y78740000I-135000J0D01*
G01*
G37*
G04 #@! TD*
G04 #@! TO.C,D4*
G36*
G01*
X77000000Y83375000D02*
X77000000Y84125000D01*
G75*
G02*
X77225000Y84350000I225000J0D01*
G01*
X77675000Y84350000D01*
G75*
G02*
X77900000Y84125000I0J-225000D01*
G01*
X77900000Y83375000D01*
G75*
G02*
X77675000Y83150000I-225000J0D01*
G01*
X77225000Y83150000D01*
G75*
G02*
X77000000Y83375000I0J225000D01*
G01*
G37*
G36*
G01*
X80300000Y83375000D02*
X80300000Y84125000D01*
G75*
G02*
X80525000Y84350000I225000J0D01*
G01*
X80975000Y84350000D01*
G75*
G02*
X81200000Y84125000I0J-225000D01*
G01*
X81200000Y83375000D01*
G75*
G02*
X80975000Y83150000I-225000J0D01*
G01*
X80525000Y83150000D01*
G75*
G02*
X80300000Y83375000I0J225000D01*
G01*
G37*
G04 #@! TD*
M02*
