G04 #@! TF.GenerationSoftware,KiCad,Pcbnew,8.0.9-8.0.9-0~ubuntu24.04.1*
G04 #@! TF.CreationDate,2026-02-16T05:58:39+00:00*
G04 #@! TF.ProjectId,AE101Corolla,41453130-3143-46f7-926f-6c6c612e6b69,rev?*
G04 #@! TF.SameCoordinates,Original*
G04 #@! TF.FileFunction,Soldermask,Top*
G04 #@! TF.FilePolarity,Negative*
%FSLAX46Y46*%
G04 Gerber Fmt 4.6, Leading zero omitted, Abs format (unit mm)*
G04 Created by KiCad (PCBNEW 8.0.9-8.0.9-0~ubuntu24.04.1) date 2026-02-16 05:58:39*
%MOMM*%
%LPD*%
G01*
G04 APERTURE LIST*
%ADD10C,0.600000*%
%ADD11C,0.650000*%
%ADD12O,1.000000X2.100000*%
%ADD13O,1.000000X1.800000*%
%ADD14C,3.300000*%
%ADD15C,2.154000*%
%ADD16O,0.499999X0.250000*%
%ADD17O,0.250000X0.499999*%
%ADD18C,0.599999*%
%ADD19C,3.000000*%
%ADD20O,3.700000X2.700000*%
%ADD21C,1.650000*%
%ADD22C,5.250000*%
%ADD23C,1.500000*%
G04 APERTURE END LIST*
D10*
G04 #@! TO.C,M5*
X47150000Y72650000D03*
X46200000Y72650000D03*
X45250002Y72650000D03*
X46250000Y81350000D03*
X47150000Y81350000D03*
G04 #@! TD*
G04 #@! TO.C,D7*
G36*
G01*
X10375000Y26900000D02*
X9625000Y26900000D01*
G75*
G02*
X9400000Y27125000I0J225000D01*
G01*
X9400000Y27575000D01*
G75*
G02*
X9625000Y27800000I225000J0D01*
G01*
X10375000Y27800000D01*
G75*
G02*
X10600000Y27575000I0J-225000D01*
G01*
X10600000Y27125000D01*
G75*
G02*
X10375000Y26900000I-225000J0D01*
G01*
G37*
G36*
G01*
X10375000Y30200000D02*
X9625000Y30200000D01*
G75*
G02*
X9400000Y30425000I0J225000D01*
G01*
X9400000Y30875000D01*
G75*
G02*
X9625000Y31100000I225000J0D01*
G01*
X10375000Y31100000D01*
G75*
G02*
X10600000Y30875000I0J-225000D01*
G01*
X10600000Y30425000D01*
G75*
G02*
X10375000Y30200000I-225000J0D01*
G01*
G37*
G04 #@! TD*
D11*
G04 #@! TO.C,J3*
X31110000Y6355000D03*
X36890000Y6355000D03*
G36*
G01*
X30500000Y7005000D02*
X30500000Y7855000D01*
G75*
G02*
X30650000Y8005000I150000J0D01*
G01*
X30950000Y8005000D01*
G75*
G02*
X31100000Y7855000I0J-150000D01*
G01*
X31100000Y7005000D01*
G75*
G02*
X30950000Y6855000I-150000J0D01*
G01*
X30650000Y6855000D01*
G75*
G02*
X30500000Y7005000I0J150000D01*
G01*
G37*
G36*
G01*
X31300000Y7005000D02*
X31300000Y7855000D01*
G75*
G02*
X31450000Y8005000I150000J0D01*
G01*
X31750000Y8005000D01*
G75*
G02*
X31900000Y7855000I0J-150000D01*
G01*
X31900000Y7005000D01*
G75*
G02*
X31750000Y6855000I-150000J0D01*
G01*
X31450000Y6855000D01*
G75*
G02*
X31300000Y7005000I0J150000D01*
G01*
G37*
G36*
G01*
X32600000Y6930000D02*
X32600000Y7930000D01*
G75*
G02*
X32675000Y8005000I75000J0D01*
G01*
X32825000Y8005000D01*
G75*
G02*
X32900000Y7930000I0J-75000D01*
G01*
X32900000Y6930000D01*
G75*
G02*
X32825000Y6855000I-75000J0D01*
G01*
X32675000Y6855000D01*
G75*
G02*
X32600000Y6930000I0J75000D01*
G01*
G37*
G36*
G01*
X33600000Y6930000D02*
X33600000Y7930000D01*
G75*
G02*
X33675000Y8005000I75000J0D01*
G01*
X33825000Y8005000D01*
G75*
G02*
X33900000Y7930000I0J-75000D01*
G01*
X33900000Y6930000D01*
G75*
G02*
X33825000Y6855000I-75000J0D01*
G01*
X33675000Y6855000D01*
G75*
G02*
X33600000Y6930000I0J75000D01*
G01*
G37*
G36*
G01*
X34100000Y6930000D02*
X34100000Y7930000D01*
G75*
G02*
X34175000Y8005000I75000J0D01*
G01*
X34325000Y8005000D01*
G75*
G02*
X34400000Y7930000I0J-75000D01*
G01*
X34400000Y6930000D01*
G75*
G02*
X34325000Y6855000I-75000J0D01*
G01*
X34175000Y6855000D01*
G75*
G02*
X34100000Y6930000I0J75000D01*
G01*
G37*
G36*
G01*
X35100000Y6930000D02*
X35100000Y7930000D01*
G75*
G02*
X35175000Y8005000I75000J0D01*
G01*
X35325000Y8005000D01*
G75*
G02*
X35400000Y7930000I0J-75000D01*
G01*
X35400000Y6930000D01*
G75*
G02*
X35325000Y6855000I-75000J0D01*
G01*
X35175000Y6855000D01*
G75*
G02*
X35100000Y6930000I0J75000D01*
G01*
G37*
G36*
G01*
X36100000Y7005000D02*
X36100000Y7855000D01*
G75*
G02*
X36250000Y8005000I150000J0D01*
G01*
X36550000Y8005000D01*
G75*
G02*
X36700000Y7855000I0J-150000D01*
G01*
X36700000Y7005000D01*
G75*
G02*
X36550000Y6855000I-150000J0D01*
G01*
X36250000Y6855000D01*
G75*
G02*
X36100000Y7005000I0J150000D01*
G01*
G37*
G36*
G01*
X36900000Y7005000D02*
X36900000Y7855000D01*
G75*
G02*
X37050000Y8005000I150000J0D01*
G01*
X37350000Y8005000D01*
G75*
G02*
X37500000Y7855000I0J-150000D01*
G01*
X37500000Y7005000D01*
G75*
G02*
X37350000Y6855000I-150000J0D01*
G01*
X37050000Y6855000D01*
G75*
G02*
X36900000Y7005000I0J150000D01*
G01*
G37*
G36*
G01*
X36900000Y7005000D02*
X36900000Y7855000D01*
G75*
G02*
X37050000Y8005000I150000J0D01*
G01*
X37350000Y8005000D01*
G75*
G02*
X37500000Y7855000I0J-150000D01*
G01*
X37500000Y7005000D01*
G75*
G02*
X37350000Y6855000I-150000J0D01*
G01*
X37050000Y6855000D01*
G75*
G02*
X36900000Y7005000I0J150000D01*
G01*
G37*
G36*
G01*
X36100000Y7005000D02*
X36100000Y7855000D01*
G75*
G02*
X36250000Y8005000I150000J0D01*
G01*
X36550000Y8005000D01*
G75*
G02*
X36700000Y7855000I0J-150000D01*
G01*
X36700000Y7005000D01*
G75*
G02*
X36550000Y6855000I-150000J0D01*
G01*
X36250000Y6855000D01*
G75*
G02*
X36100000Y7005000I0J150000D01*
G01*
G37*
G36*
G01*
X35600000Y6930000D02*
X35600000Y7930000D01*
G75*
G02*
X35675000Y8005000I75000J0D01*
G01*
X35825000Y8005000D01*
G75*
G02*
X35900000Y7930000I0J-75000D01*
G01*
X35900000Y6930000D01*
G75*
G02*
X35825000Y6855000I-75000J0D01*
G01*
X35675000Y6855000D01*
G75*
G02*
X35600000Y6930000I0J75000D01*
G01*
G37*
G36*
G01*
X34600000Y6930000D02*
X34600000Y7930000D01*
G75*
G02*
X34675000Y8005000I75000J0D01*
G01*
X34825000Y8005000D01*
G75*
G02*
X34900000Y7930000I0J-75000D01*
G01*
X34900000Y6930000D01*
G75*
G02*
X34825000Y6855000I-75000J0D01*
G01*
X34675000Y6855000D01*
G75*
G02*
X34600000Y6930000I0J75000D01*
G01*
G37*
G36*
G01*
X33100000Y6930000D02*
X33100000Y7930000D01*
G75*
G02*
X33175000Y8005000I75000J0D01*
G01*
X33325000Y8005000D01*
G75*
G02*
X33400000Y7930000I0J-75000D01*
G01*
X33400000Y6930000D01*
G75*
G02*
X33325000Y6855000I-75000J0D01*
G01*
X33175000Y6855000D01*
G75*
G02*
X33100000Y6930000I0J75000D01*
G01*
G37*
G36*
G01*
X32100000Y6930000D02*
X32100000Y7930000D01*
G75*
G02*
X32175000Y8005000I75000J0D01*
G01*
X32325000Y8005000D01*
G75*
G02*
X32400000Y7930000I0J-75000D01*
G01*
X32400000Y6930000D01*
G75*
G02*
X32325000Y6855000I-75000J0D01*
G01*
X32175000Y6855000D01*
G75*
G02*
X32100000Y6930000I0J75000D01*
G01*
G37*
G36*
G01*
X31300000Y7005000D02*
X31300000Y7855000D01*
G75*
G02*
X31450000Y8005000I150000J0D01*
G01*
X31750000Y8005000D01*
G75*
G02*
X31900000Y7855000I0J-150000D01*
G01*
X31900000Y7005000D01*
G75*
G02*
X31750000Y6855000I-150000J0D01*
G01*
X31450000Y6855000D01*
G75*
G02*
X31300000Y7005000I0J150000D01*
G01*
G37*
G36*
G01*
X30500000Y7005000D02*
X30500000Y7855000D01*
G75*
G02*
X30650000Y8005000I150000J0D01*
G01*
X30950000Y8005000D01*
G75*
G02*
X31100000Y7855000I0J-150000D01*
G01*
X31100000Y7005000D01*
G75*
G02*
X30950000Y6855000I-150000J0D01*
G01*
X30650000Y6855000D01*
G75*
G02*
X30500000Y7005000I0J150000D01*
G01*
G37*
D12*
X29680000Y6855000D03*
D13*
X29680000Y2675000D03*
D12*
X38320000Y6855000D03*
D13*
X38320000Y2675000D03*
G04 #@! TD*
G04 #@! TO.C,R4*
G36*
G01*
X24815000Y46290000D02*
X25185000Y46290000D01*
G75*
G02*
X25320000Y46155000I0J-135000D01*
G01*
X25320000Y45885000D01*
G75*
G02*
X25185000Y45750000I-135000J0D01*
G01*
X24815000Y45750000D01*
G75*
G02*
X24680000Y45885000I0J135000D01*
G01*
X24680000Y46155000D01*
G75*
G02*
X24815000Y46290000I135000J0D01*
G01*
G37*
G36*
G01*
X24815000Y45270000D02*
X25185000Y45270000D01*
G75*
G02*
X25320000Y45135000I0J-135000D01*
G01*
X25320000Y44865000D01*
G75*
G02*
X25185000Y44730000I-135000J0D01*
G01*
X24815000Y44730000D01*
G75*
G02*
X24680000Y44865000I0J135000D01*
G01*
X24680000Y45135000D01*
G75*
G02*
X24815000Y45270000I135000J0D01*
G01*
G37*
G04 #@! TD*
G04 #@! TO.C,D8*
G36*
G01*
X15375000Y26900000D02*
X14625000Y26900000D01*
G75*
G02*
X14400000Y27125000I0J225000D01*
G01*
X14400000Y27575000D01*
G75*
G02*
X14625000Y27800000I225000J0D01*
G01*
X15375000Y27800000D01*
G75*
G02*
X15600000Y27575000I0J-225000D01*
G01*
X15600000Y27125000D01*
G75*
G02*
X15375000Y26900000I-225000J0D01*
G01*
G37*
G36*
G01*
X15375000Y30200000D02*
X14625000Y30200000D01*
G75*
G02*
X14400000Y30425000I0J225000D01*
G01*
X14400000Y30875000D01*
G75*
G02*
X14625000Y31100000I225000J0D01*
G01*
X15375000Y31100000D01*
G75*
G02*
X15600000Y30875000I0J-225000D01*
G01*
X15600000Y30425000D01*
G75*
G02*
X15375000Y30200000I-225000J0D01*
G01*
G37*
G04 #@! TD*
G04 #@! TO.C,C2*
G36*
G01*
X90670000Y14740000D02*
X90330000Y14740000D01*
G75*
G02*
X90190000Y14880000I0J140000D01*
G01*
X90190000Y15160000D01*
G75*
G02*
X90330000Y15300000I140000J0D01*
G01*
X90670000Y15300000D01*
G75*
G02*
X90810000Y15160000I0J-140000D01*
G01*
X90810000Y14880000D01*
G75*
G02*
X90670000Y14740000I-140000J0D01*
G01*
G37*
G36*
G01*
X90670000Y15700000D02*
X90330000Y15700000D01*
G75*
G02*
X90190000Y15840000I0J140000D01*
G01*
X90190000Y16120000D01*
G75*
G02*
X90330000Y16260000I140000J0D01*
G01*
X90670000Y16260000D01*
G75*
G02*
X90810000Y16120000I0J-140000D01*
G01*
X90810000Y15840000D01*
G75*
G02*
X90670000Y15700000I-140000J0D01*
G01*
G37*
G04 #@! TD*
G04 #@! TO.C,R7*
G36*
G01*
X24065000Y32530000D02*
X24435000Y32530000D01*
G75*
G02*
X24570000Y32395000I0J-135000D01*
G01*
X24570000Y32125000D01*
G75*
G02*
X24435000Y31990000I-135000J0D01*
G01*
X24065000Y31990000D01*
G75*
G02*
X23930000Y32125000I0J135000D01*
G01*
X23930000Y32395000D01*
G75*
G02*
X24065000Y32530000I135000J0D01*
G01*
G37*
G36*
G01*
X24065000Y31510000D02*
X24435000Y31510000D01*
G75*
G02*
X24570000Y31375000I0J-135000D01*
G01*
X24570000Y31105000D01*
G75*
G02*
X24435000Y30970000I-135000J0D01*
G01*
X24065000Y30970000D01*
G75*
G02*
X23930000Y31105000I0J135000D01*
G01*
X23930000Y31375000D01*
G75*
G02*
X24065000Y31510000I135000J0D01*
G01*
G37*
G04 #@! TD*
G04 #@! TO.C,D5*
G36*
G01*
X12875000Y26900000D02*
X12125000Y26900000D01*
G75*
G02*
X11900000Y27125000I0J225000D01*
G01*
X11900000Y27575000D01*
G75*
G02*
X12125000Y27800000I225000J0D01*
G01*
X12875000Y27800000D01*
G75*
G02*
X13100000Y27575000I0J-225000D01*
G01*
X13100000Y27125000D01*
G75*
G02*
X12875000Y26900000I-225000J0D01*
G01*
G37*
G36*
G01*
X12875000Y30200000D02*
X12125000Y30200000D01*
G75*
G02*
X11900000Y30425000I0J225000D01*
G01*
X11900000Y30875000D01*
G75*
G02*
X12125000Y31100000I225000J0D01*
G01*
X12875000Y31100000D01*
G75*
G02*
X13100000Y30875000I0J-225000D01*
G01*
X13100000Y30425000D01*
G75*
G02*
X12875000Y30200000I-225000J0D01*
G01*
G37*
G04 #@! TD*
D10*
G04 #@! TO.C,M2*
X76375000Y66925000D03*
X75175000Y66925000D03*
X77575000Y66925000D03*
X78775000Y66925000D03*
X72315000Y81350000D03*
X71315000Y81350000D03*
G04 #@! TD*
G04 #@! TO.C,R9*
G36*
G01*
X25315000Y32530000D02*
X25685000Y32530000D01*
G75*
G02*
X25820000Y32395000I0J-135000D01*
G01*
X25820000Y32125000D01*
G75*
G02*
X25685000Y31990000I-135000J0D01*
G01*
X25315000Y31990000D01*
G75*
G02*
X25180000Y32125000I0J135000D01*
G01*
X25180000Y32395000D01*
G75*
G02*
X25315000Y32530000I135000J0D01*
G01*
G37*
G36*
G01*
X25315000Y31510000D02*
X25685000Y31510000D01*
G75*
G02*
X25820000Y31375000I0J-135000D01*
G01*
X25820000Y31105000D01*
G75*
G02*
X25685000Y30970000I-135000J0D01*
G01*
X25315000Y30970000D01*
G75*
G02*
X25180000Y31105000I0J135000D01*
G01*
X25180000Y31375000D01*
G75*
G02*
X25315000Y31510000I135000J0D01*
G01*
G37*
G04 #@! TD*
G04 #@! TO.C,U4*
G36*
G01*
X81396500Y74438000D02*
X80793500Y74438000D01*
G75*
G02*
X80693000Y74538500I0J100500D01*
G01*
X80693000Y76511500D01*
G75*
G02*
X80793500Y76612000I100500J0D01*
G01*
X81396500Y76612000D01*
G75*
G02*
X81497000Y76511500I0J-100500D01*
G01*
X81497000Y74538500D01*
G75*
G02*
X81396500Y74438000I-100500J0D01*
G01*
G37*
G36*
G01*
X82666500Y74438000D02*
X82063500Y74438000D01*
G75*
G02*
X81963000Y74538500I0J100500D01*
G01*
X81963000Y76511500D01*
G75*
G02*
X82063500Y76612000I100500J0D01*
G01*
X82666500Y76612000D01*
G75*
G02*
X82767000Y76511500I0J-100500D01*
G01*
X82767000Y74538500D01*
G75*
G02*
X82666500Y74438000I-100500J0D01*
G01*
G37*
G36*
G01*
X83936500Y74438000D02*
X83333500Y74438000D01*
G75*
G02*
X83233000Y74538500I0J100500D01*
G01*
X83233000Y76511500D01*
G75*
G02*
X83333500Y76612000I100500J0D01*
G01*
X83936500Y76612000D01*
G75*
G02*
X84037000Y76511500I0J-100500D01*
G01*
X84037000Y74538500D01*
G75*
G02*
X83936500Y74438000I-100500J0D01*
G01*
G37*
G36*
G01*
X85206500Y74438000D02*
X84603500Y74438000D01*
G75*
G02*
X84503000Y74538500I0J100500D01*
G01*
X84503000Y76511500D01*
G75*
G02*
X84603500Y76612000I100500J0D01*
G01*
X85206500Y76612000D01*
G75*
G02*
X85307000Y76511500I0J-100500D01*
G01*
X85307000Y74538500D01*
G75*
G02*
X85206500Y74438000I-100500J0D01*
G01*
G37*
G36*
G01*
X85206500Y79388000D02*
X84603500Y79388000D01*
G75*
G02*
X84503000Y79488500I0J100500D01*
G01*
X84503000Y81461500D01*
G75*
G02*
X84603500Y81562000I100500J0D01*
G01*
X85206500Y81562000D01*
G75*
G02*
X85307000Y81461500I0J-100500D01*
G01*
X85307000Y79488500D01*
G75*
G02*
X85206500Y79388000I-100500J0D01*
G01*
G37*
G36*
G01*
X83936500Y79388000D02*
X83333500Y79388000D01*
G75*
G02*
X83233000Y79488500I0J100500D01*
G01*
X83233000Y81461500D01*
G75*
G02*
X83333500Y81562000I100500J0D01*
G01*
X83936500Y81562000D01*
G75*
G02*
X84037000Y81461500I0J-100500D01*
G01*
X84037000Y79488500D01*
G75*
G02*
X83936500Y79388000I-100500J0D01*
G01*
G37*
G36*
G01*
X82666500Y79388000D02*
X82063500Y79388000D01*
G75*
G02*
X81963000Y79488500I0J100500D01*
G01*
X81963000Y81461500D01*
G75*
G02*
X82063500Y81562000I100500J0D01*
G01*
X82666500Y81562000D01*
G75*
G02*
X82767000Y81461500I0J-100500D01*
G01*
X82767000Y79488500D01*
G75*
G02*
X82666500Y79388000I-100500J0D01*
G01*
G37*
G36*
G01*
X81396500Y79388000D02*
X80793500Y79388000D01*
G75*
G02*
X80693000Y79488500I0J100500D01*
G01*
X80693000Y81461500D01*
G75*
G02*
X80793500Y81562000I100500J0D01*
G01*
X81396500Y81562000D01*
G75*
G02*
X81497000Y81461500I0J-100500D01*
G01*
X81497000Y79488500D01*
G75*
G02*
X81396500Y79388000I-100500J0D01*
G01*
G37*
G04 #@! TD*
D14*
G04 #@! TO.C,J2*
X4000000Y70500000D03*
X4000000Y32000000D03*
G36*
G01*
X17525000Y64327000D02*
X19475000Y64327000D01*
G75*
G02*
X19577000Y64225000I0J-102000D01*
G01*
X19577000Y62275000D01*
G75*
G02*
X19475000Y62173000I-102000J0D01*
G01*
X17525000Y62173000D01*
G75*
G02*
X17423000Y62275000I0J102000D01*
G01*
X17423000Y64225000D01*
G75*
G02*
X17525000Y64327000I102000J0D01*
G01*
G37*
D15*
X18500000Y60250000D03*
X18500000Y57250000D03*
X18500000Y54250000D03*
X18500000Y51250000D03*
X18500000Y48250000D03*
X18500000Y45250000D03*
X18500000Y42250000D03*
X18500000Y39250000D03*
X16000000Y61750000D03*
X16000000Y58750000D03*
X16000000Y55750000D03*
X16000000Y52750000D03*
X16000000Y49750000D03*
X16000000Y46750000D03*
X16000000Y43750000D03*
X16000000Y40750000D03*
X13000000Y61750000D03*
X13000000Y58750000D03*
X13000000Y55750000D03*
X13000000Y52750000D03*
X13000000Y49750000D03*
X13000000Y46750000D03*
X13000000Y43750000D03*
X13000000Y40750000D03*
X10500000Y63250000D03*
X10500000Y60250000D03*
X10500000Y57250000D03*
X10500000Y54250000D03*
X10500000Y51250000D03*
X10500000Y48250000D03*
X10500000Y45250000D03*
X10500000Y42250000D03*
X10500000Y39250000D03*
G04 #@! TD*
D16*
G04 #@! TO.C,M6*
X62812506Y13393334D03*
D17*
X73162500Y13343336D03*
X72662499Y13343336D03*
D18*
X66112502Y12293338D03*
X66987504Y11768338D03*
X65812500Y11018340D03*
X65887503Y7468339D03*
G04 #@! TD*
G04 #@! TO.C,R8*
G36*
G01*
X26565000Y32530000D02*
X26935000Y32530000D01*
G75*
G02*
X27070000Y32395000I0J-135000D01*
G01*
X27070000Y32125000D01*
G75*
G02*
X26935000Y31990000I-135000J0D01*
G01*
X26565000Y31990000D01*
G75*
G02*
X26430000Y32125000I0J135000D01*
G01*
X26430000Y32395000D01*
G75*
G02*
X26565000Y32530000I135000J0D01*
G01*
G37*
G36*
G01*
X26565000Y31510000D02*
X26935000Y31510000D01*
G75*
G02*
X27070000Y31375000I0J-135000D01*
G01*
X27070000Y31105000D01*
G75*
G02*
X26935000Y30970000I-135000J0D01*
G01*
X26565000Y30970000D01*
G75*
G02*
X26430000Y31105000I0J135000D01*
G01*
X26430000Y31375000D01*
G75*
G02*
X26565000Y31510000I135000J0D01*
G01*
G37*
G04 #@! TD*
D10*
G04 #@! TO.C,M3*
X65550000Y66862500D03*
X64350000Y66862500D03*
X66750000Y66862500D03*
X67950000Y66862500D03*
X61490000Y81287500D03*
X60490000Y81287500D03*
G04 #@! TD*
D19*
G04 #@! TO.C,J4*
X97775000Y70700000D03*
X97775000Y62300000D03*
G36*
G01*
X88875001Y72050000D02*
X92074999Y72050000D01*
G75*
G02*
X92325000Y71799999I0J-250001D01*
G01*
X92325000Y69600001D01*
G75*
G02*
X92074999Y69350000I-250001J0D01*
G01*
X88875001Y69350000D01*
G75*
G02*
X88625000Y69600001I0J250001D01*
G01*
X88625000Y71799999D01*
G75*
G02*
X88875001Y72050000I250001J0D01*
G01*
G37*
D20*
X90475000Y66500000D03*
X90475000Y62300000D03*
X84975000Y70700000D03*
X84975000Y66500000D03*
X84975000Y62300000D03*
G04 #@! TD*
G04 #@! TO.C,JP1*
G36*
X56250000Y70750000D02*
G01*
X56750000Y71500000D01*
X57750000Y71500000D01*
X57750000Y70000000D01*
X56750000Y70000000D01*
X56250000Y70750000D01*
G37*
G36*
X55300000Y71500000D02*
G01*
X56450000Y71500000D01*
X55950000Y70750000D01*
X56450000Y70000000D01*
X55300000Y70000000D01*
X55300000Y71500000D01*
G37*
G04 #@! TD*
G04 #@! TO.C,U7*
G36*
G01*
X89700000Y13745000D02*
X89700000Y13445000D01*
G75*
G02*
X89550000Y13295000I-150000J0D01*
G01*
X87900000Y13295000D01*
G75*
G02*
X87750000Y13445000I0J150000D01*
G01*
X87750000Y13745000D01*
G75*
G02*
X87900000Y13895000I150000J0D01*
G01*
X89550000Y13895000D01*
G75*
G02*
X89700000Y13745000I0J-150000D01*
G01*
G37*
G36*
G01*
X89700000Y15015000D02*
X89700000Y14715000D01*
G75*
G02*
X89550000Y14565000I-150000J0D01*
G01*
X87900000Y14565000D01*
G75*
G02*
X87750000Y14715000I0J150000D01*
G01*
X87750000Y15015000D01*
G75*
G02*
X87900000Y15165000I150000J0D01*
G01*
X89550000Y15165000D01*
G75*
G02*
X89700000Y15015000I0J-150000D01*
G01*
G37*
G36*
G01*
X89700000Y16285000D02*
X89700000Y15985000D01*
G75*
G02*
X89550000Y15835000I-150000J0D01*
G01*
X87900000Y15835000D01*
G75*
G02*
X87750000Y15985000I0J150000D01*
G01*
X87750000Y16285000D01*
G75*
G02*
X87900000Y16435000I150000J0D01*
G01*
X89550000Y16435000D01*
G75*
G02*
X89700000Y16285000I0J-150000D01*
G01*
G37*
G36*
G01*
X89700000Y17555000D02*
X89700000Y17255000D01*
G75*
G02*
X89550000Y17105000I-150000J0D01*
G01*
X87900000Y17105000D01*
G75*
G02*
X87750000Y17255000I0J150000D01*
G01*
X87750000Y17555000D01*
G75*
G02*
X87900000Y17705000I150000J0D01*
G01*
X89550000Y17705000D01*
G75*
G02*
X89700000Y17555000I0J-150000D01*
G01*
G37*
G36*
G01*
X84750000Y17555000D02*
X84750000Y17255000D01*
G75*
G02*
X84600000Y17105000I-150000J0D01*
G01*
X82950000Y17105000D01*
G75*
G02*
X82800000Y17255000I0J150000D01*
G01*
X82800000Y17555000D01*
G75*
G02*
X82950000Y17705000I150000J0D01*
G01*
X84600000Y17705000D01*
G75*
G02*
X84750000Y17555000I0J-150000D01*
G01*
G37*
G36*
G01*
X84750000Y16285000D02*
X84750000Y15985000D01*
G75*
G02*
X84600000Y15835000I-150000J0D01*
G01*
X82950000Y15835000D01*
G75*
G02*
X82800000Y15985000I0J150000D01*
G01*
X82800000Y16285000D01*
G75*
G02*
X82950000Y16435000I150000J0D01*
G01*
X84600000Y16435000D01*
G75*
G02*
X84750000Y16285000I0J-150000D01*
G01*
G37*
G36*
G01*
X84750000Y15015000D02*
X84750000Y14715000D01*
G75*
G02*
X84600000Y14565000I-150000J0D01*
G01*
X82950000Y14565000D01*
G75*
G02*
X82800000Y14715000I0J150000D01*
G01*
X82800000Y15015000D01*
G75*
G02*
X82950000Y15165000I150000J0D01*
G01*
X84600000Y15165000D01*
G75*
G02*
X84750000Y15015000I0J-150000D01*
G01*
G37*
G36*
G01*
X84750000Y13745000D02*
X84750000Y13445000D01*
G75*
G02*
X84600000Y13295000I-150000J0D01*
G01*
X82950000Y13295000D01*
G75*
G02*
X82800000Y13445000I0J150000D01*
G01*
X82800000Y13745000D01*
G75*
G02*
X82950000Y13895000I150000J0D01*
G01*
X84600000Y13895000D01*
G75*
G02*
X84750000Y13745000I0J-150000D01*
G01*
G37*
G04 #@! TD*
D21*
G04 #@! TO.C,J1*
X94050000Y86050000D03*
X90550000Y86050000D03*
X87050000Y86050000D03*
X59850000Y86050000D03*
X56350000Y86050000D03*
X94050000Y90550000D03*
X90550000Y90550000D03*
X87050000Y90550000D03*
X59850000Y90550000D03*
X56350000Y90550000D03*
X23450000Y86050000D03*
X19950000Y86050000D03*
X16450000Y86050000D03*
X12950000Y86050000D03*
X9450000Y86050000D03*
X5950000Y86050000D03*
X23450000Y90550000D03*
X19950000Y90550000D03*
X16450000Y90550000D03*
X12950000Y90550000D03*
X9450000Y90550000D03*
X5950000Y90550000D03*
X83950000Y86050000D03*
X80950000Y86050000D03*
X77950000Y86050000D03*
X74950000Y86050000D03*
X71950000Y86050000D03*
X68950000Y86050000D03*
X65950000Y86050000D03*
X62950000Y86050000D03*
X83950000Y90550000D03*
X80950000Y90550000D03*
X77950000Y90550000D03*
X74950000Y90550000D03*
X71950000Y90550000D03*
X68950000Y90550000D03*
X65950000Y90550000D03*
X62950000Y90550000D03*
X50400000Y86050000D03*
X47400000Y86050000D03*
X44400000Y86050000D03*
X41400000Y86050000D03*
X38400000Y86050000D03*
X35400000Y86050000D03*
X32400000Y86050000D03*
X29400000Y86050000D03*
X50400000Y90550000D03*
X47400000Y90550000D03*
X44400000Y90550000D03*
X41400000Y90550000D03*
X38400000Y90550000D03*
X35400000Y90550000D03*
X32400000Y90550000D03*
X29400000Y90550000D03*
D22*
X5300000Y96250000D03*
X53250000Y96250000D03*
X94700000Y96250000D03*
G04 #@! TD*
G04 #@! TO.C,U3*
G36*
G01*
X11396500Y74688000D02*
X10793500Y74688000D01*
G75*
G02*
X10693000Y74788500I0J100500D01*
G01*
X10693000Y76761500D01*
G75*
G02*
X10793500Y76862000I100500J0D01*
G01*
X11396500Y76862000D01*
G75*
G02*
X11497000Y76761500I0J-100500D01*
G01*
X11497000Y74788500D01*
G75*
G02*
X11396500Y74688000I-100500J0D01*
G01*
G37*
G36*
G01*
X12666500Y74688000D02*
X12063500Y74688000D01*
G75*
G02*
X11963000Y74788500I0J100500D01*
G01*
X11963000Y76761500D01*
G75*
G02*
X12063500Y76862000I100500J0D01*
G01*
X12666500Y76862000D01*
G75*
G02*
X12767000Y76761500I0J-100500D01*
G01*
X12767000Y74788500D01*
G75*
G02*
X12666500Y74688000I-100500J0D01*
G01*
G37*
G36*
G01*
X13936500Y74688000D02*
X13333500Y74688000D01*
G75*
G02*
X13233000Y74788500I0J100500D01*
G01*
X13233000Y76761500D01*
G75*
G02*
X13333500Y76862000I100500J0D01*
G01*
X13936500Y76862000D01*
G75*
G02*
X14037000Y76761500I0J-100500D01*
G01*
X14037000Y74788500D01*
G75*
G02*
X13936500Y74688000I-100500J0D01*
G01*
G37*
G36*
G01*
X15206500Y74688000D02*
X14603500Y74688000D01*
G75*
G02*
X14503000Y74788500I0J100500D01*
G01*
X14503000Y76761500D01*
G75*
G02*
X14603500Y76862000I100500J0D01*
G01*
X15206500Y76862000D01*
G75*
G02*
X15307000Y76761500I0J-100500D01*
G01*
X15307000Y74788500D01*
G75*
G02*
X15206500Y74688000I-100500J0D01*
G01*
G37*
G36*
G01*
X15206500Y79638000D02*
X14603500Y79638000D01*
G75*
G02*
X14503000Y79738500I0J100500D01*
G01*
X14503000Y81711500D01*
G75*
G02*
X14603500Y81812000I100500J0D01*
G01*
X15206500Y81812000D01*
G75*
G02*
X15307000Y81711500I0J-100500D01*
G01*
X15307000Y79738500D01*
G75*
G02*
X15206500Y79638000I-100500J0D01*
G01*
G37*
G36*
G01*
X13936500Y79638000D02*
X13333500Y79638000D01*
G75*
G02*
X13233000Y79738500I0J100500D01*
G01*
X13233000Y81711500D01*
G75*
G02*
X13333500Y81812000I100500J0D01*
G01*
X13936500Y81812000D01*
G75*
G02*
X14037000Y81711500I0J-100500D01*
G01*
X14037000Y79738500D01*
G75*
G02*
X13936500Y79638000I-100500J0D01*
G01*
G37*
G36*
G01*
X12666500Y79638000D02*
X12063500Y79638000D01*
G75*
G02*
X11963000Y79738500I0J100500D01*
G01*
X11963000Y81711500D01*
G75*
G02*
X12063500Y81812000I100500J0D01*
G01*
X12666500Y81812000D01*
G75*
G02*
X12767000Y81711500I0J-100500D01*
G01*
X12767000Y79738500D01*
G75*
G02*
X12666500Y79638000I-100500J0D01*
G01*
G37*
G36*
G01*
X11396500Y79638000D02*
X10793500Y79638000D01*
G75*
G02*
X10693000Y79738500I0J100500D01*
G01*
X10693000Y81711500D01*
G75*
G02*
X10793500Y81812000I100500J0D01*
G01*
X11396500Y81812000D01*
G75*
G02*
X11497000Y81711500I0J-100500D01*
G01*
X11497000Y79738500D01*
G75*
G02*
X11396500Y79638000I-100500J0D01*
G01*
G37*
G04 #@! TD*
G04 #@! TO.C,R3*
G36*
G01*
X22565000Y46280000D02*
X22935000Y46280000D01*
G75*
G02*
X23070000Y46145000I0J-135000D01*
G01*
X23070000Y45875000D01*
G75*
G02*
X22935000Y45740000I-135000J0D01*
G01*
X22565000Y45740000D01*
G75*
G02*
X22430000Y45875000I0J135000D01*
G01*
X22430000Y46145000D01*
G75*
G02*
X22565000Y46280000I135000J0D01*
G01*
G37*
G36*
G01*
X22565000Y45260000D02*
X22935000Y45260000D01*
G75*
G02*
X23070000Y45125000I0J-135000D01*
G01*
X23070000Y44855000D01*
G75*
G02*
X22935000Y44720000I-135000J0D01*
G01*
X22565000Y44720000D01*
G75*
G02*
X22430000Y44855000I0J135000D01*
G01*
X22430000Y45125000D01*
G75*
G02*
X22565000Y45260000I135000J0D01*
G01*
G37*
G04 #@! TD*
G04 #@! TO.C,C1*
G36*
G01*
X87970000Y18580000D02*
X87970000Y18920000D01*
G75*
G02*
X88110000Y19060000I140000J0D01*
G01*
X88390000Y19060000D01*
G75*
G02*
X88530000Y18920000I0J-140000D01*
G01*
X88530000Y18580000D01*
G75*
G02*
X88390000Y18440000I-140000J0D01*
G01*
X88110000Y18440000D01*
G75*
G02*
X87970000Y18580000I0J140000D01*
G01*
G37*
G36*
G01*
X88930000Y18580000D02*
X88930000Y18920000D01*
G75*
G02*
X89070000Y19060000I140000J0D01*
G01*
X89350000Y19060000D01*
G75*
G02*
X89490000Y18920000I0J-140000D01*
G01*
X89490000Y18580000D01*
G75*
G02*
X89350000Y18440000I-140000J0D01*
G01*
X89070000Y18440000D01*
G75*
G02*
X88930000Y18580000I0J140000D01*
G01*
G37*
G04 #@! TD*
G04 #@! TO.C,D6*
G36*
G01*
X17875000Y26900000D02*
X17125000Y26900000D01*
G75*
G02*
X16900000Y27125000I0J225000D01*
G01*
X16900000Y27575000D01*
G75*
G02*
X17125000Y27800000I225000J0D01*
G01*
X17875000Y27800000D01*
G75*
G02*
X18100000Y27575000I0J-225000D01*
G01*
X18100000Y27125000D01*
G75*
G02*
X17875000Y26900000I-225000J0D01*
G01*
G37*
G36*
G01*
X17875000Y30200000D02*
X17125000Y30200000D01*
G75*
G02*
X16900000Y30425000I0J225000D01*
G01*
X16900000Y30875000D01*
G75*
G02*
X17125000Y31100000I225000J0D01*
G01*
X17875000Y31100000D01*
G75*
G02*
X18100000Y30875000I0J-225000D01*
G01*
X18100000Y30425000D01*
G75*
G02*
X17875000Y30200000I-225000J0D01*
G01*
G37*
G04 #@! TD*
D23*
G04 #@! TO.C,M4*
X25624995Y23324999D03*
X25624995Y16925002D03*
X25624995Y15024999D03*
X25624995Y10724999D03*
D10*
X26074994Y8325002D03*
X26074994Y7325001D03*
D23*
X25624995Y4474999D03*
X10124998Y23775001D03*
X10124998Y21925002D03*
X10124998Y16974999D03*
X10124998Y4925001D03*
G04 #@! TD*
G04 #@! TO.C,R10*
G36*
G01*
X27815000Y32530000D02*
X28185000Y32530000D01*
G75*
G02*
X28320000Y32395000I0J-135000D01*
G01*
X28320000Y32125000D01*
G75*
G02*
X28185000Y31990000I-135000J0D01*
G01*
X27815000Y31990000D01*
G75*
G02*
X27680000Y32125000I0J135000D01*
G01*
X27680000Y32395000D01*
G75*
G02*
X27815000Y32530000I135000J0D01*
G01*
G37*
G36*
G01*
X27815000Y31510000D02*
X28185000Y31510000D01*
G75*
G02*
X28320000Y31375000I0J-135000D01*
G01*
X28320000Y31105000D01*
G75*
G02*
X28185000Y30970000I-135000J0D01*
G01*
X27815000Y30970000D01*
G75*
G02*
X27680000Y31105000I0J135000D01*
G01*
X27680000Y31375000D01*
G75*
G02*
X27815000Y31510000I135000J0D01*
G01*
G37*
G04 #@! TD*
M02*
